<svg xmlns="http://www.w3.org/2000/svg" xmlns:xlink="http://www.w3.org/1999/xlink" viewBox="0 0 335.95 333.72"><defs><style>.cls-1{fill:#2e2113;opacity:0.4;}.cls-2{fill:#fff;}.cls-3{fill:url(#radial-gradient);}.cls-4{fill:url(#radial-gradient-2);}.cls-5{fill:#bd3d3a;}</style><radialGradient id="radial-gradient" cx="167.97" cy="161.95" r="143.68" gradientUnits="userSpaceOnUse"><stop offset="0" stop-color="#f03d37"/><stop offset="1" stop-color="#bd3d3a"/></radialGradient><radialGradient id="radial-gradient-2" cx="153.39" cy="223.04" r="120.13" gradientTransform="translate(20.42) scale(0.96 1)" gradientUnits="userSpaceOnUse"><stop offset="0" stop-color="#ffeb18"/><stop offset="1" stop-color="#ffd532"/></radialGradient></defs><title>6spiebe</title><g id="Layer_2" data-name="Layer 2"><g id="Layer_1-2" data-name="Layer 1"><path class="cls-1" d="M335.85,148.84c-.67-5.54-4.74-10.31-11.16-13.08l-19.81-8.55a12.84,12.84,0,0,1-6.57-17.35l9.19-19.52c3-6.33,2.87-12.6-.3-17.19s-9-6.93-16-6.4l-21.51,1.64a12.84,12.84,0,0,1-13.88-12.31l-.94-21.55c-.3-7-3.31-12.49-8.25-15.08s-11.18-2-17.11,1.75L211.26,32.62a12.84,12.84,0,0,1-18-4.45L182.4,9.52c-3.52-6-8.74-9.52-14.32-9.52h0c-5.58,0-10.8,3.46-14.32,9.5L142.87,28.13a12.84,12.84,0,0,1-18,4.43L106.58,21.09c-5.92-3.72-12.16-4.36-17.11-1.77s-8,8.09-8.27,15.07l-1,21.55a12.84,12.84,0,0,1-13.9,12.29L44.82,66.57c-7-.54-12.79,1.78-16,6.38s-3.29,10.86-.33,17.19l9.16,19.54A12.84,12.84,0,0,1,31.1,127l-19.82,8.52C4.85,138.3.78,143.06.1,148.6S2.23,159.75,7.8,164L25,177a12.84,12.84,0,0,1,2.22,18.42L13.62,212.2C9.22,217.63,7.82,223.74,9.8,229s7.07,8.88,14,10L45,242.55a12.84,12.84,0,0,1,10.53,15.28L51.33,279c-1.38,6.86.23,12.92,4.4,16.62s10.38,4.58,17,2.39l20.5-6.74a12.84,12.84,0,0,1,16.42,8.63l6.07,20.71c2,6.71,6.21,11.33,11.63,12.67s11.32-.77,16.19-5.79l15-15.49a12.82,12.82,0,0,1,9.27-4h0a12.83,12.83,0,0,1,9.28,4l15,15.51c3.91,4,8.49,6.21,13,6.21a13.49,13.49,0,0,0,3.23-.39c5.42-1.33,9.67-5.94,11.64-12.65l6.1-20.69a12.84,12.84,0,0,1,16.44-8.61L263,298.13c6.64,2.2,12.85,1.33,17-2.37s5.8-9.76,4.43-16.62L280.22,258a12.84,12.84,0,0,1,10.55-15.26l21.28-3.53c6.9-1.14,12-4.79,14-10s.6-11.33-3.8-16.77l-13.56-16.77a12.84,12.84,0,0,1,2.25-18.42l17.21-13C333.7,160,336.52,154.38,335.85,148.84Z"/><path class="cls-2" d="M158.5,7.37c5.27-9,13.89-9,19.15,0L188.49,26a18.34,18.34,0,0,0,25.69,6.35l18.29-11.45c8.87-5.55,16.49-1.54,16.95,8.91l.94,21.55A18.34,18.34,0,0,0,270.14,69l21.51-1.64c10.43-.79,15.32,6.3,10.87,15.77l-9.19,19.52a18.34,18.34,0,0,0,9.37,24.74l19.81,8.55c9.6,4.14,10.64,12.7,2.29,19l-17.21,13a18.34,18.34,0,0,0-3.21,26.26L318,211c6.58,8.13,3.52,16.19-6.8,17.9l-21.28,3.53a18.35,18.35,0,0,0-15,21.76L279,275.32c2,10.26-4.41,16-14.34,12.69l-20.49-6.77a18.34,18.34,0,0,0-23.44,12.28l-6.1,20.69c-3,10-11.33,12.09-18.6,4.57l-15-15.51a18.34,18.34,0,0,0-26.46,0l-15,15.49c-7.28,7.51-15.65,5.44-18.59-4.6L115,293.44a18.34,18.34,0,0,0-23.42-12.31L71,287.87c-9.94,3.27-16.38-2.45-14.32-12.71L61,254a18.34,18.34,0,0,0-15-21.79l-21.28-3.56c-10.32-1.73-13.37-9.79-6.78-17.91L31.49,194a18.34,18.34,0,0,0-3.17-26.27l-17.19-13c-8.33-6.32-7.29-14.88,2.32-19l19.82-8.52a18.34,18.34,0,0,0,9.4-24.73L33.51,82.9C29.07,73.42,34,66.34,44.4,67.14l21.51,1.67A18.34,18.34,0,0,0,85.73,51.28l1-21.55c.47-10.45,8.1-14.45,17-8.89l18.27,11.47A18.34,18.34,0,0,0,147.62,26Z"/><path class="cls-3" d="M159.56,24.78c4.68-8,12.32-8,17,0l9.63,16.55A16.28,16.28,0,0,0,209,47L225.2,36.82c7.87-4.92,14.64-1.37,15,7.91l.83,19.13a16.27,16.27,0,0,0,17.56,15.58L277.72,78c9.26-.7,13.6,5.59,9.64,14l-8.15,17.32a16.28,16.28,0,0,0,8.31,22l17.58,7.59c8.52,3.68,9.44,11.27,2,16.87l-15.27,11.55a16.28,16.28,0,0,0-2.84,23.3l12,14.88c5.84,7.22,3.12,14.37-6,15.88l-18.88,3.13a16.28,16.28,0,0,0-13.35,19.31l3.74,18.78c1.81,9.1-3.91,14.17-12.73,11.26l-18.18-6a16.28,16.28,0,0,0-20.8,10.9l-5.41,18.36c-2.62,8.9-10.05,10.73-16.5,4.05l-13.31-13.76a16.28,16.28,0,0,0-23.48,0l-13.32,13.75c-6.46,6.66-13.88,4.83-16.5-4.08l-5.39-18.37a16.28,16.28,0,0,0-20.78-10.93l-18.19,6c-8.82,2.9-14.54-2.18-12.71-11.28L73,243.64A16.28,16.28,0,0,0,59.7,224.3l-18.88-3.16c-9.15-1.53-11.86-8.68-6-15.89l12.06-14.87A16.28,16.28,0,0,0,44,167.08L28.8,155.51c-7.39-5.61-6.47-13.2,2.06-16.87l17.59-7.56a16.28,16.28,0,0,0,8.34-21.95L48.66,91.8c-3.94-8.4.41-14.69,9.66-14L77.41,79.3A16.28,16.28,0,0,0,95,63.75l.86-19.12c.42-9.27,7.19-12.82,15.05-7.89l16.21,10.18a16.28,16.28,0,0,0,22.8-5.6Z"/><path class="cls-2" d="M81.36,129c5.95-2.39,9-3.49,15.13-5.45l1.08,29.68c.94,10.38-3.28,23.8-15.81,23.64C71,176.69,65.06,170.37,65,159q-.07-18.49-.14-37c.23-11.79,6.08-22.9,14.43-30.49,10.33-9.39,17.07,4.15,16.49,13l.33,9.08C92,115.2,89.94,116,85.91,117.85l-.31-9.35c-.21-6.23-2.4-7.39-5.67-5.27s-5.22,5.72-5.09,11.39q.49,21.49,1,43c.13,5.69,2.38,7.5,5.89,7.14s5.65-2.82,5.45-9.07l-.53-16.11c-2,.55-3,.83-4.91,1.42Z"/><path class="cls-2" d="M129,175.34c-.69-2.74-1.15-4.39-1.4-13l-.49-16.7c-.29-9.87-2.68-13.24-7.83-12.42-1.56.25-2.35.38-3.9.64q.71,20.82,1.42,41.65l-11.18.12Q103.83,127,102,78.32A123.28,123.28,0,0,1,119.15,71c13.37-4.91,18.63,9.14,18,20.12l.2,8.58c.26,11.23-2,18.87-7,23.13,5.83,2.7,7.91,10.87,8.17,22.26l.38,16.86c.12,5.31.31,9.2,1.52,13.26ZM113.8,87.82l1.07,31.39c1.77-.4,2.66-.6,4.44-1,4.24-.88,6.77-4.05,6.52-12.55l-.31-10.46c-.22-7.58-2.13-10.48-6.21-9.22C117.1,86.7,116,87.06,113.8,87.82Z"/><path class="cls-2" d="M182.72,174.94l-11.3.06c-.77-8.16-1.17-12.24-2-20.4-5.58,0-8.37.06-13.95.2-.69,8.14-1,12.21-1.7,20.32l-10.28.08q4.71-56,10-111.93a124,124,0,0,1,17.73-.76Q177.42,118.68,182.72,174.94ZM156.8,139.55c4.43-.15,6.64-.19,11.07-.22Q165,110.93,162,82.56,159.3,111,156.8,139.55Z"/><path class="cls-2" d="M181.53,63a147,147,0,0,1,36.67,8l-.4,14.86c-4.8-1.48-7.23-2.12-12.13-3.22q-1,46.13-2,92.26l-11.2,0q.7-47.24,1.4-94.49c-5-.74-7.46-1-12.46-1.39C181.47,72.63,181.49,69.43,181.53,63Z"/><path class="cls-2" d="M223.21,72.88a120.43,120.43,0,0,1,11.24,5q-1.5,48.51-3,97l-11.18,0Q221.74,123.89,223.21,72.88Z"/><path class="cls-2" d="M256.5,90.61c8.38,7.59,14.07,18.7,14.35,30.44v2.25c-3.71-2.52-5.6-3.72-9.46-6l.05-3.29c.09-5.68-1.68-9.16-4.95-11.28s-5.32-.78-5.41,5.36c-.27,18.78,19.76,31.09,20,50.1.12,11.31-5.81,17.67-16.58,17.84-12.51.2-16.83-13.15-15.94-23.54l.18-5.75c4.19.72,6.27,1.1,10.41,1.93l-.17,6.25c-.17,6.25,2,8.69,5.5,9s5.89-1.61,5.83-7.15c-.2-18.88-19.39-32.77-19.95-52.93C240.1,95.65,246.11,81.2,256.5,90.61Z"/><rect class="cls-4" x="7.85" y="189.07" width="320.24" height="67.94" rx="30" ry="30"/><path class="cls-2" d="M298.09,259H37.85a32,32,0,0,1-32-32v-7.94a32,32,0,0,1,32-32H298.09a32,32,0,0,1,32,32V227A32,32,0,0,1,298.09,259ZM37.85,191.07a28,28,0,0,0-28,28V227a28,28,0,0,0,28,28H298.09a28,28,0,0,0,28-28v-7.94a28,28,0,0,0-28-28Z"/><path class="cls-5" d="M45.08,204.31a11.22,11.22,0,0,1,3,.36,13,13,0,0,1,2.7,1.12l-1.12,5.14a17.21,17.21,0,0,0-2.21-.83,8.52,8.52,0,0,0-2.31-.28,4.26,4.26,0,0,0-3.78,2.23,12.61,12.61,0,0,0-1.41,6.53,7.3,7.3,0,0,1,2.42-1.72,7.62,7.62,0,0,1,3.09-.6,6.59,6.59,0,0,1,5.9,3.28,15.84,15.84,0,0,1,2.07,8.57,13.49,13.49,0,0,1-2.68,8.67,8.58,8.58,0,0,1-7.06,3.36,9.07,9.07,0,0,1-7.55-3.66q-2.83-3.66-2.83-10.31V219q0-6.91,3.27-10.8A10.61,10.61,0,0,1,45.08,204.31Zm-1.46,17.32a4.93,4.93,0,0,0-2.24.45,3.6,3.6,0,0,0-1.45,1.34v2.82a15.74,15.74,0,0,0,1,6.33q1,2.17,2.74,2.17,1.41,0,2.25-1.91a11.77,11.77,0,0,0,.84-4.71,10.74,10.74,0,0,0-.87-4.71Q45,221.63,43.62,221.63Z"/><path class="cls-5" d="M82.47,230.55a5,5,0,0,0-.95-3.23A10.05,10.05,0,0,0,78.12,225a23.88,23.88,0,0,1-7.84-4.27q-2.55-2.33-2.55-6.76a8.93,8.93,0,0,1,3-7,11.3,11.3,0,0,1,7.79-2.64,10.41,10.41,0,0,1,7.75,3A10.54,10.54,0,0,1,89.2,215H82.52a6.52,6.52,0,0,0-1.05-3.91,3.58,3.58,0,0,0-3.09-1.45,3.63,3.63,0,0,0-2.94,1.22,4.66,4.66,0,0,0-1,3.11,3.71,3.71,0,0,0,1.16,2.83,16.8,16.8,0,0,0,4.1,2.48,17.62,17.62,0,0,1,7.14,4.21,9.88,9.88,0,0,1,2.33,7,9,9,0,0,1-2.82,7.13,11.17,11.17,0,0,1-7.7,2.51,12.5,12.5,0,0,1-8.29-2.87q-3.43-2.87-3.43-8.52h6.7q0,3.33,1.2,4.69a4.84,4.84,0,0,0,3.83,1.36,3.57,3.57,0,0,0,2.93-1.12A4.82,4.82,0,0,0,82.47,230.55Z"/><path class="cls-5" d="M112.36,228.69q0,5.29-2.08,8.36a6.83,6.83,0,0,1-6,3.07,5.6,5.6,0,0,1-2.64-.59,5.43,5.43,0,0,1-1.93-1.76l-.07,0V249.6H93V213.76h6.2l.22,2.32.07,0a6.32,6.32,0,0,1,2-2.09,5.08,5.08,0,0,1,2.76-.73,6.75,6.75,0,0,1,6.07,3.31q2.09,3.31,2.09,8.91Zm-6.65-3.18a13,13,0,0,0-.77-5,2.6,2.6,0,0,0-2.51-1.82,2.73,2.73,0,0,0-1.67.51,3.79,3.79,0,0,0-1.15,1.5v12.35a3,3,0,0,0,1.14,1.22,3.42,3.42,0,0,0,1.73.41,2.55,2.55,0,0,0,2.5-1.57,10.87,10.87,0,0,0,.73-4.46Z"/><path class="cls-5" d="M122.81,207.51h-6.68v-5.19h6.68Zm0,32.13h-6.68V213.76h6.68Z"/><path class="cls-5" d="M136.69,240.12a8.88,8.88,0,0,1-7.2-3.16,12.24,12.24,0,0,1-2.63-8.11v-3.64a14.06,14.06,0,0,1,2.46-8.65,8.29,8.29,0,0,1,7.06-3.29,8.09,8.09,0,0,1,6.78,3q2.33,3,2.33,8.33v4.16h-12v.1a8.43,8.43,0,0,0,.93,4.26,3.22,3.22,0,0,0,3,1.6,10.11,10.11,0,0,0,3.46-.45,10.59,10.59,0,0,0,2.48-1.41l1.34,4.69a8.9,8.9,0,0,1-3.36,1.89A14.9,14.9,0,0,1,136.69,240.12Zm-.31-21.39a2.17,2.17,0,0,0-2.13,1.44,11.55,11.55,0,0,0-.72,4H139v-1a7.4,7.4,0,0,0-.61-3.36A2.09,2.09,0,0,0,136.38,218.73Z"/><path class="cls-5" d="M156.21,239.65h-6.65V213.23q0-5.43,2.6-8.28a9.39,9.39,0,0,1,7.31-2.85,8.71,8.71,0,0,1,6.2,2.26,8.43,8.43,0,0,1,2.42,6.47,11.94,11.94,0,0,1-1,4.8,10.29,10.29,0,0,0-1,4q0,1.29,2.67,4.62a10.77,10.77,0,0,1,2.67,6.77q0,4.69-2.2,6.88t-6.84,2.19a13,13,0,0,1-3-.33,5.66,5.66,0,0,1-2.23-1l1.2-5.36a5.74,5.74,0,0,0,1.69.9,6.84,6.84,0,0,0,2.26.35,2.11,2.11,0,0,0,1.83-.89,4.26,4.26,0,0,0,.63-2.51q0-1.75-2.68-4.86a9.9,9.9,0,0,1-2.68-6.53,11.58,11.58,0,0,1,1-4.61,10.67,10.67,0,0,0,1-4.15,4.27,4.27,0,0,0-.78-2.61,2.23,2.23,0,0,0-1.81-1.05q-1.2,0-1.94,1.54a10,10,0,0,0-.74,4.27Z"/><path class="cls-5" d="M184.23,240.12A8.87,8.87,0,0,1,177,237a12.24,12.24,0,0,1-2.63-8.11v-3.64a14.07,14.07,0,0,1,2.46-8.65,8.29,8.29,0,0,1,7.06-3.29,8.09,8.09,0,0,1,6.78,3q2.33,3,2.33,8.33v4.16h-12v.1a8.43,8.43,0,0,0,.93,4.26,3.22,3.22,0,0,0,3,1.6,10.11,10.11,0,0,0,3.46-.45,10.59,10.59,0,0,0,2.48-1.41l1.34,4.69a8.9,8.9,0,0,1-3.36,1.89A14.91,14.91,0,0,1,184.23,240.12Zm-.31-21.39a2.17,2.17,0,0,0-2.13,1.44,11.56,11.56,0,0,0-.72,4h5.46v-1a7.4,7.4,0,0,0-.61-3.36A2.09,2.09,0,0,0,183.92,218.73Z"/><path class="cls-5" d="M206.05,226.85q0-6.22,2.11-9.89a6.65,6.65,0,0,1,6.08-3.67,4.79,4.79,0,0,1,2.51.66,6.51,6.51,0,0,1,2,1.88l.07,0V202.32h6.7v37.32h-5.79l-.43-2.66h-.07a7,7,0,0,1-2.15,2.34,5.12,5.12,0,0,1-2.85.79,6.68,6.68,0,0,1-6-3.43q-2.09-3.43-2.09-9.34Zm6.65.5a16,16,0,0,0,.72,5.43,2.56,2.56,0,0,0,2.51,1.89,3.09,3.09,0,0,0,1.64-.43,3.54,3.54,0,0,0,1.21-1.32V220.84a4.78,4.78,0,0,0-1.22-1.56,2.48,2.48,0,0,0-1.58-.55q-1.79,0-2.54,2.18a19,19,0,0,0-.74,5.93Z"/><path class="cls-5" d="M241.72,239.65q-.26-.67-.47-1.39a15.45,15.45,0,0,1-.35-1.53,8.06,8.06,0,0,1-2.17,2.48,4.86,4.86,0,0,1-3,.92,6.24,6.24,0,0,1-4.93-2.06,8.23,8.23,0,0,1-1.82-5.65,7.63,7.63,0,0,1,2.27-6q2.27-2.06,7-2.06h2.34V222.3a5.88,5.88,0,0,0-.59-2.92,2,2,0,0,0-1.83-1,1.68,1.68,0,0,0-1.55.79,4.65,4.65,0,0,0-.48,2.37H229.5a7.81,7.81,0,0,1,2.46-5.91,9.29,9.29,0,0,1,6.68-2.34,8.63,8.63,0,0,1,6.29,2.31q2.37,2.31,2.37,6.76v10.48a23,23,0,0,0,.25,3.53,20.76,20.76,0,0,0,.8,3.29Zm-4-4.62a2.93,2.93,0,0,0,1.66-.5,3.91,3.91,0,0,0,1.23-1.34v-4.88h-2.34a2.1,2.1,0,0,0-2,1.05,5.64,5.64,0,0,0-.59,2.75,3.74,3.74,0,0,0,.54,2.12A1.71,1.71,0,0,0,237.73,235Z"/><path class="cls-5" d="M258.54,234.21H268v5.43H251v-4l9.35-16.39h-9.09v-5.46h16.72v3.95Z"/><path class="cls-5" d="M284.36,236.8l-.07,0a7.32,7.32,0,0,1-2.36,2.49,5.85,5.85,0,0,1-3.17.86,6,6,0,0,1-5.18-2.56q-1.83-2.56-1.83-8.16V213.76h6.67v15.7a9.89,9.89,0,0,0,.59,4,1.93,1.93,0,0,0,1.83,1.21,3.89,3.89,0,0,0,1.78-.38,3.56,3.56,0,0,0,1.3-1.17V213.76h6.65v25.89h-5.84Z"/><path class="cls-5" d="M302,227.54h-6.7V204.81H302Zm-.07,12.11h-6.56v-6.17h6.56Z"/></g></g></svg>