<?xml version="1.0" encoding="utf-8"?>
<!-- Generator: Adobe Illustrator 25.0.1, SVG Export Plug-In . SVG Version: 6.00 Build 0)  -->
<svg version="1.1" id="Слой_1" xmlns="http://www.w3.org/2000/svg" xmlns:xlink="http://www.w3.org/1999/xlink" x="0px" y="0px"
	 viewBox="0 0 445.1 86" style="enable-background:new 0 0 445.1 86;" xml:space="preserve">
<style type="text/css">
	.st0{fill-rule:evenodd;clip-rule:evenodd;fill:#232F3E;}
</style>
<g>
	<g>
		<g id="Symbols_1_">
			<g id="amazonpay-logo-rgb_clr_1_">
				<path id="Shape_11_" class="st0" d="M34.9,49.8c-0.6,0.5-1.4,0.6-2.1,0.2c-2.9-2.5-3.5-3.5-5-5.9c-4.9,5-8.3,6.4-14.5,6.4
					C5.8,50.6,0,46,0,36.8c0-7.2,3.9-12,9.4-14.4c4.8-2.1,11.5-2.5,16.6-3v-1.1c0-2.1,0.2-4.6-1.1-6.4c-1.1-1.6-3.1-2.3-5-2.3
					c-3.4,0-6.4,1.7-7.1,5.3c-0.1,0.8-0.7,1.5-1.5,1.6l-8.5-0.9c-0.4,0-0.8-0.3-1-0.6s-0.4-0.8-0.3-1.2C3.4,3.4,12.8,0.3,21.2,0.3
					c4.3,0,9.9,1.1,13.3,4.4c4.3,4,3.9,9.4,3.9,15.2v13.7c0,4.1,1.7,6,3.3,8.2c0.5,0.8,0.7,1.8,0,2.4c-1.8,1.5-5,4.3-6.8,5.9l0,0
					V49.8z M26,28.3c0,3.5,0.1,6.3-1.6,9.4c-1.4,2.5-3.6,4-6.1,4c-3.4,0-5.4-2.6-5.4-6.4c0-7.5,6.7-8.9,13.1-8.9L26,28.3L26,28.3z"
					/>
				<path id="Path_7_" class="st0" d="M59,49.5h-8.8c-0.8,0-1.5-0.7-1.5-1.5V2.7c0-0.9,0.8-1.6,1.7-1.6h8.2c0.9,0,1.5,0.7,1.5,1.5
					v5.9h0.2c2.1-5.7,6.2-8.4,11.6-8.4c5.5,0,9,2.7,11.5,8.4c1.6-4.4,5.5-7.6,10.2-8.3c4.7-0.7,9.3,1.1,12.2,4.8
					c2.8,3.8,2.2,9.4,2.2,14.2v28.6c0,0.5-0.2,0.9-0.5,1.2c-0.3,0.3-0.7,0.5-1.2,0.5h-8.8c-0.9,0-1.5-0.8-1.5-1.6v-24
					c0-1.9,0.2-6.7-0.2-8.5c-0.6-3-2.6-3.9-5.2-3.9c-2.4,0.1-4.4,1.5-5.3,3.7c-0.9,2.3-0.8,6.1-0.8,8.7v24c0,0.5-0.2,0.9-0.5,1.2
					c-0.3,0.3-0.7,0.5-1.2,0.5H74c-0.9,0-1.5-0.8-1.5-1.6v-24c0-5,0.8-12.5-5.5-12.5c-6.3,0-6.1,7.2-6.1,12.5v24
					c0,0.5-0.2,0.9-0.5,1.2C59.9,49.3,59.5,49.5,59,49.5"/>
				<path id="Shape_10_" class="st0" d="M157.4,41.6c-1.6-2.2-3.3-4-3.3-8.2V19.6c0-5.8,0.4-11.2-3.9-15.2c-3.4-3.3-9-4.4-13.3-4.4
					c-8.4,0-17.8,3.1-19.7,13.5c-0.1,0.4,0,0.9,0.3,1.2c0.3,0.4,0.6,0.6,1,0.6l8.5,0.9c0.8-0.1,1.5-0.8,1.5-1.6
					c0.7-3.6,3.7-5.3,7.1-5.3c1.8,0,3.9,0.7,5,2.3c1.2,1.8,1.1,4.3,1.1,6.4v1.1c-5.1,0.6-11.8,1-16.6,3c-5.5,2.4-9.4,7.3-9.4,14.4
					c0,9.2,5.8,13.8,13.2,13.8c6.3,0,9.7-1.5,14.5-6.4c1.6,2.4,2.1,3.5,5,5.9c0.7,0.4,1.5,0.3,2.1-0.2l0,0c1.8-1.5,5-4.4,6.8-5.9
					C158.1,43.4,158,42.4,157.4,41.6z M140,37.6c-1.4,2.5-3.6,4-6.1,4c-3.4,0-5.4-2.6-5.4-6.4c0-7.5,6.7-8.9,13.1-8.9v1.9
					C141.7,31.7,141.7,34.6,140,37.6z"/>
				<path id="Path_6_" class="st0" d="M164.8,9V2.5c0-0.5,0.1-0.9,0.5-1.2s0.7-0.5,1.2-0.5h29c0.5,0,0.9,0.1,1.2,0.5
					c0.3,0.3,0.5,0.7,0.5,1.2V8c0,0.9-0.8,2.1-2.2,4.1l-15,21.4c5.6-0.1,11.5,0.7,16.5,3.5c1,0.5,1.5,1.5,1.5,2.5v7c0,1-1,2-2.1,1.5
					c-9.6-5-21-4.9-30.6,0c-1,0.5-2-0.5-2-1.5v-6.6c-0.1-1.5,0.3-3.1,1.1-4.5l17.4-25h-15.2c-0.5,0-0.9-0.1-1.2-0.5
					C165,9.9,164.8,9.4,164.8,9"/>
				<path id="Shape_9_" class="st0" d="M222.2,9.3c-6.5,0-6.9,8.9-6.9,14.4s-0.1,17.4,6.8,17.4c6.9,0,7.2-9.5,7.2-15.4
					c0-3.8-0.2-8.4-1.3-12C226.9,10.6,225,9.3,222.2,9.3z M222.1,0.1c13.1,0,20.2,11.3,20.2,25.5c0,13.8-7.8,24.8-20.2,24.8
					c-12.9,0-19.9-11.3-19.9-25.3S209.4,0.1,222.1,0.1z"/>
				<path id="Path_5_" class="st0" d="M259.3,49.4h-8.8c-0.9,0-1.5-0.8-1.5-1.6V2.5c0.1-0.9,0.8-1.5,1.7-1.5h8.2
					c0.7,0,1.4,0.5,1.5,1.3v6.9h0.2C263,3,266.5,0,272.6,0c4,0,7.8,1.4,10.3,5.3c2.3,3.6,2.3,9.7,2.3,14.1v28.5
					c-0.1,0.8-0.9,1.5-1.7,1.4h-8.9c-0.8,0-1.5-0.6-1.5-1.4V23.3c0-5,0.6-12.2-5.5-12.2c-2.3,0.1-4.3,1.5-5.1,3.6
					c-1.2,2.8-1.4,5.5-1.4,8.6v24.4C261.1,48.7,260.3,49.4,259.3,49.4"/>
				<path id="Shape_8_" class="st0" d="M176.8,67.2C160.2,79.4,136.1,86,115.5,86c-27.6,0.1-54.3-10-74.8-28.5
					c-1.5-1.4-0.2-3.3,1.7-2.2C63.7,67.6,90,75.1,117.2,75.1c19.6-0.1,39-4.1,57.1-11.7C177.2,62.2,179.5,65.2,176.8,67.2
					 M183.7,59.4c2.1,2.7-2.4,13.9-4.4,18.9c-0.6,1.5,0.7,2.1,2,1c8.9-7.5,11.2-23,9.4-25.3c-1.8-2.3-17.4-4.1-26.8,2.5
					c-1.5,1-1.2,2.5,0.4,2.2C169.7,58.1,181.6,56.7,183.7,59.4"/>
			</g>
		</g>
	</g>
	<g>
		<path id="Shape_7_" class="st0" d="M327.5,7.6c-4.5,0-8.8,1.5-12.4,4.3v25.8c4,3,8,4.5,12.2,4.5c8.5,0,12.8-5.7,12.8-17.2
			S335.9,7.7,327.5,7.6L327.5,7.6z M314.5,6.5c2.2-2,4.8-3.5,7.5-4.6c2.6-1,5.4-1.5,8.1-1.5c2.8,0,5.5,0.5,8,1.6
			c2.4,1.1,4.5,2.7,6.1,4.8c1.8,2.3,3.1,4.9,3.9,7.7c1,3.3,1.4,6.7,1.4,10.1c0,3.5-0.5,7-1.5,10.4c-0.8,2.9-2.2,5.5-4,7.9
			c-1.7,2.1-3.9,3.9-6.3,5c-2.6,1.2-5.4,1.8-8.2,1.7c-5.3,0.1-10.5-1.9-14.3-5.5v21.7c0.1,0.5-0.1,1-0.5,1.4
			c-0.4,0.4-0.9,0.5-1.4,0.5h-5.5c-0.5,0.1-1-0.1-1.4-0.5c-0.4-0.4-0.5-0.9-0.5-1.4V3.5c-0.1-0.5,0.1-1,0.5-1.4
			c0.4-0.4,0.9-0.5,1.4-0.5h4.1c0.5,0,1,0.1,1.5,0.5c0.4,0.4,0.6,0.9,0.7,1.4L314.5,6.5L314.5,6.5z"/>
		<path id="Shape_6_" class="st0" d="M372.5,42.8c2.2,0,4.3-0.5,6.4-1.2c2.3-0.9,4.5-2,6.4-3.5v-9.5c-1.6-0.4-3.2-0.7-4.9-0.9
			c-1.6-0.2-3.3-0.3-5-0.3c-7,0-10.5,2.7-10.5,8c0,2.4,0.6,4.1,2,5.4C368.3,42.2,370.1,42.9,372.5,42.8z M361.7,9.7L361,9.9
			c-0.3,0.1-0.5,0.1-0.8,0.1c-0.8,0-1.2-0.5-1.2-1.7V5.9c0-0.6,0.1-1.3,0.4-1.8c0.4-0.5,0.9-0.8,1.5-1c2.4-1,4.8-1.6,7.3-2
			c2.9-0.5,5.8-0.8,8.7-0.8c5.9,0,10.2,1.2,13,3.6c2.8,2.4,4.2,6.1,4.2,11.2v31.6c0.1,0.5-0.1,1-0.5,1.4c-0.4,0.4-0.9,0.5-1.4,0.5
			h-4c-0.5,0-1-0.1-1.4-0.5c-0.4-0.3-0.6-0.8-0.6-1.3l-0.5-3c-2.2,1.9-4.7,3.4-7.4,4.5c-2.5,1-5.3,1.5-8,1.5c-4.5,0-8-1.3-10.5-3.8
			c-2.6-2.5-3.9-5.9-3.9-10c0-4.5,1.6-8.1,4.8-10.8c3.2-2.7,7.5-4,13-4c4,0,7.9,0.6,11.6,1.5v-6.1c0-3.3-0.7-5.7-2.2-7
			c-1.5-1.4-4.1-2-7.8-2C370.7,7.6,366.1,8.4,361.7,9.7z"/>
		<path id="Path_4_" class="st0" d="M424.1,56.8c-1.7,4.3-3.6,7.3-5.8,9.2c-2.2,1.9-5,2.8-8.6,2.8c-1.8,0-3.5-0.2-5.3-0.6
			c-0.6-0.1-1.1-0.5-1.5-0.9c-0.4-0.5-0.5-1.2-0.5-1.9v-2.4c0-1.2,0.5-1.8,1.4-1.8c0.5,0,1,0.1,1.4,0.2c0.8,0.1,1.6,0.2,2.5,0.2
			c2,0.1,3.9-0.5,5.5-1.7c1.3-1.1,2.5-3.1,3.5-6.1l1.8-4.7L400.7,5c-0.3-0.7-0.5-1.5-0.6-2.2c0-0.7,0.4-1.1,1.3-1.1h5.5
			c0.7-0.1,1.4,0.1,2,0.5c0.5,0.6,0.9,1.3,1.1,2L423,40l12.5-35.9c0.2-0.8,0.6-1.5,1.1-2c0.6-0.4,1.3-0.5,2-0.5h5.2
			c0.9,0,1.3,0.4,1.3,1.1c-0.1,0.8-0.3,1.5-0.6,2.2L424.1,56.8"/>
	</g>
</g>
</svg>
