<?xml version="1.0" encoding="utf-8"?>
<!-- Generator: Adobe Illustrator 21.0.2, SVG Export Plug-In . SVG Version: 6.00 Build 0)  -->
<svg version="1.1"
	 id="svg2" inkscape:version="0.48.0 r9654" sodipodi:docname="app_store_badge2.svg" xmlns:cc="http://creativecommons.org/ns#" xmlns:dc="http://purl.org/dc/elements/1.1/" xmlns:inkscape="http://www.inkscape.org/namespaces/inkscape" xmlns:rdf="http://www.w3.org/1999/02/22-rdf-syntax-ns#" xmlns:sodipodi="http://sodipodi.sourceforge.net/DTD/sodipodi-0.dtd" xmlns:svg="http://www.w3.org/2000/svg"
	 xmlns="http://www.w3.org/2000/svg" xmlns:xlink="http://www.w3.org/1999/xlink" x="0px" y="0px" viewBox="0 0 6144 2016"
	 style="enable-background:new 0 0 6144 2016;" xml:space="preserve">
<style type="text/css">
	.st0{fill:#FFFFFF;}
</style>
<sodipodi:namedview  bordercolor="#666666" borderopacity="1" gridtolerance="10" guidetolerance="10" id="namedview105" inkscape:current-layer="svg2" inkscape:cx="158.34005" inkscape:cy="115.90266" inkscape:pageopacity="0" inkscape:pageshadow="2" inkscape:window-height="862" inkscape:window-maximized="0" inkscape:window-width="1144" inkscape:window-x="747" inkscape:window-y="87" inkscape:zoom="1.4059272" objecttolerance="10" pagecolor="#ffffff" showgrid="false">
	</sodipodi:namedview>
<path id="path6" d="M6140.9,1737.3c0,149.8-121.5,271.3-271.3,271.3H274.4c-149.8,0-271.3-121.5-271.3-271.3V272.2
	C3.1,122.4,124.6,0.9,274.4,0.9h5595.2c149.8,0,271.3,121.5,271.3,271.3L6140.9,1737.3L6140.9,1737.3z"/>
<g id="g3447" transform="matrix(4.5575069,0,0,4.5575069,-19.224881,-4.506577)">
	<g id="g3449">
		<path id="path3451" inkscape:connector-curvature="0" class="st0" d="M315.8,226.7c-0.3-38.7,31.7-57.5,33.1-58.4
			c-18.1-26.4-46.2-30-56.1-30.3c-23.6-2.5-46.5,14.1-58.5,14.1c-12.3,0-30.8-13.9-50.7-13.5c-25.7,0.4-49.7,15.3-62.9,38.4
			c-27.2,47.1-6.9,116.3,19.1,154.3c13,18.6,28.3,39.4,48.2,38.7c19.5-0.8,26.8-12.4,50.3-12.4c23.3,0,30.2,12.4,50.5,12
			c20.9-0.3,34.1-18.7,46.7-37.5c15.1-21.4,21.1-42.4,21.3-43.5C356.4,288.4,316.2,273.1,315.8,226.7L315.8,226.7z"/>
		<path id="path3453" inkscape:connector-curvature="0" class="st0" d="M277.4,113c10.5-13.1,17.7-31,15.7-49.1
			c-15.2,0.7-34.2,10.5-45.1,23.3c-9.7,11.3-18.3,29.8-16.1,47.3C249,135.8,266.5,125.9,277.4,113L277.4,113z"/>
	</g>
</g>
<g id="g3455" transform="matrix(3.8274018,0,0,3.8274018,-9.6973212,-7.8135619)">
	<path id="path3457" inkscape:connector-curvature="0" class="st0" d="M616.7,355.8h-27.3l-14.9-46.9h-51.9l-14.2,46.9h-26.5
		l51.4-159.7H565L616.7,355.8L616.7,355.8z M570,289.2l-13.5-41.7c-1.4-4.3-4.1-14.3-8.1-30.1H548c-1.6,6.8-4.1,16.8-7.6,30.1
		l-13.3,41.7H570L570,289.2z"/>
	<path id="path3459" inkscape:connector-curvature="0" class="st0" d="M748.9,296.8c0,19.6-5.3,35.1-15.9,46.4
		c-9.5,10.1-21.3,15.2-35.3,15.2c-15.2,0-26.1-5.4-32.7-16.3h-0.5v60.7h-25.6V278.6c0-12.3-0.3-24.9-0.9-37.9h22.5l1.4,18.3h0.5
		c8.5-13.8,21.5-20.6,38.9-20.6c13.6,0,24.9,5.4,34,16.1C744.4,265.2,748.9,279.3,748.9,296.8L748.9,296.8z M722.8,297.8
		c0-11.2-2.5-20.4-7.6-27.7c-5.5-7.6-13-11.4-22.3-11.4c-6.3,0-12,2.1-17.2,6.3c-5.1,4.2-8.5,9.7-10.1,16.5
		c-0.8,3.2-1.2,5.8-1.2,7.8v19.2c0,8.4,2.6,15.4,7.7,21.2c5.1,5.8,11.8,8.7,20,8.7c9.6,0,17.1-3.7,22.5-11.1
		C720.1,319.7,722.8,309.9,722.8,297.8L722.8,297.8z"/>
	<path id="path3461" inkscape:connector-curvature="0" class="st0" d="M881.3,296.8c0,19.6-5.3,35.1-15.9,46.4
		c-9.5,10.1-21.2,15.2-35.3,15.2c-15.2,0-26.1-5.4-32.7-16.3H797v60.7h-25.6V278.6c0-12.3-0.3-24.9-0.9-37.9H793l1.4,18.3h0.5
		c8.5-13.8,21.5-20.6,38.9-20.6c13.6,0,24.9,5.4,34,16.1C876.8,265.2,881.3,279.3,881.3,296.8L881.3,296.8z M855.3,297.8
		c0-11.2-2.5-20.4-7.6-27.7c-5.5-7.6-12.9-11.4-22.3-11.4c-6.3,0-12,2.1-17.2,6.3c-5.1,4.2-8.5,9.7-10.1,16.5
		c-0.8,3.2-1.2,5.8-1.2,7.8v19.2c0,8.4,2.6,15.4,7.7,21.2c5.1,5.8,11.8,8.7,20,8.7c9.6,0,17.1-3.7,22.5-11.1
		C852.6,319.7,855.3,309.9,855.3,297.8L855.3,297.8z"/>
	<path id="path3463" inkscape:connector-curvature="0" class="st0" d="M1029.4,311c0,13.6-4.7,24.6-14.2,33.2
		c-10.4,9.3-24.9,14-43.5,14c-17.2,0-31-3.3-41.4-9.9l5.9-21.3c11.2,6.8,23.6,10.2,37,10.2c9.6,0,17.1-2.2,22.5-6.5
		c5.4-4.3,8-10.2,8-17.4c0-6.5-2.2-11.9-6.6-16.4c-4.4-4.4-11.8-8.5-22-12.3c-28-10.4-41.9-25.7-41.9-45.8
		c0-13.1,4.9-23.9,14.7-32.3c9.8-8.4,22.8-12.6,39.1-12.6c14.5,0,26.6,2.5,36.2,7.6l-6.4,20.9c-9-4.9-19.2-7.3-30.6-7.3
		c-9,0-16,2.2-21.1,6.6c-4.3,3.9-6.4,8.8-6.4,14.5c0,6.3,2.4,11.5,7.3,15.6c4.3,3.8,12,7.9,23.2,12.3c13.7,5.5,23.8,12,30.3,19.4
		C1026.2,290.7,1029.4,300,1029.4,311L1029.4,311z"/>
	<path id="path3465" inkscape:connector-curvature="0" class="st0" d="M1114,259.9h-28.2v55.9c0,14.2,5,21.3,14.9,21.3
		c4.6,0,8.4-0.4,11.4-1.2l0.7,19.4c-5,1.9-11.7,2.8-19.9,2.8c-10.1,0-18-3.1-23.7-9.2c-5.7-6.2-8.5-16.5-8.5-31v-58h-16.8v-19.2
		h16.8v-21.1l25.1-7.6v28.7h28.2L1114,259.9L1114,259.9z"/>
	<path id="path3467" inkscape:connector-curvature="0" class="st0" d="M1241.2,297.3c0,17.7-5.1,32.2-15.2,43.6
		c-10.6,11.7-24.7,17.5-42.2,17.5c-16.9,0-30.3-5.6-40.4-16.8s-15-25.4-15-42.4c0-17.8,5.2-32.5,15.5-43.8
		c10.3-11.4,24.3-17.1,41.8-17.1c16.9,0,30.5,5.6,40.8,16.8C1236.3,266,1241.2,280.1,1241.2,297.3L1241.2,297.3z M1214.7,298.1
		c0-10.6-2.3-19.7-6.9-27.3c-5.4-9.2-13-13.8-23-13.8c-10.3,0-18.1,4.6-23.5,13.8c-4.6,7.6-6.9,16.9-6.9,27.8
		c0,10.6,2.3,19.7,6.9,27.3c5.5,9.2,13.3,13.8,23.2,13.8c9.8,0,17.4-4.7,23-14C1212.3,317.9,1214.7,308.7,1214.7,298.1L1214.7,298.1
		z"/>
	<path id="path3469" inkscape:connector-curvature="0" class="st0" d="M1324.4,263.2c-2.5-0.5-5.2-0.7-8.1-0.7
		c-9,0-16,3.4-20.9,10.2c-4.3,6-6.4,13.6-6.4,22.7v60.4h-25.6l0.2-78.9c0-13.3-0.3-25.4-1-36.3h22.3l0.9,22h0.7
		c2.7-7.6,7-13.7,12.8-18.2c5.7-4.1,11.9-6.2,18.5-6.2c2.4,0,4.5,0.2,6.4,0.5V263.2L1324.4,263.2z"/>
	<path id="path3471" inkscape:connector-curvature="0" class="st0" d="M1438.8,292.8c0,4.6-0.3,8.4-0.9,11.6h-76.8
		c0.3,11.4,4,20.1,11.1,26.1c6.5,5.4,14.8,8.1,25.1,8.1c11.4,0,21.7-1.8,31.1-5.4l4,17.8c-10.9,4.8-23.8,7.1-38.6,7.1
		c-17.9,0-31.9-5.3-42.1-15.8c-10.2-10.5-15.3-24.6-15.3-42.3c0-17.4,4.7-31.8,14.2-43.4c9.9-12.3,23.4-18.5,40.3-18.5
		c16.6,0,29.2,6.2,37.7,18.5C1435.4,266.3,1438.8,278.4,1438.8,292.8L1438.8,292.8z M1414.4,286.2c0.2-7.6-1.5-14.1-5-19.7
		c-4.4-7.1-11.2-10.7-20.4-10.7c-8.4,0-15.2,3.5-20.4,10.4c-4.3,5.5-6.8,12.2-7.6,19.9L1414.4,286.2L1414.4,286.2z"/>
</g>
</svg>
