<?xml version="1.0" encoding="utf-8"?>
<!-- Generator: Adobe Illustrator 24.1.0, SVG Export Plug-In . SVG Version: 6.00 Build 0)  -->
<svg version="1.1" id="Слой_1" xmlns="http://www.w3.org/2000/svg" xmlns:xlink="http://www.w3.org/1999/xlink" x="0px" y="0px"
	 viewBox="0 0 1000 500" style="enable-background:new 0 0 1000 500;" xml:space="preserve">
<path id="XMLID_34_" d="M269.8,143.5c-8.4,9.9-21.8,17.8-35.3,16.7c-1.7-13.4,4.9-27.7,12.6-36.5c8.4-10.2,23.1-17.5,35-18.1
	C283.5,119.5,278,133.2,269.8,143.5 M281.9,162.8c-19.5-1.1-36.1,11.1-45.4,11.1c-9.4,0-23.5-10.5-38.9-10.2
	c-20,0.3-38.6,11.6-48.9,29.7c-21,36.1-5.5,89.6,14.8,119c9.9,14.6,21.8,30.5,37.5,30c14.8-0.6,20.7-9.7,38.6-9.7
	c18.1,0,23.2,9.7,38.9,9.4c16.2-0.3,26.5-14.6,36.4-29.1c11.3-16.5,16-32.6,16.2-33.5c-0.3-0.3-31.4-12.2-31.6-48
	c-0.3-30,24.5-44.2,25.6-45.1C311.3,165.6,289.5,163.3,281.9,162.8 M394.4,122.2v218.2h33.9v-74.6h46.9c42.8,0,72.9-29.4,72.9-72
	s-29.5-71.7-71.8-71.7L394.4,122.2L394.4,122.2z M428.2,150.7h39.1c29.4,0,46.2,15.7,46.2,43.3s-16.8,43.4-46.3,43.4h-38.9V150.7z
	 M609.9,342.1c21.3,0,41-10.8,50-27.9h0.7v26.2H692V231.8c0-31.5-25.2-51.8-64-51.8c-36,0-62.6,20.6-63.6,48.9H595
	c2.5-13.4,15-22.3,32.1-22.3c20.7,0,32.3,9.7,32.3,27.4v12l-42.3,2.5c-39.3,2.4-60.6,18.5-60.6,46.5
	C556.5,323.3,578.4,342.1,609.9,342.1z M619,316.2c-18.1,0-29.5-8.7-29.5-22c0-13.7,11.1-21.7,32.2-23l37.7-2.4v12.3
	C659.4,301.6,642,316.2,619,316.2z M733.8,399.8c33,0,48.6-12.6,62.2-50.8l59.5-166.9H821L781.1,311h-0.7l-39.9-128.9h-35.4
	L762.5,341l-3.1,9.7c-5.2,16.4-13.6,22.7-28.6,22.7c-2.7,0-7.8-0.3-9.9-0.6v26.2C722.9,399.5,731.3,399.8,733.8,399.8z"/>
</svg>
