<svg xmlns="http://www.w3.org/2000/svg" viewBox="0 0 540.35 540.01"><defs><style>.cls-1{fill:#fff;}.cls-2{fill:#7cbc4e;}.cls-3{fill:#77a952;}.cls-4{fill:#ff4440;}.cls-5{fill:#ea2f2f;}</style></defs><title>Asset 5</title><g id="Layer_2" data-name="Layer 2"><g id="Layer_1-2" data-name="Layer 1"><path class="cls-1" d="M510.93,105.59H493.4a50.32,50.32,0,0,0,.88-37.53l-13-35A50.91,50.91,0,0,0,433.72,0h0A50.24,50.24,0,0,0,412,4.91L311.86,52.47a37.24,37.24,0,0,0-18.5-4.95H247a37.24,37.24,0,0,0-18.5,4.95L128.33,4.91A50.25,50.25,0,0,0,106.62,0,50.91,50.91,0,0,0,59.09,33l-13,35a50.32,50.32,0,0,0,.88,37.53H29.4A29.44,29.44,0,0,0,0,135v78.78a29.44,29.44,0,0,0,29.4,29.4h7.82v263.7A33.16,33.16,0,0,0,70.35,540H470a33.17,33.17,0,0,0,33.13-33.13V243.18h7.82a29.44,29.44,0,0,0,29.42-29.4V135A29.44,29.44,0,0,0,510.93,105.59Z"/><path class="cls-2" d="M470,525.83H70.35a19,19,0,0,1-19-19V201.29H488.94V506.88A19,19,0,0,1,470,525.83Z"/><path class="cls-3" d="M51.4,201.29H488.94v63.59H51.4Z"/><path class="cls-2" d="M526.17,135v78.78A15.24,15.24,0,0,1,510.93,229H29.4a15.23,15.23,0,0,1-15.23-15.23V135A15.23,15.23,0,0,1,29.4,119.77H510.93A15.24,15.24,0,0,1,526.17,135Z"/><path class="cls-3" d="M252.77,156q-5,5.81-9.77,11.77A441.72,441.72,0,0,0,210.46,214q-4.53,7.41-8.76,15H97.86q9.1-20.65,19.93-40.48a535.69,535.69,0,0,1,44.65-68.76q6-7.81,12.23-15.42c2.5-3.05,5-6.07,7.62-9.07l28.43,24.48,4.4,3.79q16.78,14.45,33.56,28.91C250,153.63,251.4,154.81,252.77,156Z"/><path class="cls-3" d="M407.7,229H303.85q-4.22-7.57-8.76-15a443.48,443.48,0,0,0-32.54-46.29q-4.79-6-9.79-11.77l4.1-3.52,33.57-28.91,4.41-3.79,28.43-24.48q3.87,4.49,7.62,9.06,6.28,7.61,12.23,15.43a536.58,536.58,0,0,1,44.66,68.76Q398.59,208.33,407.7,229Z"/><path class="cls-4" d="M270.17,156q-5,5.8-9.77,11.76a444.33,444.33,0,0,0-93.13,213.7,446.79,446.79,0,0,1-36.12-56.36A469.26,469.26,0,0,0,75.2,368,537.34,537.34,0,0,1,192.06,104.35c2.5-3.05,5-6.06,7.62-9.07l32.83,28.28,33.56,28.91C267.43,153.63,268.79,154.82,270.17,156Z"/><path class="cls-4" d="M465.13,368a469.26,469.26,0,0,0-55.93-42.88,446.79,446.79,0,0,1-36.12,56.36A444.16,444.16,0,0,0,312.49,214a443.11,443.11,0,0,0-32.54-46.29q-4.79-6-9.78-11.76l4.1-3.52q16.79-14.47,33.57-28.91l32.83-28.28q3.87,4.49,7.62,9.06a536.11,536.11,0,0,1,56.89,84.18A537.45,537.45,0,0,1,465.13,368Z"/><path class="cls-4" d="M229.41,156h81.53v73H229.41Z"/><path class="cls-5" d="M405.17,188.53,312.49,214a443.11,443.11,0,0,0-32.54-46.29l-5.68-15.29-4.1-11,37.67-17.88,40.45-19.22A536.11,536.11,0,0,1,405.17,188.53Z"/><path class="cls-5" d="M270.17,141.45l-4.1,11-5.68,15.29A442,442,0,0,0,227.85,214l-92.67-25.52a536.07,536.07,0,0,1,56.88-84.18l40.45,19.21Z"/><path class="cls-4" d="M418.09,17.72,270.17,88l28.41,76.42,157.88-43.46A36.51,36.51,0,0,0,481,73L468,38A36.5,36.5,0,0,0,418.09,17.72Z"/><path class="cls-4" d="M122.25,17.72,270.17,88l-28.41,76.42L83.88,120.92A36.51,36.51,0,0,1,59.35,73l13-35A36.5,36.5,0,0,1,122.25,17.72Z"/><path class="cls-5" d="M305.49,118.67a8.15,8.15,0,0,1-4.4-15,400.69,400.69,0,0,1,58.35-30c44.09-17.84,73.54-16.88,87.51,2.84a8.15,8.15,0,1,1-13.3,9.43C414.7,59.15,336,100.72,309.87,117.39A8.12,8.12,0,0,1,305.49,118.67Z"/><path class="cls-5" d="M234,118.67a8.12,8.12,0,0,1-4.38-1.28C203.57,100.72,124.83,59.15,105.9,85.88a8.15,8.15,0,1,1-13.3-9.43c14-19.72,43.41-20.68,87.51-2.84a400.25,400.25,0,0,1,58.35,30,8.15,8.15,0,0,1-4.4,15Z"/><path class="cls-5" d="M293.36,61.7H247a23,23,0,0,0-23,23v67.39a23,23,0,0,0,23,23h46.39a23,23,0,0,0,23-23V84.69A23,23,0,0,0,293.36,61.7Z"/><path class="cls-4" d="M229.41,229h81.53V525.83H229.41Z"/><path class="cls-5" d="M229.41,229h81.53v35.87H229.41Z"/><rect class="cls-2" x="143.67" y="384.62" width="238.67" height="141.22"/><path class="cls-1" d="M143.45,422.63h-.32l-20,9.5-4-18.35L147,400.91H167.1v104.6H143.45Z"/><path class="cls-1" d="M278.78,452.73c0,32.19-13,54.55-39.59,54.55-27,0-38.94-24.3-39.11-53.91,0-30.42,12.71-54.23,39.75-54.23C267.68,399.14,278.78,424.08,278.78,452.73Zm-54.23.64c0,24,5.79,35.4,15.13,35.4,9.49,0,14.64-11.91,14.64-35.73,0-23.17-5-35.4-14.8-35.4C230.67,417.65,224.55,428.91,224.55,453.37Z"/><path class="cls-1" d="M345.89,430.2c0,21.89-13.84,33.47-29,33.47-15.93,0-28.48-11.91-28.48-31.7,0-18.67,11.43-32.83,29.45-32.83C335.75,399.14,345.89,412.34,345.89,430.2Zm-39.27,1.29c-.16,10.94,3.7,18.83,10.78,18.83,6.92,0,10.3-7.08,10.3-19,0-10.62-2.9-18.83-10.62-18.83C309.84,412.5,306.62,420.86,306.62,431.49ZM318,507.28l60.19-108h13l-60,108ZM421.2,473.65c0,21.72-13.84,33.31-29,33.31-15.77,0-28.32-11.91-28.32-31.54,0-18.67,11.43-32.83,29.29-32.83S421.2,455.79,421.2,473.65Zm-39.11,1.13c-.16,10.94,3.7,18.83,10.62,18.83s10.3-7.08,10.3-18.83c0-10.62-2.9-18.83-10.46-18.83C385.31,455.95,382.09,464.32,382.09,474.78Z"/></g></g></svg>