<?xml version="1.0" encoding="utf-8"?>
<!-- Generator: Adobe Illustrator 21.1.0, SVG Export Plug-In . SVG Version: 6.00 Build 0)  -->
<svg version="1.1" id="Layer_1" xmlns="http://www.w3.org/2000/svg" xmlns:xlink="http://www.w3.org/1999/xlink" x="0px" y="0px"
	 viewBox="0 0 39 39" style="enable-background:new 0 0 39 39;" xml:space="preserve">
<style type="text/css">
	.st0{fill:#2E2E2E;}
</style>
<title>Fill 1</title>
<desc>Created with Sketch.</desc>
<g id="Page-1">
	<g id="Category-_x3E_-1920-Copy" transform="translate(-1372.000000, -77.000000)">
		<g id="Basket" transform="translate(1372.480298, 77.257522)">
			<path id="Fill-1" class="st0" d="M27.7,27.3c0,0.7-0.5,1.2-1.2,1.2s-1.2-0.5-1.2-1.2v-6c0-0.7,0.5-1.2,1.2-1.2s1.2,0.5,1.2,1.2
				V27.3z M22.9,27.3c0,0.7-0.5,1.2-1.2,1.2s-1.2-0.5-1.2-1.2v-6c0-0.7,0.5-1.2,1.2-1.2s1.2,0.5,1.2,1.2V27.3z M18.1,27.3
				c0,0.7-0.5,1.2-1.2,1.2s-1.2-0.5-1.2-1.2v-6c0-0.7,0.5-1.2,1.2-1.2s1.2,0.5,1.2,1.2V27.3z M13.2,27.3c0,0.7-0.5,1.2-1.2,1.2
				s-1.2-0.5-1.2-1.2v-6c0-0.7,0.5-1.2,1.2-1.2s1.2,0.5,1.2,1.2V27.3z M36.1,12.9h-4.9l-6.5-7.6c-0.9-1-2.4-1.1-3.4-0.3
				c-1,0.9-1.1,2.4-0.3,3.4l3.8,4.4H13.7l3.8-4.4c0.9-1,0.7-2.5-0.3-3.4c-1-0.9-2.5-0.7-3.4,0.3l-6.5,7.6H2.4C1.1,12.9,0,14,0,15.3
				s1.1,2.4,2.4,2.4h0c0,0.1,0,0.1,0,0.2l2.1,12.4c0.3,1.7,1.8,3,3.6,3h22.4c1.8,0,3.3-1.3,3.6-3l2.1-12.4c0-0.1,0-0.1,0-0.2h0
				c1.3,0,2.4-1.1,2.4-2.4C38.5,14,37.4,12.9,36.1,12.9L36.1,12.9z"/>
		</g>
	</g>
</g>
</svg>
