<?xml version="1.0" encoding="utf-8"?>
<!-- Generator: Adobe Illustrator 21.1.0, SVG Export Plug-In . SVG Version: 6.00 Build 0)  -->
<svg version="1.1" id="Layer_1" xmlns="http://www.w3.org/2000/svg" xmlns:xlink="http://www.w3.org/1999/xlink" x="0px" y="0px"
	 viewBox="0 0 1000 500" style="enable-background:new 0 0 1000 500;" xml:space="preserve">
<style type="text/css">
	.st0{fill:#FFFFFF;}
	.st1{fill:#1C559B;}
	.st2{fill:#F99536;}
	.st3{fill:#FBA43F;}
	.st4{fill:#F03D3D;}
	.st5{fill:none;stroke:#FFFFFF;stroke-width:0.22;stroke-miterlimit:2.61;}
</style>
<title>vorkasse</title>
<g id="Layer_1-2">
	<rect class="st0" width="1000" height="500"/>
	<polygon class="st1" points="246.6,301.6 263.6,201.6 290.9,201.6 273.8,301.6 	"/>
	<path class="st1" d="M372.7,204.1c-7.8-2.8-16.1-4.3-24.4-4.2c-26.9,0-45.9,13.6-46.1,33c-0.1,14.4,13.5,22.4,23.9,27.2
		c10.6,4.9,14.2,8,14.1,12.4c-0.1,6.7-8.5,9.8-16.3,9.8c-10.9,0-16.7-1.5-25.7-5.2l-3.5-1.6l-3.8,22.4c6.4,2.8,18.1,5.2,30.4,5.3
		c28.6,0,47.2-13.4,47.5-34.2c0.1-11.4-7.2-20-22.9-27.2c-9.5-4.6-15.4-7.7-15.3-12.4c0-4.2,4.9-8.6,15.6-8.6
		c7-0.2,13.9,1.1,20.4,3.8l2.4,1.2L372.7,204.1"/>
	<path class="st1" d="M442.6,201.7h-21.1c-6.5,0-11.4,1.8-14.3,8.3l-40.5,91.7h28.6c0,0,4.7-12.3,5.7-15H436c0.8,3.5,3.3,15,3.3,15
		h25.3L442.6,201.7 M409,266.2c2.2-5.8,10.9-28,10.9-28c-0.2,0.3,2.2-5.8,3.6-9.5l1.8,8.6c0,0,5.2,23.9,6.3,28.9L409,266.2z"/>
	<path class="st1" d="M223.7,201.7L197,269.9l-2.8-13.9c-5-16-20.4-33.3-37.8-41.9l24.4,87.5h28.8l42.9-99.8H223.7"/>
	<path class="st2" d="M172.2,201.6h-44l-0.3,2.1c34.2,8.3,56.8,28.3,66.2,52.3l-9.6-46C182.9,203.7,178.1,201.8,172.2,201.6"/>
	<polygon class="st3" points="770,354.4 775.3,354.3 780.5,353.9 785.7,353.2 790.8,352.3 795.7,351.2 800.6,349.8 805.4,348.2 
		810.1,346.3 814.7,344.2 819.1,342 823.4,339.5 827.6,336.8 831.6,333.9 835.5,330.9 839.3,327.6 842.8,324.2 846.3,320.6 
		849.5,316.9 852.6,313 855.5,309 858.1,304.8 860.6,300.5 862.9,296 865,291.4 866.8,286.8 868.4,282 869.8,277.1 871,272.1 
		871.9,267 872.5,261.9 872.9,256.6 873,251.3 872.9,246 872.5,240.8 871.9,235.7 871,230.7 869.8,225.7 868.4,220.8 866.8,216 
		865,211.4 862.9,206.8 860.6,202.4 858.1,198.1 855.5,193.9 852.6,189.9 849.5,186.1 846.3,182.3 842.8,178.7 839.3,175.3 
		835.5,172.1 831.6,169.1 827.6,166.2 823.4,163.5 819.1,161 814.7,158.8 810.1,156.7 805.4,154.8 800.6,153.2 795.7,151.8 
		790.8,150.7 785.7,149.8 780.5,149.1 775.3,148.7 770,148.6 764.7,148.7 759.4,149.1 754.3,149.8 749.2,150.7 744.3,151.8 
		739.4,153.2 734.6,154.8 729.9,156.7 725.4,158.8 721,161 716.7,163.5 712.5,166.2 708.5,169.1 704.6,172.1 700.9,175.3 
		697.3,178.7 693.9,182.3 690.7,186.1 687.6,189.9 684.8,193.9 682.1,198.1 679.6,202.4 677.3,206.8 675.3,211.4 673.5,216 
		671.9,220.8 670.5,225.7 669.3,230.7 668.4,235.7 667.8,240.8 667.4,246 667.2,251.3 667.4,256.6 667.8,261.9 668.4,267 
		669.3,272.1 670.5,277.1 671.9,282 673.5,286.8 675.3,291.4 677.3,296 679.6,300.5 682.1,304.8 684.8,309 687.6,313 690.7,316.9 
		693.9,320.6 697.3,324.2 700.9,327.6 704.6,330.9 708.5,333.9 712.5,336.8 716.7,339.5 721,342 725.4,344.2 729.9,346.3 
		734.6,348.2 739.4,349.8 744.3,351.2 749.2,352.3 754.3,353.2 759.4,353.9 764.7,354.3 770,354.4 770,354.4 	"/>
	<polygon class="st4" points="632.3,354.4 637.6,354.3 642.8,353.9 648,353.2 653,352.3 658,351.2 662.9,349.8 667.6,348.2 
		672.3,346.3 676.9,344.2 681.3,342 685.6,339.5 689.7,336.8 693.8,333.9 697.7,330.9 701.4,327.6 704.9,324.2 708.3,320.6 
		711.6,316.9 714.6,313 717.5,309 720.2,304.8 722.6,300.5 724.9,296 727,291.4 728.8,286.8 730.4,282 731.8,277.1 732.9,272.1 
		733.8,267 734.5,261.9 734.9,256.6 735,251.3 734.9,246 734.5,240.8 733.8,235.7 732.9,230.7 731.8,225.7 730.4,220.8 728.8,216 
		727,211.4 724.9,206.8 722.6,202.4 720.2,198.1 717.5,193.9 714.6,189.9 711.6,186.1 708.3,182.3 704.9,178.7 701.4,175.3 
		697.7,172.1 693.8,169.1 689.7,166.2 685.6,163.5 681.3,161 676.9,158.8 672.3,156.7 667.6,154.8 662.9,153.2 658,151.8 653,150.7 
		648,149.8 642.8,149.1 637.6,148.7 632.3,148.6 627,148.7 621.7,149.1 616.6,149.8 611.5,150.7 606.5,151.8 601.7,153.2 
		596.9,154.8 592.2,156.7 587.6,158.8 583.1,161 578.8,163.5 574.6,166.2 570.6,169.1 566.7,172.1 563,175.3 559.4,178.7 556,182.3 
		552.7,186.1 549.7,189.9 546.8,193.9 544.1,198.1 541.6,202.4 539.4,206.8 537.3,211.4 535.5,216 533.8,220.8 532.4,225.7 
		531.3,230.7 530.4,235.7 529.7,240.8 529.3,246 529.2,251.3 529.3,256.6 529.7,261.9 530.4,267 531.3,272.1 532.4,277.1 533.8,282 
		535.5,286.8 537.3,291.4 539.4,296 541.6,300.5 544.1,304.8 546.8,309 549.7,313 552.7,316.9 556,320.6 559.4,324.2 563,327.6 
		566.7,330.9 570.6,333.9 574.6,336.8 578.8,339.5 583.1,342 587.6,344.2 592.2,346.3 596.9,348.2 601.7,349.8 606.5,351.2 
		611.5,352.3 616.6,353.2 621.7,353.9 627,354.3 632.3,354.4 632.3,354.4 	"/>
	<polygon class="st3" points="689.1,188.1 743.8,188.1 743.8,182.5 693.8,182.5 689.1,188.1 689.1,188.1 	"/>
	<polygon class="st3" points="680.9,200.5 743.8,200.5 743.8,194.9 684.2,194.9 680.9,200.5 680.9,200.5 	"/>
	<polygon class="st3" points="674.8,212.9 743.8,212.9 743.8,207.3 677.2,207.3 674.8,212.9 674.8,212.9 	"/>
	<polygon class="st3" points="670.6,225.3 743.8,225.3 743.8,219.7 672.3,219.7 670.6,225.3 670.6,225.3 	"/>
	<polygon class="st3" points="673,285.4 743.9,285.4 743.9,279.8 671.3,279.8 673,285.4 673,285.4 	"/>
	<polygon class="st3" points="678.2,297.8 743.9,297.8 743.9,292.2 675.7,292.2 678.2,297.8 678.2,297.8 	"/>
	<polygon class="st3" points="685.6,310.2 743.9,310.2 743.9,304.6 682.1,304.6 685.6,310.2 685.6,310.2 	"/>
	<polygon class="st3" points="695.8,322.6 743.9,322.6 743.9,317 690.8,317 695.8,322.6 695.8,322.6 	"/>
	<polygon class="st3" points="668.1,237.7 743.8,237.7 743.8,232.1 669.2,232.1 668.1,237.7 668.1,237.7 	"/>
	<polygon class="st3" points="714.2,273 743.1,273 743.1,267.4 715.2,267.4 714.2,273 714.2,273 	"/>
	<polygon class="st3" points="716.5,260.6 743.1,260.6 743.1,254.9 717.5,254.9 716.5,260.6 716.5,260.6 	"/>
	<polygon class="st3" points="666.2,254.9 673.7,254.9 673.7,260.6 666.5,260.6 666.2,254.9 666.2,254.9 	"/>
	<polygon class="st0" points="652.2,248.2 651.7,248.2 651.2,248.1 650.8,248 650.3,247.9 649.9,247.9 649.5,247.8 649,247.7 
		648.5,247.7 648,247.6 647.5,247.6 646.9,247.5 646.2,247.5 645.5,247.5 644.7,247.5 643.8,247.6 642.8,247.7 642.1,247.8 
		641.4,247.9 640.8,248.1 640.3,248.3 639.8,248.5 639.4,248.8 639,249.2 638.7,249.5 638.5,249.8 638.3,250.2 638.3,250.7 
		638.3,251.1 638.4,251.5 638.5,252 638.8,252.4 639.1,252.9 639.8,253.5 640.7,254.1 641.6,254.5 642.7,254.9 643.8,255.2 
		644.9,255.6 646.1,256 647.2,256.5 648.2,257.1 649.2,257.8 650.1,258.7 650.8,259.7 651.3,261.1 651.7,262.6 651.8,264.5 
		651.7,266.7 651.5,268.3 651,269.7 650.5,271.1 649.8,272.2 649,273.2 648.1,274.1 647.1,274.8 646,275.5 644.9,276 643.8,276.5 
		642.6,276.8 641.4,277.1 640.2,277.3 639.1,277.4 637.9,277.5 636.8,277.5 635.3,277.5 634,277.5 632.8,277.5 631.6,277.4 
		630.6,277.4 629.6,277.3 628.8,277.3 628,277.2 627.3,277.1 626.6,277 625.9,276.9 625.3,276.7 624.8,276.5 624.2,276.3 
		623.7,276.1 623.1,275.9 624.6,268.2 624.9,268.3 625.3,268.4 625.8,268.6 626.4,268.7 627,268.8 627.7,269 628.5,269.2 
		629.3,269.3 630.2,269.4 631.1,269.6 632,269.7 633,269.8 634,269.8 635,269.8 636,269.8 637,269.8 638,269.6 638.8,269.3 
		639.5,268.9 639.9,268.5 640.3,268 640.6,267.4 640.7,266.9 640.9,266.3 640.9,265.3 640.6,264.5 640,263.8 639.2,263.2 
		638.1,262.7 636.9,262.1 635.6,261.7 634.2,261.1 632.8,260.5 631.5,259.7 630.3,258.8 629.2,257.8 628.3,256.4 627.7,254.9 
		627.4,253 627.4,250.8 627.6,249.4 627.8,248.2 628.2,247 628.6,245.9 629.1,244.8 629.8,243.9 630.5,243.1 631.4,242.3 
		632.4,241.6 633.5,241.1 634.7,240.6 636.1,240.2 637.7,239.9 639.4,239.6 641.2,239.5 643.3,239.4 644.6,239.4 645.8,239.5 
		646.8,239.5 647.8,239.5 648.7,239.6 649.5,239.7 650.2,239.8 650.8,239.8 651.4,239.9 651.9,240 652.3,240.1 652.7,240.1 
		653.1,240.2 653.4,240.2 653.7,240.3 654,240.3 652.2,248.2 652.2,248.2 	"/>
	<polyline class="st5" points="652.2,248.2 652.2,248.2 651.7,248.2 651.2,248.1 650.8,248 650.3,247.9 649.9,247.9 649.5,247.8 
		649,247.7 648.5,247.7 648,247.6 647.5,247.6 646.9,247.5 646.2,247.5 645.5,247.5 644.7,247.5 643.8,247.6 642.8,247.7 
		642.8,247.7 642.1,247.8 641.4,247.9 640.8,248.1 640.3,248.3 639.8,248.5 639.4,248.8 639,249.2 638.7,249.5 638.5,249.8 
		638.3,250.2 638.3,250.7 638.3,251.1 638.4,251.5 638.5,252 638.8,252.4 639.1,252.9 639.1,252.9 639.8,253.5 640.7,254.1 
		641.6,254.5 642.7,254.9 643.8,255.2 644.9,255.6 646.1,256 647.2,256.5 648.2,257.1 649.2,257.8 650.1,258.7 650.8,259.7 
		651.3,261.1 651.7,262.6 651.8,264.5 651.7,266.7 651.7,266.7 651.5,268.3 651,269.7 650.5,271.1 649.8,272.2 649,273.2 
		648.1,274.1 647.1,274.8 646,275.5 644.9,276 643.8,276.5 642.6,276.8 641.4,277.1 640.2,277.3 639.1,277.4 637.9,277.5 
		636.8,277.5 636.8,277.5 635.3,277.5 634,277.5 632.8,277.5 631.6,277.4 630.6,277.4 629.6,277.3 628.8,277.3 628,277.2 
		627.3,277.1 626.6,277 625.9,276.9 625.3,276.7 624.8,276.5 624.2,276.3 623.7,276.1 623.1,275.9 624.6,268.2 624.6,268.2 
		624.9,268.3 625.3,268.4 625.8,268.6 626.4,268.7 627,268.8 627.7,269 628.5,269.2 629.3,269.3 630.2,269.4 631.1,269.6 632,269.7 
		633,269.8 634,269.8 635,269.8 636,269.8 637,269.8 637,269.8 638,269.6 638.8,269.3 639.5,268.9 639.9,268.5 640.3,268 
		640.6,267.4 640.7,266.9 640.9,266.3 640.9,266.3 640.9,265.3 640.6,264.5 640,263.8 639.2,263.2 638.1,262.7 636.9,262.1 
		635.6,261.7 634.2,261.1 632.8,260.5 631.5,259.7 630.3,258.8 629.2,257.8 628.3,256.4 627.7,254.9 627.4,253 627.4,250.8 
		627.4,250.8 627.6,249.4 627.8,248.2 628.2,247 628.6,245.9 629.1,244.8 629.8,243.9 630.5,243.1 631.4,242.3 632.4,241.6 
		633.5,241.1 634.7,240.6 636.1,240.2 637.7,239.9 639.4,239.6 641.2,239.5 643.3,239.4 643.3,239.4 644.6,239.4 645.8,239.5 
		646.8,239.5 647.8,239.5 648.7,239.6 649.5,239.7 650.2,239.8 650.8,239.8 651.4,239.9 651.9,240 652.3,240.1 652.7,240.1 
		653.1,240.2 653.4,240.2 653.7,240.3 654,240.3 652.2,248.2 	"/>
	<polygon class="st0" points="660.5,231.8 670.1,231.8 668.6,240.2 674.4,240.2 673.2,248 667.1,247.8 663.7,267.2 663.7,267.9 
		663.9,268.5 664.2,268.9 664.7,269.3 665.3,269.6 666,269.8 666.8,269.9 667.6,270 668.4,269.9 669,269.9 669.7,269.8 670.2,269.6 
		670.7,269.5 671,269.4 671.2,269.3 671.3,269.3 670.1,275.8 669.8,275.9 669.6,276.1 669.3,276.2 669.1,276.3 668.8,276.4 
		668.6,276.5 668.2,276.7 667.9,276.8 667.6,276.9 667.2,276.9 666.8,277 666.4,277.1 666,277.1 665.4,277.2 664.9,277.3 
		664.3,277.3 661.7,277.3 660.3,277.2 659.1,277.1 658,276.9 657,276.7 656.2,276.3 655.5,276 655,275.6 654.5,275.1 654.2,274.6 
		653.9,274.1 653.8,273.4 653.6,272.8 653.6,272.1 653.6,271.3 653.7,270.5 653.8,269.6 660.5,231.8 660.5,231.8 	"/>
	<polyline class="st5" points="660.5,231.8 670.1,231.8 668.6,240.2 674.4,240.2 673.2,248 667.1,247.8 663.7,267.2 663.7,267.2 
		663.7,267.9 663.9,268.5 664.2,268.9 664.7,269.3 665.3,269.6 666,269.8 666.8,269.9 667.6,270 667.6,270 668.4,269.9 669,269.9 
		669.7,269.8 670.2,269.6 670.7,269.5 671,269.4 671.2,269.3 671.3,269.3 670.1,275.8 670.1,275.8 669.8,275.9 669.6,276.1 
		669.3,276.2 669.1,276.3 668.8,276.4 668.6,276.5 668.2,276.7 667.9,276.8 667.6,276.9 667.2,276.9 666.8,277 666.4,277.1 
		666,277.1 665.4,277.2 664.9,277.3 664.3,277.3 661.7,277.3 661.7,277.3 660.3,277.2 659.1,277.1 658,276.9 657,276.7 656.2,276.3 
		655.5,276 655,275.6 654.5,275.1 654.2,274.6 653.9,274.1 653.8,273.4 653.6,272.8 653.6,272.1 653.6,271.3 653.7,270.5 
		653.8,269.6 660.5,231.8 	"/>
	<polygon class="st0" points="682.1,261.1 682,261.7 682,262.3 682,263 682.2,263.6 682.4,264.3 682.7,264.9 683.1,265.6 
		683.5,266.2 684,266.8 684.5,267.3 685,267.8 685.7,268.2 686.3,268.6 687,268.9 687.7,269.2 688.4,269.3 689.3,269.4 690.2,269.5 
		691.1,269.6 692,269.7 692.9,269.7 693.8,269.7 694.7,269.7 695.6,269.6 696.6,269.5 697.5,269.3 698.5,269.1 699.4,268.8 
		700.4,268.4 701.4,268 702.4,267.4 703.4,266.9 702,275.4 701.4,275.7 700.9,275.9 700.3,276.2 699.8,276.4 699.3,276.5 
		698.7,276.7 698.2,276.9 697.6,277 697,277.1 696.3,277.1 695.5,277.2 694.7,277.3 693.8,277.3 692.9,277.3 691.8,277.3 
		690.7,277.3 689,277.3 687.2,277.1 685.5,276.9 683.8,276.5 682.1,275.9 680.4,275.3 678.9,274.4 677.4,273.4 676.1,272.2 
		674.9,270.8 673.9,269.2 673,267.4 672.5,265.3 672.1,263 672,260.4 672.1,257.6 672.3,256.5 672.5,255.2 672.8,253.8 673.2,252.4 
		673.7,250.9 674.3,249.4 675.1,247.9 676.1,246.4 677.2,245 678.5,243.7 680.1,242.5 681.8,241.5 683.8,240.6 686.1,240 
		688.6,239.6 691.4,239.4 692.7,239.5 694.2,239.6 695.6,239.9 697,240.2 698.4,240.7 699.7,241.3 701,242.2 702.1,243.2 
		703.2,244.3 704,245.7 704.7,247.3 705.2,249.2 705.5,251.2 705.5,253.6 705.3,256.2 704.8,259.2 704.6,261.3 679.3,261.3 
		680.9,254.4 696.1,254.4 696.2,253.6 696.1,252.7 696.1,252 695.9,251.3 695.7,250.6 695.4,250 695.1,249.5 694.7,249 694.3,248.6 
		693.9,248.3 693.3,247.9 692.8,247.7 692.3,247.5 691.7,247.3 691.1,247.2 690.5,247.1 689.8,247.2 689.2,247.3 688.6,247.4 
		688,247.6 687.5,247.9 686.9,248.2 686.4,248.6 686,249 685.5,249.5 685.1,250 684.7,250.6 684.4,251.2 684.1,251.8 683.8,252.5 
		683.6,253.2 683.5,253.9 682.1,261.1 682.1,261.1 	"/>
	<polyline class="st5" points="682.1,261.1 682.1,261.1 682,261.7 682,262.3 682,263 682.2,263.6 682.4,264.3 682.7,264.9 
		683.1,265.6 683.5,266.2 684,266.8 684.5,267.3 685,267.8 685.7,268.2 686.3,268.6 687,268.9 687.7,269.2 688.4,269.3 688.4,269.3 
		689.3,269.4 690.2,269.5 691.1,269.6 692,269.7 692.9,269.7 693.8,269.7 694.7,269.7 695.6,269.6 696.6,269.5 697.5,269.3 
		698.5,269.1 699.4,268.8 700.4,268.4 701.4,268 702.4,267.4 703.4,266.9 702,275.4 702,275.4 701.4,275.7 700.9,275.9 700.3,276.2 
		699.8,276.4 699.3,276.5 698.7,276.7 698.2,276.9 697.6,277 697,277.1 696.3,277.1 695.5,277.2 694.7,277.3 693.8,277.3 
		692.9,277.3 691.8,277.3 690.7,277.3 690.7,277.3 689,277.3 687.2,277.1 685.5,276.9 683.8,276.5 682.1,275.9 680.4,275.3 
		678.9,274.4 677.4,273.4 676.1,272.2 674.9,270.8 673.9,269.2 673,267.4 672.5,265.3 672.1,263 672,260.4 672.1,257.6 672.1,257.6 
		672.3,256.5 672.5,255.2 672.8,253.8 673.2,252.4 673.7,250.9 674.3,249.4 675.1,247.9 676.1,246.4 677.2,245 678.5,243.7 
		680.1,242.5 681.8,241.5 683.8,240.6 686.1,240 688.6,239.6 691.4,239.4 691.4,239.4 692.7,239.5 694.2,239.6 695.6,239.9 
		697,240.2 698.4,240.7 699.7,241.3 701,242.2 702.1,243.2 703.2,244.3 704,245.7 704.7,247.3 705.2,249.2 705.5,251.2 705.5,253.6 
		705.3,256.2 704.8,259.2 704.6,261.3 679.3,261.3 680.9,254.4 696.1,254.4 696.1,254.4 696.2,253.6 696.1,252.7 696.1,252 
		695.9,251.3 695.7,250.6 695.4,250 695.1,249.5 694.7,249 694.3,248.6 693.9,248.3 693.3,247.9 692.8,247.7 692.3,247.5 
		691.7,247.3 691.1,247.2 690.5,247.1 690.5,247.1 689.8,247.2 689.2,247.3 688.6,247.4 688,247.6 687.5,247.9 686.9,248.2 
		686.4,248.6 686,249 685.5,249.5 685.1,250 684.7,250.6 684.4,251.2 684.1,251.8 683.8,252.5 683.6,253.2 683.5,253.9 682.1,261.1 
			"/>
	<polygon class="st0" points="764.9,242.2 764.4,242 764,241.8 763.5,241.6 763,241.3 762.5,241.1 761.9,240.9 761.3,240.7 
		760.7,240.5 760,240.3 759.3,240.2 758.6,240 757.9,239.9 757.1,239.9 756.3,239.8 755.5,239.8 754.6,239.8 753.7,239.8 
		752.8,239.9 751.9,240 750.9,240.1 749.9,240.4 749,240.8 748,241.3 747,241.9 746.1,242.7 745.2,243.6 744.3,244.7 743.5,246 
		742.7,247.5 742,249.2 741.3,251.2 740.8,253.4 740.6,254.6 740.4,255.9 740.3,257.1 740.4,258.2 740.5,259.4 740.7,260.5 
		741,261.6 741.4,262.6 742,263.6 742.6,264.5 743.3,265.3 744.1,266 745.1,266.6 746.2,267.1 747.3,267.6 748.6,267.9 749.1,268 
		749.6,268.1 750.2,268.2 750.9,268.2 751.7,268.3 752.5,268.3 753.4,268.3 754.2,268.2 755.1,268.1 756,268 756.9,267.7 
		757.8,267.4 758.6,267.1 759.4,266.6 760.2,266.1 760.9,265.4 759.3,274.7 759.1,274.9 758.9,275.1 758.6,275.3 758.3,275.5 
		757.9,275.8 757.4,276.1 756.9,276.3 756.2,276.5 755.5,276.8 754.5,276.9 753.5,277.1 752.3,277.2 750.9,277.3 749.4,277.3 
		747.6,277.3 745.7,277.2 744.1,277 742.5,276.7 740.9,276.1 739.3,275.4 737.8,274.6 736.3,273.6 734.9,272.3 733.6,270.9 
		732.5,269.4 731.5,267.7 730.7,265.7 730,263.6 729.6,261.3 729.5,258.8 729.5,256.1 729.9,253.2 730.2,251.8 730.5,250.4 
		730.9,249.1 731.2,247.8 731.6,246.6 732,245.3 732.5,244.2 733,243.1 733.5,242 734,241 734.6,240.1 735.2,239.2 735.9,238.3 
		736.6,237.5 737.3,236.7 738,236 738.8,235.3 739.6,234.6 740.4,234 741.3,233.5 742.2,232.9 743.2,232.5 744.1,232.1 745.1,231.7 
		746.2,231.3 747.3,231.1 748.4,230.8 749.6,230.6 750.8,230.4 752,230.3 753.3,230.2 754.6,230.2 755.7,230.2 756.8,230.3 
		757.8,230.4 758.8,230.6 759.8,230.7 760.8,230.9 761.7,231.1 762.5,231.3 763.3,231.5 764,231.7 764.7,231.9 765.2,232.1 
		765.7,232.3 766.1,232.4 766.4,232.6 766.6,232.6 764.9,242.2 764.9,242.2 	"/>
	<polyline class="st5" points="764.9,242.2 764.9,242.2 764.4,242 764,241.8 763.5,241.6 763,241.3 762.5,241.1 761.9,240.9 
		761.3,240.7 760.7,240.5 760,240.3 759.3,240.2 758.6,240 757.9,239.9 757.1,239.9 756.3,239.8 755.5,239.8 754.6,239.8 
		754.6,239.8 753.7,239.8 752.8,239.9 751.9,240 750.9,240.1 749.9,240.4 749,240.8 748,241.3 747,241.9 746.1,242.7 745.2,243.6 
		744.3,244.7 743.5,246 742.7,247.5 742,249.2 741.3,251.2 740.8,253.4 740.8,253.4 740.6,254.6 740.4,255.9 740.3,257.1 
		740.4,258.2 740.5,259.4 740.7,260.5 741,261.6 741.4,262.6 742,263.6 742.6,264.5 743.3,265.3 744.1,266 745.1,266.6 746.2,267.1 
		747.3,267.6 748.6,267.9 748.6,267.9 749.1,268 749.6,268.1 750.2,268.2 750.9,268.2 751.7,268.3 752.5,268.3 753.4,268.3 
		754.2,268.2 755.1,268.1 756,268 756.9,267.7 757.8,267.4 758.6,267.1 759.4,266.6 760.2,266.1 760.9,265.4 759.3,274.7 
		759.3,274.7 759.1,274.9 758.9,275.1 758.6,275.3 758.3,275.5 757.9,275.8 757.4,276.1 756.9,276.3 756.2,276.5 755.5,276.8 
		754.5,276.9 753.5,277.1 752.3,277.2 750.9,277.3 749.4,277.3 747.6,277.3 745.7,277.2 745.7,277.2 744.1,277 742.5,276.7 
		740.9,276.1 739.3,275.4 737.8,274.6 736.3,273.6 734.9,272.3 733.6,270.9 732.5,269.4 731.5,267.7 730.7,265.7 730,263.6 
		729.6,261.3 729.5,258.8 729.5,256.1 729.9,253.2 729.9,253.2 730.2,251.8 730.5,250.4 730.9,249.1 731.2,247.8 731.6,246.6 
		732,245.3 732.5,244.2 733,243.1 733.5,242 734,241 734.6,240.1 735.2,239.2 735.9,238.3 736.6,237.5 737.3,236.7 738,236 
		738.8,235.3 739.6,234.6 740.4,234 741.3,233.5 742.2,232.9 743.2,232.5 744.1,232.1 745.1,231.7 746.2,231.3 747.3,231.1 
		748.4,230.8 749.6,230.6 750.8,230.4 752,230.3 753.3,230.2 754.6,230.2 754.6,230.2 755.7,230.2 756.8,230.3 757.8,230.4 
		758.8,230.6 759.8,230.7 760.8,230.9 761.7,231.1 762.5,231.3 763.3,231.5 764,231.7 764.7,231.9 765.2,232.1 765.7,232.3 
		766.1,232.4 766.4,232.6 766.6,232.6 764.9,242.2 	"/>
	<polygon class="st0" points="850.3,277.3 840.7,277.3 841.4,273.5 841.4,273.1 840.9,273.8 840.3,274.5 839.7,275 839.1,275.5 
		838.4,275.9 837.8,276.3 837.2,276.7 836.5,277 835.9,277.2 835.2,277.4 834.5,277.6 833.9,277.7 833.2,277.8 832.5,277.8 
		831.8,277.9 831.1,277.9 829.3,277.7 827.7,277.3 826.1,276.8 824.7,275.9 823.5,274.9 822.4,273.8 821.4,272.5 820.6,271 
		819.9,269.5 819.3,267.8 818.9,266.1 818.7,264.4 818.5,262.6 818.6,260.8 818.8,259 819.1,257.2 819.6,255.2 820.2,253.2 
		821,251.5 821.8,249.8 822.7,248.3 823.8,246.9 824.8,245.6 826,244.5 827.2,243.5 828.5,242.6 829.8,241.8 831.1,241.2 
		832.5,240.8 833.9,240.4 835.3,240.2 836.7,240.2 837.7,240.2 838.7,240.3 839.6,240.5 840.4,240.7 841.2,241 841.9,241.3 
		842.6,241.7 843.2,242.1 843.8,242.5 844.3,242.9 844.8,243.4 845.2,243.8 845.5,244.3 845.8,244.8 846.1,245.2 846.3,245.6 
		846.3,245.6 848.8,231.9 858.2,231.9 850.3,277.3 850.3,277.3 	"/>
	<polyline class="st5" points="850.3,277.3 840.7,277.3 841.4,273.5 841.4,273.1 841.4,273.1 840.9,273.8 840.3,274.5 839.7,275 
		839.1,275.5 838.4,275.9 837.8,276.3 837.2,276.7 836.5,277 835.9,277.2 835.2,277.4 834.5,277.6 833.9,277.7 833.2,277.8 
		832.5,277.8 831.8,277.9 831.1,277.9 831.1,277.9 829.3,277.7 827.7,277.3 826.1,276.8 824.7,275.9 823.5,274.9 822.4,273.8 
		821.4,272.5 820.6,271 819.9,269.5 819.3,267.8 818.9,266.1 818.7,264.4 818.5,262.6 818.6,260.8 818.8,259 819.1,257.2 
		819.1,257.2 819.6,255.2 820.2,253.2 821,251.5 821.8,249.8 822.7,248.3 823.8,246.9 824.8,245.6 826,244.5 827.2,243.5 
		828.5,242.6 829.8,241.8 831.1,241.2 832.5,240.8 833.9,240.4 835.3,240.2 836.7,240.2 836.7,240.2 837.7,240.2 838.7,240.3 
		839.6,240.5 840.4,240.7 841.2,241 841.9,241.3 842.6,241.7 843.2,242.1 843.8,242.5 844.3,242.9 844.8,243.4 845.2,243.8 
		845.5,244.3 845.8,244.8 846.1,245.2 846.3,245.6 846.3,245.6 848.8,231.9 858.2,231.9 850.3,277.3 	"/>
	<polygon class="st3" points="834.6,268.9 835.6,268.9 836.5,268.7 837.3,268.4 838.1,268 838.9,267.6 839.5,267.1 840.2,266.5 
		840.8,265.9 841.3,265.2 841.8,264.4 842.3,263.6 842.6,262.8 843,261.9 843.3,261 843.5,260.1 843.7,259.2 843.9,258.2 844,257.2 
		844,256.2 843.9,255.3 843.8,254.4 843.7,253.5 843.4,252.7 843.2,251.9 842.8,251.2 842.4,250.5 842,250 841.4,249.5 840.8,249.1 
		840.2,248.8 839.5,248.6 838.8,248.5 837.9,248.6 837,248.7 836.2,249 835.4,249.4 834.7,249.8 834,250.4 833.4,251 832.8,251.6 
		832.3,252.4 831.8,253.2 831.4,254 831,254.9 830.7,255.9 830.4,256.8 830.1,257.8 829.9,258.8 829.7,260.3 829.8,262 830,263.7 
		830.5,265.3 831.2,266.8 832.1,267.9 833.2,268.7 834.6,268.9 834.6,268.9 	"/>
	<polygon class="st0" points="621.5,269.6 620.1,277.3 611.3,277.3 611.6,275.9 611.8,274.6 611.9,273.7 612,273.1 611.5,273.7 
		611,274.2 610.3,274.8 609.6,275.3 608.8,275.8 607.9,276.2 607,276.6 606,276.9 605,277.2 604,277.5 603,277.7 602,277.8 
		601,277.9 600,277.9 599,277.8 598.1,277.7 596.9,277.4 595.8,277 594.8,276.6 593.9,276.1 593.1,275.5 592.5,274.9 591.9,274.2 
		591.4,273.5 591,272.8 590.6,272 590.4,271.3 590.2,270.5 590,269.7 589.9,268.9 589.8,268.1 589.8,267.4 590,266 590.2,264.7 
		590.5,263.5 591,262.3 591.5,261.2 592.1,260.2 592.9,259.3 593.7,258.4 594.6,257.6 595.5,256.9 596.5,256.2 597.6,255.7 
		598.7,255.2 599.8,254.8 601,254.5 602.2,254.3 602.3,254.3 602.5,254.2 602.7,254.2 603.1,254.2 603.5,254.1 604,254.1 604.5,254 
		605.1,253.9 605.7,253.8 606.3,253.8 606.9,253.7 607.5,253.7 608,253.6 608.5,253.6 609,253.6 609.4,253.6 610.2,253.6 611,253.6 
		611.8,253.6 612.6,253.6 613.2,253.7 613.7,253.7 614,253.7 614.1,253.7 614.2,253.5 614.4,252.9 614.6,252.1 614.7,251.5 
		614.5,250.7 614.2,250 613.8,249.4 613.2,248.9 612.6,248.4 611.8,248.1 611,247.9 610.1,247.8 609.1,247.8 608.1,247.8 607,247.8 
		605.9,247.8 604.8,247.9 603.7,248 602.5,248.1 601.5,248.2 600.4,248.4 599.4,248.5 598.5,248.7 597.7,248.9 596.9,249.1 
		596.3,249.3 595.8,249.5 595.4,249.8 597.9,241.4 598.7,241.1 599.4,240.8 600.3,240.6 601.1,240.4 601.9,240.2 602.8,240.1 
		603.7,239.9 604.7,239.9 605.6,239.8 606.6,239.8 607.7,239.7 608.8,239.7 609.9,239.7 611,239.7 612.2,239.8 613.5,239.8 
		614.4,239.9 615.5,240 616.5,240.3 617.7,240.6 618.7,241 619.8,241.5 620.8,242.1 621.8,242.7 622.6,243.5 623.4,244.3 
		624.1,245.3 624.6,246.3 625,247.4 625.2,248.6 625.2,249.9 625,251.3 621.5,269.6 621.5,269.6 	"/>
	<polyline class="st5" points="621.5,269.6 620.1,277.3 611.3,277.3 611.3,277.3 611.6,275.9 611.8,274.6 611.9,273.7 612,273.1 
		612,273.1 611.5,273.7 611,274.2 610.3,274.8 609.6,275.3 608.8,275.8 607.9,276.2 607,276.6 606,276.9 605,277.2 604,277.5 
		603,277.7 602,277.8 601,277.9 600,277.9 599,277.8 598.1,277.7 598.1,277.7 596.9,277.4 595.8,277 594.8,276.6 593.9,276.1 
		593.1,275.5 592.5,274.9 591.9,274.2 591.4,273.5 591,272.8 590.6,272 590.4,271.3 590.2,270.5 590,269.7 589.9,268.9 589.8,268.1 
		589.8,267.4 589.8,267.4 590,266 590.2,264.7 590.5,263.5 591,262.3 591.5,261.2 592.1,260.2 592.9,259.3 593.7,258.4 594.6,257.6 
		595.5,256.9 596.5,256.2 597.6,255.7 598.7,255.2 599.8,254.8 601,254.5 602.2,254.3 602.2,254.3 602.3,254.3 602.5,254.2 
		602.7,254.2 603.1,254.2 603.5,254.1 604,254.1 604.5,254 605.1,253.9 605.7,253.8 606.3,253.8 606.9,253.7 607.5,253.7 608,253.6 
		608.5,253.6 609,253.6 609.4,253.6 609.4,253.6 610.2,253.6 611,253.6 611.8,253.6 612.6,253.6 613.2,253.7 613.7,253.7 614,253.7 
		614.1,253.7 614.1,253.7 614.2,253.5 614.4,252.9 614.6,252.1 614.7,251.5 614.7,251.5 614.5,250.7 614.2,250 613.8,249.4 
		613.2,248.9 612.6,248.4 611.8,248.1 611,247.9 610.1,247.8 610.1,247.8 609.1,247.8 608.1,247.8 607,247.8 605.9,247.8 
		604.8,247.9 603.7,248 602.5,248.1 601.5,248.2 600.4,248.4 599.4,248.5 598.5,248.7 597.7,248.9 596.9,249.1 596.3,249.3 
		595.8,249.5 595.4,249.8 597.9,241.4 597.9,241.4 598.7,241.1 599.4,240.8 600.3,240.6 601.1,240.4 601.9,240.2 602.8,240.1 
		603.7,239.9 604.7,239.9 605.6,239.8 606.6,239.8 607.7,239.7 608.8,239.7 609.9,239.7 611,239.7 612.2,239.8 613.5,239.8 
		613.5,239.8 614.4,239.9 615.5,240 616.5,240.3 617.7,240.6 618.7,241 619.8,241.5 620.8,242.1 621.8,242.7 622.6,243.5 
		623.4,244.3 624.1,245.3 624.6,246.3 625,247.4 625.2,248.6 625.2,249.9 625,251.3 621.5,269.6 	"/>
	<polygon class="st4" points="613.1,260.6 613.1,260.4 612.9,260.2 612.7,260.1 612.4,260.1 612,260 611.5,259.9 611,259.9 
		610.5,259.9 609.9,260 609.3,260.1 608.8,260.1 608.2,260.2 607.7,260.3 607.2,260.4 606.8,260.5 606.4,260.6 606.2,260.7 
		605.9,260.8 605.5,260.9 605.2,261.1 604.7,261.3 604.2,261.5 603.8,261.8 603.3,262 602.8,262.4 602.4,262.7 602,263.2 
		601.6,263.6 601.2,264 601,264.5 600.8,265.1 600.7,265.6 600.6,266.8 600.8,267.7 601.2,268.4 601.6,268.9 602.1,269.3 
		602.7,269.5 603.3,269.6 603.8,269.6 604.9,269.6 605.8,269.5 606.7,269.4 607.5,269.2 608.2,268.9 608.9,268.6 609.5,268.3 
		610,267.9 610.4,267.6 610.8,267.1 611.2,266.8 611.5,266.3 611.7,265.9 611.9,265.5 612.1,265.1 612.2,264.7 612.5,263.7 
		612.7,262.6 612.9,261.5 613.1,260.6 613.1,260.6 	"/>
	<polygon class="st0" points="548.4,277.3 539,277.3 546.9,231.8 563.3,231.8 564.8,258.8 576.2,231.8 593.3,231.8 585.3,277.3 
		575.9,277.3 581.8,243.3 581.4,243.3 567.3,277.3 556.7,277.3 556.6,275.9 556.3,272.1 556,266.8 555.7,260.6 555.3,254.4 
		555,248.9 554.8,245 554.7,243.3 554.6,243.3 554.4,243.3 554.2,243.3 554.2,243.3 548.4,277.3 548.4,277.3 	"/>
	<polyline class="st5" points="548.4,277.3 539,277.3 546.9,231.8 563.3,231.8 564.8,258.8 576.2,231.8 593.3,231.8 585.3,277.3 
		575.9,277.3 581.8,243.3 581.4,243.3 567.3,277.3 556.7,277.3 556.7,277.3 556.6,275.9 556.3,272.1 556,266.8 555.7,260.6 
		555.3,254.4 555,248.9 554.8,245 554.7,243.3 554.7,243.3 554.6,243.3 554.4,243.3 554.2,243.3 554.2,243.3 548.4,277.3 	"/>
	<polygon class="st0" points="793.7,269.6 792.3,277.3 783.6,277.3 783.7,275.9 783.7,274.7 783.7,273.7 783.8,273.3 783.3,273.8 
		782.8,274.4 782.2,274.8 781.5,275.3 780.8,275.8 779.9,276.2 779,276.6 778.2,277 777.2,277.2 776.3,277.5 775.3,277.7 
		774.3,277.8 773.3,277.9 772.3,277.9 771.4,277.8 770.5,277.7 769.2,277.4 768.1,277 767.2,276.6 766.2,276.1 765.5,275.5 
		764.8,274.9 764.3,274.2 763.8,273.5 763.4,272.8 763,272 762.8,271.3 762.6,270.5 762.5,269.7 762.4,268.9 762.3,268.1 
		762.3,267.4 762.4,266 762.6,264.7 762.9,263.5 763.3,262.3 763.8,261.2 764.5,260.2 765.2,259.3 766,258.4 766.9,257.6 
		767.9,256.9 768.9,256.2 770,255.7 771,255.2 772.2,254.8 773.3,254.5 774.5,254.3 774.6,254.3 774.8,254.2 775,254.2 775.3,254.2 
		775.8,254.1 776.3,254.1 776.8,254 777.3,253.9 777.9,253.8 778.6,253.8 779.2,253.7 779.8,253.7 780.3,253.6 780.8,253.6 
		781.3,253.6 781.7,253.6 782.5,253.6 783.3,253.6 784.1,253.6 784.9,253.6 785.5,253.7 786.1,253.7 786.4,253.7 786.5,253.7 
		786.6,253.5 786.7,252.9 786.8,252.1 786.9,251.5 786.8,250.7 786.5,250 786,249.4 785.5,248.9 784.9,248.4 784.2,248.1 
		783.4,247.9 782.6,247.8 781.6,247.8 780.5,247.8 779.5,247.8 778.4,247.8 777.2,247.9 776.1,248 775,248.1 773.9,248.2 
		772.9,248.4 771.9,248.5 771,248.7 770.1,248.9 769.4,249.1 768.7,249.3 768.3,249.5 767.9,249.8 770.3,241.4 771.1,241.1 
		771.9,240.8 772.7,240.6 773.5,240.4 774.4,240.2 775.2,240.1 776.1,239.9 777.1,239.9 778,239.8 779,239.8 780.1,239.7 
		781.1,239.7 782.2,239.7 783.3,239.7 784.5,239.8 785.7,239.8 786.7,239.9 787.7,240 788.8,240.3 789.9,240.6 791,241 792,241.5 
		793.1,242.1 794,242.7 794.9,243.5 795.7,244.3 796.4,245.3 796.9,246.3 797.3,247.4 797.5,248.6 797.5,249.9 797.4,251.3 
		793.7,269.6 793.7,269.6 	"/>
	<polygon class="st0" points="792.3,277.6 792.5,277.4 793.9,269.7 793.5,269.6 792.1,277.3 792.3,277.1 792.3,277.6 792.5,277.6 
		792.5,277.4 792.3,277.6 792.3,277.6 	"/>
	<polygon class="st0" points="783.4,277.3 783.6,277.6 792.3,277.6 792.3,277.1 783.6,277.1 783.8,277.3 783.4,277.3 783.4,277.6 
		783.6,277.6 783.4,277.3 783.4,277.3 	"/>
	<polygon class="st0" points="784,273.4 783.6,273.2 783.5,273.7 783.5,274.7 783.5,275.9 783.4,277.3 783.8,277.3 783.9,275.9 
		784,274.7 783.9,273.7 783.9,273.4 783.6,273.2 784,273.4 784,273.4 	"/>
	<polygon class="st0" points="770.4,277.9 770.4,277.9 771.4,278 772.3,278.1 773.3,278.1 774.3,278 775.3,277.9 776.3,277.7 
		777.3,277.4 778.2,277.2 779.1,276.8 780,276.4 780.9,276 781.6,275.5 782.3,275 782.9,274.5 783.5,274 784,273.4 783.6,273.2 
		783.2,273.7 782.7,274.2 782,274.7 781.4,275.2 780.7,275.6 779.8,276 779,276.4 778.1,276.8 777.2,277 776.2,277.3 775.3,277.5 
		774.3,277.6 773.3,277.7 772.3,277.7 771.4,277.6 770.5,277.5 770.5,277.5 770.4,277.9 770.4,277.9 	"/>
	<polygon class="st0" points="762,267.4 762,267.4 762.1,268.1 762.2,268.9 762.2,269.7 762.4,270.5 762.6,271.3 762.8,272.1 
		763.2,272.9 763.6,273.6 764.1,274.4 764.7,275 765.3,275.7 766.1,276.2 767,276.8 768,277.2 769.2,277.6 770.4,277.9 770.5,277.5 
		769.3,277.2 768.2,276.8 767.2,276.4 766.3,275.9 765.6,275.3 765,274.7 764.4,274.1 764,273.4 763.6,272.7 763.3,272 763,271.2 
		762.8,270.5 762.7,269.7 762.6,268.9 762.5,268.1 762.5,267.4 762.5,267.4 762,267.4 762,267.4 	"/>
	<polygon class="st0" points="774.5,254.1 774.5,254.1 773.3,254.3 772.1,254.6 771,254.9 769.8,255.4 768.8,256 767.7,256.7 
		766.8,257.4 765.9,258.2 765.1,259.1 764.3,260.1 763.6,261.1 763.1,262.3 762.7,263.5 762.4,264.7 762.2,266 762,267.4 
		762.5,267.4 762.6,266 762.8,264.8 763.1,263.6 763.5,262.4 764.1,261.3 764.7,260.4 765.4,259.4 766.2,258.5 767.1,257.8 768,257 
		769,256.4 770.1,255.9 771.1,255.4 772.2,255 773.4,254.7 774.5,254.5 774.5,254.5 774.5,254.1 774.5,254.1 	"/>
	<polygon class="st0" points="781.7,253.3 781.7,253.3 781.3,253.3 780.8,253.4 780.3,253.4 779.8,253.5 779.2,253.5 778.6,253.6 
		777.9,253.6 777.3,253.7 776.8,253.8 776.3,253.8 775.8,253.9 775.3,253.9 775,254 774.7,254 774.6,254.1 774.5,254.1 774.5,254.5 
		774.6,254.5 774.8,254.4 775,254.4 775.3,254.4 775.8,254.3 776.3,254.3 776.8,254.2 777.3,254.1 777.9,254.1 778.6,254 
		779.2,253.9 779.8,253.9 780.3,253.8 780.8,253.8 781.3,253.8 781.7,253.8 781.7,253.8 781.7,253.3 781.7,253.3 	"/>
	<polygon class="st0" points="786.3,253.7 786.5,253.5 786.4,253.5 786.1,253.5 785.5,253.5 784.9,253.4 784.1,253.4 783.3,253.4 
		782.5,253.3 781.7,253.3 781.7,253.8 782.5,253.8 783.3,253.8 784.1,253.9 784.9,253.9 785.5,253.9 786.1,253.9 786.4,253.9 
		786.5,253.9 786.8,253.8 786.5,253.9 786.7,254 786.8,253.8 786.3,253.7 786.3,253.7 	"/>
	<polygon class="st0" points="786.7,251.5 786.7,251.5 786.6,252.1 786.5,252.8 786.4,253.5 786.3,253.7 786.8,253.8 786.8,253.5 
		786.9,252.9 787,252.1 787.1,251.5 787.1,251.5 786.7,251.5 786.7,251.5 	"/>
	<polygon class="st0" points="782.6,248.1 782.6,248.1 783.4,248.1 784.1,248.3 784.8,248.6 785.4,249.1 785.8,249.5 786.3,250.1 
		786.5,250.8 786.7,251.5 787.1,251.5 787,250.7 786.7,249.9 786.2,249.3 785.7,248.7 785,248.2 784.2,247.9 783.4,247.7 
		782.6,247.6 782.6,247.6 782.6,248.1 782.6,248.1 	"/>
	<polygon class="st0" points="767.7,249.7 768,249.9 768.4,249.8 768.8,249.5 769.4,249.3 770.2,249.1 771,248.9 771.9,248.7 
		772.9,248.6 773.9,248.4 775,248.3 776.1,248.2 777.2,248.1 778.4,248 779.5,248 780.5,248 781.6,248 782.6,248.1 782.6,247.6 
		781.6,247.6 780.5,247.5 779.5,247.5 778.4,247.6 777.2,247.7 776.1,247.8 775,247.9 773.9,248 772.8,248.2 771.8,248.3 
		770.9,248.5 770.1,248.7 769.3,248.9 768.7,249.1 768.2,249.3 767.7,249.6 768.1,249.8 767.7,249.7 767.7,249.7 	"/>
	<polygon class="st0" points="770.2,241.2 770.1,241.3 767.7,249.7 768.1,249.8 770.5,241.4 770.4,241.6 770.2,241.2 770.1,241.2 
		770.1,241.3 770.2,241.2 770.2,241.2 	"/>
	<polygon class="st0" points="785.7,239.6 785.7,239.6 784.5,239.5 783.3,239.5 782.2,239.5 781.1,239.5 780.1,239.5 779,239.5 
		778,239.6 777.1,239.7 776.1,239.7 775.2,239.9 774.3,240 773.5,240.2 772.6,240.3 771.8,240.6 771,240.9 770.2,241.2 770.4,241.6 
		771.1,241.3 771.9,241 772.7,240.8 773.5,240.6 774.4,240.4 775.3,240.3 776.1,240.1 777.1,240.1 778,240 779,240 780.1,240 
		781.1,240 782.2,240 783.3,240 784.5,240 785.7,240 785.7,240 785.7,239.6 785.7,239.6 	"/>
	<polygon class="st0" points="797.6,251.3 797.6,251.3 797.8,249.9 797.8,248.6 797.5,247.4 797.1,246.2 796.6,245.2 795.9,244.2 
		795,243.3 794.2,242.6 793.2,241.9 792.1,241.3 791,240.8 790,240.4 788.8,240.1 787.7,239.8 786.7,239.7 785.7,239.6 785.7,240 
		786.7,240.1 787.7,240.2 788.7,240.5 789.8,240.8 790.9,241.2 791.9,241.7 793,242.2 793.9,242.9 794.8,243.7 795.5,244.5 
		796.2,245.4 796.7,246.4 797.1,247.5 797.3,248.6 797.3,249.9 797.2,251.3 797.2,251.3 797.6,251.3 797.6,251.3 	"/>
	<polygon class="st0" points="793.9,269.7 793.9,269.7 797.6,251.3 797.2,251.3 793.5,269.6 793.5,269.6 793.9,269.7 793.9,269.7 	
		"/>
	<polygon class="st3" points="785.3,260.6 785.3,260.4 785.1,260.2 784.9,260.1 784.5,260 784.2,259.9 783.7,259.9 783.2,259.9 
		782.7,259.9 782.1,260 781.5,260.1 781,260.2 780.5,260.2 780,260.3 779.5,260.4 779,260.5 778.7,260.6 778.5,260.6 778.2,260.7 
		777.8,260.8 777.5,261 777,261.2 776.6,261.4 776.1,261.6 775.7,261.9 775.2,262.2 774.8,262.6 774.4,263 774,263.5 773.7,263.9 
		773.4,264.5 773.2,265 773.1,265.6 773.1,266.8 773.2,267.7 773.5,268.4 774,268.9 774.5,269.3 775.1,269.5 775.7,269.6 
		776.2,269.6 777.3,269.6 778.2,269.5 779.2,269.3 780,269.1 780.7,268.8 781.4,268.5 782,268.1 782.6,267.7 783,267.3 783.5,266.9 
		783.8,266.5 784.2,266 784.4,265.6 784.6,265.2 784.7,264.8 784.8,264.4 785,263.4 785.1,262.4 785.3,261.4 785.3,260.6 
		785.3,260.6 	"/>
	<polygon class="st0" points="856.8,272.6 856.9,271.8 857.2,270.8 857.7,270 858.3,269.3 859,268.7 859.8,268.3 860.7,268 
		861.7,267.9 862.7,268 863.6,268.3 864.4,268.7 865.1,269.3 865.7,270 866.2,270.8 866.5,271.8 866.6,272.6 865.5,272.6 865.5,272 
		865.3,271.2 864.9,270.5 864.5,269.9 863.9,269.4 863.3,269.1 862.5,268.8 861.7,268.8 860.9,268.8 860.1,269.1 859.5,269.4 
		858.9,269.9 858.5,270.5 858.1,271.2 857.9,272 857.8,272.6 856.8,272.6 856.8,272.6 	"/>
	<polygon class="st0" points="860,272.6 860,270.5 861.9,270.5 862.3,270.5 862.7,270.6 863,270.7 863.2,270.8 863.4,271.1 
		863.5,271.3 863.6,271.5 863.6,271.8 863.6,272.1 863.5,272.3 863.4,272.5 863.3,272.6 861.9,272.6 862,272.6 862.2,272.5 
		862.5,272.4 862.6,272.4 862.8,272.3 862.8,272.2 862.9,272 862.9,271.8 862.9,271.6 862.8,271.4 862.7,271.4 862.6,271.3 
		862.4,271.3 862.2,271.2 862.1,271.2 861.9,271.2 860.8,271.2 860.8,272.6 860,272.6 860,272.6 	"/>
	<polygon class="st0" points="856.8,272.6 856.8,272.8 856.9,273.8 857.2,274.7 857.7,275.6 858.3,276.3 859,276.9 859.8,277.3 
		860.7,277.6 861.7,277.7 862.7,277.6 863.6,277.3 864.4,276.9 865.1,276.3 865.7,275.6 866.2,274.7 866.5,273.8 866.6,272.8 
		866.6,272.6 865.5,272.6 865.5,272.8 865.5,273.6 865.3,274.4 864.9,275.1 864.5,275.6 863.9,276.1 863.3,276.5 862.5,276.8 
		861.7,276.8 860.9,276.8 860.1,276.5 859.5,276.1 858.9,275.6 858.5,275.1 858.1,274.4 857.9,273.6 857.8,272.8 857.8,272.6 
		856.8,272.6 856.8,272.6 	"/>
	<polygon class="st0" points="860,272.6 860,274.7 860.8,274.7 860.8,273 861.7,273 862.7,274.7 863.4,274.7 862.4,273 862.6,273 
		862.9,272.9 863.1,272.8 863.3,272.7 863.3,272.6 861.9,272.6 861.7,272.6 860.8,272.6 860.8,272.6 860,272.6 860,272.6 	"/>
	<path class="st5" d="M856.8,272.8L856.8,272.8l0.1-1l0.3-0.9l0.5-0.8l0.6-0.7l0.7-0.6l0.8-0.4l0.9-0.3l1-0.1l0,0l1,0.1l0.9,0.3
		l0.8,0.4l0.7,0.6l0.6,0.7l0.5,0.8l0.3,0.9l0.1,1l0,0l-0.1,1l-0.3,0.9l-0.5,0.8l-0.6,0.7l-0.7,0.6l-0.8,0.4l-0.9,0.3l-1,0.1l0,0
		l-1-0.1l-0.9-0.3l-0.8-0.4l-0.7-0.6l-0.6-0.7l-0.5-0.8l-0.3-0.9L856.8,272.8 M860.8,274.7H860v-4.2h1.9h0.4l0.4,0.1l0.3,0.1
		l0.2,0.1l0.2,0.2l0.1,0.2l0.1,0.2v0.2l0,0v0.3l-0.1,0.2l-0.1,0.2l-0.1,0.2l-0.2,0.1l-0.2,0.1l-0.2,0.1h-0.2l1,1.7h-0.7l-1-1.7h-0.9
		L860.8,274.7 M861.8,272.6L861.8,272.6l0.3-0.1h0.2l0.2-0.1l0.2-0.1l0.1-0.1l0.1-0.1l0.1-0.2v-0.2l0,0v-0.2l-0.1-0.1l-0.1-0.1
		l-0.1-0.1h-0.2h-0.2h-1.4v1.4h0.9 M861.8,276.9L861.8,276.9l0.8-0.1l0.8-0.2l0.7-0.4l0.6-0.5l0.5-0.6l0.3-0.7l0.2-0.8l0.1-0.8l0,0
		l-0.1-0.8l-0.2-0.8l-0.3-0.7l-0.5-0.6l-0.6-0.5l-0.7-0.3l-0.8-0.2l-0.8-0.1l0,0l-0.8,0.1l-0.8,0.2l-0.7,0.3L859,270l-0.5,0.6
		l-0.3,0.7l-0.2,0.8l-0.1,0.8l0,0l0.1,0.8l0.2,0.8l0.3,0.7l0.5,0.6l0.6,0.5l0.7,0.4l0.8,0.2L861.8,276.9"/>
	<polygon class="st0" points="796.3,277.3 806.1,277.3 806.1,277.3 809.6,257.6 809.8,256.8 810,256.1 810.2,255.3 810.5,254.5 
		810.8,253.8 811.2,253.1 811.7,252.3 812.2,251.7 812.9,251.1 813.5,250.6 814.3,250 815.2,249.6 816.3,249.3 817.4,249 
		818.6,248.8 819.9,248.7 820.4,248.7 820.7,248.7 820.8,248.7 820.8,248.7 822.4,239.8 821.4,239.9 820.5,240 819.6,240.1 
		818.8,240.4 818,240.7 817.3,241 816.6,241.4 815.9,241.8 815.3,242.3 814.7,242.8 814.1,243.3 813.6,243.9 813.1,244.5 
		812.5,245.1 812,245.8 811.5,246.4 812.6,240.2 802.8,240.2 796.3,277.3 796.3,277.3 796.3,277.3 	"/>
	<polyline class="st5" points="796.3,277.3 806.1,277.3 806.1,277.3 809.6,257.6 809.6,257.6 809.8,256.8 810,256.1 810.2,255.3 
		810.5,254.5 810.8,253.8 811.2,253.1 811.7,252.3 812.2,251.7 812.9,251.1 813.5,250.6 814.3,250 815.2,249.6 816.3,249.3 
		817.4,249 818.6,248.8 819.9,248.7 819.9,248.7 820.4,248.7 820.7,248.7 820.8,248.7 820.8,248.7 822.4,239.8 822.4,239.8 
		821.4,239.9 820.5,240 819.6,240.1 818.8,240.4 818,240.7 817.3,241 816.6,241.4 815.9,241.8 815.3,242.3 814.7,242.8 814.1,243.3 
		813.6,243.9 813.1,244.5 812.5,245.1 812,245.8 811.5,246.4 812.6,240.2 802.8,240.2 796.3,277.3 796.3,277.3 	"/>
	<polygon class="st0" points="704.4,277.3 714.2,277.3 714.4,277.3 717.7,257.6 717.9,256.8 718,256.1 718.2,255.4 718.5,254.7 
		718.7,254 719.1,253.3 719.5,252.7 720,252.1 720.5,251.6 721.2,251.1 721.9,250.7 722.8,250.3 723.7,250 724.8,249.7 726,249.5 
		727.3,249.4 727.4,249.4 727.6,249.4 727.8,249.5 727.9,249.5 728.1,249.5 728.2,249.5 728.3,249.6 728.4,249.6 728.4,249.4 
		728.5,249 728.7,248.4 728.8,247.6 729.1,246.7 729.3,245.8 729.6,244.8 729.9,243.8 730.2,243.2 730.6,242.5 730.9,241.8 
		731.2,241.2 731.6,240.7 731.8,240.3 732,240.1 732,240 732,240 731.9,239.9 731.7,239.9 731.5,239.9 731.2,239.9 730.9,239.8 
		730.7,239.8 730.5,239.8 729.4,239.9 728.4,240 727.5,240.1 726.7,240.3 725.9,240.6 725.2,241 724.5,241.3 723.9,241.7 
		723.3,242.2 722.7,242.7 722.2,243.2 721.7,243.8 721.2,244.4 720.7,245.1 720.2,245.8 719.6,246.4 720.9,240.2 710.9,240.2 
		704.4,277.3 704.4,277.3 704.4,277.3 	"/>
	<polyline class="st5" points="704.4,277.3 714.2,277.3 714.4,277.3 717.7,257.6 717.7,257.6 717.9,256.8 718,256.1 718.2,255.4 
		718.5,254.7 718.7,254 719.1,253.3 719.5,252.7 720,252.1 720.5,251.6 721.2,251.1 721.9,250.7 722.8,250.3 723.7,250 724.8,249.7 
		726,249.5 727.3,249.4 727.3,249.4 727.4,249.4 727.6,249.4 727.8,249.5 727.9,249.5 728.1,249.5 728.2,249.5 728.3,249.6 
		728.4,249.6 728.4,249.6 728.4,249.4 728.5,249 728.7,248.4 728.8,247.6 729.1,246.7 729.3,245.8 729.6,244.8 729.9,243.8 
		729.9,243.8 730.2,243.2 730.6,242.5 730.9,241.8 731.2,241.2 731.6,240.7 731.8,240.3 732,240.1 732,240 732,240 732,240 
		731.9,239.9 731.7,239.9 731.5,239.9 731.2,239.9 730.9,239.8 730.7,239.8 730.5,239.8 730.5,239.8 729.4,239.9 728.4,240 
		727.5,240.1 726.7,240.3 725.9,240.6 725.2,241 724.5,241.3 723.9,241.7 723.3,242.2 722.7,242.7 722.2,243.2 721.7,243.8 
		721.2,244.4 720.7,245.1 720.2,245.8 719.6,246.4 720.9,240.2 710.9,240.2 704.4,277.3 704.4,277.3 	"/>
	<polygon class="st3" points="856.9,313.9 856.9,313.7 857.2,312.8 857.7,312 858.3,311.3 859,310.8 859.8,310.3 860.7,310.1 
		861.7,310 862.7,310.1 863.6,310.3 864.4,310.8 865.1,311.3 865.7,312 866.2,312.8 866.5,313.7 866.5,313.9 865.5,313.9 
		865.3,313.1 864.9,312.5 864.5,311.9 863.9,311.4 863.3,311 862.5,310.8 861.7,310.7 860.9,310.8 860.1,311 859.5,311.4 
		858.9,311.9 858.5,312.5 858.1,313.1 857.9,313.9 856.9,313.9 856.9,313.9 	"/>
	<polygon class="st3" points="860,313.9 860,312.6 861.9,312.6 862.3,312.6 862.7,312.7 863,312.8 863.2,312.9 863.4,313.1 
		863.5,313.3 863.6,313.6 863.6,313.9 862.9,313.9 862.9,313.7 862.9,313.5 862.8,313.4 862.7,313.3 862.6,313.2 862.4,313.2 
		862.2,313.2 862.1,313.2 861.9,313.2 860.8,313.2 860.8,313.9 860,313.9 860,313.9 	"/>
	<polygon class="st3" points="856.8,314.6 856.9,313.9 857.9,313.9 857.9,313.9 857.8,314.6 856.8,314.6 856.8,314.6 	"/>
	<polygon class="st3" points="860,314.6 860,313.9 860.8,313.9 860.8,314.6 861.7,314.6 862,314.5 862.2,314.4 862.5,314.4 
		862.6,314.3 862.8,314.2 862.8,314.1 862.9,313.9 862.9,313.9 863.6,313.9 863.6,313.9 863.6,314.1 863.5,314.3 863.4,314.5 
		863.3,314.6 860,314.6 860,314.6 	"/>
	<polygon class="st3" points="865.5,314.6 865.5,313.9 865.5,313.9 866.5,313.9 866.6,314.6 865.5,314.6 865.5,314.6 	"/>
	<polygon class="st3" points="856.8,314.6 856.8,314.7 856.9,315.7 857.2,316.7 857.7,317.5 858.3,318.2 859,318.8 859.8,319.2 
		860.7,319.5 861.7,319.6 862.7,319.5 863.6,319.2 864.4,318.8 865.1,318.2 865.7,317.5 866.2,316.7 866.5,315.7 866.6,314.7 
		866.6,314.6 865.5,314.6 865.5,314.7 865.5,315.6 865.3,316.3 864.9,317 864.5,317.6 863.9,318.1 863.3,318.4 862.5,318.7 
		861.7,318.8 860.9,318.7 860.1,318.4 859.5,318.1 858.9,317.6 858.5,317 858.1,316.3 857.9,315.6 857.8,314.7 857.8,314.6 
		856.8,314.6 856.8,314.6 	"/>
	<polygon class="st3" points="860,314.6 860,316.6 860.8,316.6 860.8,314.9 861.7,314.9 862.7,316.6 863.4,316.6 862.4,314.9 
		862.6,314.9 862.9,314.8 863.1,314.8 863.3,314.6 863.3,314.6 860,314.6 860,314.6 	"/>
</g>
</svg>
