<?xml version="1.0" encoding="utf-8"?>
<!-- Generator: Adobe Illustrator 24.1.0, SVG Export Plug-In . SVG Version: 6.00 Build 0)  -->
<svg version="1.1" id="Layer_1" xmlns="http://www.w3.org/2000/svg" xmlns:xlink="http://www.w3.org/1999/xlink" x="0px" y="0px"
	 viewBox="0 0 1000 1000" style="enable-background:new 0 0 1000 1000;" xml:space="preserve">
<style type="text/css">
	.st0{fill:#FFBD2E;}
	.st1{fill:#DA393B;}
	.st2{fill:#1E0000;}
	.st3{clip-path:url(#SVGID_2_);fill:url(#SVGID_3_);}
	.st4{clip-path:url(#SVGID_5_);fill:url(#SVGID_6_);}
	.st5{clip-path:url(#SVGID_8_);fill:url(#SVGID_9_);}
	.st6{clip-path:url(#SVGID_11_);fill:url(#SVGID_12_);}
	.st7{clip-path:url(#SVGID_14_);fill:url(#SVGID_15_);}
	.st8{clip-path:url(#SVGID_17_);fill:url(#SVGID_18_);}
	.st9{clip-path:url(#SVGID_20_);fill:url(#SVGID_21_);}
	.st10{clip-path:url(#SVGID_23_);fill:url(#SVGID_24_);}
	.st11{clip-path:url(#SVGID_26_);fill:url(#SVGID_27_);}
	.st12{clip-path:url(#SVGID_29_);fill:url(#SVGID_30_);}
	.st13{clip-path:url(#SVGID_32_);fill:url(#SVGID_33_);}
	.st14{clip-path:url(#SVGID_35_);fill:url(#SVGID_36_);}
	.st15{clip-path:url(#SVGID_38_);fill:url(#SVGID_39_);}
	.st16{clip-path:url(#SVGID_41_);fill:url(#SVGID_42_);}
	.st17{clip-path:url(#SVGID_44_);fill:url(#SVGID_45_);}
	.st18{clip-path:url(#SVGID_47_);fill:url(#SVGID_48_);}
	.st19{clip-path:url(#SVGID_50_);fill:url(#SVGID_51_);}
	.st20{clip-path:url(#SVGID_53_);fill:url(#SVGID_54_);}
	.st21{clip-path:url(#SVGID_56_);fill:url(#SVGID_57_);}
	.st22{fill:#8F4A02;}
	.st23{clip-path:url(#SVGID_59_);fill:url(#SVGID_60_);}
	.st24{clip-path:url(#SVGID_62_);fill:url(#SVGID_63_);}
	.st25{clip-path:url(#SVGID_65_);fill:url(#SVGID_66_);}
	.st26{clip-path:url(#SVGID_68_);fill:url(#SVGID_69_);}
	.st27{fill:#FFC20E;}
	.st28{fill:#D78817;}
	.st29{fill:#D89016;}
	.st30{clip-path:url(#SVGID_71_);fill:url(#SVGID_72_);}
	.st31{clip-path:url(#SVGID_74_);fill:url(#SVGID_75_);}
	.st32{clip-path:url(#SVGID_77_);fill:url(#SVGID_78_);}
	.st33{clip-path:url(#SVGID_80_);fill:url(#SVGID_81_);}
</style>
<g id="Layer_2">
	<g id="Layer_1-2">
		<rect y="0" class="st0" width="1000" height="500"/>
		<g>
			<path class="st1" d="M175.9,179.3L144,222.7h174c8.8,0,8.7,3.3,4.4,9.2s-11.7,16.2-16.1,22.2c-2.3,3.1-6.3,8.6,7.2,8.6h71.2
				c0,0,11.5-15.6,21.1-28.7c13.1-17.8,1.1-54.7-45.7-54.7L175.9,179.3z"/>
			<path class="st1" d="M131,320.7l64.2-87.2h79.6c8.8,0,8.7,3.3,4.4,9.2s-11.8,16.1-16.2,22.1c-2.3,3-6.3,8.6,7.2,8.6h106.7
				c-8.9,12.1-37.6,47.3-89.3,47.3H131z"/>
			<path class="st1" d="M498.5,273.4l-34.8,47.3h-91.8l34.8-47.3H498.5z"/>
			<polygon class="st1" points="639.1,262.7 414.6,262.7 476,179.3 567.8,179.3 532.6,227.1 573.5,227.1 608.7,179.3 700.5,179.3 
							"/>
			<path class="st1" d="M631.2,273.4l-34.8,47.3h-91.8l34.8-47.3H631.2z"/>
			<polygon class="st1" points="0,292.1 135.2,292.1 127.8,302.1 0,302.1 			"/>
			<polygon class="st1" points="0,273.4 149,273.4 141.6,283.4 0,283.4 			"/>
			<polygon class="st1" points="0,310.7 121.5,310.7 114.2,320.7 0,320.7 			"/>
			<polygon class="st1" points="1000,302.1 865.3,302.1 872.7,292.1 1000,292.1 			"/>
			<polygon class="st1" points="1000,320.7 851.6,320.7 858.9,310.7 1000,310.7 			"/>
			<polygon class="st1" points="886.4,273.4 1000,273.4 1000,283.4 879,283.5 			"/>
			<path class="st1" d="M827.6,179.3l-61.4,83.4H669l61.4-83.4L827.6,179.3z"/>
			<path class="st1" d="M661.1,273.4c0,0-6.7,9.2-10,13.6c-11.5,15.6-1.3,33.7,36.3,33.7h147.4l34.8-47.3L661.1,273.4z"/>
		</g>
	</g>
</g>
<g>
	<g>
		<path class="st2" d="M500,551.6c-66.9,0-122,12.7-170.6,38.5v198.9c0,42.5,16,78,46.2,102.8c27.3,22.3,114.5,60.6,124.4,64.9
			c9.9-4.3,97.2-42.6,124.4-64.9c30.2-24.8,46.2-60.3,46.2-102.8V590.1C622,564.3,566.9,551.6,500,551.6"/>
	</g>
	<g>
		<defs>
			<path id="SVGID_1_" d="M332.8,592.1v196.8c0,41.4,15.5,76,44.9,100.1c26.9,22.1,112.4,59.6,122.2,63.8
				c9.8-4.3,95.3-41.8,122.2-63.8c29.4-24.1,44.9-58.7,44.9-100.1V592.1C620.7,567.5,564.5,555,500,555S379.3,567.5,332.8,592.1"/>
		</defs>
		<clipPath id="SVGID_2_">
			<use xlink:href="#SVGID_1_"  style="overflow:visible;"/>
		</clipPath>
		
			<radialGradient id="SVGID_3_" cx="70.2073" cy="442.3687" r="4.6432" gradientTransform="matrix(0 119.608 -59.804 0 26839.3633 -7773.5503)" gradientUnits="userSpaceOnUse">
			<stop  offset="0" style="stop-color:#FFDC00"/>
			<stop  offset="0.35" style="stop-color:#FFBE00"/>
			<stop  offset="1" style="stop-color:#C86E14"/>
		</radialGradient>
		<path class="st3" d="M332.8,555.1h334.3v397.8H332.8V555.1z"/>
	</g>
	<g>
		<defs>
			<path id="SVGID_4_" d="M494.3,708.4v89.4c2.1,0.8,5.5,1.8,9.4,1.8c16.7,0,24.7-15.4,24.7-47.2c0-32.6-7-46.1-23.9-46.1
				C500.6,706.3,496.6,707.2,494.3,708.4 M421.2,795.4V685.8h29V812c-11.1,7.5-26,11.7-43.8,11.7c-28.8,0-43.4-15.6-43.4-46.4v-91.4
				h29.1v92.7c0,8.3,2,20.5,15.3,20.5C413.3,799,418,797.6,421.2,795.4 M465.1,693.2c10.5-6.8,23.3-10.3,39.2-10.3
				c34.7,0,53.8,26.3,53.8,68.7c0,42.5-18.5,71.6-50.8,71.6c-6,0-10.2-0.8-13.1-1.6v61.2h-29.1L465.1,693.2L465.1,693.2z
				 M611.2,783.5c-0.2-9.1-5.4-14.1-18.2-21.6c-24-14.1-28.3-25.6-28.3-41.1c-0.1-23.5,19.9-37.3,39-37.9c16-0.5,26.8,5.5,31.9,9.4
				v25.3c-6.1-6.2-15.9-11.9-26-12c-8.2-0.1-16.8,3.6-17.1,13.9c-0.3,10.6,8.3,14.8,19.1,21.1c24.3,14.3,29,27.1,28.4,44.1
				c-0.6,18.6-13.4,38.9-42.1,38.9c-11.5,0-22.9-3.6-32-9v-26.8c7.4,6.6,18.5,11.8,27.8,11.8h0.1
				C604.5,799.7,611.5,793.6,611.2,783.5 M348.2,676.4v112.6c0,36.7,13.6,67.3,39.3,88.3c22.7,18.5,92.7,50.2,112.5,58.9
				c19.5-8.6,89.3-39.9,112.4-58.9c25.9-21.4,39.4-51.3,39.4-88.3V596.3c-20.6-1.9-42.1-3.2-63.9-3.2
				C506.8,593.1,420,610.5,348.2,676.4"/>
		</defs>
		<clipPath id="SVGID_5_">
			<use xlink:href="#SVGID_4_"  style="overflow:visible;"/>
		</clipPath>
		
			<radialGradient id="SVGID_6_" cx="70.252" cy="442.3283" r="4.6432" gradientTransform="matrix(0 118.6833 -59.3417 0 26632.627 -7713.6304)" gradientUnits="userSpaceOnUse">
			<stop  offset="0" style="stop-color:#4B3333"/>
			<stop  offset="0.35" style="stop-color:#351A1A"/>
			<stop  offset="0.85" style="stop-color:#1E0000"/>
			<stop  offset="1" style="stop-color:#1E0000"/>
		</radialGradient>
		<path class="st4" d="M348.2,593.1h303.6v343H348.2V593.1z"/>
	</g>
	<g>
		<defs>
			<path id="SVGID_7_" d="M348.2,788.9c0,36.7,13.6,67.3,39.3,88.3c22.7,18.5,92.7,50.2,112.5,58.9v-2.3
				c-16.4-7.3-88.1-39.5-111.2-58.3c-25.2-20.5-38.6-50.5-38.6-86.6H348.2L348.2,788.9z"/>
		</defs>
		<clipPath id="SVGID_8_">
			<use xlink:href="#SVGID_7_"  style="overflow:visible;"/>
		</clipPath>
		
			<linearGradient id="SVGID_9_" gradientUnits="userSpaceOnUse" x1="44.9214" y1="657.5566" x2="49.5648" y2="657.5566" gradientTransform="matrix(-32.756 -31.6321 -31.6321 32.756 22771.4961 -19182.0039)">
			<stop  offset="0" style="stop-color:#E49F15"/>
			<stop  offset="2.400000e-02" style="stop-color:#E39C15"/>
			<stop  offset="0.178" style="stop-color:#DC9116"/>
			<stop  offset="0.396" style="stop-color:#D88A17"/>
			<stop  offset="1" style="stop-color:#D78817"/>
		</linearGradient>
		<path class="st5" d="M426.8,1012L274.7,865.1l146.8-152L573.5,860"/>
	</g>
	<g>
		<defs>
			<path id="SVGID_10_" d="M649.7,788.9c0,36.4-13,65.6-38.6,86.7c-22.3,18.3-89.6,48.8-111.1,58.2v2.3
				c19.5-8.6,89.3-39.9,112.4-58.9c25.9-21.4,39.4-51.3,39.4-88.3H649.7z"/>
		</defs>
		<clipPath id="SVGID_11_">
			<use xlink:href="#SVGID_10_"  style="overflow:visible;"/>
		</clipPath>
		
			<linearGradient id="SVGID_12_" gradientUnits="userSpaceOnUse" x1="57.063" y1="629.2791" x2="61.7064" y2="629.2791" gradientTransform="matrix(32.756 -31.6321 -31.6321 -32.756 18536.1152 23353.6523)">
			<stop  offset="0" style="stop-color:#FFC20E"/>
			<stop  offset="1" style="stop-color:#D89016"/>
		</linearGradient>
		<path class="st6" d="M426.5,860l152.1-146.9l146.8,152L573.2,1012"/>
	</g>
	<g>
		<defs>
			<path id="SVGID_13_" d="M348.2,676.4l2.1,0.9c60.6-55.2,138.3-82.1,237.6-82.1c19.4,0,39.6,1,61.8,3l2.1-1.9
				c-20.6-1.9-42.1-3.2-63.9-3.2C506.8,593.1,420,610.5,348.2,676.4"/>
		</defs>
		<clipPath id="SVGID_14_">
			<use xlink:href="#SVGID_13_"  style="overflow:visible;"/>
		</clipPath>
		
			<linearGradient id="SVGID_15_" gradientUnits="userSpaceOnUse" x1="65.045" y1="638.0652" x2="69.6882" y2="638.0652" gradientTransform="matrix(63.6689 -22.1719 -22.1719 -63.6689 10357.6396 42753.8633)">
			<stop  offset="0" style="stop-color:#E49F15"/>
			<stop  offset="0.975" style="stop-color:#8F4A02"/>
			<stop  offset="1" style="stop-color:#8F4A02"/>
		</linearGradient>
		<path class="st7" d="M322.1,602.2L619,498.8l59,169.4L381,771.6"/>
	</g>
	<g>
		<defs>
			<path id="SVGID_16_" d="M526.3,752.3c0,25.7-5.1,45.1-22.6,45.1v2.1c16.7,0,24.7-15.4,24.7-47.2
				C528.4,752.3,526.3,752.3,526.3,752.3z"/>
		</defs>
		<clipPath id="SVGID_17_">
			<use xlink:href="#SVGID_16_"  style="overflow:visible;"/>
		</clipPath>
		
			<linearGradient id="SVGID_18_" gradientUnits="userSpaceOnUse" x1="18.0918" y1="588.0834" x2="22.7356" y2="588.0834" gradientTransform="matrix(5.1513 -10.2422 -10.2422 -5.1513 6434.1831 4014.385)">
			<stop  offset="0" style="stop-color:#FFC20E"/>
			<stop  offset="5.000000e-02" style="stop-color:#FFC20E"/>
			<stop  offset="0.95" style="stop-color:#BF7312"/>
			<stop  offset="1" style="stop-color:#BF7312"/>
		</linearGradient>
		<path class="st8" d="M484.8,790l23.9-47.6l38.7,19.4l-23.9,47.6"/>
	</g>
	<g>
		<defs>
			<path id="SVGID_19_" d="M494.3,797.7c2.1,0.8,5.5,1.8,9.4,1.8v-2.1c-2.9,0-5.4-0.6-7.3-1.2C496.3,796.2,494.3,797.7,494.3,797.7z
				"/>
		</defs>
		<clipPath id="SVGID_20_">
			<use xlink:href="#SVGID_19_"  style="overflow:visible;"/>
		</clipPath>
		
			<linearGradient id="SVGID_21_" gradientUnits="userSpaceOnUse" x1="-168.2953" y1="1007.4687" x2="-163.6521" y2="1007.4687" gradientTransform="matrix(-2.0486 -0.2515 -0.2515 2.0486 412.4746 -1307.7941)">
			<stop  offset="0" style="stop-color:#FFC20E"/>
			<stop  offset="5.000000e-02" style="stop-color:#FFC20E"/>
			<stop  offset="0.95" style="stop-color:#F0AF13"/>
			<stop  offset="1" style="stop-color:#F0AF13"/>
		</linearGradient>
		<path class="st9" d="M503.5,800.6l-9.7-1.2l0.5-4.3l9.7,1.2"/>
	</g>
	<g>
		<g>
			<defs>
				<path id="SVGID_22_" d="M494.3,708.4l2.1,1.4c2-0.7,5-1.4,8.2-1.4v-2.1C500.6,706.3,496.6,707.2,494.3,708.4"/>
			</defs>
			<clipPath id="SVGID_23_">
				<use xlink:href="#SVGID_22_"  style="overflow:visible;"/>
			</clipPath>
			
				<linearGradient id="SVGID_24_" gradientUnits="userSpaceOnUse" x1="146.2283" y1="297.4313" x2="150.8716" y2="297.4313" gradientTransform="matrix(2.186 -0.5735 -0.5735 -2.186 345.4143 1443.354)">
				<stop  offset="0" style="stop-color:#A65E0C"/>
				<stop  offset="5.000000e-02" style="stop-color:#A65E0C"/>
				<stop  offset="0.95" style="stop-color:#8F4A02"/>
				<stop  offset="1" style="stop-color:#8F4A02"/>
			</linearGradient>
			<path class="st10" d="M493.4,706.5l10.5-2.8l1.5,5.8l-10.5,2.7"/>
		</g>
	</g>
	<g>
		<g>
			<defs>
				<path id="SVGID_25_" d="M504.6,708.4c17.1,0,21.8,16,21.8,44h2.1c0-32.6-7-46.1-23.9-46.1V708.4L504.6,708.4z"/>
			</defs>
			<clipPath id="SVGID_26_">
				<use xlink:href="#SVGID_25_"  style="overflow:visible;"/>
			</clipPath>
			
				<linearGradient id="SVGID_27_" gradientUnits="userSpaceOnUse" x1="-12.1081" y1="647.5575" x2="-7.4648" y2="647.5575" gradientTransform="matrix(-5.0541 -9.9623 -9.9623 5.0541 6918.1646 -2641.043)">
				<stop  offset="0" style="stop-color:#BF7312"/>
				<stop  offset="5.000000e-02" style="stop-color:#BF7312"/>
				<stop  offset="0.95" style="stop-color:#8F4A02"/>
				<stop  offset="1" style="stop-color:#8F4A02"/>
			</linearGradient>
			<path class="st11" d="M509.4,762L486,715.7l37.6-19.1l23.5,46.3"/>
		</g>
	</g>
	<g>
		<g>
			<defs>
				<path id="SVGID_28_" d="M562.6,720.8l2.1,0c-0.1-23.5,19.9-37.3,39-37.9l-0.1-2.1C582.5,681.4,562.5,696.9,562.6,720.8"/>
			</defs>
			<clipPath id="SVGID_29_">
				<use xlink:href="#SVGID_28_"  style="overflow:visible;"/>
			</clipPath>
			
				<linearGradient id="SVGID_30_" gradientUnits="userSpaceOnUse" x1="74.7661" y1="716.8508" x2="79.4094" y2="716.8508" gradientTransform="matrix(-9.1515 8.269 8.269 9.1515 -4639.0029 -6497.0054)">
				<stop  offset="0" style="stop-color:#FFC20E"/>
				<stop  offset="5.000000e-02" style="stop-color:#FFC20E"/>
				<stop  offset="0.95" style="stop-color:#D89016"/>
				<stop  offset="1" style="stop-color:#D89016"/>
			</linearGradient>
			<path class="st12" d="M623.7,702.8l-42.6,38.5l-38.4-42.5l42.6-38.5"/>
		</g>
	</g>
	<g>
		<g>
			<defs>
				<path id="SVGID_31_" d="M592.5,719.5l2.1,0c0.1-2.8,1.4-11.9,14.7-11.9l0.3-2.1h-0.3C601.2,705.6,592.8,709.3,592.5,719.5"/>
			</defs>
			<clipPath id="SVGID_32_">
				<use xlink:href="#SVGID_31_"  style="overflow:visible;"/>
			</clipPath>
			
				<linearGradient id="SVGID_33_" gradientUnits="userSpaceOnUse" x1="36.3831" y1="469.7267" x2="41.0264" y2="469.7267" gradientTransform="matrix(3.5799 -3.112 -3.112 -3.5799 1924.2769 2514.6279)">
				<stop  offset="0" style="stop-color:#D78817"/>
				<stop  offset="5.000000e-02" style="stop-color:#D78817"/>
				<stop  offset="0.95" style="stop-color:#8F4A02"/>
				<stop  offset="1" style="stop-color:#8F4A02"/>
			</linearGradient>
			<path class="st13" d="M585.6,711.6l16.6-14.5l14.3,16.4l-16.7,14.5"/>
		</g>
	</g>
	<g>
		<g>
			<defs>
				<path id="SVGID_34_" d="M609.3,707.7c12,0,22.3,7.8,28.4,15l-2.1-5.1c-6.1-6.2-15.9-11.9-26-12L609.3,707.7L609.3,707.7z"/>
			</defs>
			<clipPath id="SVGID_35_">
				<use xlink:href="#SVGID_34_"  style="overflow:visible;"/>
			</clipPath>
			
				<linearGradient id="SVGID_36_" gradientUnits="userSpaceOnUse" x1="-44.8291" y1="708.9806" x2="-40.1859" y2="708.9806" gradientTransform="matrix(-6.2761 -3.2671 -3.2671 6.2761 2673.2183 -3874.2874)">
				<stop  offset="0" style="stop-color:#BF7312"/>
				<stop  offset="0.95" style="stop-color:#8F4A02"/>
				<stop  offset="1" style="stop-color:#8F4A02"/>
			</linearGradient>
			<path class="st14" d="M631.7,734.4l-29.4-15.3l13.1-25.1l29.4,15.3"/>
		</g>
	</g>
	<g>
		<g>
			<defs>
				<path id="SVGID_37_" d="M603.7,680.8l0.1,2.1c16-0.5,26.8,5.5,31.9,9.4l2.1-1c-4.4-3.6-15.5-10.5-32.2-10.5
					C604.9,680.7,604.3,680.7,603.7,680.8"/>
			</defs>
			<clipPath id="SVGID_38_">
				<use xlink:href="#SVGID_37_"  style="overflow:visible;"/>
			</clipPath>
			
				<linearGradient id="SVGID_39_" gradientUnits="userSpaceOnUse" x1="150.4755" y1="581.0897" x2="155.1187" y2="581.0897" gradientTransform="matrix(7.3046 2.3593 2.3593 -7.3046 -1866.5785 4570.5991)">
				<stop  offset="0" style="stop-color:#FFC20E"/>
				<stop  offset="5.000000e-02" style="stop-color:#FFC20E"/>
				<stop  offset="0.95" style="stop-color:#E49F15"/>
				<stop  offset="1" style="stop-color:#E49F15"/>
			</linearGradient>
			<path class="st15" d="M606.9,670.8l34.2,11.1l-6.6,20.4l-34.2-11.1"/>
		</g>
	</g>
	<g>
		<g>
			<defs>
				<path id="SVGID_40_" d="M598,823.6v2.1c26.4,0,43.5-17.6,44.2-40.9l-2.1-0.1C639.5,803.3,626.7,823.7,598,823.6"/>
			</defs>
			<clipPath id="SVGID_41_">
				<use xlink:href="#SVGID_40_"  style="overflow:visible;"/>
			</clipPath>
			
				<linearGradient id="SVGID_42_" gradientUnits="userSpaceOnUse" x1="79.5829" y1="377.5909" x2="84.2297" y2="377.5909" gradientTransform="matrix(-9.265 9.073 -9.073 -9.265 4804.8125 3560.4836)">
				<stop  offset="0" style="stop-color:#D78817"/>
				<stop  offset="5.000000e-02" style="stop-color:#D78817"/>
				<stop  offset="0.95" style="stop-color:#8F4A02"/>
				<stop  offset="1" style="stop-color:#8F4A02"/>
			</linearGradient>
			<path class="st16" d="M662.7,805.7l-43,42.2l-42.1-43l43.1-42.2"/>
		</g>
	</g>
	<g>
		<g>
			<defs>
				<path id="SVGID_43_" d="M563.9,815.8c10.4,6.2,21.6,9.9,34.1,9.9v-2.1c-11.5,0-22.9-3.6-32-9L563.9,815.8z"/>
			</defs>
			<clipPath id="SVGID_44_">
				<use xlink:href="#SVGID_43_"  style="overflow:visible;"/>
			</clipPath>
			
				<linearGradient id="SVGID_45_" gradientUnits="userSpaceOnUse" x1="148.6132" y1="532.7789" x2="153.2565" y2="532.7789" gradientTransform="matrix(7.341 2.119 -2.119 7.341 602.0829 -3410.728)">
				<stop  offset="0" style="stop-color:#BF7312"/>
				<stop  offset="0.95" style="stop-color:#8F4A02"/>
				<stop  offset="1" style="stop-color:#8F4A02"/>
			</linearGradient>
			<path class="st17" d="M566.5,805.5l34.4,9.9l-5.6,19.3l-34.4-9.9"/>
		</g>
	</g>
	<g>
		<g>
			<defs>
				<path id="SVGID_46_" d="M566,787.8c7.4,6.6,18.5,11.8,27.8,11.8l0-2.1c-10.4-0.1-22.3-6.7-29.9-14.4L566,787.8L566,787.8z"/>
			</defs>
			<clipPath id="SVGID_47_">
				<use xlink:href="#SVGID_46_"  style="overflow:visible;"/>
			</clipPath>
			
				<linearGradient id="SVGID_48_" gradientUnits="userSpaceOnUse" x1="-38.5767" y1="719.1019" x2="-33.9306" y2="719.1019" gradientTransform="matrix(-6.6044 -3.2069 -3.2069 6.6044 2645.5249 -4074.0559)">
				<stop  offset="0" style="stop-color:#FFC20E"/>
				<stop  offset="5.000000e-02" style="stop-color:#FFC20E"/>
				<stop  offset="1" style="stop-color:#F0AF13"/>
			</linearGradient>
			<path class="st18" d="M588.1,811.4l-30.7-14.9l12.2-25.1l30.7,14.9"/>
		</g>
	</g>
	<g>
		<g>
			<defs>
				<path id="SVGID_49_" d="M609.1,783.5c0.2,9.3-6.3,14.1-15.3,14.1l0,2.1c10.7,0,17.7-6.1,17.4-16.2L609.1,783.5L609.1,783.5z"/>
			</defs>
			<clipPath id="SVGID_50_">
				<use xlink:href="#SVGID_49_"  style="overflow:visible;"/>
			</clipPath>
			
				<linearGradient id="SVGID_51_" gradientUnits="userSpaceOnUse" x1="25.7131" y1="474.9741" x2="30.3563" y2="474.9741" gradientTransform="matrix(3.7734 -3.4698 -3.4698 -3.7734 2144.8442 2681.2009)">
				<stop  offset="0" style="stop-color:#FFC20E"/>
				<stop  offset="5.000000e-02" style="stop-color:#FFC20E"/>
				<stop  offset="0.95" style="stop-color:#D89016"/>
				<stop  offset="1" style="stop-color:#D89016"/>
			</linearGradient>
			<path class="st19" d="M585.7,790.9l17.7-16.3l16.2,17.6l-17.7,16.3"/>
		</g>
	</g>
	<g>
		<g>
			<defs>
				<path id="SVGID_52_" d="M562.6,720.8c0,16.3,4.9,28.5,29.4,42.9c13.1,7.7,16.9,12.2,17.1,19.8l2.1,0
					c-0.2-9.1-5.4-14.1-18.2-21.6c-24-14.1-28.3-25.6-28.3-41.1L562.6,720.8L562.6,720.8z"/>
			</defs>
			<clipPath id="SVGID_53_">
				<use xlink:href="#SVGID_52_"  style="overflow:visible;"/>
			</clipPath>
			
				<linearGradient id="SVGID_54_" gradientUnits="userSpaceOnUse" x1="114.432" y1="645.7985" x2="119.0845" y2="645.7985" gradientTransform="matrix(9.7366 14.0091 14.0091 -9.7366 -9596.9395 5404.3818)">
				<stop  offset="0" style="stop-color:#D89016"/>
				<stop  offset="0.4" style="stop-color:#BF7312"/>
				<stop  offset="0.6" style="stop-color:#BF7312"/>
				<stop  offset="1" style="stop-color:#D89016"/>
			</linearGradient>
			<path class="st20" d="M595.4,698l45.2,65.1l-62.2,43.2l-45.2-65.1"/>
		</g>
	</g>
	<g>
		<g>
			<defs>
				<path id="SVGID_55_" d="M611.6,740.7c24.3,14.3,29,27.1,28.4,44.1l2.1,0.1c0.6-17.3-4.2-31.1-29.5-46
					c-10.3-6.2-18.4-9.6-18.1-19.3l-2.1,0C592.2,730.1,600.8,734.3,611.6,740.7"/>
			</defs>
			<clipPath id="SVGID_56_">
				<use xlink:href="#SVGID_55_"  style="overflow:visible;"/>
			</clipPath>
			
				<linearGradient id="SVGID_57_" gradientUnits="userSpaceOnUse" x1="113.3877" y1="645.7221" x2="118.031" y2="645.7221" gradientTransform="matrix(10.4299 14.2506 14.2506 -10.4299 -9791.3164 5837.9883)">
				<stop  offset="0" style="stop-color:#D78817"/>
				<stop  offset="0.4" style="stop-color:#E49F15"/>
				<stop  offset="0.6" style="stop-color:#E49F15"/>
				<stop  offset="1" style="stop-color:#D78817"/>
			</linearGradient>
			<path class="st21" d="M625.1,695.5l48.7,66.6l-64,46.8l-48.7-66.6"/>
		</g>
	</g>
	<g>
		<g>
			<path class="st22" d="M494.3,882.7h-29.1l-2.1,2.1h33.3"/>
		</g>
	</g>
	<g>
		<g>
			<defs>
				<path id="SVGID_58_" d="M496.3,824.2c3.3,0.7,7,1.1,11,1.1v-2.1c-6,0-10.2-0.8-13.1-1.7L496.3,824.2L496.3,824.2z"/>
			</defs>
			<clipPath id="SVGID_59_">
				<use xlink:href="#SVGID_58_"  style="overflow:visible;"/>
			</clipPath>
			
				<linearGradient id="SVGID_60_" gradientUnits="userSpaceOnUse" x1="236.4253" y1="702.9063" x2="241.0688" y2="702.9063" gradientTransform="matrix(2.874 0.445 -0.445 2.874 127.4716 -1303.0211)">
				<stop  offset="0" style="stop-color:#A65E0C"/>
				<stop  offset="5.000000e-02" style="stop-color:#A65E0C"/>
				<stop  offset="0.95" style="stop-color:#8F4A02"/>
				<stop  offset="1" style="stop-color:#8F4A02"/>
			</linearGradient>
			<path class="st23" d="M494.6,819.5l13.3,2.1l-0.9,5.6l-13.3-2.1"/>
		</g>
	</g>
	<g>
		<g>
			<defs>
				<path id="SVGID_61_" d="M558.1,751.6c0,42.5-18.5,71.6-50.8,71.6v2.1c37.5,0,52.9-35.8,52.9-73.6
					C560.2,751.6,558.1,751.6,558.1,751.6z"/>
			</defs>
			<clipPath id="SVGID_62_">
				<use xlink:href="#SVGID_61_"  style="overflow:visible;"/>
			</clipPath>
			
				<linearGradient id="SVGID_63_" gradientUnits="userSpaceOnUse" x1="83.3311" y1="689.6674" x2="87.9745" y2="689.6674" gradientTransform="matrix(-11.368 15.8787 15.8787 11.368 -9443.6113 -8411.7129)">
				<stop  offset="0" style="stop-color:#A65E0C"/>
				<stop  offset="5.000000e-02" style="stop-color:#A65E0C"/>
				<stop  offset="0.95" style="stop-color:#8F4A02"/>
				<stop  offset="1" style="stop-color:#8F4A02"/>
			</linearGradient>
			<path class="st24" d="M595.1,776.5l-52.8,73.7l-69.8-50l52.8-73.7"/>
		</g>
	</g>
	<g>
		<g>
			<defs>
				<path id="SVGID_64_" d="M463.1,692.1l2.1,1.1c10.5-6.8,23.3-10.3,39.2-10.3v-2.1C488.2,680.8,474.2,684.5,463.1,692.1"/>
			</defs>
			<clipPath id="SVGID_65_">
				<use xlink:href="#SVGID_64_"  style="overflow:visible;"/>
			</clipPath>
			
				<linearGradient id="SVGID_66_" gradientUnits="userSpaceOnUse" x1="43.0234" y1="733.4379" x2="47.6666" y2="733.4379" gradientTransform="matrix(-8.9244 2.308 2.308 8.9244 -804.2482 -5963.187)">
				<stop  offset="0" style="stop-color:#FFC20E"/>
				<stop  offset="5.000000e-02" style="stop-color:#FFC20E"/>
				<stop  offset="0.95" style="stop-color:#F0AF13"/>
				<stop  offset="1" style="stop-color:#F0AF13"/>
			</linearGradient>
			<path class="st25" d="M507.4,692.4l-41.7,10.8l-5.6-21.7l41.7-10.8"/>
		</g>
	</g>
	<g>
		<g>
			<defs>
				<path id="SVGID_67_" d="M504.4,682.9c34.7,0,53.8,26.3,53.8,68.7h2.1c0-37.5-15.7-70.8-55.9-70.8L504.4,682.9L504.4,682.9z"/>
			</defs>
			<clipPath id="SVGID_68_">
				<use xlink:href="#SVGID_67_"  style="overflow:visible;"/>
			</clipPath>
			
				<linearGradient id="SVGID_69_" gradientUnits="userSpaceOnUse" x1="105.3978" y1="642.6481" x2="110.0407" y2="642.6481" gradientTransform="matrix(11.9878 15.2886 15.2886 -11.9878 -10584.1914 6773.2251)">
				<stop  offset="0" style="stop-color:#FFC20E"/>
				<stop  offset="5.000000e-02" style="stop-color:#FFC20E"/>
				<stop  offset="0.95" style="stop-color:#A65E0C"/>
				<stop  offset="1" style="stop-color:#A65E0C"/>
			</linearGradient>
			<path class="st26" d="M539,653.6l55.6,71l-69,54.1l-55.7-71"/>
		</g>
	</g>
	<g>
		<g>
			<path class="st27" d="M392.1,685.8H363l-2.1-2.1h33.2C394.2,683.7,392.1,685.8,392.1,685.8z M450.2,685.8h-29l-2.1-2.1h33.2
				C452.3,683.7,450.2,685.8,450.2,685.8z"/>
		</g>
		<g>
			<path class="st28" d="M348.2,788.9V676.4l2.1,0.9v111.6L348.2,788.9L348.2,788.9z M637.8,722.7v-31.5l-2.1,1v25.3L637.8,722.7
				L637.8,722.7z M394.2,778.5v-94.8l-2.1,2.1v92.7L394.2,778.5L394.2,778.5z"/>
		</g>
		<g>
			<path class="st29" d="M649.7,788.9V598.2l2.1-1.9v192.6H649.7z M563.9,783.2v32.6l2.1-1.2v-26.8L563.9,783.2L563.9,783.2z
				 M421.2,795.4V685.8l-2.1-2.1v110.6L421.2,795.4z M363,777.2v-91.4l-2.1-2.1v93.5L363,777.2L363,777.2z"/>
		</g>
	</g>
	<g>
		<g>
			<defs>
				<path id="SVGID_70_" d="M361,777.2c0,30.8,14.4,48.5,45.5,48.5v-2.1c-28.8,0-43.4-15.6-43.4-46.4H361z"/>
			</defs>
			<clipPath id="SVGID_71_">
				<use xlink:href="#SVGID_70_"  style="overflow:visible;"/>
			</clipPath>
			
				<linearGradient id="SVGID_72_" gradientUnits="userSpaceOnUse" x1="117.4904" y1="626.5974" x2="122.1341" y2="626.5974" gradientTransform="matrix(9.7472 10.4893 10.4893 -9.7472 -7356.7593 5652.2734)">
				<stop  offset="0" style="stop-color:#D89016"/>
				<stop  offset="5.000000e-02" style="stop-color:#D89016"/>
				<stop  offset="0.95" style="stop-color:#8F4A02"/>
				<stop  offset="1" style="stop-color:#8F4A02"/>
			</linearGradient>
			<path class="st30" d="M385.4,754.5l45.3,48.7L382,848.4l-45.3-48.7"/>
		</g>
	</g>
	<g>
		<g>
			<defs>
				<path id="SVGID_73_" d="M406.4,823.6v2.1c18.6,0,33.6-4.3,45.9-12.7l-2.1-1.1C439.1,819.5,424.2,823.6,406.4,823.6"/>
			</defs>
			<clipPath id="SVGID_74_">
				<use xlink:href="#SVGID_73_"  style="overflow:visible;"/>
			</clipPath>
			
				<linearGradient id="SVGID_75_" gradientUnits="userSpaceOnUse" x1="51.6057" y1="362.9479" x2="56.249" y2="362.9479" gradientTransform="matrix(-9.928 2.5676 -2.5676 -9.928 1896.5645 4283.7578)">
				<stop  offset="0" style="stop-color:#A65E0C"/>
				<stop  offset="5.000000e-02" style="stop-color:#A65E0C"/>
				<stop  offset="0.95" style="stop-color:#8F4A02"/>
				<stop  offset="1" style="stop-color:#8F4A02"/>
			</linearGradient>
			<path class="st31" d="M455.7,824.9l-46.4,12l-6.2-24l46.4-12"/>
		</g>
	</g>
	<g>
		<g>
			<defs>
				<path id="SVGID_76_" d="M407.4,796.9v2.1c5.9,0,10.6-1.4,13.8-3.6l-2.1-1.2C416.2,796,412.1,796.9,407.4,796.9"/>
			</defs>
			<clipPath id="SVGID_77_">
				<use xlink:href="#SVGID_76_"  style="overflow:visible;"/>
			</clipPath>
			
				<linearGradient id="SVGID_78_" gradientUnits="userSpaceOnUse" x1="101.804" y1="723.0165" x2="106.4472" y2="723.0165" gradientTransform="matrix(2.9715 -0.73 0.73 2.9715 -423.0927 -1275.7628)">
				<stop  offset="0" style="stop-color:#FFC20E"/>
				<stop  offset="5.000000e-02" style="stop-color:#FFC20E"/>
				<stop  offset="0.95" style="stop-color:#F0AF13"/>
				<stop  offset="1" style="stop-color:#F0AF13"/>
			</linearGradient>
			<path class="st32" d="M406.4,794.5l14.1-3.5l1.9,7.6l-14.1,3.5"/>
		</g>
	</g>
	<g>
		<g>
			<defs>
				<path id="SVGID_79_" d="M392.1,778.5c0,8.3,2,20.5,15.3,20.5v-2.1c-10.2,0-13.2-8.3-13.2-18.4
					C394.2,778.5,392.1,778.5,392.1,778.5z"/>
			</defs>
			<clipPath id="SVGID_80_">
				<use xlink:href="#SVGID_79_"  style="overflow:visible;"/>
			</clipPath>
			
				<linearGradient id="SVGID_81_" gradientUnits="userSpaceOnUse" x1="-84.8958" y1="688.5786" x2="-80.2522" y2="688.5786" gradientTransform="matrix(-3.2519 -4.4431 -4.4431 3.2519 3190.7 -1817.317)">
				<stop  offset="0" style="stop-color:#FFC20E"/>
				<stop  offset="5.000000e-02" style="stop-color:#FFC20E"/>
				<stop  offset="0.95" style="stop-color:#D78817"/>
				<stop  offset="1" style="stop-color:#D78817"/>
			</linearGradient>
			<path class="st33" d="M397.5,806.3l-15.1-20.6l19.7-14.4l15.1,20.6"/>
		</g>
	</g>
</g>
</svg>
