<svg xmlns="http://www.w3.org/2000/svg" viewBox="0 0 1000 500"><defs><style>.cls-1{fill:#ffbd2e;}.cls-2{fill:#da393b;}</style></defs><title>DHL</title><g id="Layer_2" data-name="Layer 2"><g id="Layer_1-2" data-name="Layer 1"><rect class="cls-1" width="1000" height="500"/><polygon class="cls-1" points="1000 86.81 1000 307.5 0 307.5 0 86.81 1000 86.81 1000 86.81"/><path class="cls-2" d="M175.86,126.45l-31.95,43.41H318c8.8,0,8.69,3.34,4.38,9.17s-11.68,16.21-16.13,22.21c-2.26,3.05-6.34,8.61,7.19,8.61h71.21s11.48-15.62,21.1-28.68c13.09-17.76,1.13-54.72-45.66-54.72Z"/><path class="cls-2" d="M131,267.86l64.17-87.2h79.64c8.8,0,8.69,3.34,4.38,9.17s-11.8,16.1-16.25,22.11c-2.26,3-6.34,8.61,7.19,8.61H376.79c-8.87,12.15-37.65,47.3-89.33,47.3Z"/><path class="cls-2" d="M498.5,220.55l-34.8,47.31H371.9s34.78-47.3,34.81-47.3Z"/><polygon class="cls-2" points="639.13 209.84 414.6 209.84 476 126.45 567.76 126.45 532.57 174.27 573.54 174.27 608.74 126.45 700.5 126.45 639.13 209.84 639.13 209.84"/><path class="cls-2" d="M631.24,220.56l-34.82,47.3H504.66s34.78-47.3,34.81-47.3Z"/><polygon class="cls-2" points="0 239.21 135.23 239.21 127.84 249.26 0 249.26 0 239.21 0 239.21"/><polygon class="cls-2" points="0 220.56 148.97 220.56 141.57 230.59 0 230.59 0 220.56 0 220.56"/><polygon class="cls-2" points="0 257.87 121.5 257.87 114.15 267.86 0 267.86 0 257.87 0 257.87"/><polygon class="cls-2" points="1000 249.26 865.29 249.26 872.68 239.21 1000 239.21 1000 249.26 1000 249.26"/><polygon class="cls-2" points="1000 267.86 851.59 267.87 858.94 257.87 1000 257.87 1000 267.86 1000 267.86"/><polygon class="cls-2" points="886.4 220.56 1000 220.56 1000 230.6 879.02 230.61 886.4 220.56 886.4 220.56"/><path class="cls-2" d="M827.6,126.45l-61.39,83.4H669s61.4-83.4,61.43-83.4Z"/><path class="cls-2" d="M661.1,220.56s-6.71,9.17-10,13.57c-11.53,15.58-1.34,33.73,36.28,33.73H834.79l34.81-47.3Z"/><path class="cls-2" d="M309.94,316.5V383c0,2.59-.83,3.52-3.52,3.52h-5.9a3.33,3.33,0,0,1-3.42-1.76l-25.36-37.47c-4.87-7.25-8.07-16.77-8.49-17.39h-.62c0,.83,2.28,10.77,2.28,20.6V383c0,2.59-.93,3.52-3.52,3.52H255.9c-2.69,0-3.62-.93-3.62-3.52V316.5c0-2.59.93-3.52,3.62-3.52h5.9a3.59,3.59,0,0,1,3.42,1.66l25.15,37.27c5.28,7.87,8.18,16.77,8.7,17.6h.62c0-1-2.28-10.46-2.28-20.91V316.5c0-2.59.93-3.52,3.52-3.52h5.49C309.11,313,309.94,313.91,309.94,316.5Z"/><path class="cls-2" d="M339.54,331.3c17,0,22.15,9.11,22.15,21.32v26.81c0,3.62-.83,4.66-3.73,5.9C354.14,387,347.83,388,339.34,388c-18.32,0-23.08-6-23.08-16.77,0-12.42,6.94-16.67,23.5-16.67,4,0,8.18.41,9.94.52v-2.9c0-6.52-2.59-10.25-10.35-10.25-5.18,0-8.7,1.66-10.87,5-1.45,2.17-2.07,2.48-4.45,1.55l-4.14-1.76c-2.28-1-3-2.28-1.76-4.66C321.64,335.34,328.78,331.3,339.54,331.3Zm-1.14,33.13c-7.87,0-9.94,2.48-9.94,6.73s1.66,6.94,9.73,6.94a49.5,49.5,0,0,0,10.35-.83c.83-.31,1.14-.52,1.14-1.45V364.95C347.51,364.84,342.44,364.43,338.41,364.43Z"/><path class="cls-2" d="M390.68,331.3c12.32,0,19.56,5.8,22.15,13.56.83,2.59.1,3.73-2.28,4.66L406,351c-2.48,1-3.62.31-4.55-2.17-1.66-4.35-5.18-6.94-11.28-6.94-7.45,0-11.28,3.62-11.28,10.14v15.32c0,6.42,3.83,10.14,11.28,10.14,6,0,9.63-2.69,11.28-7.14.93-2.48,2.07-2.9,4.55-2.07l4.66,1.35c2.38.93,3.21,2.07,2.17,4.66-3.42,8.8-10.56,13.77-23.08,13.77-15.73,0-22.88-8.07-22.88-21.22V352.52C366.87,339.38,374.43,331.3,390.68,331.3Z"/><path class="cls-2" d="M430,313.08v19.67c.93-.52,6.31-1.45,12.42-1.45,14.8,0,21.53,7.66,21.53,20.81v31.16c0,2.38-.83,3.21-3.21,3.21h-5.59c-2.38,0-3.21-.83-3.21-3.21V352.42c0-6.62-3.93-10.14-11.28-10.14-5.07,0-9.63,1-10.66,1.55v39.44c0,2.38-.72,3.21-3.11,3.21h-5.69c-2.38,0-3.21-.83-3.21-3.21V313.08c0-2.38.83-3.21,3.21-3.21h5.69C429.3,309.88,430,310.7,430,313.08Z"/><path class="cls-2" d="M495.55,331.3c14.7,0,21.53,7.66,21.53,20.81v31.16c0,2.38-.83,3.21-3.21,3.21h-5.69c-2.38,0-3.11-.83-3.11-3.21V352.42c0-6.83-3.73-10.14-11.28-10.14a37.16,37.16,0,0,0-9.94,1.35,1.08,1.08,0,0,0-.72,1v38.61c0,2.38-.72,3.21-3.11,3.21h-5.69c-2.38,0-3.21-.83-3.21-3.21V340.72c0-3.31.72-4.55,4-5.9C479.3,333.17,485.61,331.3,495.55,331.3Z"/><path class="cls-2" d="M544.93,331.3c17,0,22.15,9.11,22.15,21.32v26.81c0,3.62-.83,4.66-3.73,5.9C559.52,387,553.21,388,544.72,388c-18.32,0-23.08-6-23.08-16.77,0-12.42,6.94-16.67,23.5-16.67,4,0,8.18.41,9.94.52v-2.9c0-6.52-2.59-10.25-10.35-10.25-5.18,0-8.7,1.66-10.87,5-1.45,2.17-2.07,2.48-4.45,1.55l-4.14-1.76c-2.28-1-3-2.28-1.76-4.66C527,335.34,534.16,331.3,544.93,331.3Zm-1.14,33.13c-7.87,0-9.94,2.48-9.94,6.73s1.66,6.94,9.73,6.94a49.5,49.5,0,0,0,10.35-.83c.83-.31,1.14-.52,1.14-1.45V364.95C552.9,364.84,547.83,364.43,543.79,364.43Z"/><path class="cls-2" d="M586,313.08v19.67c.93-.52,6.31-1.45,12.42-1.45,14.8,0,21.53,7.66,21.53,20.81v31.16c0,2.38-.83,3.21-3.21,3.21h-5.59c-2.38,0-3.21-.83-3.21-3.21V352.42c0-6.62-3.93-10.14-11.28-10.14-5.07,0-9.63,1-10.66,1.55v39.44c0,2.38-.72,3.21-3.11,3.21h-5.69c-2.38,0-3.21-.83-3.21-3.21V313.08c0-2.38.83-3.21,3.21-3.21h5.69C585.3,309.88,586,310.7,586,313.08Z"/><path class="cls-2" d="M681.05,331.3c14.08,0,20.29,7.56,20.29,20.6v31.37c0,2.38-.72,3.21-3.11,3.21h-5.69c-2.38,0-3.21-.83-3.21-3.21v-31c0-6.62-3.31-10-10-10a30.43,30.43,0,0,0-10,1.86,22.3,22.3,0,0,1,1.14,7.76v31.37c0,2.38-.83,3.21-3.21,3.21h-5.59c-2.38,0-3.21-.83-3.21-3.21v-31c0-6.62-3.52-10-10.14-10a25.78,25.78,0,0,0-8.28,1.24,1.16,1.16,0,0,0-.83,1.24v38.51c0,2.38-.72,3.21-3.11,3.21h-5.69c-2.38,0-3.21-.83-3.21-3.21V340.72c0-3.31.83-4.55,4-5.9A46.74,46.74,0,0,1,650,331.3c5.49,0,9.73,1.14,12.84,3.42A46.37,46.37,0,0,1,681.05,331.3Z"/><path class="cls-2" d="M731,331.3c16.46,0,23.91,9.52,23.91,21.43V359c0,2.69-1,4.45-4.66,4.45H718.94v3.83c0,6.73,4.24,10.35,11.8,10.35,6.11,0,10-2.07,12.21-5.49,1.66-2.28,2.79-2.59,5.28-1.24l3.62,2c2.38,1.14,2.69,2.9,1.24,5.18-3.73,6.11-10.66,9.94-22.36,9.94-17,0-23.81-9.42-23.81-22.15V353.66C706.94,339.27,715.32,331.3,731,331.3Zm0,10.14c-7.76,0-12,3.83-12,10.56v2.28h23.91V352C742.86,345.28,738.82,341.45,731,341.45Z"/></g></g></svg>