<svg xmlns="http://www.w3.org/2000/svg" viewBox="0 0 120.9 66.01"><defs><style>.cls-1{fill:#fff;}.cls-2{fill:#7cbc4e;}</style></defs><title>fruhlings</title><g id="Layer_2" data-name="Layer 2"><g id="Layer_1-2" data-name="Layer 1"><path class="cls-1" d="M6.73,60.09A3.76,3.76,0,0,1,3,56.33V21.87a3.76,3.76,0,0,1,3.76-3.76H94.58l0,2.54A16,16,0,0,0,95.36,26a20.6,20.6,0,0,0,7,10.4l1.47,1.1-.6,1.73a16.32,16.32,0,0,0-.61,2.26c-1.39,7.2.47,12,2.27,14.76l2.52,3.87Z"/><path class="cls-1" d="M92,20.61A18.58,18.58,0,0,0,93,26.76c1.91,5.8,4.89,9.4,7.87,11.62a18.8,18.8,0,0,0-.7,2.6c-1.53,7.93.5,13.34,2.63,16.6H6.73a1.26,1.26,0,0,1-1.26-1.26V21.87a1.26,1.26,0,0,1,1.26-1.26H92m5.08-5H6.73A6.27,6.27,0,0,0,.47,21.87V56.33a6.27,6.27,0,0,0,6.26,6.26H112l-5-7.73c-1.55-2.38-3.14-6.55-1.91-12.92a13.88,13.88,0,0,1,.51-1.91l1.2-3.46-2.94-2.19a18.17,18.17,0,0,1-6.11-9.18A13.52,13.52,0,0,1,97,20.69l.08-5.08Z"/><path class="cls-1" d="M4.15,62A3.14,3.14,0,0,1,1,58.89V19.6a3.14,3.14,0,0,1,3.14-3.14H93.54l-.2,1.19c-.08.47-.15,1-.19,1.44L93,20H4.55V58.49H104.69l.3.35a17.14,17.14,0,0,0,1.38,1.43l1.9,1.76Z"/><path class="cls-1" d="M92.33,17.48q-.13.75-.2,1.51h-88a.61.61,0,0,0-.61.61V58.89a.61.61,0,0,0,.61.61H104.23A18.09,18.09,0,0,0,105.69,61H4.15A2.13,2.13,0,0,1,2,58.89V19.6a2.13,2.13,0,0,1,2.12-2.13H92.33m2.41-2H4.15A4.16,4.16,0,0,0,0,19.6V58.89A4.16,4.16,0,0,0,4.15,63H110.86l-3.8-3.52a15.93,15.93,0,0,1-1.3-1.34l-.61-.71H5.57V21H94l.18-1.83c0-.46.11-.92.18-1.37l.41-2.37Z"/><path class="cls-2" d="M104.23,59.5H4.15a.61.61,0,0,1-.61-.61V19.6A.61.61,0,0,1,4.15,19h88q.08-.76.2-1.51H4.15A2.13,2.13,0,0,0,2,19.6V58.89A2.13,2.13,0,0,0,4.15,61H105.69A18.09,18.09,0,0,1,104.23,59.5Z"/><path class="cls-2" d="M100.16,41a18.8,18.8,0,0,1,.7-2.6c-3-2.23-6-5.82-7.87-11.62A18.58,18.58,0,0,1,92,20.61H6.73a1.26,1.26,0,0,0-1.26,1.26V56.33a1.26,1.26,0,0,0,1.26,1.26h96.06C100.66,54.33,98.63,48.92,100.16,41Z"/><path class="cls-1" d="M15.42,31.56H12.08V36H9.92V25.19h5.9V27H12.08v2.76h3.35Z"/><path class="cls-1" d="M20.29,32H19.22V36H17.06V25.19H20.5A3.47,3.47,0,0,1,23,26a3.18,3.18,0,0,1,.88,2.41,3.14,3.14,0,0,1-1.55,3l1.87,4.41V36H21.89Zm-1.07-1.81h1.22a1.13,1.13,0,0,0,1-.43,1.89,1.89,0,0,0,.32-1.16q0-1.62-1.25-1.62H19.22Z"/><path class="cls-1" d="M32.3,25.19v7.46a3.15,3.15,0,0,1-3.5,3.46,3.16,3.16,0,0,1-3.52-3.51v-7.4h2.17V32.6a2.23,2.23,0,0,0,.29,1.31,1.25,1.25,0,0,0,1.06.39,1.23,1.23,0,0,0,1.05-.39,2.23,2.23,0,0,0,.29-1.28V25.19Zm-6.37-1.62a.87.87,0,0,1,.3-.67,1.1,1.1,0,0,1,1.44,0,.91.91,0,0,1,0,1.34,1.1,1.1,0,0,1-1.44,0A.86.86,0,0,1,25.93,23.57Zm3.58,0a.87.87,0,0,1,.3-.67,1.1,1.1,0,0,1,1.44,0,.87.87,0,0,1,.3.67.89.89,0,0,1-.28.66,1.12,1.12,0,0,1-1.47,0A.89.89,0,0,1,29.51,23.57Z"/><path class="cls-1" d="M41.41,36H39.26V31.35H36.08V36H33.93V25.19h2.15v4.36h3.18V25.19h2.15Z"/><path class="cls-1" d="M45.29,34.15h3.78V36H43.14V25.19h2.15Z"/><path class="cls-1" d="M52.56,36H50.41V25.19h2.15Z"/><path class="cls-1" d="M61.83,36H59.68l-3.15-7.06V36H54.37V25.19h2.15l3.16,7.07V25.19h2.15Z"/><path class="cls-1" d="M70.81,34.74a3.93,3.93,0,0,1-1.53,1,5.54,5.54,0,0,1-2,.34A3.61,3.61,0,0,1,64.44,35a5,5,0,0,1-1-3.35V29.67a5.36,5.36,0,0,1,1-3.43A3.39,3.39,0,0,1,67.17,25a3.59,3.59,0,0,1,2.62.87,4.12,4.12,0,0,1,1,2.71H68.72a2.47,2.47,0,0,0-.43-1.4,1.35,1.35,0,0,0-1.05-.37,1.38,1.38,0,0,0-1.27.64,4.14,4.14,0,0,0-.41,2v2A4,4,0,0,0,66,33.63a1.58,1.58,0,0,0,1.43.67,1.85,1.85,0,0,0,1-.26l.19-.13v-2H67.14V30.29h3.67Z"/><path class="cls-1" d="M76.84,33.13a1.36,1.36,0,0,0-.33-1,3.84,3.84,0,0,0-1.21-.7A5.64,5.64,0,0,1,73,30a2.91,2.91,0,0,1-.7-1.95,2.74,2.74,0,0,1,1-2.19,3.94,3.94,0,0,1,4.18-.41,2.88,2.88,0,0,1,1.18,1.18A3.57,3.57,0,0,1,79,28.37H76.87a1.8,1.8,0,0,0-.32-1.15,1.11,1.11,0,0,0-.92-.4,1.15,1.15,0,0,0-.88.34,1.27,1.27,0,0,0-.31.91,1.12,1.12,0,0,0,.35.8,4,4,0,0,0,1.25.74A5.33,5.33,0,0,1,78.3,31,3.13,3.13,0,0,1,79,33.12a2.79,2.79,0,0,1-.89,2.2,3.48,3.48,0,0,1-2.41.79,4.11,4.11,0,0,1-1.88-.43,3.19,3.19,0,0,1-1.33-1.23A3.6,3.6,0,0,1,72,32.56h2.16a2.07,2.07,0,0,0,.36,1.35,1.46,1.46,0,0,0,1.17.42Q76.84,34.34,76.84,33.13Z"/><path class="cls-1" d="M16.09,50.41H12.57l-.69,2.65H9.15l4-12.92h2.36l4,12.92H16.78Zm-3-2.17h2.39l-1.2-4.61Z"/><path class="cls-1" d="M29.68,53.05H27.1l-3.78-8.48v8.48H20.73V40.13h2.58l3.79,8.49V40.13h2.58Z"/><path class="cls-1" d="M40.45,51.59a4.71,4.71,0,0,1-1.83,1.23,6.63,6.63,0,0,1-2.38.41,4.34,4.34,0,0,1-3.43-1.38,6,6,0,0,1-1.26-4V45.51a6.44,6.44,0,0,1,1.16-4.11,4.06,4.06,0,0,1,3.37-1.44,4.32,4.32,0,0,1,3.14,1,5,5,0,0,1,1.23,3.26H37.94a3,3,0,0,0-.51-1.68,1.62,1.62,0,0,0-1.27-.45,1.65,1.65,0,0,0-1.52.77,5,5,0,0,0-.49,2.46v2.34a4.84,4.84,0,0,0,.52,2.57,1.89,1.89,0,0,0,1.72.8,2.22,2.22,0,0,0,1.24-.31l.23-.16V48.22H36.05v-2h4.4Z"/><path class="cls-1" d="M48.89,47.46h-4v3.43h4.76v2.17H42.28V40.13h7.33V42.3H44.87v3.05h4Z"/><path class="cls-1" d="M51.12,53.05V40.13h4a4.54,4.54,0,0,1,3,.9,3.3,3.3,0,0,1,1,2.64,3.21,3.21,0,0,1-.43,1.7,2.55,2.55,0,0,1-1.18,1,2.24,2.24,0,0,1,1.33,1,3.45,3.45,0,0,1,.47,1.85,3.71,3.71,0,0,1-1,2.84,4.18,4.18,0,0,1-3,1Zm2.58-7.52H55q1.52,0,1.52-1.59a1.83,1.83,0,0,0-.35-1.26,1.49,1.49,0,0,0-1.14-.38H53.7Zm0,1.9v3.45h1.65a1.29,1.29,0,0,0,1.05-.44,1.88,1.88,0,0,0,.36-1.23q0-1.74-1.25-1.78Z"/><path class="cls-1" d="M70.22,47.75a6.07,6.07,0,0,1-1.22,4,4.19,4.19,0,0,1-3.38,1.44,4.24,4.24,0,0,1-3.38-1.42,6,6,0,0,1-1.25-4V45.6a6.4,6.4,0,0,1,1.22-4.16,4.59,4.59,0,0,1,6.76,0,6.31,6.31,0,0,1,1.25,4.12Zm-2.59-2.17a5.35,5.35,0,0,0-.49-2.6,1.81,1.81,0,0,0-3,0,5.09,5.09,0,0,0-.51,2.5v2.3a4.85,4.85,0,0,0,.5,2.5,1.69,1.69,0,0,0,1.55.8,1.65,1.65,0,0,0,1.5-.79,4.75,4.75,0,0,0,.5-2.44Z"/><path class="cls-1" d="M79.62,42.3H76.45V53.05H73.86V42.3H70.75V40.13h8.87Z"/><path class="cls-1" d="M90.06,46.57a20,20,0,0,1-6.32-9.64,15.66,15.66,0,0,1-.79-5.23,15.1,15.1,0,0,1,.1-1.54c0-.44.12-.92.21-1.41.88-4.71,3.55-9.18,5.9-13.12,2.5-4.21,4.87-8.18,4.54-11.47L93.48,2l1.67,1.32c.56.44,13.78,11,15.72,25.13.06.45.12.93.18,1.49l.05.53-.43.31c-.61.43-1.32.9-2.16,1.42-1,.64-2.12,1.27-3.23,1.91-.91.53-1.94,1.12-3,1.74l-.86.53-1.49.93.1-1.75c.1-1.71.14-3.36.13-4.93-.06,1-.14,2.11-.24,3.22s-.18,1.93-.28,2.84v.92l-.45.22a23.59,23.59,0,0,0-7,6.87,16.2,16.2,0,0,0-.84,1.53l-.49,1Z"/><path class="cls-1" d="M94.59,4.07S108.06,14.72,110,28.61c.07.5.13,1,.18,1.46-.66.47-1.37.93-2.11,1.38-1,.63-2.1,1.26-3.2,1.89s-2,1.14-3,1.74l-.88.54c.13-2.33.16-4.44.11-6.34-.23-9.14-2.17-13.46-2.35-13.85.11.34,1.15,3.72.66,13.47q0,.66-.08,1.35-.1,1.65-.26,3.53-.13,1.54-.29,2.87v.41l-.05,0a24.81,24.81,0,0,0-7.23,7.14,17.07,17.07,0,0,0-.88,1.61,19,19,0,0,1-6-9.22,14.66,14.66,0,0,1-.74-4.93,14.09,14.09,0,0,1,.09-1.45c0-.45.11-.9.2-1.35,1.8-9.57,11.13-18,10.45-24.85M92.36,0l.43,4.25c.3,3-2,6.84-4.42,10.92s-5.09,8.55-6,13.42c-.1.51-.17,1-.22,1.49A16,16,0,0,0,82,31.69a16.54,16.54,0,0,0,.83,5.52,20.9,20.9,0,0,0,6.62,10.07l1.78,1.42,1-2A15.32,15.32,0,0,1,93,45.2a22.66,22.66,0,0,1,6.67-6.57l.89-.44V38l1.35-.85.84-.52c1-.61,2-1.2,2.95-1.73,1.07-.61,2.2-1.27,3.25-1.92.86-.53,1.58-1,2.2-1.45l.86-.61L112,29.89c-.06-.58-.12-1.06-.18-1.53-2-14.44-15.48-25.26-16.06-25.71L92.36,0Z"/><path class="cls-2" d="M90.62,45.86a17.07,17.07,0,0,1,.88-1.61,24.81,24.81,0,0,1,7.23-7.14l.05,0v-.41q.16-1.33.29-2.87.16-1.88.26-3.53,0-.7.08-1.35c.48-9.75-.55-13.13-.66-13.47.19.39,2.13,4.71,2.35,13.85,0,1.9,0,4-.11,6.34l.88-.54c1-.6,2-1.18,3-1.74s2.18-1.26,3.2-1.89c.74-.46,1.45-.92,2.11-1.38,0-.48-.11-1-.18-1.46C108.06,14.72,94.59,4.07,94.59,4.07c.68,6.84-8.65,15.28-10.45,24.85-.08.45-.15.9-.2,1.35a14.09,14.09,0,0,0-.09,1.45,14.66,14.66,0,0,0,.74,4.93A19,19,0,0,0,90.62,45.86Z"/><path class="cls-1" d="M102.41,65.1A11.88,11.88,0,0,1,97.52,64l-1.08-.48.74-.91.35-.43.83-1,.26-.32c.4-.5.79-1,1.16-1.48s.91-1.19,1.34-1.77a88.69,88.69,0,0,0,6.52-10q-.84,1.3-1.82,2.75c-1.13,1.68-2.23,3.2-3.26,4.52-.46.59-.92,1.16-1.37,1.69-.61.72-1.2,1.38-1.77,2a21.19,21.19,0,0,1-2.12,1.94l-.32.24a7.29,7.29,0,0,1-1.86,1.06l-.55.19-.4-.42a15,15,0,0,1-1.07-1.23c-2.16-2.77-4.42-7.66-3-15.21a15.69,15.69,0,0,1,.44-1.73,15.37,15.37,0,0,1,.69-1.81,15.72,15.72,0,0,1,.9-1.69,22,22,0,0,1,5.64-6l.41-.31c.55-.41,1.15-.82,1.76-1.23l.23-.15.09-.06,1-.67c1.3-.81,2.61-1.57,3.89-2.31.82-.47,1.62-.94,2.39-1.4s1.53-.93,2.14-1.34c.45-.3.89-.6,1.3-.9a10.81,10.81,0,0,0,3.75-4.17l.85-2,.82,2c.27.66,6.65,16.36,1.47,29.6-3.51,9-9.19,14.16-15.57,14.16Z"/><path class="cls-1" d="M115.67,21.69s6.57,15.87,1.46,28.93c-3.85,9.86-9.57,13.58-14.73,13.58a11,11,0,0,1-4.52-1l.35-.43.84-1,.26-.32q.6-.75,1.17-1.49c.47-.6.92-1.2,1.35-1.78,11.07-14.91,11.85-23.94,11.89-24.52-.07.39-1,4.91-8.66,16.18-1.18,1.75-2.26,3.23-3.23,4.47q-.71.92-1.35,1.67c-.63.74-1.2,1.37-1.73,1.91a20.19,20.19,0,0,1-2,1.86l-.29.23a6.31,6.31,0,0,1-1.61.93,14,14,0,0,1-1-1.15C91.7,57,89.69,52.34,91.06,45.25a14.79,14.79,0,0,1,.41-1.63,14.41,14.41,0,0,1,.65-1.7A14.71,14.71,0,0,1,93,40.32a21.25,21.25,0,0,1,5.42-5.74l.4-.3c.56-.42,1.14-.82,1.73-1.21l.32-.21,1-.66c2.11-1.31,4.27-2.51,6.26-3.7.75-.45,1.48-.9,2.17-1.36.46-.31.91-.62,1.33-.93a11.81,11.81,0,0,0,4-4.54m0-4.64L114,21a10,10,0,0,1-3.45,3.8c-.39.29-.81.58-1.25.87-.6.4-1.27.81-2.1,1.31s-1.55.91-2.38,1.39c-1.28.74-2.6,1.51-3.91,2.32l-1.06.68-.1.07-.24.16c-.63.42-1.23.84-1.79,1.25l-.42.32a22.89,22.89,0,0,0-5.86,6.23,16.59,16.59,0,0,0-1,1.79,16.26,16.26,0,0,0-.73,1.91,16.67,16.67,0,0,0-.46,1.83c-1.52,7.89.87,13,3.14,15.94a15.89,15.89,0,0,0,1.13,1.3l.8.83,1.09-.38a6.09,6.09,0,0,0,1-.46L95,63.91l2.15,1A12.78,12.78,0,0,0,102.41,66a13.94,13.94,0,0,0,9-3.52c3-2.53,5.47-6.3,7.39-11.21,5.31-13.58-1.2-29.6-1.48-30.28L115.71,17Z"/><path class="cls-2" d="M115.67,21.69a11.81,11.81,0,0,1-4,4.54c-.42.31-.87.62-1.33.93-.69.46-1.42.91-2.17,1.36-2,1.19-4.16,2.38-6.26,3.7l-1,.66-.32.21c-.59.39-1.16.79-1.73,1.21l-.4.3A21.25,21.25,0,0,0,93,40.32a14.71,14.71,0,0,0-.85,1.59,14.41,14.41,0,0,0-.65,1.7,14.79,14.79,0,0,0-.41,1.63c-1.37,7.1.64,11.72,2.79,14.48a14,14,0,0,0,1,1.15A6.31,6.31,0,0,0,96.47,60l.29-.23a20.19,20.19,0,0,0,2-1.86c.52-.54,1.1-1.17,1.73-1.91q.64-.75,1.35-1.67c1-1.24,2-2.72,3.23-4.47,7.62-11.27,8.59-15.79,8.66-16.18,0,.58-.82,9.61-11.89,24.52-.43.59-.88,1.18-1.35,1.78s-.77,1-1.17,1.49l-.26.32-.84,1-.35.43c6,2.68,14.21.29,19.24-12.6C122.24,37.56,115.67,21.69,115.67,21.69Z"/></g></g></svg>