<?xml version="1.0" encoding="utf-8"?>
<!-- Generator: Adobe Illustrator 24.1.0, SVG Export Plug-In . SVG Version: 6.00 Build 0)  -->
<svg version="1.1" id="Слой_1" xmlns="http://www.w3.org/2000/svg" xmlns:xlink="http://www.w3.org/1999/xlink" x="0px" y="0px"
	 viewBox="0 0 1000 500" style="enable-background:new 0 0 1000 500;" xml:space="preserve">
<style type="text/css">
	.st0{fill-rule:evenodd;clip-rule:evenodd;fill:#000268;}
	.st1{fill-rule:evenodd;clip-rule:evenodd;fill:#FFFFFF;}
	.st2{fill-rule:evenodd;clip-rule:evenodd;fill:#FF0007;}
</style>
<g id="layer1">
	<path id="_92653320" class="st0" d="M87.1,138.9c0-34.8,28.4-63,63.4-63h690.4c35,0,63.4,28.2,63.4,63v225.3
		c0,34.8-28.4,63-63.4,63H150.4c-35,0-63.4-28.2-63.4-63V138.9L87.1,138.9z"/>
	<path id="_92186184" class="st1" d="M113.1,141.1v221c0,21.8,17.7,39.4,39.6,39.4h361.7V101.7H152.7
		C130.8,101.7,113.1,119.3,113.1,141.1L113.1,141.1z M607.9,250.5c0,14.1-7,23.7-18.5,23.7c-10.2,0-18.7-9.7-18.7-22.6
		c0-13.2,7.5-23.1,18.7-23.1C601.3,228.6,607.9,238.8,607.9,250.5z M540.2,331.2h30.5v-48h0.3c5.8,10.5,17.3,14.4,28,14.4
		c26.3,0,40.3-21.7,40.3-47.8c0-21.4-13.4-44.6-37.8-44.6c-13.9,0-26.8,5.6-32.9,18h-0.3v-15.9h-28.1V331.2z M681.1,267.6
		c0-8.5,8.1-11.7,18.5-11.7c4.6,0,9,0.3,12.9,0.5c0,10.3-7.3,20.9-18.8,20.9C686.5,277.3,681.1,273.7,681.1,267.6z M742.6,295.6
		c-1.3-6.9-1.7-13.9-1.7-20.9v-32.9c0-27-19.5-36.6-42-36.6c-13,0-24.4,1.9-35.3,6.3l0.5,20.7c8.5-4.8,18.3-6.6,28.1-6.6
		c11,0,20,3.2,20.2,15.3c-3.9-0.7-9.3-1.2-14.2-1.2c-16.3,0-45.6,3.2-45.6,30.2c0,19.2,15.6,27.8,33.1,27.8c12.5,0,21-4.9,28-15.9
		h0.3c0,4.6,0.5,9.2,0.7,13.9H742.6z M756.3,331.2c6.3,1.4,12.5,2.1,19,2.1c28,0,34.6-21.5,43.2-43.8l32.4-82.2h-30.5l-18.1,57.6
		h-0.3l-19-57.6h-32.9l35.8,90.4c-2.2,7.8-8,12.2-15.4,12.2c-4.3,0-8-0.5-12-1.9L756.3,331.2z"/>
	<path id="_47303032" class="st2" d="M187.6,250.7c0-12,5.9-22.1,17.3-22.1c13.7,0,19.5,11,19.5,20.9c0,13.6-8.6,22.7-19.5,22.7
		C195.7,272.2,187.6,264.4,187.6,250.7z M253.9,207.2h-27.6v15.9h-0.3c-6.5-10.9-17-18-30-18c-27.5,0-39.8,19.7-39.8,46
		c0,26.1,15.1,44.4,39.3,44.4c12.2,0,22.4-4.8,29.7-15.1h0.3v4.8c0,17.3-9.5,25.6-27.1,25.6c-12.7,0-20.5-2.7-29.8-7.3l-1.5,24.1
		c7.1,2.5,19.1,5.6,33.7,5.6c35.6,0,53.2-11.7,53.2-48V207.2z M305.5,170.5h-30.5v22.4h30.5V170.5z M275,295.6h30.5v-88.3H275V295.6
		z M390.4,206.2c-3.1-0.5-6.8-1-10.3-1c-13.2,0-20.9,7.1-26.1,18.3h-0.3v-16.3h-27.8v88.3h30.5v-37.3c0-17.3,8-27.6,22.2-27.6
		c3.6,0,6.9,0,10.3,1L390.4,206.2z M443,276.3c-14.1,0-19.8-11.7-19.8-24.8c0-13.2,5.8-24.9,19.8-24.9c14.1,0,19.9,11.7,19.9,24.9
		C462.8,264.6,457.1,276.3,443,276.3z M443,297.6c29.2,0,51.4-16.9,51.4-46.1c0-29.3-22.2-46.3-51.4-46.3c-29.2,0-51.4,17-51.4,46.3
		C391.6,280.7,413.8,297.6,443,297.6z"/>
</g>
</svg>
