<?xml version="1.0" encoding="utf-8"?>
<!-- Generator: Adobe Illustrator 21.0.2, SVG Export Plug-In . SVG Version: 6.00 Build 0)  -->
<svg version="1.1" id="Слой_1" xmlns="http://www.w3.org/2000/svg" xmlns:xlink="http://www.w3.org/1999/xlink" x="0px" y="0px"
	 viewBox="0 0 6137.8 2007.7" style="enable-background:new 0 0 6137.8 2007.7;" xml:space="preserve">
<style type="text/css">
	.st0{clip-path:url(#SVGID_2_);fill:url(#SVGID_3_);}
	.st1{clip-path:url(#SVGID_5_);fill:url(#SVGID_6_);}
	.st2{clip-path:url(#SVGID_8_);fill:url(#SVGID_9_);}
	.st3{clip-path:url(#SVGID_11_);fill:url(#SVGID_12_);}
	.st4{fill:#F9F9F9;}
</style>
<path d="M6137.8,1736.4c0,149.8-121.5,271.3-271.3,271.3H271.3C121.5,2007.7,0,1886.2,0,1736.4V271.3C0,121.5,121.5,0,271.3,0
	h5595.2c149.8,0,271.3,121.5,271.3,271.3L6137.8,1736.4L6137.8,1736.4L6137.8,1736.4z"/>
<g>
	<defs>
		<path id="SVGID_1_" d="M1330.1,883.8L1053.4,724c0,0-504.2-291.1-533.8-308.2c-29.6-17.1-59.2-6.7-59.2,29v1255.8
			c0,26.8,21.1,38.4,46.9,23.5c25.7-14.9,546.1-315.3,546.1-315.3l276.7-159.8c0,0,234.8-135.6,266-153.6
			c31.2-18,28.2-42.8,1.9-56.9C1571.7,1024.2,1330.1,883.8,1330.1,883.8L1330.1,883.8z"/>
	</defs>
	<clipPath id="SVGID_2_">
		<use xlink:href="#SVGID_1_"  style="overflow:visible;"/>
	</clipPath>
	
		<linearGradient id="SVGID_3_" gradientUnits="userSpaceOnUse" x1="1769.3241" y1="125.7567" x2="1769.3241" y2="239.0596" gradientTransform="matrix(12 0 0 12 -20428.7051 -1122.5477)">
		<stop  offset="0" style="stop-color:#257CB0"/>
		<stop  offset="0.286" style="stop-color:#4A93B5"/>
		<stop  offset="0.767" style="stop-color:#78BCBB"/>
		<stop  offset="1" style="stop-color:#89CFBD"/>
	</linearGradient>
	<path class="st0" d="M460.4,386.5v1359.6l685.6-679.8L460.4,386.5z"/>
</g>
<g>
	<defs>
		<path id="SVGID_4_" d="M1330.1,883.8L1053.4,724c0,0-504.2-291.1-533.8-308.2c-29.6-17.1-59.2-6.7-59.2,29v1255.8
			c0,26.8,21.1,38.4,46.9,23.5c25.7-14.9,546.1-315.3,546.1-315.3l276.7-159.8c0,0,234.8-135.6,266-153.6
			c31.2-18,28.2-42.8,1.9-56.9C1571.7,1024.2,1330.1,883.8,1330.1,883.8L1330.1,883.8z"/>
	</defs>
	<clipPath id="SVGID_5_">
		<use xlink:href="#SVGID_4_"  style="overflow:visible;"/>
	</clipPath>
	
		<linearGradient id="SVGID_6_" gradientUnits="userSpaceOnUse" x1="1740.7571" y1="153.8766" x2="1813.2361" y2="153.8766" gradientTransform="matrix(12 0 0 12 -20428.7051 -1122.5477)">
		<stop  offset="0" style="stop-color:#52C1AD"/>
		<stop  offset="1" style="stop-color:#DEE89A"/>
	</linearGradient>
	<path class="st1" d="M1330.1,883.8L1053.4,724l-593-342.4v4.9l685.6,679.8L1330.1,883.8z"/>
</g>
<g>
	<defs>
		<path id="SVGID_7_" d="M1330.1,883.8L1053.4,724c0,0-504.2-291.1-533.8-308.2c-29.6-17.1-59.2-6.7-59.2,29v1255.8
			c0,26.8,21.1,38.4,46.9,23.5c25.7-14.9,546.1-315.3,546.1-315.3l276.7-159.8c0,0,234.8-135.6,266-153.6
			c31.2-18,28.2-42.8,1.9-56.9C1571.7,1024.2,1330.1,883.8,1330.1,883.8L1330.1,883.8z"/>
	</defs>
	<clipPath id="SVGID_8_">
		<use xlink:href="#SVGID_7_"  style="overflow:visible;"/>
	</clipPath>
	
		<linearGradient id="SVGID_9_" gradientUnits="userSpaceOnUse" x1="1776.9961" y1="182.4087" x2="1776.9961" y2="239.4716" gradientTransform="matrix(12 0 0 12 -20428.7051 -1122.5477)">
		<stop  offset="0" style="stop-color:#EC413D"/>
		<stop  offset="0.167" style="stop-color:#DA4452"/>
		<stop  offset="0.575" style="stop-color:#B0487A"/>
		<stop  offset="0.862" style="stop-color:#954A92"/>
		<stop  offset="1" style="stop-color:#8A4A9D"/>
	</linearGradient>
	<path class="st2" d="M460.4,1746.2v4.9l593-342.4l276.7-159.8L1146,1066.4L460.4,1746.2z"/>
</g>
<g>
	<defs>
		<path id="SVGID_10_" d="M1330.1,883.8L1053.4,724c0,0-504.2-291.1-533.8-308.2c-29.6-17.1-59.2-6.7-59.2,29v1255.8
			c0,26.8,21.1,38.4,46.9,23.5c25.7-14.9,546.1-315.3,546.1-315.3l276.7-159.8c0,0,234.8-135.6,266-153.6
			c31.2-18,28.2-42.8,1.9-56.9C1571.7,1024.2,1330.1,883.8,1330.1,883.8L1330.1,883.8z"/>
	</defs>
	<clipPath id="SVGID_11_">
		<use xlink:href="#SVGID_10_"  style="overflow:visible;"/>
	</clipPath>
	
		<linearGradient id="SVGID_12_" gradientUnits="userSpaceOnUse" x1="1818.7416" y1="167.1917" x2="1818.7416" y2="197.6236" gradientTransform="matrix(12 0 0 12 -20428.7051 -1122.5477)">
		<stop  offset="0" style="stop-color:#F58879"/>
		<stop  offset="0.119" style="stop-color:#F69079"/>
		<stop  offset="0.713" style="stop-color:#FCB877"/>
		<stop  offset="1" style="stop-color:#FEC874"/>
	</linearGradient>
	<path class="st3" d="M1330.1,883.8L1146,1066.4l184.1,182.6l316.3-182.6L1330.1,883.8z"/>
</g>
<path class="st4" d="M4776.7,1332.1c-25.8,0-49.2-4.8-70.5-14.2c-21.3-9.5-39.2-24.1-53.6-43.8h-4.3c2.9,23.1,4.3,45,4.3,65.7v162.7
	h-59.9V929.5h48.7l8.3,54.1h2.9c15.4-21.7,33.3-37.3,53.8-46.9c20.4-9.6,43.9-14.4,70.3-14.4c52.4,0,92.9,17.9,121.4,53.8
	c28.5,35.8,42.8,86.1,42.8,150.8c0,64.9-14.5,115.4-43.5,151.4C4868.4,1314.2,4828.2,1332.1,4776.7,1332.1L4776.7,1332.1z
	 M4768,973.2c-40.4,0-69.6,11.2-87.7,33.6c-18,22.4-27.3,58-27.8,106.8v13.3c0,55.6,9.3,95.3,27.8,119.3s48.2,35.9,89.1,35.9
	c34.2,0,60.9-13.8,80.3-41.5c19.3-27.6,29-65.8,29-114.4c0-49.3-9.7-87.1-29-113.5C4830.4,986.3,4803.2,973.2,4768,973.2L4768,973.2
	z M5079.5,1324.9h-59.9V763.5h59.9V1324.9z M5423.8,1324.9l-11.9-56.3h-2.9c-19.7,24.8-39.4,41.6-59,50.3
	c-19.6,8.8-44.1,13.2-73.4,13.2c-39.2,0-69.9-10.1-92.2-30.3c-22.3-20.2-33.4-48.9-33.4-86.2c0-79.8,63.9-121.7,191.6-125.6
	l67.1-2.2v-24.5c0-31-6.7-54-20-68.7c-13.3-14.8-34.7-22.2-64-22.2c-33,0-70.2,10.1-111.8,30.3l-18.4-45.8
	c19.5-10.6,40.8-18.9,64.1-24.9c23.2-6,46.5-9,69.8-9c47.1,0,82.1,10.5,104.8,31.4c22.7,20.9,34.1,54.5,34.1,100.7v269.8
	L5423.8,1324.9L5423.8,1324.9L5423.8,1324.9z M5288.5,1282.7c37.3,0,66.5-10.2,87.8-30.7c21.3-20.4,31.9-49.1,31.9-85.9v-35.7
	l-59.9,2.5c-47.6,1.7-81.9,9.1-103,22.2c-21,13.1-31.6,33.5-31.6,61.2c0,21.6,6.5,38.1,19.7,49.4
	C5246.6,1277.1,5265,1282.7,5288.5,1282.7L5288.5,1282.7z M5503,929.5h64.2l86.6,225.5c19,51.5,30.8,88.6,35.4,111.5h2.9
	c3.1-12.3,9.7-33.3,19.7-63c10-29.7,42.6-121,97.9-274h64.2l-169.9,450.3c-16.8,44.5-36.5,76.1-59,94.7
	c-22.5,18.6-50.1,27.9-82.8,27.9c-18.3,0-36.3-2-54.1-6.1v-48c13.2,2.9,28,4.3,44.4,4.3c41.1,0,70.5-23.1,88-69.3l22-56.3
	L5503,929.5L5503,929.5z M3667.3,966.3c19,15.7,58.7,48.8,58.7,111.7c0,61.2-34.7,90.2-69.5,117.4c-10.8,10.7-23.2,22.4-23.2,40.6
	c0,18.2,12.4,28.1,21.5,35.5l29.8,23.1c36.4,30.6,69.4,58.8,69.4,115.8c0,77.7-75.3,156.3-217.5,156.3
	c-119.9,0-177.8-57-177.8-118.3c0-29.8,14.8-71.9,63.7-100.9c51.2-31.4,120.8-35.5,158-38.1c-11.6-14.9-24.8-30.6-24.8-56.2
	c0-14,4.2-22.3,8.3-32.3c-9.1,0.8-18.2,1.7-26.5,1.7c-87.6,0-137.3-65.3-137.3-129.8c0-38.1,17.4-80.3,52.9-110.8
	c47.2-38.9,103.4-45.5,148.1-45.5h170.3l-52.9,29.8L3667.3,966.3L3667.3,966.3L3667.3,966.3z M3608.6,1333.5
	c-6.6-0.9-10.8-0.9-19-0.9c-7.4,0-52.2,1.7-86.9,13.3c-18.2,6.6-71.1,26.4-71.1,85.2c0,58.7,57.1,100.9,145.6,100.9
	c79.3,0,121.6-38.1,121.6-89.4C3698.7,1400.4,3671.4,1378.2,3608.6,1333.5L3608.6,1333.5z M3632.6,1176.3c19-19,20.6-45.5,20.6-60.4
	c0-59.5-35.5-152.2-104.2-152.2c-21.5,0-44.7,10.7-57.9,27.3c-14,17.4-18.2,39.7-18.2,61.2c0,55.4,32.3,147.2,103.4,147.2
	C3597,1199.5,3619.3,1189.6,3632.6,1176.3L3632.6,1176.3z M3146.6,1320.2c-131.3,0-201.5-102.4-201.5-194.9
	c0-108.2,88.3-200.6,213.9-200.6c121.3,0,197.3,94.9,197.3,194.9C3356.4,1217,3281.3,1320.2,3146.6,1320.2L3146.6,1320.2z
	 M3249.8,1253.4c19.8-26.4,24.8-59.5,24.8-91.7c0-72.7-34.7-211.4-137.1-211.4c-27.2,0-54.5,10.8-74.3,28.1
	c-32.2,28.9-38,65.2-38,100.8c0,81.7,40.5,216.2,140.4,216.2C3197.9,1295.4,3230.9,1279.8,3249.8,1253.4L3249.8,1253.4z
	 M2699.1,1320.2c-131.3,0-201.5-102.4-201.5-194.9c0-108.2,88.4-200.6,213.9-200.6c121.4,0,197.3,94.9,197.3,194.9
	C2908.8,1217,2833.7,1320.2,2699.1,1320.2z M2802.3,1253.4c19.8-26.4,24.8-59.5,24.8-91.7c0-72.7-34.7-211.4-137.1-211.4
	c-27.2,0-54.5,10.8-74.3,28.1c-32.2,28.9-38,65.2-38,100.8c0,81.7,40.4,216.2,140.4,216.2
	C2750.3,1295.4,2783.3,1279.8,2802.3,1253.4z M2434.5,1307.3l-118.7,27.4c-48.2,7.5-91.3,14.1-137,14.1
	c-229.2,0-316.3-168.5-316.3-300.5c0-161,123.7-310.4,335.4-310.4c44.8,0,88,6.6,127,17.4c62.3,17.4,91.3,39,109.6,51.5l-68.9,65.6
	l-29,6.6l20.7-33.2c-28.2-27.4-79.7-78-177.6-78c-131.2,0-230,99.7-230,244.9c0,156,112.9,303,293.9,303
	c53.2,0,80.5-10.8,105.4-20.8v-133.6l-125.3,6.6l66.4-35.7h176l-21.6,20.7c-5.9,5-6.7,6.7-8.3,13.3c-0.9,7.5-1.6,31.6-1.6,39.9
	L2434.5,1307.3L2434.5,1307.3L2434.5,1307.3z"/>
<path class="st4" d="M3929.7,1283.4c-27.4-2.5-33.1-7.5-33.1-39.9V773.7c0.2-1.8,0.3-3.6,0.4-5.4c3.3-29,11.6-34,37.4-49h-118.8
	l-62.3,29.9h63.5v0.4l0-0.3v512.5c0,16.6-3.3,19.1-22.4,44h147l30.7-18.2C3958,1285.8,3943.8,1285,3929.7,1283.4L3929.7,1283.4z
	 M4267.5,1291c-9,5-18.1,10.8-27.1,14.8c-27.3,12.4-55.3,15.7-80.1,15.7c-26.3,0-67.6-1.7-109.7-32.2c-58.5-41.3-84-112.2-84-174
	c0-127.8,103.9-190.4,188.8-190.4c29.7,0,60.2,7.4,85,23.1c41.2,27.2,51.9,62.6,57.6,81.6l-193.7,78.3l-63.5,4.9
	c20.6,104.7,91.5,165.7,169.8,165.7c42,0,72.6-14.8,100.6-28.8L4267.5,1291L4267.5,1291z M4190,1045.3c15.6-5.7,23.9-10.7,23.9-22.2
	c0-33-37.1-70.9-81.6-70.9c-33,0-94.8,25.6-94.8,114.6c0,14,1.7,28.8,2.5,43.7L4190,1045.3L4190,1045.3z M4347.1,930.6V985h-6.6
	v-54.4h-18V925h42.6v5.6H4347.1L4347.1,930.6z M4421.2,985v-54.9h-0.3l-16.8,54.9h-5.2l-16.9-54.9h-0.2V985h-6v-60h10.3l15.3,48.5
	h0.2l15.1-48.5h10.4v60H4421.2L4421.2,985z"/>
</svg>
