<svg xmlns="http://www.w3.org/2000/svg" width="80" height="80" viewBox="0 0 80 80">
    <g fill="none">
        <path fill="#CCC" d="M60.714 75.14c-.452-.906-1.373-1.468-2.387-1.468h-6.351L49.308 59H30.692l-2.668 14.672h-6.35c-1.015 0-1.936.578-2.388 1.469-.89 1.765.405 3.859 2.387 3.859h36.654c1.982 0 3.277-2.094 2.387-3.86z"/>
        <path fill="#F2F2F2" d="M78 47H1V6.253C1 3.342 3.38 1 6.304 1H72.68c2.94 0 5.304 2.357 5.304 5.253L78 47z"/>
        <path fill="#E0E0E0" d="M78 48H1v5.5C1 56.548 3.38 59 6.304 59H72.68c2.94 0 5.304-2.468 5.304-5.5L78 48z"/>
        <path fill="#FFC13C" d="M56.576 31L29.424 31 24 10 62 10z"/>
        <g fill="#E65039" transform="translate(14 20)">
            <ellipse cx="20.189" cy="18.318" rx="2.678" ry="2.621"/>
            <ellipse cx="36.228" cy="18.318" rx="2.678" ry="2.621"/>
            <path d="M5.482 7.848L2.804 9.151 0.141 7.848 0.141 0 5.482 0z"/>
        </g>
        <path fill="#000" d="M73.314 0H6.67C2.984 0 0 2.985 0 6.673V53.34c0 3.688 2.984 6.673 6.67 6.673h22.387L26.87 72.014h-5.234c-1.53 0-2.89.844-3.577 2.204-.625 1.25-.562 2.703.172 3.891.734 1.188 2 1.891 3.405 1.891h36.696c1.39 0 2.672-.703 3.406-1.891.734-1.188.797-2.641.172-3.891-.688-1.36-2.047-2.204-3.578-2.204H53.1l-2.171-12.002h22.401c3.672 0 6.671-2.985 6.671-6.673V6.673C79.984 2.985 77 0 73.314 0zM2.67 6.673c0-2.203 1.797-4 4-4h66.658c2.203 0 4 1.797 4 4v40.008H2.67V6.673zm47.725 65.341h-3.733c-.734 0-1.328.594-1.328 1.328 0 .735.594 1.329 1.328 1.329H58.348c.516 0 .969.281 1.187.734.297.594.063 1.11-.062 1.297-.125.188-.469.626-1.14.626H21.635c-.671 0-1.015-.438-1.14-.641-.125-.188-.36-.703-.062-1.297.234-.453.687-.735 1.187-.735h17.028c.734 0 1.328-.594 1.328-1.328 0-.735-.594-1.329-1.328-1.329h-9.061l2.187-12.002h16.434l2.187 12.018zM77.313 53.34c0 2.203-1.796 4-4 4H6.672c-2.203 0-4-1.797-4-4v-4.001H77.33l-.016 4z"/>
        <path fill="#000" d="M37.33 55h5.34c.735 0 1.33-.67 1.33-1.5s-.595-1.5-1.33-1.5h-5.34c-.735 0-1.33.67-1.33 1.5s.595 1.5 1.33 1.5zM61.659 8H19.292c-2.188 0-3.973 1.813-3.973 4.036 0 1.182.512 2.255 1.32 2.98v3.736h-1.32c-.73 0-1.319.6-1.319 1.34v8.072c0 .505.28.978.73 1.199l2.653 1.34c.186.094.388.142.59.142.202 0 .403-.048.59-.142l2.653-1.34c.45-.237.73-.694.73-1.199v-8.056c0-.74-.59-1.34-1.32-1.34h-1.319v-2.696c.73 0 1.32-.599 1.32-1.34 0-.741-.59-1.34-1.32-1.34-.729 0-1.319-.6-1.319-1.34 0-.741.59-1.34 1.32-1.34h4.267l4.64 18.887c-.853.126-1.614.63-2.017 1.435-.45.914-.357 2.002.248 2.822l1.583 2.16c.745 1.009 1.94 1.608 3.181 1.608h.249c-.155.426-.249.867-.249 1.34 0 2.223 1.785 4.036 3.973 4.036 2.189 0 3.973-1.813 3.973-4.036 0-.473-.093-.93-.248-1.34h8.427c-.156.426-.249.867-.249 1.34 0 2.223 1.785 4.036 3.973 4.036 2.188 0 3.973-1.813 3.973-4.036 0-.473-.093-.93-.248-1.34h1.567c.73 0 1.32-.6 1.32-1.34 0-.741-.59-1.34-1.32-1.34h-25.14c-.42 0-.807-.205-1.056-.536l-1.583-2.16h27.81c.605 0 1.133-.426 1.288-1.025l5.292-21.52c.093-.41.016-.82-.248-1.151C62.45 8.189 62.078 8 61.659 8zM19.292 27.345l-1.32.678-1.318-.678v-5.897h2.653l-.015 5.897zm17.21 11.603c0 .741-.59 1.34-1.319 1.34-.73 0-1.319-.599-1.319-1.34 0-.74.59-1.34 1.32-1.34.729 0 1.318.6 1.318 1.34zm15.892 0c0 .741-.59 1.34-1.32 1.34-.729 0-1.318-.599-1.318-1.34 0-.74.59-1.34 1.319-1.34.73-.016 1.319.6 1.319 1.34zm6.254-22.876h-5.742l.667-5.376h6.41l-1.335 5.376zm-1.986 8.072h-4.75l.668-5.376h5.416l-1.334 5.376zM32.685 10.696l.667 5.376H27.61l-1.319-5.376h6.394zm9.11 5.376h-5.79l-.651-5.376h6.44v5.376zm2.653-5.376h6.44l-.667 5.376h-5.788l.015-5.376zm-16.186 8.072h5.416l.667 5.376h-4.748l-1.335-5.376zm8.085 0h5.447v5.376H37l-.652-5.376zm-6.099 8.072h4.423l.326 2.696h-4.081l-.668-2.696zm7.092 0h4.454v2.696h-4.128l-.326-2.696zm7.108 0h4.454l-.326 2.696h-4.128V26.84zm0-2.696v-5.376h5.447l-.667 5.376h-4.78zm6.797 5.376l.326-2.696h4.423l-.667 2.696h-4.082z"/>
    </g>
</svg>
