<?xml version="1.0" encoding="utf-8"?>
<!-- Generator: Adobe Illustrator 19.2.0, SVG Export Plug-In . SVG Version: 6.00 Build 0)  -->
<svg version="1.1" xmlns="http://www.w3.org/2000/svg" xmlns:xlink="http://www.w3.org/1999/xlink" x="0px" y="0px"
	 viewBox="0 0 36 36" style="enable-background:new 0 0 36 36;" xml:space="preserve">
<style type="text/css">
	.st0{fill-rule:evenodd;clip-rule:evenodd;fill:#4065B4;}
	.st1{fill-rule:evenodd;clip-rule:evenodd;fill:#FFFFFF;}
	.st2{fill-rule:evenodd;clip-rule:evenodd;fill:#FA8E12;}
	.st3{fill-rule:evenodd;clip-rule:evenodd;fill:#E82525;}
</style>
<g id="Layer_1">
</g>
<g id="Layer_2">
	<g>
		<path class="st0" d="M36,4c0-2.2-1.8-4-4-4H22c-2.2,0-5.8,0-8,0H4C1.8,0,0,1.8,0,4v10c0,2.2,0,5.8,0,8v10c0,2.2,1.8,4,4,4h10
			c2.2,0,5.8,0,8,0h10c2.2,0,4-1.8,4-4V22c0-2.2,0-5.8,0-8V4z"/>
		<path class="st1" d="M20.3,14.1h2.3v3.5h-2.3v9.1h-4.8v-9.1h-1.8v-3.5h1.8v-0.6c0-0.5,0.1-1.1,0.2-1.7c0.1-0.6,0.3-1.1,0.6-1.5
			c0.3-0.4,0.7-0.7,1.3-0.9C18.1,9.1,18.9,9,19.9,9c0.8,0,2.1,0.1,3.7,0.3l-0.5,2.9c-0.6-0.1-1-0.1-1.4-0.1c-0.4,0-0.7,0.1-0.9,0.2
			c-0.2,0.1-0.3,0.4-0.4,0.7C20.3,13.1,20.3,13.5,20.3,14.1z"/>
	</g>
</g>
<g id="Layer_3">
</g>
<g id="Layer_4">
</g>
<g id="Layer_5">
</g>
<g id="Layer_6">
</g>
<g id="Layer_7">
</g>
<g id="Layer_8">
</g>
<g id="Layer_9">
</g>
<g id="Layer_10">
</g>
<g id="Layer_11">
</g>
<g id="Layer_12">
</g>
<g id="Layer_13">
</g>
<g id="Layer_14">
</g>
<g id="Layer_15">
</g>
</svg>
