<?xml version="1.0" encoding="utf-8"?>
<!-- Generator: Adobe Illustrator 19.2.0, SVG Export Plug-In . SVG Version: 6.00 Build 0)  -->
<svg version="1.1" xmlns="http://www.w3.org/2000/svg" xmlns:xlink="http://www.w3.org/1999/xlink" x="0px" y="0px"
	 viewBox="0 0 36 36" style="enable-background:new 0 0 36 36;" xml:space="preserve">
<style type="text/css">
	.st0{fill-rule:evenodd;clip-rule:evenodd;fill:#4065B4;}
	.st1{fill-rule:evenodd;clip-rule:evenodd;fill:#FFFFFF;}
	.st2{fill-rule:evenodd;clip-rule:evenodd;fill:#FA8E12;}
	.st3{fill-rule:evenodd;clip-rule:evenodd;fill:#E82525;}
</style>
<g id="Layer_1">
</g>
<g id="Layer_2">
</g>
<g id="Layer_3">
</g>
<g id="Layer_4">
</g>
<g id="Layer_5">
</g>
<g id="Layer_6">
	<g>
		<path class="st2" d="M36,4c0-2.2-1.8-4-4-4H22c-2.2,0-5.8,0-8,0H4C1.8,0,0,1.8,0,4v10c0,2.2,0,5.8,0,8v10c0,2.2,1.8,4,4,4h10
			c2.2,0,5.8,0,8,0h10c2.2,0,4-1.8,4-4V22c0-2.2,0-5.8,0-8V4z"/>
		<path class="st1" d="M16.9,6.7c3.5-1,6.4,1.7,7,4.4c0.8,3.5-1.7,6.3-4.4,6.9C12.3,19.6,9.2,8.8,16.9,6.7L16.9,6.7z M16.8,22.9
			c-0.3-0.2-1.4-0.3-1.9-0.5c-5.6-1.8-3.6-4.5-2-4.4c0.6,0.1,1.1,0.5,1.5,0.8c2.3,1.4,5.4,1.3,7.7-0.1c0.5-0.3,0.9-0.8,1.6-0.7
			c1,0.1,3,1.8-0.5,3.6c-2,1-2,0.7-3.6,1.2c0.3,0.5,3.1,3.2,3.9,4c1.3,1.4,0.2,2.9-1.2,2.7c-0.9-0.1-3.6-3-4.1-3.6
			c-1.1,0.6-3.1,3.4-4.1,3.6c-1.4,0.2-2.6-1.4-1.2-2.8L16.8,22.9L16.8,22.9z M17.5,9.6c1.7-0.5,3.1,0.7,3.5,2c0.5,1.7-0.7,3.1-2,3.4
			C15.3,16,13.8,10.6,17.5,9.6z"/>
	</g>
</g>
<g id="Layer_7">
</g>
<g id="Layer_8">
</g>
<g id="Layer_9">
</g>
<g id="Layer_10">
</g>
<g id="Layer_11">
</g>
<g id="Layer_12">
</g>
<g id="Layer_13">
</g>
<g id="Layer_14">
</g>
<g id="Layer_15">
</g>
</svg>
