<?xml version="1.0" encoding="utf-8"?>
<!-- Generator: Adobe Illustrator 21.0.2, SVG Export Plug-In . SVG Version: 6.00 Build 0)  -->
<svg version="1.1" id="svg2444" xmlns:svg="http://www.w3.org/2000/svg"
	 xmlns="http://www.w3.org/2000/svg" xmlns:xlink="http://www.w3.org/1999/xlink" x="0px" y="0px" viewBox="0 0 960 960"
	 style="enable-background:new 0 0 960 960;" xml:space="preserve">
<style type="text/css">
	.st0{fill:#4C75A3;}
	.st1{fill:#FFFFFF;}
</style>
<g id="layer1">
	<g id="g3257">
		<path id="path2438" class="st0" d="M147.9,0h664.1C893.8,0,960,66.2,960,147.9v664.1c0,81.7-66.2,147.9-147.9,147.9H147.9
			C66.2,960,0,893.8,0,812.1V147.9C0,66.2,66.2,0,147.9,0"/>
		<path id="path2442" class="st1" d="M471.9,672h39.3c0,0,11.9-1.3,17.9-7.8c5.6-6,5.4-17.2,5.4-17.2s-0.8-52.7,23.7-60.5
			c24.1-7.6,55.1,50.9,87.9,73.4c24.8,17,43.7,13.3,43.7,13.3l87.7-1.2c0,0,45.9-2.8,24.1-38.9c-1.8-2.9-12.7-26.7-65.2-75.5
			c-55-51.1-47.6-42.8,18.6-131.1c40.4-53.8,56.5-86.6,51.4-100.7c-4.8-13.4-34.5-9.9-34.5-9.9l-98.8,0.6c0,0-7.3-1-12.8,2.3
			c-5.3,3.2-8.7,10.6-8.7,10.6s-15.6,41.6-36.5,77c-44,74.7-61.6,78.6-68.8,74c-16.7-10.8-12.5-43.4-12.5-66.6
			c0-72.4,11-102.6-21.4-110.4c-10.7-2.6-18.6-4.3-46.1-4.6c-35.3-0.4-65.1,0.1-82,8.4c-11.2,5.5-19.9,17.8-14.6,18.5
			c6.5,0.9,21.3,4,29.2,14.7c10.1,13.8,9.8,44.7,9.8,44.7s5.8,85.2-13.6,95.8c-13.3,7.3-31.6-7.6-70.8-75.3
			c-20.1-34.7-35.3-73.1-35.3-73.1s-2.9-7.2-8.1-11c-6.3-4.7-15.2-6.1-15.2-6.1l-93.9,0.6c0,0-14.1,0.4-19.3,6.5
			c-4.6,5.5-0.4,16.7-0.4,16.7S225.8,511.1,309,597.8C385.3,677.2,471.9,672,471.9,672"/>
	</g>
</g>
</svg>
