<?xml version="1.0" encoding="utf-8"?>
<!-- Generator: Adobe Illustrator 19.2.1, SVG Export Plug-In . SVG Version: 6.00 Build 0)  -->
<svg version="1.1" id="Layer_1" xmlns="http://www.w3.org/2000/svg" xmlns:xlink="http://www.w3.org/1999/xlink" x="0px" y="0px"
	 viewBox="0 0 46 46" style="enable-background:new 0 0 46 46;" xml:space="preserve">
<style type="text/css">
	.st0{fill:url(#SVGID_1_);}
	.st1{fill:#FFFFFF;}
</style>
<g id="Layer_1_1_">
</g>
<g id="Layer_2">
</g>
<g id="Layer_3">
</g>
<g id="Layer_4">
</g>
<g id="Layer_5">
</g>
<g id="Layer_6">
</g>
<g id="Layer_8">
</g>
<g id="Layer_9">
</g>
<g id="Layer_10">
</g>
<g id="Layer_11">
</g>
<g id="Layer_12">
</g>
<g id="Layer_13">
</g>
<g id="Layer_14">
</g>
<g id="Layer_15">
</g>
<g id="Layer_7">
	<g>
		
			<radialGradient id="SVGID_1_" cx="14.1308" cy="4.8907" r="43.0434" gradientTransform="matrix(1 0 0 -1 0 48)" gradientUnits="userSpaceOnUse">
			<stop  offset="0" style="stop-color:#FFD972"/>
			<stop  offset="0.2463" style="stop-color:#F2A84B"/>
			<stop  offset="0.3793" style="stop-color:#E95132"/>
			<stop  offset="0.6995" style="stop-color:#C4257E"/>
			<stop  offset="0.9618" style="stop-color:#6862A9"/>
			<stop  offset="0.9852" style="stop-color:#6068AD"/>
		</radialGradient>
		<path class="st0" d="M46,5.1C46,2.3,43.7,0,40.9,0H28.1c-2.8,0-7.4,0-10.2,0H5.1C2.3,0,0,2.3,0,5.1v12.8c0,2.8,0,7.4,0,10.2v12.8
			C0,43.7,2.3,46,5.1,46h12.8c2.8,0,7.4,0,10.2,0h12.8c2.8,0,5.1-2.3,5.1-5.1V28.1c0-2.8,0-7.4,0-10.2L46,5.1L46,5.1z"/>
	</g>
</g>
<g>
	<g>
		<path class="st1" d="M29.9,40.5H16.1c-5.6,0-10.2-4.6-10.2-10.2V15.6c0-5.6,4.6-10.2,10.2-10.2h13.8c5.6,0,10.2,4.6,10.2,10.2
			v14.7C40.1,36,35.5,40.5,29.9,40.5z M16.1,8.7c-3.8,0-6.9,3.1-6.9,6.9v14.7c0,3.8,3.1,6.9,6.9,6.9h13.8c3.8,0,6.9-3.1,6.9-6.9
			V15.6c0-3.8-3.1-6.9-6.9-6.9L16.1,8.7L16.1,8.7z"/>
	</g>
	<g>
		<path class="st1" d="M23,32.5c-5.3,0-9.6-4.3-9.6-9.6c0-2.5,1-4.9,2.7-6.7c1.8-1.8,4.1-2.9,6.6-2.9c0.1,0,0.2,0,0.3,0
			c3,0.1,5.4,1.1,7.1,2.9c1.6,1.7,2.4,4,2.4,6.7c-0.1,2.5-1.1,4.9-2.8,6.7C27.9,31.5,25.5,32.5,23,32.5z M22.8,17.3
			c-1.4,0-2.8,0.6-3.8,1.6c-1,1.1-1.6,2.5-1.6,4c0,3.1,2.5,5.6,5.6,5.6c3.1,0,5.5-2.5,5.6-5.7c0.1-3.4-2-5.5-5.7-5.6
			C22.9,17.3,22.8,17.3,22.8,17.3z"/>
	</g>
	<circle class="st1" cx="32.3" cy="13.6" r="2.1"/>
</g>
</svg>
