<svg xmlns="http://www.w3.org/2000/svg" xmlns:xlink="http://www.w3.org/1999/xlink" viewBox="0 0 1000 500"><defs><style>.cls-1{fill:url(#linear-gradient);}.cls-2{fill:#fff;}</style><linearGradient id="linear-gradient" y1="250" x2="1000" y2="250" gradientUnits="userSpaceOnUse"><stop offset="0" stop-color="#2ba6dc"/><stop offset="1" stop-color="#0269a4"/></linearGradient></defs><title>klarna Rechnung</title><g id="Layer_2" data-name="Layer 2"><g id="Layer_1-2" data-name="Layer 1"><rect class="cls-1" width="1000" height="500"/><path class="cls-2" d="M180.65,166.45c0,23.9-13.14,38.76-34.67,42.21,6.46,3,10.34,7.75,14,14.86l24.12,46.94c1.51,2.37,1.08,4.31-2.15,4.31h-7.11c-5.17,0-6.89-.65-8.4-3.88l-20.89-41.56c-6.68-13.35-13.78-18.73-30.79-18.73H85.69v59.86c0,3.23-.86,4.31-4.09,4.31H74.5c-3.23,0-4.31-1.08-4.31-4.31V126.18c0-3.23,1.08-4.31,4.31-4.31h60.94C163.64,121.88,180.65,138.24,180.65,166.45Zm-46.73-29.93H85.69V196h48.23c19.16,0,30.58-10.55,30.58-29.5C164.5,147.29,153.52,136.52,133.93,136.52Z"/><path class="cls-2" d="M239.23,160.85c32.3,0,47.8,18.73,47.8,44.57v11.84c0,3.66-1.72,6-6.46,6h-74.5v12.49c0,18.3,11,29.5,32.3,29.5,17.66,0,27.78-7.11,33.81-17.87,1.94-2.58,3.45-3,6.24-1.51l4.52,2.37c2.8,1.51,3.23,3.45,1.51,6.24-7.54,13.57-21.32,23.26-46.08,23.26-32.3,0-46.73-17.66-46.73-43.5v-28C191.64,177.86,208,160.85,239.23,160.85Zm0,12.49c-22,0-33.16,12.06-33.16,31.22v7.54h66.54v-7.54C272.61,185.4,261.41,173.34,239.23,173.34Z"/><path class="cls-2" d="M344.53,160.85c26.27,0,39.62,11.41,45,29.07,1.08,3.23.22,4.52-2.58,5.6l-5.6,1.94c-3,1.08-4.31.22-5.38-2.58-4.52-14.21-13.35-21.1-31.87-21.1-21.32,0-32.08,11-32.08,29.07v32.95c0,18.09,11,29.28,32.08,29.28,17.87,0,27.56-7.54,32.08-22.18,1.29-3,2.37-3.45,5.6-2.58l5.6,1.72c2.8,1.08,3.88,2.37,2.58,5.6-6.46,19.6-20.67,30.15-46.3,30.15-30.79,0-46.08-16.15-46.08-42.42V203.27C297.59,177.22,312.88,160.85,344.53,160.85Z"/><path class="cls-2" d="M418.18,119.29v47.59c6.68-3,18.73-6,33.81-6,29.5,0,42.85,15.5,42.85,42.21v67.83c0,3-1.08,3.88-3.88,3.88h-6.89c-2.8,0-3.88-.86-3.88-3.88v-67.4c0-18.95-9.47-29.29-30.15-29.29-13.35,0-25,2.8-31.87,6.24v90.44c0,3-.86,3.88-3.88,3.88h-6.68c-3,0-3.88-.86-3.88-3.88V119.29c0-3,.86-3.88,3.88-3.88h6.68C417.31,115.42,418.18,116.28,418.18,119.29Z"/><path class="cls-2" d="M561.37,160.85c29.72,0,42.85,15.72,42.85,42.21v67.83c0,3-1.08,3.88-3.88,3.88h-6.67c-3,0-3.88-.86-3.88-3.88v-67.4c0-19.38-9.47-29.29-30.15-29.29A85.52,85.52,0,0,0,531,178.94c-2.8,1.29-3.23,3-3.23,5.38v86.56c0,3-1.08,3.88-3.87,3.88H517c-2.8,0-3.88-.86-3.88-3.88V180c0-6.68,1.72-9,8.18-11.84C529.72,164.73,542,160.85,561.37,160.85Z"/><path class="cls-2" d="M713.4,168v90.87c0,6.68-1.72,9-8.18,11.84-8.4,3.45-20.67,7.11-40.27,7.11-29.5,0-42.64-15.5-42.64-42V168c0-3,.86-3.88,3.88-3.88h6.67c3,0,3.88.86,3.88,3.88v67.18c0,19.38,9.26,29.5,30.15,29.5,12.27,0,21.53-2.15,28-4.74,3.45-1.51,3.88-3.23,3.88-6V168c0-3,1.08-3.88,3.88-3.88h6.89C712.11,164.08,713.4,164.94,713.4,168Z"/><path class="cls-2" d="M780.58,160.85c29.72,0,42.85,15.72,42.85,42.21v67.83c0,3-1.08,3.88-3.87,3.88h-6.68c-3,0-3.88-.86-3.88-3.88v-67.4c0-19.38-9.47-29.29-30.15-29.29a85.52,85.52,0,0,0-28.64,4.74c-2.8,1.29-3.23,3-3.23,5.38v86.56c0,3-1.08,3.88-3.88,3.88h-6.89c-2.8,0-3.88-.86-3.88-3.88V180c0-6.68,1.72-9,8.18-11.84C748.93,164.73,761.2,160.85,780.58,160.85Z"/><path class="cls-2" d="M885.24,160.85c15.93,0,28.64,3.23,36.39,6.46,6.89,3,8.18,4.74,8.18,11.84V281.44c0,28-12.7,46.51-45.43,46.51-23,0-35.31-9.47-42.64-23-1.94-2.8-1.29-5,1.51-6.46l4.74-2.37c3-1.72,4.52-1.08,6.25,1.51,5.6,10.34,13.57,17.23,29.71,17.23,22.18,0,31.44-12.27,31.44-32.73V268.73a98.73,98.73,0,0,1-34,6.46c-29.5,0-42.63-15.72-42.63-42V205C838.73,176.36,853.58,160.85,885.24,160.85Zm.86,13.35c-22.39,0-32.73,10.34-32.73,31v27.56c0,18.73,9.47,29.07,29.71,29.07a89.5,89.5,0,0,0,32.3-6.25V183.89c0-3.45-.43-4.09-4.09-5.6A74.62,74.62,0,0,0,886.1,174.2Z"/><path class="cls-2" d="M320.72,343.24c.13,12.32,0,24.64,0,37,0,2.88-.31,3.23-3.28,3.23H307.21c-2.66,0-3-.29-3-2.91,0-12,0-23.92,0-35.9a34.81,34.81,0,0,0-.62-6,5.82,5.82,0,0,0-5.22-4.91c-5-.85-9.54.74-13.73,3.35-.56.34-.78,1.59-.78,2.4-.06,10.07,0,20.14,0,30.21,0,3.78,0,7.57,0,11.35,0,1.75-.75,2.4-2.44,2.38-3.79-.06-7.57,0-11.35,0-2.19,0-2.79-.62-2.79-2.85V323.4c0-2,.59-2.63,2.59-2.63,3.44,0,6.85,0,10.26,0,2.19,0,2.56.44,2.59,2.6,0,.81.1,1.63.15,2.94,1.13-.72,1.79-1.13,2.44-1.54,6.66-4.53,14-5.63,21.83-4.25,7.09,1.25,11,6,12.41,12.76a48.49,48.49,0,0,1,1.16,10Zm67.8-26.77-.78,2.13c-.18.56-.34,1-.47,1.5-.12-.46-.25-1-.43-1.5l-.75-2.13h-.72l-.31,4.41h.54l.12-1.91c0-.66.06-1.41.1-1.94.13.53.31,1.09.5,1.71l.72,2.1h.44l.78-2.15c.22-.6.4-1.16.56-1.66,0,.53,0,1.28.1,1.91l.09,1.94h.57l-.29-4.41ZM216,339c.34,14,.28,27.93.38,41.9,0,1.87-.69,2.47-2.59,2.47-3.29,0-6.61,0-9.89,0-2.78,0-3.12-.34-3.28-3.1,0-.28-.06-.59-.13-1.16-1.87,1-3.47,2-5.16,2.85a24.49,24.49,0,0,1-18.14,1.28c-5.53-1.66-8.94-5.48-10.29-11.07a27.83,27.83,0,0,1-.25-12.13c1.28-6.26,5.47-9.73,11.32-11.48,5.69-1.72,11.5-1.91,17.36-1.85,4.19.06,4.19,0,4.19-4.22a19.45,19.45,0,0,0-.12-3.28,6.29,6.29,0,0,0-6.69-5.56c-6.32,0-12.67.28-19,.62-3.1.18-3.51,0-3.51-3.1,0-2.19,0-4.41,0-6.6a2,2,0,0,1,1.63-2.28c9.82-2.1,19.7-3.54,29.65-1.06,9,2.19,14.29,8.45,14.54,17.77Zm-16.08,28.33a42,42,0,0,1,0-4.38c0-1.91.06-3.79-.06-5.69,0-.47-.69-1.28-1-1.28-3.81.15-7.63.25-11.44.72a5.18,5.18,0,0,0-4.48,4.32,25.43,25.43,0,0,0-.41,6.66c.22,2.43,2,3.87,4.38,4.28a20.52,20.52,0,0,0,11-1.47,2.65,2.65,0,0,0,2-3.15ZM379,342.52c0,12.7,0,25.4,0,38.09,0,2.51-.31,2.82-2.87,2.82h-9.51c-2.71,0-2.91-.19-3-2.85a7,7,0,0,0-.12-.9c0-.13-.13-.19-.31-.47a5.17,5.17,0,0,0-1,.5c-4.25,3.19-9.17,4.41-14.35,4.81-10.29.82-18.14-5.94-18.64-16.23a38.57,38.57,0,0,1,.22-7.63,13.64,13.64,0,0,1,10.32-11.6A90.15,90.15,0,0,1,353,346.83a61.69,61.69,0,0,1,7.89-.06c1.12,0,1.69-.34,1.63-1.56a44.38,44.38,0,0,0-.22-5.47c-.68-4-3-6.07-7-6.07-6.28,0-12.54.31-18.82.69-3.13.15-3.59-.1-3.59-3.35,0-2,0-4,0-6a2.58,2.58,0,0,1,2.28-2.82,78.85,78.85,0,0,1,22.11-2.07,39.28,39.28,0,0,1,9.25,1.88c7.1,2.38,11,7.6,12.13,14.88a38.47,38.47,0,0,1,.41,5.66ZM362.88,368c-.1-1.66,0-3.31,0-4.94s0-3.54,0-5.32c0-1.19-.41-1.82-1.69-1.75-2.31.06-4.66-.13-6.95,0-7.72.59-9.1,3.47-9.19,9.78-.06,3.75,1.66,5.76,4.63,6.26a20.23,20.23,0,0,0,11.73-1.85,2.12,2.12,0,0,0,1.47-2.22ZM154.73,299.14H144.12c-2.66,0-2.91.28-2.91,3v78.72c0,2.19.38,2.57,2.54,2.6h10.44c3.25,0,3.57-.29,3.57-3.54V302.08c0-2.47-.47-2.91-3-2.94Zm226.7,17.8h1.35v3.94h.56v-3.94h1.35v-.47h-3.25ZM258,320a23.15,23.15,0,0,0-12.91,4.47l-1.85,1.31c-.06-.87-.12-1.41-.12-1.94-.06-2.63-.54-3.1-3.1-3.1-3.31,0-6.6,0-9.89,0-3,0-3.53.47-3.53,3.47v55.86c0,2.68.59,3.31,3.19,3.31h10.41c2.82,0,3.26-.44,3.26-3.31q0-20.32,0-40.66a2.54,2.54,0,0,1,1.59-2.69c4.09-1.91,8.25-3.35,12.85-3.15,1.66.06,2.47-.56,2.44-2.35-.06-3-.06-6,0-9,0-1.63-.72-2.31-2.35-2.25ZM85.17,299.17c-3.25,0-6.48,0-9.73,0s-5.25,2-5.25,5.38v76c0,2.25.31,2.57,2.53,2.57q5,0,9.89,0c3.47,0,5.19-1.75,5.19-5.2v-76c0-2.25-.43-2.75-2.63-2.75Zm36.37,57.45A39.64,39.64,0,0,0,96.31,344.2c-3.07,0-3.1,0-3,2.25a22.76,22.76,0,0,0,.31,2.54,40.09,40.09,0,0,0,36.49,34.27c2.19.22,2.57.06,2.35-2.1-.94-9.38-4.35-17.7-10.91-24.55Zm8.63-57.26c-.84.12-1.72.09-2.53.22A40.23,40.23,0,0,0,93.3,336.1c-.19,2.31-.06,2.31,2.38,2.63,3.35-.82,6.85-1.35,10-2.54,16-6.1,24.73-17.85,26.76-34.78.25-2.15-.12-2.4-2.31-2.06Zm0,0"/></g></g></svg>