<?xml version="1.0" encoding="utf-8"?>
<!-- Generator: Adobe Illustrator 25.0.1, SVG Export Plug-In . SVG Version: 6.00 Build 0)  -->
<svg version="1.1" id="Layer_1" xmlns="http://www.w3.org/2000/svg" xmlns:xlink="http://www.w3.org/1999/xlink" x="0px" y="0px"
	 viewBox="0 0 271 42" style="enable-background:new 0 0 271 42;" xml:space="preserve">
<style type="text/css">
	.st0{fill:#FFFFFF;}
	.st1{fill:#221F20;}
	.st2{fill:#FEFEFE;}
</style>
<desc>Created with Sketch.</desc>
<g>
	<g id="Group-7_1_" transform="translate(0.000000, 0.182007)">
		<g id="Fill-5_1_">
			<path class="st0" d="M17.9,1.5c-9,0-16.4,7.3-16.4,16.2V24c0,8.9,7.3,16.2,16.4,16.2h227.9c9,0,16.4-7.2,16.4-16.2v-6.3
				c0-8.9-7.3-16.2-16.4-16.2C245.9,1.5,17.9,1.5,17.9,1.5z"/>
		</g>
	</g>
	<g>
		<g id="Page-1">
			<g id="Homepage-_x3E_-1920" transform="translate(-390.000000, -68.000000)">
				<g id="logo" transform="translate(390.000000, 68.000000)">
					<path id="Fill-1" class="st1" d="M194.2,19c-1.4,0-2.6,1-2.9,2.4c-0.1,0.8,0.1,1.5,0.5,2.1c0.4,0.6,1.1,1,1.9,1.2h0.5
						c1.4,0,2.6-1,2.9-2.4c0.3-1.6-0.8-3-2.4-3.3L194.2,19"/>
					<path id="Fill-3" class="st1" d="M184.2,8.7c-1,0-1.9,0.7-2.1,1.7c-0.1,0.5,0,1.1,0.4,1.5c0.3,0.5,0.8,0.7,1.4,0.8h0.4
						c1,0,1.9-0.7,2.1-1.7c0.2-1.1-0.6-2.2-1.7-2.4L184.2,8.7"/>
					<g id="Group-7" transform="translate(0.000000, 0.182007)">
						<path id="Fill-5" class="st1" d="M199.2,22.5c-0.4,2.4-2.5,4.2-5,4.2c-0.3,0-0.6,0-0.9-0.1h-0.2l-2,12.2H17.9
							c-8.3,0-15-6.6-15-14.8v-6.3c0-8.2,6.7-14.8,15-14.8h179.3l-2.4,13.8h0.1C197.8,17.2,199.7,19.8,199.2,22.5 M245.9,0H17.9
							C8.1,0,0,8,0,17.7V24c0,9.7,8,17.7,17.9,17.7h227.9c9.9,0,17.9-7.9,17.9-17.7v-6.3C263.8,8,255.8,0,245.9,0"/>
					</g>
					<polygon id="Fill-8" class="st1" points="52.2,7.2 45.7,7.2 27.3,18.1 23.7,18.1 25.7,7.2 22.1,7.2 17.3,33.6 20.9,33.6 
						23.1,21.6 26.9,21.6 41.5,33.6 47.6,33.6 30.8,19.9 					"/>
					<path id="Fill-10" class="st1" d="M67.8,26.7v0.4l-0.1,0.4c-0.2,1-0.6,1.8-1.2,2.2c-0.6,0.5-1.6,0.7-2.9,0.7h-9.1
						c-1.6,0-2.3-0.2-2.6-0.4c-0.4-0.2-0.6-0.6-0.6-1.1v-0.6l0.3-1.3c0.2-0.8,0.5-1.4,1-1.7c0.4-0.2,1.2-0.5,3.1-0.5h9.1
						C67.5,24.7,67.8,25.8,67.8,26.7 M71.1,15.8c-1-0.9-2.6-1.3-4.8-1.3h-8.1c-2.2,0-4.1,0.5-5.5,1.5c-1.7,1.1-2.5,2.3-2.4,3.5
						L50,20.6h3.8l0.2-0.9c0.2-0.5,0.4-0.8,0.7-1c0.8-0.7,2.1-1.1,3.9-1.1h7.1c1.2,0,2.2,0.2,2.7,0.7c0.5,0.4,0.7,1,0.7,1.8v0.7
						l-0.3,1.5c-0.6-0.5-1.6-0.7-2.9-0.7H55.2c-2,0-3.7,0.4-4.9,1.3c-1.1,0.8-1.8,1.9-2.1,3.3l-0.4,2.2c-0.1,0.4-0.1,0.8-0.1,1.1
						c0,1.4,0.5,2.5,1.6,3.1c1,0.6,2.4,0.9,4.3,0.9H64c1,0,2-0.3,2.8-0.8l0,0l-0.1,0.8h3.6l2.2-12.1c0-0.1,0.1-0.4,0.2-0.8v-1
						C72.7,18,72.2,16.7,71.1,15.8"/>
					<path id="Fill-12" class="st1" d="M97.5,14.6l-2.1,11.8c-0.3,1.3-0.9,2.3-2.1,3.1c-1.1,0.7-2.3,1.1-3.6,1.1h-7.2
						c-1.3,0-2.4-0.3-3.1-0.8c-0.7-0.5-1-1.3-1-2.3c0-0.3,0-0.7,0.1-1.1l2.1-11.7H77l-2.1,11.4c-0.1,0.7-0.2,1.4-0.2,1.9
						c0,1.9,0.6,3.4,1.8,4.3c1.2,1,3,1.5,5.5,1.5h7.2c1.6,0,3.2-0.4,4.5-1.2c0.2-0.1,0.4-0.2,0.6-0.4L94,33.8h3.5l3.5-19.1
						L97.5,14.6"/>
					<path id="Fill-14" class="st1" d="M114.1,10.3h4.2l0.6-3.2h-4.4c-2.3,0-4.1,0.6-5.5,1.8s-2.3,3-2.8,5.4v0.1h-2.3l-0.6,3.1h2.3
						l-2.9,16.1h3.6l2.9-16.1h7.9l0.6-3.1h-7.9c0.3-1.4,0.8-2.4,1.4-3.1C111.9,10.7,112.8,10.3,114.1,10.3"/>
					<path id="Fill-16" class="st2" d="M222.1,27.8L222.1,27.8c-0.3,1.8-1,3-1.8,3.5c-0.9,0.6-2.2,0.9-3.9,0.9h-3.6
						c-0.9,0-1.5-0.2-1.9-0.6c-0.5-0.4-0.7-1-0.7-2c0-0.3,0-0.6,0.1-1l1.6-9.1h13.8l0.6-3.4h-13.8l1.6-8.2h-3.9l-1.6,8.2h-2.3
						l-0.6,3.4h2.3l-1.5,8.5l0,0c-0.1,0.5-0.1,0.9-0.2,1l0,0c0,0.2,0,0.5,0,0.9c0,1.8,0.5,3.2,1.6,4.2c1.1,0.9,2.6,1.4,4.5,1.4h3.8
						c3.2,0,5.8-0.9,7.5-2.8c1.1-1.2,1.8-2.7,2.1-4.5l0,0l0.2-0.4l0.2-0.7h-3.9L222.1,27.8z"/>
					<polygon id="Fill-18" class="st2" points="251.5,16.4 248.2,16.4 237.2,31.4 231.6,16.4 227.4,16.4 234.7,35.6 238.3,35.6 
						252.6,16.4 					"/>
					<path id="Fill-20" class="st1" d="M143.5,30.2c-0.9,0.7-2.3,1.1-3.9,1.1h-17.7l1.5-8.6H141c1.5,0,2.6,0.2,3.4,0.7
						c0.7,0.4,1,1.2,1,2.2c0,0.3,0,0.7-0.1,1.1C145,28.3,144.4,29.5,143.5,30.2 M141.1,19.2h-17l1.3-7.4h17.1c1.5,0,2.6,0.2,3.2,0.7
						c0.6,0.4,0.9,1.1,0.9,2c0,0.3,0,0.7-0.1,1.1c-0.2,1.4-0.8,2.4-1.7,2.9C144.1,19,142.8,19.2,141.1,19.2 M150.3,15.4
						c0.1-0.5,0.2-1,0.2-1.6c0-3.6-2.8-5.5-8.4-5.5h-19.5l-4.8,26.4h20.4c3.2,0,5.6-0.6,7.3-1.7c1.9-1.2,3.1-3.3,3.6-6.2
						c0-0.1,0.1-0.3,0.2-0.7v-0.9c0-1.5-0.5-2.8-1.4-3.7c-0.3-0.3-0.6-0.5-0.9-0.7c0.5-0.3,1-0.7,1.5-1.1
						C149.2,18.7,149.9,17.2,150.3,15.4"/>
					<path id="Fill-22" class="st1" d="M161.1,18.7h8.4c1.2,0,2.1,0.3,2.8,0.9c0.6,0.6,0.9,1.4,0.9,2.4c0,0.2,0,0.5,0,0.7h-17.1
						c0.3-1.1,0.9-2.1,1.7-2.8C158.7,19.1,159.8,18.7,161.1,18.7 M175.2,17.3c-1.3-1.1-3.1-1.6-5.5-1.6h-7.7c-2.5,0-4.7,0.7-6.4,2.2
						c-1.6,1.3-2.6,3-3,4.9l-0.9,4.8c-0.1,0.7-0.2,1.3-0.2,1.8c0,3.7,2.5,5.5,7.3,5.5h9c2.4,0,4.3-0.7,5.8-2
						c1.2-1.1,1.9-2.4,2.2-3.9l0.1-0.9h-3.6v0.7c-0.2,0.8-0.6,1.5-1.4,2.1c-0.7,0.6-1.8,0.8-3.1,0.8h-8.8c-1.2,0-2.2-0.3-2.9-0.8
						c-0.7-0.5-1-1.3-1-2.4c0-0.2,0-0.4,0-0.7c0-0.2,0.1-0.4,0.1-0.7l0.3-1.4h20.7l0.6-3.3c0.1-0.4,0.1-0.8,0.1-1.2
						C177,19.7,176.4,18.3,175.2,17.3"/>
					<polygon id="Fill-24" class="st1" points="181.9,15.7 178.4,34.7 182,34.7 185.5,15.7 					"/>
				</g>
			</g>
		</g>
		<g>
			<path d="M271,3.8c0,2.1-1.7,3.7-3.8,3.7c-2.1,0-3.8-1.7-3.8-3.7s1.7-3.7,3.9-3.7C269.3,0.1,271,1.7,271,3.8z M264.3,3.8
				c0,1.7,1.3,3,2.9,3c1.6,0,2.8-1.3,2.8-3s-1.2-3-2.9-3C265.5,0.8,264.3,2.2,264.3,3.8z M266.6,5.8h-0.9V2c0.3,0,0.8-0.1,1.4-0.1
				c0.7,0,1,0.1,1.3,0.3c0.2,0.2,0.4,0.4,0.4,0.8c0,0.5-0.3,0.7-0.8,0.9l0,0c0.4,0.1,0.5,0.4,0.7,0.9c0.1,0.6,0.2,0.8,0.3,0.9h-0.9
				c-0.1-0.1-0.2-0.5-0.3-0.9c-0.1-0.4-0.3-0.6-0.8-0.6h-0.4L266.6,5.8L266.6,5.8z M266.6,3.7h0.4c0.5,0,0.9-0.2,0.9-0.5
				s-0.2-0.6-0.8-0.6c-0.2,0-0.4,0-0.5,0V3.7z"/>
		</g>
	</g>
</g>
</svg>
