<?xml version="1.0" encoding="utf-8"?>
<!-- Generator: Adobe Illustrator 25.0.1, SVG Export Plug-In . SVG Version: 6.00 Build 0)  -->
<svg version="1.1" id="Layer_1" xmlns="http://www.w3.org/2000/svg" xmlns:xlink="http://www.w3.org/1999/xlink" x="0px" y="0px"
	 viewBox="0 0 270.6 41.8" width="271px" height="42px" style="enable-background:new 0 0 270.6 41.8;" xml:space="preserve">
<style type="text/css">
	.st0{fill:#FFFFFF;}
	.st1{fill:#F82A5B;}
	.st2{fill:#221F20;}
	.st3{fill:#F62F5E;}
	.st4{fill:#FEFEFE;}
</style>
<desc>Created with Sketch.</desc>
<g>
	<g id="Group-7_1_" transform="translate(0.000000, 0.182007)">
		<g id="Fill-5_1_">
			<path class="st0" d="M17.9,1.4c-9,0-16.4,7.3-16.4,16.2v6.3c0,8.9,7.3,16.2,16.4,16.2h227.6c9,0,16.4-7.2,16.4-16.2v-6.3
				c0-8.9-7.3-16.2-16.4-16.2C245.5,1.4,17.9,1.4,17.9,1.4z"/>
		</g>
	</g>
	<g>
		<g id="Page-1">
			<g id="Homepage-_x3E_-1920" transform="translate(-390.000000, -68.000000)">
				<g id="logo" transform="translate(390.000000, 68.000000)">
					<path id="Fill-1" class="st1" d="M193.9,18.9c-1.4,0-2.6,1-2.9,2.4c-0.1,0.8,0.1,1.5,0.5,2.1s1.1,1,1.9,1.2h0.5
						c1.4,0,2.6-1,2.9-2.4c0.3-1.6-0.8-3-2.4-3.3L193.9,18.9"/>
					<path id="Fill-3" class="st2" d="M183.9,8.6c-1,0-1.9,0.7-2.1,1.7c-0.1,0.5,0,1.1,0.4,1.5c0.3,0.5,0.8,0.7,1.4,0.8h0.4
						c1,0,1.9-0.7,2.1-1.7c0.2-1.1-0.6-2.2-1.7-2.4L183.9,8.6"/>
					<g id="Group-7" transform="translate(0.000000, 0.182007)">
						<path id="Fill-5" class="st3" d="M198.9,22.4c-0.4,2.4-2.5,4.2-5,4.2c-0.3,0-0.6,0-0.9-0.1h-0.2l-2,12.2H17.9
							c-8.3,0-15-6.6-15-14.8v-6.3c0-8.2,6.7-14.8,15-14.8h179l-2.4,13.8h0.1C197.5,17.1,199.4,19.7,198.9,22.4 M245.5-0.1H17.9
							C8.1-0.1,0,7.9,0,17.6v6.3c0,9.7,8,17.7,17.9,17.7h227.6c9.9,0,17.9-7.9,17.9-17.7v-6.3C263.4,7.9,255.4-0.1,245.5-0.1"/>
					</g>
					<polygon id="Fill-8" class="st2" points="52.1,7.1 45.6,7.1 27.3,18 23.7,18 25.7,7.1 22.1,7.1 17.3,33.5 20.9,33.5 23.1,21.5 
						26.9,21.5 41.4,33.5 47.5,33.5 30.8,19.8 					"/>
					<path id="Fill-10" class="st2" d="M67.7,26.6V27l-0.1,0.4c-0.2,1-0.6,1.8-1.2,2.2c-0.6,0.5-1.6,0.7-2.9,0.7h-9.1
						c-1.6,0-2.3-0.2-2.6-0.4c-0.4-0.2-0.6-0.6-0.6-1.1v-0.6l0.3-1.3c0.2-0.8,0.5-1.4,1-1.7c0.4-0.2,1.2-0.5,3.1-0.5h9.1
						C67.4,24.6,67.7,25.7,67.7,26.6 M71,15.7c-1-0.9-2.6-1.3-4.8-1.3h-8.1c-2.2,0-4.1,0.5-5.5,1.5c-1.7,1.1-2.5,2.3-2.4,3.5
						l-0.3,1.1h3.8l0.2-0.9c0.2-0.5,0.4-0.8,0.7-1c0.8-0.7,2.1-1.1,3.9-1.1h7.1c1.2,0,2.2,0.2,2.7,0.7c0.5,0.4,0.7,1,0.7,1.8v0.7
						l-0.3,1.5c-0.6-0.5-1.6-0.7-2.9-0.7H55.1c-2,0-3.7,0.4-4.9,1.3c-1.1,0.8-1.8,1.9-2.1,3.3l-0.4,2.2c-0.1,0.4-0.1,0.8-0.1,1.1
						c0,1.4,0.5,2.5,1.6,3.1c1,0.6,2.4,0.9,4.3,0.9h10.4c1,0,2-0.3,2.8-0.8l0,0l-0.1,0.8h3.6l2.2-12.1c0-0.1,0.1-0.4,0.2-0.8v-1
						C72.6,17.9,72.1,16.6,71,15.7"/>
					<path id="Fill-12" class="st2" d="M97.4,14.5l-2.1,11.8c-0.3,1.3-0.9,2.3-2.1,3.1c-1.1,0.7-2.3,1.1-3.6,1.1h-7.2
						c-1.3,0-2.4-0.3-3.1-0.8s-1-1.3-1-2.3c0-0.3,0-0.7,0.1-1.1l2.1-11.7h-3.6L74.8,26c-0.1,0.7-0.2,1.4-0.2,1.9
						c0,1.9,0.6,3.4,1.8,4.3c1.2,1,3,1.5,5.5,1.5h7.2c1.6,0,3.2-0.4,4.5-1.2c0.2-0.1,0.4-0.2,0.6-0.4l-0.3,1.6h3.5l3.5-19.1
						L97.4,14.5"/>
					<path id="Fill-14" class="st2" d="M113.9,10.2h4.2l0.6-3.2h-4.4c-2.3,0-4.1,0.6-5.5,1.8s-2.3,3-2.8,5.4v0.1h-2.3l-0.6,3.1h2.3
						l-2.9,16.1h3.6l2.9-16.1h7.9l0.6-3.1h-7.9c0.3-1.4,0.8-2.4,1.4-3.1C111.7,10.6,112.6,10.2,113.9,10.2"/>
					<path id="Fill-16" class="st4" d="M221.8,27.7L221.8,27.7c-0.3,1.8-1,3-1.8,3.5c-0.9,0.6-2.2,0.9-3.9,0.9h-3.6
						c-0.9,0-1.5-0.2-1.9-0.6c-0.5-0.4-0.7-1-0.7-2c0-0.3,0-0.6,0.1-1l1.6-9.1h13.8L226,16h-13.8l1.6-8.2h-3.9l-1.6,8.2H206
						l-0.6,3.4h2.3l-1.5,8.5l0,0c-0.1,0.5-0.1,0.9-0.2,1l0,0c0,0.2,0,0.5,0,0.9c0,1.8,0.5,3.2,1.6,4.2c1.1,0.9,2.6,1.4,4.5,1.4h3.8
						c3.2,0,5.8-0.9,7.5-2.8c1.1-1.2,1.8-2.7,2.1-4.5l0,0l0.2-0.4l0.2-0.7H222L221.8,27.7z"/>
					<polygon id="Fill-18" class="st4" points="251.1,16.3 247.8,16.3 236.8,31.3 231.3,16.3 227.1,16.3 234.4,35.5 237.9,35.5 
						252.2,16.3 					"/>
					<path id="Fill-20" class="st2" d="M143.3,30.1c-0.9,0.7-2.3,1.1-3.9,1.1h-17.7l1.5-8.6h17.6c1.5,0,2.6,0.2,3.4,0.7
						c0.7,0.4,1,1.2,1,2.2c0,0.3,0,0.7-0.1,1.1C144.8,28.2,144.2,29.4,143.3,30.1 M140.9,19.1h-17l1.3-7.4h17.1
						c1.5,0,2.6,0.2,3.2,0.7c0.6,0.4,0.9,1.1,0.9,2c0,0.3,0,0.7-0.1,1.1c-0.2,1.4-0.8,2.4-1.7,2.9C143.9,18.9,142.6,19.1,140.9,19.1
						 M150.1,15.3c0.1-0.5,0.2-1,0.2-1.6c0-3.6-2.8-5.5-8.4-5.5h-19.5l-4.8,26.4H138c3.2,0,5.6-0.6,7.3-1.7c1.9-1.2,3.1-3.3,3.6-6.2
						c0-0.1,0.1-0.3,0.2-0.7v-0.9c0-1.5-0.5-2.8-1.4-3.7c-0.3-0.3-0.6-0.5-0.9-0.7c0.5-0.3,1-0.7,1.5-1.1
						C149,18.6,149.7,17.1,150.1,15.3"/>
					<path id="Fill-22" class="st2" d="M160.9,18.6h8.4c1.2,0,2.1,0.3,2.8,0.9c0.6,0.6,0.9,1.4,0.9,2.4c0,0.2,0,0.5,0,0.7h-17.1
						c0.3-1.1,0.9-2.1,1.7-2.8C158.5,19,159.6,18.6,160.9,18.6 M174.9,17.2c-1.3-1.1-3.1-1.6-5.5-1.6h-7.7c-2.5,0-4.7,0.7-6.4,2.2
						c-1.6,1.3-2.6,3-3,4.9l-0.9,4.8c-0.1,0.7-0.2,1.3-0.2,1.8c0,3.7,2.5,5.5,7.3,5.5h9c2.4,0,4.3-0.7,5.8-2
						c1.2-1.1,1.9-2.4,2.2-3.9l0.1-0.9H172v0.7c-0.2,0.8-0.6,1.5-1.4,2.1c-0.7,0.6-1.8,0.8-3.1,0.8h-8.8c-1.2,0-2.2-0.3-2.9-0.8
						s-1-1.3-1-2.4c0-0.2,0-0.4,0-0.7c0-0.2,0.1-0.4,0.1-0.7l0.3-1.4h20.7l0.6-3.3c0.1-0.4,0.1-0.8,0.1-1.2
						C176.7,19.6,176.1,18.2,174.9,17.2"/>
					<polygon id="Fill-24" class="st2" points="181.6,15.6 178.1,34.6 181.7,34.6 185.2,15.6 					"/>
				</g>
			</g>
		</g>
		<g>
			<path d="M270.6,3.7c0,2.1-1.7,3.7-3.8,3.7c-2.1,0-3.8-1.7-3.8-3.7s1.7-3.7,3.9-3.7C268.9,0,270.6,1.6,270.6,3.7z M263.9,3.7
				c0,1.7,1.3,3,2.9,3c1.6,0,2.8-1.3,2.8-3c0-1.7-1.2-3-2.9-3C265.1,0.7,263.9,2.1,263.9,3.7z M266.2,5.7h-0.9V1.9
				c0.3,0,0.8-0.1,1.4-0.1c0.7,0,1,0.1,1.3,0.3c0.2,0.2,0.4,0.4,0.4,0.8c0,0.5-0.3,0.7-0.8,0.9v0c0.4,0.1,0.5,0.4,0.7,0.9
				c0.1,0.6,0.2,0.8,0.3,0.9h-0.9c-0.1-0.1-0.2-0.5-0.3-0.9c-0.1-0.4-0.3-0.6-0.8-0.6h-0.4V5.7z M266.2,3.6h0.4
				c0.5,0,0.9-0.2,0.9-0.5c0-0.3-0.2-0.6-0.8-0.6c-0.2,0-0.4,0-0.5,0V3.6z"/>
		</g>
	</g>
</g>
</svg>
