<?xml version="1.0" encoding="utf-8"?>
<!-- Generator: Adobe Illustrator 21.1.0, SVG Export Plug-In . SVG Version: 6.00 Build 0)  -->
<svg version="1.1" id="Capa_1" xmlns="http://www.w3.org/2000/svg" xmlns:xlink="http://www.w3.org/1999/xlink" x="0px" y="0px"
	 viewBox="0 0 512 512" style="enable-background:new 0 0 512 512;" xml:space="preserve">
<style type="text/css">
	.st0{fill:#CCCCCC;}
	.st1{fill:#F2F2F2;}
	.st2{fill:#E0E0E0;}
	.st3{fill:#FFC13C;}
	.st4{fill:#E65039;}
</style>
<path class="st0" d="M388.7,478.8L388.7,478.8c-2.9-5.8-8.8-9.4-15.3-9.4h-40.7l-17.1-93.9H196.3l-17.1,93.9h-40.7
	c-6.5,0-12.4,3.7-15.3,9.4l0,0c-5.7,11.3,2.6,24.7,15.3,24.7h234.9C386.1,503.5,394.4,490.1,388.7,478.8z"/>
<path class="st1" d="M503.5,307.2H8.5V42.7c0-18.9,15.3-34.1,34.1-34.1h426.7c18.9,0,34.1,15.3,34.1,34.1L503.5,307.2L503.5,307.2z"
	/>
<path class="st2" d="M503.5,307.2H8.5v34.1c0,18.9,15.3,34.1,34.1,34.1h426.7c18.9,0,34.1-15.3,34.1-34.1L503.5,307.2L503.5,307.2z"
	/>
<polygon class="st3" points="358.4,196.3 187.7,196.3 153.6,59.7 392.5,59.7 "/>
<g>
	<circle class="st4" cx="221.9" cy="247.5" r="17.1"/>
	<circle class="st4" cx="324.3" cy="247.5" r="17.1"/>
	<polygon class="st4" points="128,179.2 110.9,187.7 93.9,179.2 93.9,128 128,128 	"/>
</g>
<path d="M469.3,0H42.7C19.1,0,0,19.1,0,42.7v264.5v34.1C0,364.9,19.1,384,42.7,384H186l-14,76.8h-33.5c-9.8,0-18.5,5.4-22.9,14.1
	c-4,8-3.6,17.3,1.1,24.9s12.8,12.1,21.8,12.1h234.9c8.9,0,17.1-4.5,21.8-12.1s5.1-16.9,1.1-24.9c-4.4-8.7-13.1-14.1-22.9-14.1h-33.5
	L326,384h143.4c23.5,0,42.7-19.1,42.7-42.7v-34.1V42.7C512,19.1,492.9,0,469.3,0z M17.1,42.7c0-14.1,11.5-25.6,25.6-25.6h426.7
	c14.1,0,25.6,11.5,25.6,25.6v256H17.1V42.7z M322.6,460.8h-23.9c-4.7,0-8.5,3.8-8.5,8.5s3.8,8.5,8.5,8.5h34.1h40.7
	c3.3,0,6.2,1.8,7.6,4.7c1.9,3.8,0.4,7.1-0.4,8.3c-0.8,1.2-3,4-7.3,4H138.5c-4.3,0-6.5-2.8-7.3-4.1c-0.8-1.2-2.3-4.5-0.4-8.3
	c1.5-2.9,4.4-4.7,7.6-4.7h40.7h68.3c4.7,0,8.5-3.8,8.5-8.5s-3.8-8.5-8.5-8.5h-58l14-76.8h105.2L322.6,460.8z M494.9,341.3
	c0,14.1-11.5,25.6-25.6,25.6H315.7H196.3H42.7c-14.1,0-25.6-11.5-25.6-25.6v-25.6H495L494.9,341.3L494.9,341.3z"/>
<path d="M238.9,349.9H273c4.7,0,8.5-3.8,8.5-8.5s-3.8-8.5-8.5-8.5h-34.1c-4.7,0-8.5,3.8-8.5,8.5S234.2,349.9,238.9,349.9z"/>
<path d="M392.5,51.2H162.1h-8.5h-34.1c-14.1,0-25.6,11.5-25.6,25.6c0,7.5,3.3,14.3,8.5,18.9v23.7h-8.5c-4.7,0-8.5,3.8-8.5,8.5v51.2
	c0,3.2,1.8,6.2,4.7,7.6l17.1,8.5c1.2,0.6,2.5,0.9,3.8,0.9s2.6-0.3,3.8-0.9l17.1-8.5c2.9-1.5,4.7-4.4,4.7-7.6V128
	c0-4.7-3.8-8.5-8.5-8.5h-8.5v-17.1c4.7,0,8.5-3.8,8.5-8.5s-3.8-8.5-8.5-8.5s-8.5-3.8-8.5-8.5s3.8-8.5,8.5-8.5h27.5L177,188.2
	c-5.5,0.8-10.4,4-13,9.1c-2.9,5.8-2.3,12.7,1.6,17.9l10.2,13.7c4.8,6.4,12.5,10.2,20.5,10.2h1.6c-1,2.7-1.6,5.5-1.6,8.5
	c0,14.1,11.5,25.6,25.6,25.6s25.6-11.5,25.6-25.6c0-3-0.6-5.9-1.6-8.5h54.3c-1,2.7-1.6,5.5-1.6,8.5c0,14.1,11.5,25.6,25.6,25.6
	s25.6-11.5,25.6-25.6c0-3-0.6-5.9-1.6-8.5h10.1c4.7,0,8.5-3.8,8.5-8.5s-3.8-8.5-8.5-8.5h-162c-2.7,0-5.2-1.3-6.8-3.4L179.3,205h8.5
	h170.7c3.9,0,7.3-2.7,8.3-6.5L400.9,62c0.6-2.6,0.1-5.2-1.6-7.3C397.6,52.4,395.2,51.2,392.5,51.2z M119.5,173.9l-8.5,4.3l-8.5-4.3
	v-37.4h17.1L119.5,173.9L119.5,173.9z M230.4,247.5c0,4.7-3.8,8.5-8.5,8.5s-8.5-3.8-8.5-8.5s3.8-8.5,8.5-8.5
	S230.4,242.8,230.4,247.5z M332.8,247.5c0,4.7-3.8,8.5-8.5,8.5s-8.5-3.8-8.5-8.5s3.8-8.5,8.5-8.5C329,238.9,332.8,242.8,332.8,247.5
	z M373.1,102.4h-37l4.3-34.1h41.3L373.1,102.4z M360.3,153.6h-30.6l4.3-34.1h34.9L360.3,153.6z M205.8,68.3l4.3,34.1h-37l-8.5-34.1
	H205.8z M264.5,102.4h-37.3L223,68.3h41.5V102.4z M281.6,68.3h41.5l-4.3,34.1h-37.3L281.6,68.3L281.6,68.3z M177.3,119.5h34.9
	l4.3,34.1h-30.6L177.3,119.5z M229.4,119.5h35.1v34.1h-30.9L229.4,119.5z M190.1,170.7h28.5l2.1,17.1h-26.3L190.1,170.7z
	 M235.8,170.7h28.7v17.1h-26.6L235.8,170.7z M281.6,170.7h28.7l-2.1,17.1h-26.6V170.7z M281.6,153.6v-34.1h35.1l-4.3,34.1H281.6z
	 M325.4,187.7l2.1-17.1H356l-4.3,17.1H325.4z"/>
</svg>
