<svg xmlns="http://www.w3.org/2000/svg" width="81" height="86" viewBox="0 0 81 86">
    <g fill="none">
        <g>
            <path fill="#FBA615" d="M76.303 35.611l-33.075-21c-2.286-1.452-5.17-1.452-7.455 0l-33.076 21c-1.514.961-2.511 2.62-2.58 4.448-.004.082-.005.166-.005.25v37.803c0 3.205 2.524 5.804 5.637 5.804h67.502c3.114 0 5.638-2.599 5.638-5.804V40.31c0-.085-.002-.169-.005-.25-.07-1.83-1.067-3.488-2.58-4.449z" transform="translate(1 1)"/>
            <g>
                <path fill="#DAE4EA" d="M64.301.084h-5.9V22.08h7.194c1.89 0 3.422-1.544 3.422-3.449V4.837c0-2.625-2.111-4.753-4.716-4.753z" transform="translate(1 1) translate(9.373)"/>
                <path fill="#F9F6F6" d="M30.127 65.492l29.459-22.867V4.837c0-2.625 2.111-4.753 4.715-4.753H4.83C2.222.084.108 2.214.108 4.843V42.19l30.02 23.302z" transform="translate(1 1) translate(9.373)"/>
                <path fill="#E7ECF1" d="M57.494.084c-2.604 0-4.715 2.128-4.715 4.753v43.072l6.807-5.284V4.837c0-2.625 2.111-4.753 4.715-4.753h-6.807z" transform="translate(1 1) translate(9.373)"/>
            </g>
            <path fill="#FBBE66" d="M78.889 78.112V40.31c0-.085-.002-.169-.005-.25-.056-1.463-.706-2.816-1.738-3.79L39.5 65.491 1.854 36.27C.822 37.244.172 38.597.116 40.06c-.003.082-.004.166-.004.25v37.803c0 3.205 2.524 5.804 5.637 5.804h67.502c3.113 0 5.638-2.599 5.638-5.804z" transform="translate(1 1)"/>
            <path fill="#FCB143" d="M78.884 40.06c-.056-1.463-.706-2.816-1.738-3.79l-5.064 3.93.002.11v37.802c0 3.205-2.524 5.803-5.637 5.803h6.804c3.113 0 5.637-2.598 5.637-5.803V40.31c0-.085-.001-.169-.004-.25z" transform="translate(1 1)"/>
            <path fill="#FDD8A3" d="M1.767 82.22c1.02 1.048 2.427 1.696 3.982 1.696h67.502c1.555 0 2.962-.648 3.982-1.696L42.437 55.65c-1.744-1.332-4.13-1.332-5.874 0L1.767 82.22z" transform="translate(1 1)"/>
            <path fill="#FBE77B" d="M32.698 41.15h-11.97c-.636 0-1.153-.52-1.153-1.161v-5.59c0-.641.517-1.161 1.153-1.161h11.97c.637 0 1.153.52 1.153 1.162v5.589c0 .642-.516 1.162-1.153 1.162z" transform="translate(1 1)"/>
        </g>
        <g fill="#000">
            <path d="M60.34 11.894c.691 0 1.25-.564 1.25-1.26 0-.695-.559-1.26-1.25-1.26H27.767c-.69 0-1.25.565-1.25 1.26 0 .696.56 1.26 1.25 1.26h32.574zM19.41 18.514c0 .696.559 1.26 1.25 1.26h39.68c.691 0 1.25-.564 1.25-1.26 0-.696-.559-1.26-1.25-1.26H20.66c-.691 0-1.25.564-1.25 1.26zM20.66 27.654h39.68c.691 0 1.25-.564 1.25-1.26 0-.696-.559-1.26-1.25-1.26H20.66c-.691 0-1.25.564-1.25 1.26 0 .696.559 1.26 1.25 1.26zM60.34 33.015H40.5c-.69 0-1.25.564-1.25 1.26 0 .695.56 1.26 1.25 1.26h19.84c.691 0 1.25-.565 1.25-1.26 0-.697-.559-1.26-1.25-1.26zM60.34 40.895H40.5c-.69 0-1.25.564-1.25 1.26 0 .695.56 1.26 1.25 1.26h19.84c.691 0 1.25-.565 1.25-1.26 0-.696-.559-1.26-1.25-1.26z"/>
            <path d="M80.967 41.019c-.085-2.21-1.263-4.247-3.153-5.447l-6.73-4.273v-6.877h4.734c2.569 0 4.658-2.106 4.658-4.694V5.992C80.476 2.688 77.809 0 74.53 0H15.31c-3.283 0-5.953 2.69-5.953 5.998v8.778c0 .696.56 1.26 1.25 1.26.691 0 1.25-.564 1.25-1.26V6c0-1.919 1.55-3.48 3.453-3.48h54.377c-.694.981-1.102 2.18-1.102 3.473v37.01l-20.276 15.74-4.129-3.153c-2.166-1.655-5.193-1.655-7.36 0l-4.129 3.153-20.833-16.173V20.666c0-.696-.56-1.26-1.25-1.26s-1.25.564-1.25 1.26v10.987l-6.172 3.92c-1.89 1.2-3.068 3.235-3.152 5.446-.004.098-.006.197-.006.298V78.96C.028 82.842 3.107 86 6.892 86h67.216c3.785 0 6.864-3.158 6.864-7.039V41.317c0-.101-.001-.2-.005-.298zm-6.437-38.5c1.9 0 3.446 1.558 3.446 3.473v13.736c0 1.199-.968 2.174-2.158 2.174h-4.733V5.992c0-1.914 1.545-3.472 3.445-3.472zm-3.445 31.758l4.807 3.053-4.807 3.732v-6.785zM3.156 81.295c-.398-.682-.628-1.48-.628-2.334V41.317c0-.069.001-.136.004-.201.028-.751.263-1.47.661-2.092l27.432 21.295L3.156 81.295zm6.201-40.667L5.108 37.33l4.25-2.699v5.997zM6.892 83.48c-.673 0-1.31-.158-1.88-.441L38.33 57.597c1.298-.991 3.042-.991 4.34 0l10.558 8.062c.55.42 1.334.311 1.751-.243.417-.555.31-1.345-.241-1.765l-4.363-3.332 27.432-21.295c.399.622.633 1.34.662 2.091.002.066.003.133.003.201v37.645c0 .853-.23 1.652-.628 2.334L59.4 67.21c-.55-.42-1.335-.311-1.752.244-.417.554-.309 1.344.241 1.765l18.099 13.82c-.57.282-1.207.441-1.88.441H6.892z"/>
            <path d="M19.41 40.997c0 1.333 1.075 2.417 2.398 2.417h11.919c1.322 0 2.398-1.084 2.398-2.417v-5.565c0-1.333-1.076-2.417-2.398-2.417h-11.92c-1.322 0-2.398 1.084-2.398 2.417v5.565zm2.5-5.463h11.715v5.36H21.91v-5.36z"/>
        </g>
    </g>
</svg>
