<svg xmlns="http://www.w3.org/2000/svg" viewBox="0 0 191.33 46.01"><defs><style>.cls-1{fill:#dbe7f2;}.cls-2{fill:#fff;}</style></defs><title>ny_block_top_4</title><g id="Layer_2" data-name="Layer 2"><g id="Layer_1-2" data-name="Layer 1"><path class="cls-1" d="M170,11c-6,.93-12.91,7.17-23.4,5.4a9.59,9.59,0,0,0-4.92.38c-7.94,2.93-10.66,8.92-11.11,12.32-.17,1.31.31,2.6,0,3.9-.77,3-2.73,6-3.67,8.92a23.36,23.36,0,0,0-.71,2.93,1.37,1.37,0,0,1-2.72-.16c0-.54-.08-1.14-.13-1.79-.1-1.29-.24-5.34-.46-6.61-.53-3.1-2.14-6.16-3.19-9.14-.6-1.69-1.94-7.08-3.45-8-.6-.38-2-.34-3.52-.17a5.75,5.75,0,0,0-5.15,5.37c-.19,3.31-1.66,7.33-2.36,11.25l0,.13a1.7,1.7,0,0,1-3.38-.2c-.05-1.46-.13-2.85-.29-4.09-.25-1.87-1.4-3.39-1.61-4.22-.63-2.47-1.23-5.39-3.61-6.1-6-1.8-4.54.22-13.81-2.38-5.31-1.23-10.79,5.93-15,9.29a3.59,3.59,0,0,1-5-.65c-3.17-4.09-8.37-11.09-11-12.12-2.47-1-5.07-1-7.57-2.24C39.64,11,38.13,8.77,34,9.43s-6,3.53-10.56,2.45c-3.63-.86-6.72-3-10.41-3.8C9.6,7.36,5.62,7.85.59,5.77c-.79-.33-.81-1.18,0-1.23C9.37,4,18,6.89,27,7.29c7.52.34,12.11-4.33,19.4-4.94,6.74-.56,14.16,3.82,20.46,4.82,15.35,2.44,30.38-5.4,45.54-1.1,6.41,1.82,9.13,1.62,15.74-.24,4.58-1.28,9.36.62,13.76-1,3.32-1.2,6.92-3.59,10.75-2.93,3.64.63,6.2,4.16,9.94,5.09,5.06,1.26,27-4.14,28.67-1.46C191.58,6,190,8.33,189,9,183.56,12.7,170,11,170,11Z"/><path class="cls-2" d="M170,9.19c-6,.93-12.91,7.17-23.4,5.4a9.59,9.59,0,0,0-4.92.38c-7.94,2.93-10.66,8.92-11.11,12.32-.17,1.31.31,2.6,0,3.9-.77,3-2.73,6-3.67,8.92a23.36,23.36,0,0,0-.71,2.93,1.37,1.37,0,0,1-2.72-.16c0-.54-.08-1.14-.13-1.79-.1-1.29-.24-5.34-.46-6.61-.53-3.1-2.14-6.16-3.19-9.14-.6-1.69-1.94-7.08-3.45-8-.6-.38-2-.34-3.52-.17a5.75,5.75,0,0,0-5.15,5.37c-.19,3.31-1.66,7.33-2.36,11.25l0,.13a1.7,1.7,0,0,1-3.38-.2c-.05-1.46-.13-2.85-.29-4.09-.25-1.87-1.4-3.39-1.61-4.22-.63-2.47-1.23-5.39-3.61-6.1-6-1.8-4.54.22-13.81-2.38-5.31-1.23-10.79,5.93-15,9.29a3.59,3.59,0,0,1-5-.65c-3.17-4.09-8.37-11.09-11-12.12-2.47-1-5.07-1-7.57-2.24-4.07-2-5.58-1.45-9.74-.79A21.73,21.73,0,0,1,23.41,10C19.78,9.18,16.69,9.79,13,9,9.6,8.28,5.62,7.85.59,5.77A.8.8,0,0,1,.84,4.23C9.58,3.66,18,5,27,5.45c7.52.34,12.11-4.33,19.4-4.94C53.18-.05,60.59,4.33,66.9,5.34c15.35,2.44,30.38-5.4,45.54-1.1,6.41,1.82,9.13,1.62,15.74-.24,4.58-1.28,9.36.62,13.76-1,3.32-1.2,6.92-3.59,10.75-2.93,3.64.63,6.2,4.16,9.94,5.09,5.9,1.47,34.52-2.83,27.65,1.86C184.84,10.77,170,9.19,170,9.19Z"/><path class="cls-1" d="M178.39,8.56c-1.84.32-3.86-1.59-6.07-1.46a13.53,13.53,0,0,0-5.51,1.29c-4.45,2.08-8.26,3.88-13.31,4.12-2.84.14-5.7-.16-8.5-.17-1.19,0-2.72.52-3.92.17-.81-.24-2.07-.85-.85-1.5.65-.34,2.66.34,3.5.38a33.56,33.56,0,0,0,6.36-.19c2.89-.45,7.43-1.28,9.74-2.91-9.64,6.75,20.42-.08,11.08,1.34,2.07-.32,5.63.09,7.47-.89Z"/><path class="cls-1" d="M135,15.86c-2.24,1.07-4.61,5.21-5.6,7.36-.87,1.89-.89,4.42-1.34,6.43-.41,1.85-1.23,3.59-1.59,5.42s-.76,3.68-1.16,5.53A49.92,49.92,0,0,0,122.67,26c-1-3.27-2.38-8.56-6.28-9.59,1.89-.95,4.85,3.16,5.58,4.62.62,1.25,1.32-.26,1.82,1,1.06,1.64,1.64,1.93,2.89.77a12.4,12.4,0,0,0,2.77-2.56c.79-1.18,2.28-1.51,3.25-2.44.72-.69,1.16-2.45,2.51-1.59Z"/><path class="cls-1" d="M109.48,17c-3.48.77-5.63,9-5.64,11.92-1.34-1.59-.41-4.57-1.83-6.52-.84-1.15-3-4.49-4.59-4.09.86-.39,2.59.16,3.48.54,1.57.68,1.45,1,3.08.68,1.36-.29,1.75-.82,3-1.42.94-.47,1.55-.06,2.33-.92Z"/><path class="cls-1" d="M87.67,16.05c-2.26-1-5.49.17-8.2-.14-3.49-.4-4.89.3-7.42,2.79-1.33,1.31-5.29,5.94-7.2,5.48-2.73-.66-3.63-5.61-5.53-7.19-1.17-1-2.18-2.15-3.35-3.17s-2.92-1.31-3.91-2.21c2.45.44,7.08.85,8.06,3.14,2.22,5.18.64,9.85,5.67,7.45,2.9-1.39,7.13-6,9.86-7.18,2.31-1,4.79-.12,7.16.36,1.81.37,3.66.31,5.41.85Z"/><path class="cls-1" d="M41.06,10.61c-3.11-2-8-2.67-11.26-1.1-4.39,2.12-7.62,0-12.25-1.19-2.14-.56-4.45,1.61-6.5,1.17a36.27,36.27,0,0,0,5.63.34c2.37.14,4.35-1.35,6.65-.95C28.07,9.7,32.14,7,37,8.56c1.43.46,4.14-1.36,4.95,0Z"/><path class="cls-1" d="M129.43,7.31c-1.63-.76-4.71.76-6.47,1a73.66,73.66,0,0,1-7.83.8,43.38,43.38,0,0,1-8.94-.47c-2-.34-6,1.68-6.88-.66,1.61,1.48,5.52-.91,7.61-.13,4.17,1.55,7.14.61,11.3,0,2.27-.34,4.57.17,6.78,0a13.61,13.61,0,0,0,2.57-.23c.82-.21,1.5-1.09,2.42-.55Z"/><path class="cls-1" d="M98.29,8.79c-2.29-.92-4.54,1.46-7,1.31,1.53.89,5.57-.39,6.65-1.31Z"/><path class="cls-1" d="M71.82,8.93c-.62.26-25.36-.13-25.16,0,2.39-.28,5.3.9,7.6,1.5,2.13.56,4.2-2.11,6.37-1.88s4.88,1.14,7.11.89c1-.12,2.81-1.11,3.51-.14Z"/><path class="cls-1" d="M81,8c-1.23,1.2-5.25,1.87-7,1.68,1.93-.85,5.33-2.08,7.4-1.31Z"/></g></g></svg>