<svg xmlns="http://www.w3.org/2000/svg" viewBox="0 0 141.99 72.04"><defs><style>.cls-1{fill:#dbe7f2;}.cls-2{fill:#fff;}</style></defs><title>ny_block_top_2</title><g id="Layer_2" data-name="Layer 2"><g id="Layer_1-2" data-name="Layer 1"><path class="cls-1" d="M141.69,15.68c-5.2,2.49-10.36,7.43-15.94,7.07-4.14-.27-8.31-1-12.41-.38s-7.91,3.51-12,2.76c-2.57-.48-5.83-2.12-7.32,0-.95,1.37-.19,3.21.07,4.85.63,4-3.08,7.22-3.89,11.16C88.09,51.64,88.9,63.39,85.19,72c-1-2.09.44-12.43-3.32-24.7C79.49,39.61,79.18,30.7,73,25.49c-8.65,11.27-2.42,15.61-8.1,35.3C64.44,56,61.8,29.7,57.38,26.2c-2.37,2.68-3.62,6.73-4.81,11.54-1.13-2.42-3.68-5-5.09-8S41,28.37,38.22,26.68c-6.24-3.76-13.16-1.4-19.83-1.46S5.06,19.42,0,15.13c14,.21,22.72-.73,30.85-3,4.53-1.25,9.28,2.27,14,2.41,5.13.16,10.25.52,15.38.34,3.1-.11,6.18-.5,9.26-.83,3.31-.36,5-.09,7.1-2.79a5.59,5.59,0,0,1,2.15-1.76c1.62-.74,4-1.81,5.81-1.16,7.69,2.78,9.6-4.34,10.54-4.7,5.84-2.23,10.05,7.37,16.19,8.55,4.59.88,9.28,1.27,13.83,2.39,4.13,1,8.47,3.71,12.75,1.82.91,1.71,2.79-1,4.15,0Z"/><path class="cls-2" d="M141.69,15.68c-5.2,2.49-10.36,4.09-15.94,3.74-4.14-.27-8.31-1-12.41-.38s-7.91,3.51-12,2.76c-2.57-.48-5.83-2.12-7.32,0-.95,1.37-.19,3.21.07,4.85.63,4-3.08,7.22-3.89,11.16C88.09,48.31,88.9,60.06,85.19,68.7c-1-2.09.44-12.43-3.32-24.7C79.49,36.27,79.18,27.36,73,22.15c-8.65,11.27-2.42,15.61-8.1,35.3-.46-4.8-3.1-31.09-7.52-34.59C55,25.55,53.76,29.59,52.57,34.4c-1.13-2.42-3.68-5-5.09-8S41,25,38.22,23.34c-6.24-3.76-13.16-1.4-19.83-1.46A29.18,29.18,0,0,1,0,15.13c14,.21,22.72-4.07,30.85-6.31,4.53-1.25,9.28,2.27,14,2.41,5.13.16,10.25.52,15.38.34,3.1-.11,6.18-.5,9.26-.83,3.31-.36,5-.09,7.1-2.79A5.59,5.59,0,0,1,78.72,6.2c1.62-.74,4-1.81,5.81-1.16C92.22,7.82,94.13.7,95.07.34c5.84-2.23,10.05,7.37,16.19,8.55,4.59.88,9.28,1.27,13.83,2.39,4.13,1,8.47,3.71,12.75,1.82.91,1.71,2.79,2.3,4.15,3.32Z"/><path class="cls-1" d="M93.76,19.9c-2.73,2.11-2.44,6.18-3,9.25-.45,2.45-.91,5-1.5,7.56-.69,2.9-2.12,5.66-2.58,8.59s.06,5.65.44,8.49c-.48-4-2.48-7.77-3.18-11.76A44.16,44.16,0,0,1,83,37.16c-.11-2.12.33-4-.41-6.18-1.71-4.94-5.48-8.17-9.7-10.21,1.83-1.43,5.27,1.11,7,2.14,1.95,1.15,4.28,5.42,6.22,4.41,1.46-.76,2.4-3.41,3.89-4.5,1.05-.77,2.71-1.4,2.66-2.7Z"/><path class="cls-1" d="M68.63,24.63c-1.1,4-2.95,7.44-3.44,11.69a26.29,26.29,0,0,0,.22,7.47c.19-2.35-.88-5-1.29-7.32a48.79,48.79,0,0,0-1.5-6.14c-.63-2-1.08-4-1.69-5.89C63.44,27.09,65.26,28,68,25.51c.41,0,.06.17,0,.41Z"/><path class="cls-1" d="M52.95,24.63c-.25,1.35-1,2.87-.9,4.23-1.45-2.56-3.08-3.73-4.88-5.48,2.63-.38,3.28,1.31,5.1,2.08-.13-.72.3-.36.47-.62Z"/><path class="cls-1" d="M114.54,14.75c-3-2.46-26.49,4.18-25.18-1.69,2-.39,4.09,1.15,6.33,1,2.93-.14,5.53-1.43,8.3-1.5a22,22,0,0,1,6.62,1A27.24,27.24,0,0,1,114.54,15Z"/><path class="cls-1" d="M70.56,16.45c-2.44,0-5.07.36-7.43.23-1.48-.08-3.29-1-4.64-1.3,4.41-1.76,8.36,1.07,12.5,1.07Z"/><path class="cls-1" d="M53.74,17.11c-1.52-.21-4.47.81-6.64-.7,1-.83,6.64,0,6.64.92Z"/><path class="cls-1" d="M42.64,18.19c-6.15,0-12.44,1.43-18.56,1.07-1.68-.1-8.85.2-9.33-1.25,2.7-.13,27.65-1.14,27.68.82Z"/></g></g></svg>