<svg xmlns="http://www.w3.org/2000/svg" viewBox="0 0 192.5 27.9"><defs><style>.cls-1{fill:#dbe7f2;}.cls-2{fill:#fff;}</style></defs><title>ny_block_top_3</title><g id="Layer_2" data-name="Layer 2"><g id="Layer_1-2" data-name="Layer 1"><path class="cls-1" d="M34.93,17.82C46.91,18.5,58.84,20,70.74,21c8.67.75,17.29,3,26,1.84,6.79-.91,12.94-4.84,19.48-5.5,5.74-.58,8.35,1.8,13.47,2.36,5.33.58,10.53-1.36,15.35-2.55,12.25-3,15.11-.74,26,1.77,2.82.65,5.92.15,8.69-.38,1.32-.25,2.64-.49,4-.66s2.44-.35,3.62-.63c.46-.1,4.42,8.7,4.74,8.52-1.14-2.77-7.22-6.17-12.86-5.33-8.79,1.3-19.73.55-28.73,2.16-8.76,1.57-13.86-3.55-23.11,1.47-8.78,4.77-10-1.35-20.8-.11-3.75.43-16.3,4.34-20.24,3.89-4.25-.49-8.27-3.15-12.71-3.94-11.14-2-25.75.79-37.6.4H34.93Z"/><path class="cls-2" d="M32.32,12C37.53,13.2,45.38,8.76,50.77,8.1,59.58,7,67.55,2.22,76.33,3.39c4.91.65,8.86,3.08,13.48,4.38C110.38,13.52,133.21-4.4,154,1c4.15,1.09,7.86,3.08,12.28,3.43,5.81.46,10-1.09,15.46,1,5,1.9,5.65,5.07,6.81,5.68,4.36,2.29,4.32,13.14,3.64,14.87-1.09-2.56-6-7.3-8.46-7-1.34.18-2.67.42-4,.66-2.77.52-5.87,1-8.69.38-10.85-2.5-13.72-4.79-26-1.77-4.82,1.19-10,3.13-15.35,2.55-5.12-.56-7.73-2.94-13.47-2.36-6.53.66-12.69,4.58-19.48,5.5-8.73,1.18-17.35-1.1-26-1.84-11.74-1-23.89-4.18-35.81-5.32Z"/><path class="cls-2" d="M85.33,19.92a37.07,37.07,0,0,0-7.82,1.33c-1.69.58-3.43,1.61-5.46,1.31s-3.78-1.19-5.82-1.44a19.34,19.34,0,0,0-5.64.49c-4.1.74-5.53,2.2-9.47,1s-3-2.61-9.3-1.2-10.6.09-15.72.39-6.16,1.67-10.35.17a18.11,18.11,0,0,0-9.82-.68c-2.27.36-2.8,4.92-5,4.39A1.35,1.35,0,0,1,0,25a9.29,9.29,0,0,1,3.72-8.1c2.66-1.92,3.63-1.18,7-1.27,6.92-.18,11.16-3.78,17.7-4.39,6-.55,7.66,1.53,12.56,2.75,4.51,1.12,6.82-.35,11.09-1.08,4.49-.77,6.69.51,11,.67,3.12.12,7.3-.9,10.51-1.09A45,45,0,0,1,86.86,14c1.86.49,4,1.18,5.09,2.39a2.63,2.63,0,0,1,.28.39c-.41.62-.68,1.8-1.44,2.28C89.39,19.88,87.09,19.74,85.33,19.92Z"/><path class="cls-1" d="M92.47,18.07a3.17,3.17,0,0,1-.7,1.43,7.18,7.18,0,0,1-1.07,1c-2.6,2-6.93,2.92-10.6,3.27-3.89.37-6.8,1.85-10.63,2.21-12.3,1.17-23.55.58-35.75-.65-7.24-.73-14.59-.3-21.86-.77-3.56-.23-7.05,3.88-10.22,2.68C.3,26.7-.1,25.87,0,25a1.35,1.35,0,0,0,.9.68c2.22.52,2.75-4,5-4.39a18.11,18.11,0,0,1,9.82.68c4.19,1.5,5.23.13,10.35-.17s9.43,1,15.72-.39,5.37,0,9.3,1.2,5.37-.22,9.47-1a19.34,19.34,0,0,1,5.64-.49c2,.25,3.79,1.15,5.82,1.44s3.77-.74,5.46-1.31a37.07,37.07,0,0,1,7.82-1.33c1.76-.18,4.06,0,5.46-.91.76-.48,1-1.66,1.44-2.28A1.83,1.83,0,0,1,92.47,18.07Z"/><path class="cls-1" d="M180.25,11.45c-.42-.59-2.21-.25-2.94-.07-1.63.4-2.06,1.49-4,1.43l-7.34-.21a15.49,15.49,0,0,1-2-.12,4.3,4.3,0,0,0-1.14-.2,13,13,0,0,0-2.61,1c-1.11.33-2.27.19-3.17.71.53.15.8,0,1.32-.07a14.4,14.4,0,0,1,3.5.5,36.82,36.82,0,0,0,5.58.29c1.33,0,2.51.36,3.81.44a14.84,14.84,0,0,0,8.62-2.29c.47-.31,1.15-1.08.16-1.44-.12,0-.08.07-.19.13Z"/><path class="cls-1" d="M131.16,12.74c-.28-1.18-2.9.7-.21.43,2.47-.25.73-1.68-.64-.43Z"/><path class="cls-1" d="M22.6,15.53c.55-.59,2.92-.25,3.88-.07,2.15.4,2.72,1.49,5.34,1.43l9.69-.21c.93,0,1.72,0,2.61-.12a7.33,7.33,0,0,1,1.5-.2,20.89,20.89,0,0,1,3.45,1c1.46.33,3,.19,4.19.71A5.47,5.47,0,0,1,51.53,18a24.73,24.73,0,0,0-4.62.5,64,64,0,0,1-7.37.29c-1.76,0-3.31.36-5,.44a24.51,24.51,0,0,1-11.37-2.29c-.61-.31-1.52-1.08-.21-1.44.15,0,.1.07.25.13Z"/><path class="cls-1" d="M116.38,13.33a22,22,0,0,0-11.08-2c-1.74.26-3.29,1.08-5,1.34-2.16.32-2.53-.52-4.46-.55-.81,0-1.09.5-1.87.51a12.57,12.57,0,0,1-2.27-.43c-1.65-.23-3.37-.23-5-.49-1.91-.31-6-1-6.47,1.06,3.11-.39,6,.63,9.05,1.15,3.63.62,8.58,1,12.18.18,1.33-.32,2.36-1,3.91-.81,1.86.29,2.18,1.41,4.34,1.36a23.88,23.88,0,0,0,6.14-1.2c0-.21.58-.23.58-.31Z"/><path class="cls-1" d="M124,12.5c-1.22-1.2-5.43.22-6.92-1,1.94-.48,6.79-.83,7.63.81-.32,0-.63,0-1,0Z"/><path class="cls-1" d="M68.18,14.93c-1.22,0-3.55-.67-4.25.33,1.27,1,3.32-.33,4.49-.33Z"/><path class="cls-1" d="M148.61,5.56c.55.58-1,.54-.75-.09s1.67,0,.65.45Z"/><path class="cls-1" d="M141.14,11.52c.66-.23,1.58.61.7.93-.52.19-1.54-.08-1.46-.53s1.42-.35,1.62.11Z"/></g></g></svg>