<svg xmlns="http://www.w3.org/2000/svg" viewBox="0 0 767.15 72.04"><defs><style>.cls-1{fill:#dbe7f2;}.cls-2{fill:#fff;}</style></defs><title>ny_slider_top</title><g id="Layer_2" data-name="Layer 2"><g id="Layer_1-2" data-name="Layer 1"><path class="cls-1" d="M28.76,20.84c8,1.25,17.36,9.64,31.48,7.27a12.9,12.9,0,0,1,6.62.51c10.68,3.95,14.34,12,14.95,16.57.23,1.77-.42,3.49,0,5.25,1,4,3.68,8,4.93,12a31.42,31.42,0,0,1,1,3.94,1.85,1.85,0,0,0,3.66-.21c0-.73.11-1.53.18-2.41.14-1.73.32-7.18.62-8.9.71-4.17,2.87-8.28,4.3-12.3.81-2.28,2.61-9.53,4.64-10.8.8-.51,2.68-.45,4.74-.23a7.73,7.73,0,0,1,6.93,7.22C113,43.18,115,48.6,116,53.88l0,.18a2.29,2.29,0,0,0,4.54-.28c.07-2,.17-3.84.39-5.51.34-2.52,1.88-4.56,2.17-5.68.85-3.33,1.66-7.24,4.86-8.21,8-2.42,6.1.29,18.57-3.21,7.15-1.65,14.51,8,20.22,12.49a4.83,4.83,0,0,0,6.79-.88c4.26-5.5,11.26-14.92,14.84-16.31,3.32-1.28,6.82-1.38,10.18-3,5.47-2.66,7.51-5.67,13.11-4.78s8.11,4.75,14.2,3.3c4.88-1.16,9-4.06,14-5.11,4.58-1,9.93-.31,16.69-3.11,1.06-.44,1.09-1.58-.05-1.66-11.75-.77-23.33,3.16-35.52,3.71-10.11.45-16.29-5.83-26.1-6.64-9.07-.76-19,5.14-27.52,6.49-20.65,3.28-40.87-7.27-61.26-1.48C97.5,16.63,93.84,16.35,85,13.86c-6.15-1.73-12.59.84-18.5-1.29C62,11,57.14,7.74,52,8.63c-4.9.85-8.35,5.59-13.37,6.84C31.8,17.17,2.35,9.91,0,13.51c-.38.59,1.8,3.7,3.1,4.59C10.46,23.09,28.76,20.84,28.76,20.84Z"/><path class="cls-2" d="M28.76,18.36c8,1.25,17.36,9.64,31.48,7.27a12.9,12.9,0,0,1,6.62.51c10.68,3.95,14.34,12,14.95,16.57.23,1.77-.42,3.49,0,5.25,1,4,3.68,8,4.93,12a31.42,31.42,0,0,1,1,3.94,1.85,1.85,0,0,0,3.66-.21c0-.73.11-1.53.18-2.41.14-1.73.32-7.18.62-8.9.71-4.17,2.87-8.28,4.3-12.3.81-2.28,2.61-9.53,4.64-10.8.8-.51,2.68-.45,4.74-.23a7.73,7.73,0,0,1,6.93,7.22C113,40.71,115,46.13,116,51.4l0,.18a2.29,2.29,0,0,0,4.54-.28c.07-2,.17-3.84.39-5.51.34-2.52,1.88-4.56,2.17-5.68.85-3.33,1.66-7.24,4.86-8.21,8-2.42,6.1.29,18.57-3.21,7.15-1.65,14.51,8,20.22,12.49a4.83,4.83,0,0,0,6.79-.88c4.26-5.5,11.26-14.92,14.84-16.31,3.32-1.28,6.82-1.38,10.18-3,5.47-2.66,7.51-2,13.11-1.07s8.11,1,14.2-.41c4.88-1.16,9-.34,14-1.4,4.58-1,9.93-1.55,16.69-4.35a1.08,1.08,0,0,0-.34-2.08c-11.75-.77-23,1.1-35.24,1.65-10.11.45-16.29-5.83-26.1-6.64-9.07-.76-19,5.14-27.52,6.49-20.65,3.28-40.87-7.27-61.26-1.48C97.5,14.15,93.84,13.88,85,11.39c-6.15-1.73-12.59.84-18.5-1.29C62,8.48,57.14,5.26,52,6.16,47.08,7,43.64,11.75,38.62,13,30.68,15-7.82,9.19,1.42,15.5,8.74,20.49,28.76,18.36,28.76,18.36Z"/><path class="cls-1" d="M17.41,17.51c2.48.43,5.19-2.14,8.16-2A18.21,18.21,0,0,1,33,17.29c6,2.8,11.11,5.21,17.91,5.54,3.82.18,7.67-.21,11.43-.23,1.6,0,3.66.7,5.27.23,1.09-.32,2.79-1.15,1.14-2-.88-.46-3.58.46-4.7.51a45.14,45.14,0,0,1-8.55-.25c-3.88-.6-10-1.73-13.11-3.91,13,9.08-27.47-.11-14.91,1.8-2.79-.42-7.58.12-10.05-1.2Z"/><path class="cls-1" d="M75.75,27.34c3,1.44,6.21,7,7.54,9.9,1.17,2.54,1.2,5.95,1.81,8.65.56,2.49,1.66,4.82,2.14,7.29s1,5,1.57,7.44c0-6.44,1.63-13.67,3.56-19.69,1.41-4.39,3.21-11.51,8.45-12.89-2.54-1.27-6.52,4.25-7.5,6.22-.84,1.68-1.77-.36-2.45,1.4-1.43,2.2-2.2,2.59-3.89,1a16.68,16.68,0,0,1-3.72-3.45c-1.06-1.59-3.06-2-4.37-3.28-1-.93-1.56-3.29-3.38-2.13Z"/><path class="cls-1" d="M110.11,28.85c4.68,1,7.57,12.08,7.58,16,1.81-2.14.55-6.15,2.46-8.76,1.13-1.55,4-6,6.17-5.5-1.16-.52-3.49.21-4.68.73-2.11.91-2,1.38-4.15.91-1.83-.39-2.35-1.1-4-1.91-1.26-.63-2.09-.08-3.13-1.24Z"/><path class="cls-1" d="M139.45,27.59c3-1.38,7.38.22,11-.19,4.69-.53,6.57.41,10,3.76,1.79,1.76,7.12,8,9.68,7.37,3.68-.88,4.88-7.55,7.43-9.68,1.57-1.31,2.93-2.89,4.5-4.27s3.93-1.76,5.26-3c-3.3.59-9.52,1.15-10.84,4.23-3,7-.86,13.25-7.62,10-3.9-1.87-9.59-8.08-13.27-9.66-3.11-1.33-6.45-.16-9.63.49-2.44.5-4.92.42-7.27,1.15Z"/><path class="cls-1" d="M202.15,20.27c4.19-2.72,10.75-3.6,15.14-1.47,5.9,2.85,10.25,0,16.48-1.6,2.88-.76,6,2.17,8.74,1.57-2.4.53-5,.31-7.57.45-3.19.18-5.85-1.81-8.95-1.28-6.37,1.11-11.85-2.54-18.44-.43-1.93.62-5.57-1.83-6.65,0Z"/><path class="cls-1" d="M83.27,15.84c2.19-1,6.33,1,8.71,1.37a99.09,99.09,0,0,0,10.53,1.08,58.36,58.36,0,0,0,12-.63c2.75-.46,8.06,2.27,9.25-.88-2.17,2-7.43-1.22-10.24-.18-5.62,2.09-9.61.82-15.2,0-3.05-.45-6.15.23-9.12.05a18.31,18.31,0,0,1-3.46-.31c-1.1-.28-2-1.46-3.26-.75Z"/><path class="cls-1" d="M125.16,17.83c3.08-1.24,6.1,2,9.45,1.76-2.05,1.2-7.5-.52-9-1.76Z"/><path class="cls-1" d="M160.77,18c.84.35,34.12-.18,33.84,0-3.22-.37-7.13,1.22-10.22,2-2.87.75-5.65-2.84-8.57-2.53s-6.57,1.54-9.57,1.2c-1.39-.16-3.78-1.49-4.73-.19Z"/><path class="cls-1" d="M148.48,16.81c1.65,1.61,7.06,2.52,9.45,2.26-2.6-1.14-7.17-2.8-10-1.76Z"/><path class="cls-1" d="M625.46,15.68c5.2,2.49,10.36,7.43,15.94,7.07,4.14-.27,8.31-1,12.41-.38s7.91,3.51,12,2.76c2.57-.48,5.83-2.12,7.32,0,.95,1.37.19,3.21-.07,4.85-.63,4,3.08,7.22,3.89,11.16C679.06,51.64,678.25,63.39,682,72c1-2.09-.44-12.43,3.32-24.7,2.37-7.73,2.68-16.64,8.87-21.85,8.65,11.27,2.42,15.61,8.1,35.3.46-4.8,3.1-31.09,7.52-34.59,2.37,2.68,3.62,6.73,4.81,11.54,1.13-2.42,3.68-5,5.09-8s6.46-1.37,9.27-3.06c6.24-3.76,13.16-1.4,19.83-1.46s13.34-5.79,18.39-10.08c-14,.21-22.72-.73-30.85-3-4.53-1.25-9.28,2.27-14,2.41-5.13.16-10.25.52-15.38.34-3.1-.11-6.18-.5-9.26-.83-3.31-.36-5-.09-7.1-2.79a5.59,5.59,0,0,0-2.15-1.76c-1.62-.74-4-1.81-5.81-1.16-7.69,2.78-9.6-4.34-10.54-4.7C666.24,1.44,662,11,655.89,12.22c-4.59.88-9.28,1.27-13.83,2.39-4.13,1-8.47,3.71-12.75,1.82-.91,1.71-2.79-1-4.15,0Z"/><path class="cls-2" d="M625.46,15.68c5.2,2.49,10.36,4.09,15.94,3.74,4.14-.27,8.31-1,12.41-.38s7.91,3.51,12,2.76c2.57-.48,5.83-2.12,7.32,0,.95,1.37.19,3.21-.07,4.85-.63,4,3.08,7.22,3.89,11.16,2.15,10.48,1.34,22.22,5.05,30.87,1-2.09-.44-12.43,3.32-24.7,2.37-7.73,2.68-16.64,8.87-21.85,8.65,11.27,2.42,15.61,8.1,35.3.46-4.8,3.1-31.09,7.52-34.59,2.37,2.68,3.62,6.73,4.81,11.54,1.13-2.42,3.68-5,5.09-8s6.46-1.37,9.27-3.06c6.24-3.76,13.16-1.4,19.83-1.46a29.18,29.18,0,0,0,18.39-6.75c-14,.21-22.72-4.07-30.85-6.31-4.53-1.25-9.28,2.27-14,2.41-5.13.16-10.25.52-15.38.34-3.1-.11-6.18-.5-9.26-.83-3.31-.36-5-.09-7.1-2.79a5.59,5.59,0,0,0-2.15-1.76c-1.62-.74-4-1.81-5.81-1.16C674.93,7.82,673,.7,672.08.34,666.24-1.9,662,7.71,655.89,8.89c-4.59.88-9.28,1.27-13.83,2.39-4.13,1-8.47,3.71-12.75,1.82-.91,1.71-2.79,2.3-4.15,3.32Z"/><path class="cls-1" d="M673.4,19.9c2.73,2.11,2.44,6.18,3,9.25.45,2.45.91,5,1.5,7.56.69,2.9,2.12,5.66,2.58,8.59s-.06,5.65-.44,8.49c.48-4,2.48-7.77,3.18-11.76a44.16,44.16,0,0,0,.92-4.87c.11-2.12-.33-4,.41-6.18,1.71-4.94,5.48-8.17,9.7-10.21-1.83-1.43-5.27,1.11-7,2.14-1.95,1.15-4.28,5.42-6.22,4.41-1.46-.76-2.4-3.41-3.89-4.5-1.05-.77-2.71-1.4-2.66-2.7Z"/><path class="cls-1" d="M698.53,24.63c1.1,4,2.95,7.44,3.44,11.69a26.29,26.29,0,0,1-.22,7.47c-.19-2.35.88-5,1.29-7.32a48.79,48.79,0,0,1,1.5-6.14c.63-2,1.08-4,1.69-5.89-2.51,2.64-4.33,3.52-7.07,1.06-.41,0-.06.17,0,.41Z"/><path class="cls-1" d="M714.21,24.63c.25,1.35,1,2.87.9,4.23,1.45-2.56,3.08-3.73,4.88-5.48-2.63-.38-3.28,1.31-5.1,2.08.13-.72-.3-.36-.47-.62Z"/><path class="cls-1" d="M652.62,14.75c3-2.46,26.49,4.18,25.18-1.69-2-.39-4.09,1.15-6.33,1-2.93-.14-5.53-1.43-8.3-1.5a22,22,0,0,0-6.62,1A27.24,27.24,0,0,0,652.62,15Z"/><path class="cls-1" d="M696.59,16.45c2.44,0,5.07.36,7.43.23,1.48-.08,3.29-1,4.64-1.3-4.41-1.76-8.36,1.07-12.5,1.07Z"/><path class="cls-1" d="M713.42,17.11c1.52-.21,4.47.81,6.64-.7-1-.83-6.64,0-6.64.92Z"/><path class="cls-1" d="M724.52,18.19c6.15,0,12.44,1.43,18.56,1.07,1.68-.1,8.85.2,9.33-1.25-2.7-.13-27.65-1.14-27.68.82Z"/></g></g></svg>