<svg xmlns="http://www.w3.org/2000/svg" xmlns:xlink="http://www.w3.org/1999/xlink" viewBox="0 0 111.61 240.79"><defs><style>.cls-1{fill:none;}.cls-2{isolation:isolate;}.cls-3{clip-path:url(#clip-path);}.cls-4{fill:#ffd286;}.cls-5{fill:#be1e2d;}.cls-6{fill:#f1f2f2;}.cls-7{fill:#7a000f;}.cls-16,.cls-8{fill:#fff;}.cls-9{fill:#035e7a;}.cls-10{fill:#f4f4f4;}.cls-11{fill:#93000b;}.cls-12{fill:#ea3b48;}.cls-13{fill:#e6e7e8;}.cls-14{fill:#ffac88;}.cls-15,.cls-16,.cls-17{mix-blend-mode:soft-light;}.cls-17{opacity:0.58;}</style><clipPath id="clip-path" transform="translate(-9.27 -3.63)"><path class="cls-1" d="M27.05,185.48V15L60.57.63S79.25-2,84.46,3.63,110.67,40,115.67,49.8s14.67,39.3,14.67,39.3,0-3.32-6,24.27-13.86,66.49-13.86,66.49A40.93,40.93,0,0,1,93.14,209.3c-16.47,11.33-32.57,24-32.57,24s-22.24,16-26.9,16.37S13,241,13,241L0,220.86l9.27-33.5,7.06-6.67Z"/></clipPath></defs><title>ny_santa</title><g class="cls-2"><g id="Layer_2" data-name="Layer 2"><g id="Layer_1-2" data-name="Layer 1"><g class="cls-3"><path class="cls-4" d="M35.58,61.74l-12,10.92V89.88s10.29-3.52,10.68-4.56,5.86-16.82,5.47-17.66S35.58,61.74,35.58,61.74Z" transform="translate(-9.27 -3.63)"/><path class="cls-5" d="M82.66,182.5s-4.8,33.41-37.77,44.84L26.94,190V137.44L48.85,139s8.13,7.69,12.31,10.33,12.31,11,12.53,11.87S82.66,182.5,82.66,182.5Z" transform="translate(-9.27 -3.63)"/><path class="cls-6" d="M107.14,67.66s5.23,22.07,7.87,32.62,8.2,27-5.9,46.82c0,0-3.66,6.37-14,13.19a11.08,11.08,0,0,0-4.37,5.61c-1,3.52-1.34,7.8,2.07,10.88s6.48,2.75,8.24.55,2.31-5.06.88-7.25-4.73-.88-3,1.65A2.58,2.58,0,0,1,96.55,169c0-2.64,3.85-3.74,6.59-1.21s4,8.68-1.32,14.29-34,9.89-50.23-2.53-24.07-30.23-25.17-38.47-2-53.09-2-53.09a27.39,27.39,0,0,0,10-25.67q0-.3-.1-.6c-3-17,20.33-19.89,20.33-19.89l13-3.52,18.14,1.43,8.43,2.09L98.86,47S106.18,63.62,107.14,67.66Z" transform="translate(-9.27 -3.63)"/><path class="cls-5" d="M100.21,35.14S89.29,10.08,63.09,3.63c0,0-19.89-1-37.62,21.25l-1,23.53S33.53,51.2,34,51.16s18.61-7.79,20.15-9.26S75,37.19,75,37.19l17.53,4.2Z" transform="translate(-9.27 -3.63)"/><path class="cls-7" d="M29.06,44.81s5.13-16.19,13-22.2c0,0-7,8.79-9.16,19.34Z" transform="translate(-9.27 -3.63)"/><path class="cls-4" d="M54.89,42.74l38.58.5L102.78,47s5.2,13.3,5.42,20.22c0,0-3.3,14,0,22s-3.41,5.08-3.41,5.08-10,.47-11.32,0-20.85-3.21-22.35-3.32-21-3.64-21-3.64-9-23.72,4-38.89Z" transform="translate(-9.27 -3.63)"/><path class="cls-8" d="M64.78,73.65a22.33,22.33,0,0,1,4.14.05,27.07,27.07,0,0,1,7.25,1.78,12.14,12.14,0,0,0,2.1-9.29,7.92,7.92,0,0,0-5.81-6.31s-4.55-.45-7.27,2.67a7.45,7.45,0,0,0-1.51,2.77C61.89,71.08,64.78,73.65,64.78,73.65Z" transform="translate(-9.27 -3.63)"/><path class="cls-9" d="M64.78,73.65a22.33,22.33,0,0,1,4.14.05,6.27,6.27,0,0,0,2.71-5.35c0-3.34-2.27-6-5.06-6a4,4,0,0,0-1.38.24,7.45,7.45,0,0,0-1.51,2.77C61.89,71.08,64.78,73.65,64.78,73.65Z" transform="translate(-9.27 -3.63)"/><ellipse class="cls-8" cx="59.52" cy="62.58" rx="1.78" ry="2.12"/><path class="cls-8" d="M93,78l.12,0L99,79.85s3.35-2.24,3.74-7.69-3.68-6.93-3.68-6.93a6.85,6.85,0,0,0-5.15,3.1,7.12,7.12,0,0,0-.68,1.49A14.75,14.75,0,0,0,93,78Z" transform="translate(-9.27 -3.63)"/><path class="cls-9" d="M93,78l.12,0a1.8,1.8,0,0,0,.31.07c2.06.31,4.06-1.63,4.49-4.34S97,68.6,95,68.29a2.92,2.92,0,0,0-1.06,0,7.12,7.12,0,0,0-.68,1.49A14.75,14.75,0,0,0,93,78Z" transform="translate(-9.27 -3.63)"/><path class="cls-6" d="M26.35,75.48S42.76,50.86,65.19,47s35.7,1.74,42,13.62c0,0,4.79-1.3,2.89-12.22A22,22,0,0,0,99.63,33.09S88.49,25.91,67,26.94s-40.67,19.2-40.67,19.2Z" transform="translate(-9.27 -3.63)"/><path class="cls-6" d="M26.94,164.11s18.61,2.93,25.65,28-5.42,45.58-25.65,52.32Z" transform="translate(-9.27 -3.63)"/><ellipse class="cls-8" cx="86.72" cy="68.06" rx="1.37" ry="1.67"/><path class="cls-10" d="M78.49,43.76s-11.4.77-14.09,8.9A1.8,1.8,0,0,0,65.17,55c1.43.77,3.63-2.33,8.41-2.64a12,12,0,0,1,7.2,1.48S83.3,54.25,84,50,81.76,43.7,78.49,43.76Z" transform="translate(-9.27 -3.63)"/><path class="cls-10" d="M101.86,49.72s5.5,2.71,5.28,10.73a3.54,3.54,0,0,1-.77,2.27c-.77.66-1.76-.59-2.6-1.58a10.47,10.47,0,0,0-4.84-2.53c-1.17-.07-3-1.72-2.23-4.91S99.33,48.66,101.86,49.72Z" transform="translate(-9.27 -3.63)"/><path class="cls-11" d="M70.42,113.37a17.25,17.25,0,0,0,.88,1.87,11.19,11.19,0,0,0,10.3,6.3,12.21,12.21,0,0,0,8-2.75,15.25,15.25,0,0,0,2.34-2.44A23.74,23.74,0,0,0,96,106.81a31.34,31.34,0,0,0,0-4.55c-.22-.22-1.54-2.13-1.54-2.13L87.9,97.06s-5.5.74-6,1S71,101.45,71,101.45s-2.13,1.32-2.2,3.3A24.38,24.38,0,0,0,70.42,113.37Z" transform="translate(-9.27 -3.63)"/><path class="cls-8" d="M94.5,106.37s-2.93,2.56-9,2.2a16.77,16.77,0,0,1-10.19-4.69L82,99.41l5.35-1.83s2.62.44,2.91.57S94.5,106.37,94.5,106.37Z" transform="translate(-9.27 -3.63)"/><path class="cls-12" d="M71.3,115.24a11.19,11.19,0,0,0,10.3,6.3,12.21,12.21,0,0,0,8-2.75c-.8-2-3.24-4.52-8.49-5.46A15.58,15.58,0,0,0,71.3,115.24Z" transform="translate(-9.27 -3.63)"/><path class="cls-8" d="M70.42,113.37c1.64,4.12,4.88,8.12,11.18,8.17a12.49,12.49,0,0,0,10.33-5.19,21.6,21.6,0,0,1-10.4,1.89A20.4,20.4,0,0,1,70.42,113.37Z" transform="translate(-9.27 -3.63)"/><path class="cls-13" d="M72.81,124.58s5.39,3.52,11.65,2.53a5.13,5.13,0,0,1-2.68,2.53C79.84,130.4,74.89,130.62,72.81,124.58Z" transform="translate(-9.27 -3.63)"/><path class="cls-13" d="M79.51,85.78s-4.84-6.81-12-6.7-11.65,5.72-17.59,5.61-5.5-7-2-7.14c0,0-6.14,0-6.61,9.77-.43,8.82,8.59,16.61,20.24,18.81s23.3-4.51,26-7.36c0,0,3.63,11.21,17.48,12.2s17.15-11.87,15.28-19c-1-4-3.63-4.63-3.63-4.63s.77,4.08-3.19,4.74a4.75,4.75,0,0,1-3.52-1.87c-1.76-2-4.18-5.06-9.56-3.85a18.19,18.19,0,0,1-9.12,0C90.72,86.22,79.51,85.78,79.51,85.78Z" transform="translate(-9.27 -3.63)"/><ellipse class="cls-14" cx="89.79" cy="87.3" rx="9.17" ry="12.17" transform="translate(-12.96 167.01) rotate(-85.91)"/><path class="cls-15" d="M63.79,66.4s5.49.27,5,6.81A6.48,6.48,0,0,0,71.13,69c.23-2.61-1.44-5.69-4.11-6.07a6.44,6.44,0,0,0-1.77,0A5.67,5.67,0,0,0,63.79,66.4Z" transform="translate(-9.27 -3.63)"/><ellipse class="cls-15" cx="57" cy="64.7" rx="2.15" ry="2.36"/><ellipse class="cls-15" cx="94.27" cy="73.19" rx="2" ry="1.46" transform="translate(-2.31 150.93) rotate(-80.81)"/><path class="cls-15" d="M93.14,72a6.29,6.29,0,0,1,1.92,5.52,6,6,0,0,0,2.29-3.21A5.58,5.58,0,0,0,95.75,69a3.41,3.41,0,0,0-1.62-.22A13.53,13.53,0,0,0,93.14,72Z" transform="translate(-9.27 -3.63)"/><path class="cls-16" d="M93.76,75.32V77.7a1.11,1.11,0,0,1-.69-.1l-.32-1.43.5-1.31A.8.8,0,0,0,93.76,75.32Z" transform="translate(-9.27 -3.63)"/><path class="cls-16" d="M64.12,69.75a4,4,0,0,0,1.08.84l-.81,2.07a8.71,8.71,0,0,1-.86-2.25Z" transform="translate(-9.27 -3.63)"/><path class="cls-15" d="M67,55.55s7.27-5.5,13.65-1.21l-3.85,3.08S74.53,54.95,67,55.55Z" transform="translate(-9.27 -3.63)"/><path class="cls-15" d="M97.47,58.76s5.4,1,7.11,4.15a1,1,0,0,0,1.15.55s-.17,1.37-1.81.38-3-2.55-7-2.55Z" transform="translate(-9.27 -3.63)"/><path class="cls-15" d="M83.39,49.42S83,52.52,81.09,53c0,0-7.44-4.58-14.58,1.14,0,0-1.15.5-1.69-.29a15.13,15.13,0,0,1,11.06-6.48s4.8-.7,7.22.4A2.65,2.65,0,0,1,83.39,49.42Z" transform="translate(-9.27 -3.63)"/><path class="cls-15" d="M105.73,62a11.05,11.05,0,0,0-6.82-4.12s-2.66-1.29-.77-5.6c0,0,6,.21,8.13,9.17A.54.54,0,0,1,105.73,62Z" transform="translate(-9.27 -3.63)"/><path class="cls-16" d="M29.87,45.69S52,26.13,76.91,28.11c25.87,2.05,29.37,14.64,29.37,14.64a5.91,5.91,0,0,1,1.56,4.42s-7-13.3-34.73-12.61S29.87,52.71,29.87,52.71Z" transform="translate(-9.27 -3.63)"/><path class="cls-17" d="M51.92,52.71a44.11,44.11,0,0,1,7.69-2.91A17.12,17.12,0,0,1,58.08,59c-2.27,5.2-.22,7.14,1.17,10.79s1.32,9.65,1.32,9.65-6.23,4.25-10.48,4.47c0,0-2.39-9.2-2.2-16.21S51.92,52.71,51.92,52.71Z" transform="translate(-9.27 -3.63)"/><path class="cls-17" d="M81.18,82.48s.2,6.33,7.53,9.16,11.8-1.76,11.8-1.76-3.22,7.11-13,5.64S76.21,84.31,81.18,82.48Z" transform="translate(-9.27 -3.63)"/><path class="cls-17" d="M44.56,94.27s19,15,36.62.53a10.24,10.24,0,0,0,6.14,2.78s-10.7,8.1-22.11,7.77S46.43,98.36,44.56,94.27Z" transform="translate(-9.27 -3.63)"/><path class="cls-17" d="M88.47,97.77a21.91,21.91,0,0,0,6-1,14.32,14.32,0,0,0,10.24,10.77c8.79,2.36,12.53-2.24,12.53-2.24s-4.23,5.76-13.41,4.88S88.9,100.59,88.47,97.77Z" transform="translate(-9.27 -3.63)"/><path class="cls-17" d="M78.11,185.56S36.42,175.3,26.94,119.51v18.9S38.17,186.82,78.11,185.56Z" transform="translate(-9.27 -3.63)"/><path class="cls-17" d="M28.07,234.64S39,231.3,39.61,211.41A13.6,13.6,0,0,0,52.52,199s8,29.35-24.45,43.75Z" transform="translate(-9.27 -3.63)"/><path class="cls-17" d="M49.5,179.86s11.43,9.34,29.79,9.12a31.19,31.19,0,0,1-4.84,11.43s-15-2.64-21.06-8.57C53.39,191.84,51.9,183.94,49.5,179.86Z" transform="translate(-9.27 -3.63)"/><ellipse class="cls-16" cx="93.79" cy="82.75" rx="1.72" ry="2.3" transform="translate(-4.71 166.77) rotate(-85.91)"/><path class="cls-8" d="M67,49.42S73.9,43.53,80,44.53a3,3,0,0,1,2.61,1.77s.19.42-.23.42A24.09,24.09,0,0,0,67,49.42Z" transform="translate(-9.27 -3.63)"/><path class="cls-8" d="M106.05,57.42a13.38,13.38,0,0,0-7.13-6.05S100,49.83,101.3,50,105.83,53.35,106.05,57.42Z" transform="translate(-9.27 -3.63)"/><path class="cls-5" d="M27.05,180.69s7.55,1.68,10.66,16.65-1,31-7.43,35-15,2.52-17.37-1.92S6.8,208.84,11.6,194.7c0,0,2.64-6.83,7.79-8.39s7.67-.84,7.67-.84Z" transform="translate(-9.27 -3.63)"/><path class="cls-17" d="M11.8,199.46s-1.19,23.71,5.61,29.42a18.58,18.58,0,0,0,10.11,0c5.72-1.54,9.34-12.31,9.34-12.31s-1.6,13.29-9.23,15.61c0,0-8.54,3.26-13.74-1.54C13.89,230.64,7.63,215.51,11.8,199.46Z" transform="translate(-9.27 -3.63)"/></g></g></g></g></svg>