<svg xmlns="http://www.w3.org/2000/svg" viewBox="0 0 851.95 31.55"><defs><style>.cls-1{fill:#e6e6e6;}.cls-2{fill:#dbe7f2;}.cls-3{fill:#fff;}</style></defs><title>ny_slider_bottom</title><g id="Layer_2" data-name="Layer 2"><g id="Layer_1-2" data-name="Layer 1"><path class="cls-1" d="M825.28,19.91l.06,0a1.32,1.32,0,0,0,.37-1.63C825.56,18.79,825.45,19.36,825.28,19.91Z"/><path class="cls-2" d="M778.94,18.27c-9.25-1.26-16.49,2.53-25.51,2.45-7.18-.07-10.52-4-16.79-4-2.23,0-5.44,1.64-7.63,2.07-6.5,1.27-11.52,1-18-.11-9.24-1.53-17.95-.44-27.54-1.3a98.2,98.2,0,0,0-21.79.75c-5,.62-7.34,1.32-12.39.19-2.84-.63-4.92-2.81-8.26-2.77-6,.06-6,4-10.87,5.16-6.38,1.52-9.3-3.14-14.54-3.69-7-.73-15.79,2-23.23,1.77-3.62-.11-7.54-.75-11.16-.41-4.46.42-8.29,2.4-12.77,2.72-6.31.44-11.63-2.32-17.65-2.3-4.63,0-9.28,1.4-14.16,1.4-7.72,0-15-1.34-22.79-1.41-10.76-.11-21.28-2.9-32-2.26-12.65.75-23.76,1.88-36.52,1.21A197.23,197.23,0,0,0,424.1,18c-7.59.41-15.65,2.84-23.23,2.21-8.26-.7-9.35-1.54-17.24,0-7.4,1.47-9.6-.27-16.75-1.45-18.15-3-37.72,5.43-55.68,2.2-8.76-1.57-11.77-2.23-20.82-.65-6.75,1.18-9.9.6-16.78,0-9.72-.86-19.74,1.11-29.53.86-9.56-.25-18.41-2.26-27.68-3.21-7.87-.8-15.61,1.57-23.49,1.8a196.17,196.17,0,0,1-23.69-1.17c-19-1.71-37.81,1.14-56.55,2.75-8,.69-16,2.79-24,1.7-6.27-.84-12-4.47-18-5.08-5.3-.54-7.71,1.67-12.45,2.18-4.92.54-9.73-1.26-14.18-2.36C32.68,15,30,17.08,20,19.4c-2.61.6-5.47.13-8-.35-1.22-.23-2.44-.45-3.68-.61S6,18.11,5,17.86c-.42-.1-4.71,4.78-4.67,6,.69-1.15,7-3.82,12.17-3,8.12,1.2,18.23.5,26.54,2,8.09,1.45,12.8-3.28,21.35,1.36,8.11,4.41,9.26-1.25,19.21-.1,3.46.4,15.06,4,18.7,3.59,3.93-.45,7.64-2.91,11.74-3.64,10.29-1.81,23.79.73,34.74.37,11.65-.38,20.22,3.28,31.58,2.19,6.51-.63,13.91-5,22.12-1.14,7,3.3,14.59-1.37,22.13-1.49,6.9-.11,12.57,2.57,19.27,3.2,9.74.92,18.69-2.27,28.41-1.84C283,26,298.07,28,313.05,27.6c10.87-.32,20.14-3.16,30.63-3.34,6.65-.11,14.45,2.32,21.34,2.46,8.44.17,17.34,1.28,25.55-.25s16.4-2.79,24.88-2.62c4.16.08,8.11,1.68,12.36,1.84,4.9.18,9-1,13.84-1.33,4.3-.26,8,.77,12.08.93,5,.2,9.25-1.08,14.13-1.41,6-.4,9.73,1.47,15.31,2.13,5.38.64,10.52-.46,15.79-1.15,10.86-1.43,18.46,1.3,29.07,1.83C542.49,27.4,542,24,556.2,24.81c4,.22,21.29,3.07,25.45,2.79,4-.27,6.54-1.78,10.67-1.38,7.49.72,12.06,0,19.39-.41,5.94-.35,10.74,1.66,16.91,1.11,10.39-.92,17.26-3.95,31-2.05,5.29.73,8.87,1,13.84,1.55,6.16.66,9.79-1,15.58-1.95,11-1.81,19.71,2.29,30.49,1.52,12.53-.89,22-2.7,34-.31,10,2,19.64-.53,29.78-.83,5.93-.18,11.66-.75,17.61-.93,5.55-.17,18.32-.06,22.5-2.6a4.09,4.09,0,0,0,1.87-2.44c-1.2.88-6.55.64-8.41.84C804.69,21,790.67,19.87,778.94,18.27Z"/><path class="cls-3" d="M825.48,17.73c-.39-.78-.38-1.64-1-2.36l-.09-.1a19.52,19.52,0,0,0-1.84-1.3,25.35,25.35,0,0,0-2.23-1.66A31.52,31.52,0,0,0,815,9.48a40.15,40.15,0,0,0-12.52-2.89,87.64,87.64,0,0,0-14.28.58l-31,3c-6.45.62-13.16,1.22-19.39-.09-4.73-1-8.86-3-13.63-3.93-13.93-2.65-28.94,4.93-42.76,2-7.35-1.54-12.88-5.81-20.2-7.4C654.07-.82,646.3.39,639,1.62c-16.81,2.81-32.63,5-49.8,6.26-14.62,1.08-29.67,5.85-43.86,3.24-17.83-3.29-34.87-10-52.63-6.51-8.11,1.58-15.79,4.31-24.18,4.95s-12.56-6.4-21-7c-10.12-.76-17.78,6.12-27.75,4.7s-20.65-3.79-30-1c-3.3,1-6.38,2.62-10,2.64-5.84,0-9.83-4-15.35-5.33-7.93-1.87-15.84,2.3-23.68,4.35-22.67,5.93-49.23-6.16-71.94-.3-2.56.66-5.13,1.56-7.86,1.43a12.19,12.19,0,0,1-6.4-2.24C237.82-3.88,212.95,1,194.31,6.58c-2.09.7-5.2,0-7.06-.75-2.48-.52-5-1.13-7.51-1.64a49.44,49.44,0,0,0-7.6-1c-14.17-.61-27.08,7.93-41,6.21C123,8.4,115.6,4,107.49,5c-4.54.6-8.18,2.85-12.45,4C76,14.41,54.94-2.15,35.76,2.88,31.93,3.89,28.5,5.73,24.42,6c-5.37.42-9.23-1-14.28.89-4.65,1.75-5.22,4.68-6.29,5.25C-.19,14.3-.35,22.45.28,24,1,21.36,6,19.17,8.3,19.47c1.24.16,2.46.38,3.68.61,2.56.48,5.42.95,8,.35C30,18.12,32.68,16,44,18.8c4.45,1.1,9.26,2.9,14.18,2.36,4.73-.52,7.14-2.72,12.45-2.18,6,.61,11.72,4.23,18,5.08,8.07,1.09,16-1,24-1.7,18.74-1.61,38.62-9.2,56.55-2.75,7.7,2.77,15.47,4.43,24,2.58A152.06,152.06,0,0,1,216.39,19c9.3-.57,18.12,3,27.68,3.21,9.79.25,19.81-1.72,29.53-.86,6.88.61,10,1.19,16.78,0,9.05-1.58,12.07-.92,20.82.65,18,3.23,37.53-5.19,55.68-2.2,7.15,1.18,9.35,2.92,16.75,1.45,7.89-1.56,9-.72,17.24,0,7.58.64,15.64-1.8,23.23-2.21a197.23,197.23,0,0,1,21.29-.23c12.76.67,23.87-.45,36.52-1.21,10.69-.63,21.2,2.16,32,2.26,7.75.08,15.07,1.41,22.79,1.41,4.88,0,9.53-1.39,14.16-1.4,6,0,11.33,2.74,17.65,2.3,4.48-.31,8.31-2.3,12.77-2.72,3.61-.34,7.53.3,11.16.41,7.44.23,16.27-2.5,23.23-1.77,5.25.55,8.17,5.2,14.54,3.69,4.84-1.15,4.89-5.1,10.87-5.16,3.33,0,5.42,2.14,8.26,2.77,5.05,1.12,7.34.43,12.39-.19a98.2,98.2,0,0,1,21.79-.75c9.59.86,18.29-.23,27.54,1.3,6.46,1.07,11.49,1.39,18,.11,2.18-.43,5.4-2,7.63-2.07,6.27-.05,9.61,3.91,16.79,4,9,.08,16.26-3.71,25.51-2.45,11.73,1.6,25.75,2.72,37.93,1.44,1.85-.19,7.21,0,8.41-.84.18-.56.29-1.12.43-1.67A4.87,4.87,0,0,0,825.48,17.73Z"/><path class="cls-2" d="M623.15,21.67c-4.84-6.24-20.87,4.27-31.24,5.16-5.92.51-11.81,2.06-17.77,1.26-4.64-.62-8.84-3.3-13.3-3.75-3.92-.4-5.7,1.23-9.2,1.61s-7.19-.93-10.48-1.74c-8.37-2.06-10.32-.5-17.74,1.21a14.8,14.8,0,0,1-5.93-.26c-.9-.17-1.8-.33-2.72-.45s-1.66-.24-2.47-.43a9.63,9.63,0,0,1-1.42-.39A16.24,16.24,0,0,0,520,28.76c6,.89,11-.66,17,.83s9.84-.38,15.94.72c6.72,1.21,7.13-2.29,14.48-1.44,2.56.3,11.14,3,13.82,2.66,2.91-.33,5.65-2.15,8.68-2.69,7.61-1.34,17.08.52,23.44-.18C616,28.37,623.47,24.76,623.15,21.67Z"/><path class="cls-3" d="M623.15,21.67c0-3.26-4.6-5.62-9.28-4.78a27.64,27.64,0,0,1-8.32.36c-6-.74-11.46-4-17.46-3.22-3.36.45-6,2.1-9.21,3-14,3.94-29.64-8.31-43.82-4.59-2.83.74-5.37,2.11-8.39,2.34-4,.31-7.81-1.39-11.79-1.15a8.48,8.48,0,0,0-3.31.87c-3,1.51-5.05,3.75-3.89,6.31a6.1,6.1,0,0,0,2.45,2.72,11.93,11.93,0,0,0,4.62,1.18c.92.12,1.82.28,2.72.45a14.8,14.8,0,0,0,5.93.26c7.41-1.71,9.37-3.27,17.74-1.21,3.29.81,6.84,2.14,10.48,1.74s5.28-2,9.2-1.61c4.46.45,8.66,3.13,13.3,3.75,6,.8,11.85-.75,17.77-1.26,9-.78,18.11-1.94,27.22-2.31,2.26-.09,4-1.33,4-2.85Z"/><path class="cls-2" d="M850.78,21.31c-4.9-6.32-19.4-2-29.88-1.08-6,.51-11.94,2.09-18,1.27-4.69-.63-8.94-3.34-13.45-3.8-4-.4-5.77,1.25-9.31,1.63s-7.28-.94-10.6-1.76c-8.46-2.09-10.44-.51-17.94,1.22a15,15,0,0,1-6-.26c-.91-.17-1.82-.34-2.75-.46s-1.68-.25-2.5-.43a9.74,9.74,0,0,1-1.43-.39,16.42,16.42,0,0,0,9.2,4.92c6.07.9,11.11-.67,17.24.84s10-.38,16.12.73c6.8,1.22,7.21-2.31,14.65-1.45,2.59.3,11.26,3,14,2.69,2.94-.34,5.71-2.18,8.78-2.72,7.69-1.36,17.28.53,23.7-.18C845.22,21.78,851.11,24.43,850.78,21.31Z"/><path class="cls-3" d="M843.52,10.88c-2.65-1-5.56.72-8.42.37C829,10.5,823.52,7.19,817.45,8c-3.4.45-6.12,2.13-9.31,3-14.21,4-30-8.4-44.32-4.64-2.87.75-5.43,2.13-8.48,2.37-4,.32-7.9-1.41-11.92-1.17a8.57,8.57,0,0,0-3.35.88c-3,1.53-5.11,3.8-3.93,6.38a6.17,6.17,0,0,0,2.48,2.75,12.06,12.06,0,0,0,4.67,1.19c.93.12,1.84.29,2.75.46a15,15,0,0,0,6,.26c7.5-1.73,9.48-3.31,17.94-1.22,3.33.82,6.92,2.16,10.6,1.76s5.34-2,9.31-1.63c4.51.46,8.76,3.16,13.45,3.8,6,.81,12-2.27,18-1.27,8.49,1.43,22.19-1.71,27.4,1.41C852.49,24.61,855.2,15.11,843.52,10.88Z"/><path class="cls-2" d="M314.65,25.62c-9,.95-19.42.11-28.11-1.07-6.86-.93-12.22,1.88-18.91,1.81-5.32,0-7.8-3-12.44-3-1.65,0-4,1.22-5.65,1.53a34.44,34.44,0,0,1-13.33-.08c-6.85-1.13-13.3-.33-20.41-1-1.58-.14-3.43-2.65-4.94-2.66,0,0,.19,3.82,8,5.13,8.17,1.37,15.6,4.47,23.59,3.9,9.29-.66,16.3-2,25.19-.23,7.41,1.48,14.56-.39,22.07-.62,4.39-.13,8.64-.55,13-.69,4.12-.13,13.58,0,16.68-1.93A3,3,0,0,0,320.88,25C320,25.65,316,25.47,314.65,25.62Z"/><path class="cls-3" d="M321.07,23.46c-.33-.6-.3-1.27-.77-1.83l-.06-.07a14.47,14.47,0,0,0-1.36-1,18.79,18.79,0,0,0-1.66-1.23,23.37,23.37,0,0,0-4-2.1A29.76,29.76,0,0,0,304,15.12a65,65,0,0,0-10.58.43l-23,2.19c-4.78.46-9.76.9-14.37-.06-3.5-.73-6.57-2.25-10.1-2.92-10.32-2-30,.63-34.78,5.71-1.39,1.47,1.94,3.18,4.5,3.41h.11c7.11.64,13.56-.17,20.41,1a34.44,34.44,0,0,0,13.33.08c1.62-.32,4-1.52,5.65-1.53,4.64,0,7.12,2.9,12.44,3,6.69.06,12.05-2.75,18.91-1.81,8.7,1.18,19.08,2,28.11,1.07,1.37-.14,5.34,0,6.23-.62.11-.36.19-.72.28-1.08Z"/><path class="cls-3" d="M89.84,19.28a34.25,34.25,0,0,1,7.22,1.23c1.57.53,3.17,1.49,5,1.21s3.49-1.1,5.37-1.33a17.87,17.87,0,0,1,5.21.46c3.79.68,5.11,2,8.75.89s2.79-2.41,8.59-1.1,9.8.08,14.52.36,5.69,1.54,9.56.16a16.73,16.73,0,0,1,9.07-.63,13.25,13.25,0,0,0,5.67-.09,1.25,1.25,0,0,0,.83-.62,5.85,5.85,0,0,0-2.4-3.33c-2.46-1.78-5.42-1.09-8.58-1.17-6.39-.17-10.31-3.49-16.35-4.05-5.5-.51-7.07,1.41-11.61,2.54-4.16,1-6.3-.32-10.24-1-4.15-.71-6.18.47-10.16.62-2.88.11-6.74-.83-9.71-1a41.57,41.57,0,0,0-12.21,1.35c-1.72.45-3.74,1.09-4.71,2.21a2.41,2.41,0,0,0-.25.36c.38.57.63,1.67,1.33,2.11C86.09,19.25,88.22,19.11,89.84,19.28Z"/><path class="cls-2" d="M83.25,17.57a2.93,2.93,0,0,0,.65,1.32,6.63,6.63,0,0,0,1,.9c2.4,1.8,6.4,2.7,9.79,3,3.59.34,6.28,1.71,9.82,2,11.36,1.08,21.76.54,33-.6,6.69-.68,13.47-.28,20.19-.71,3.29-.21,7.55-.56,10.47-1.67,1.24-.47,1.61-1.24,1.5-2.07a1.25,1.25,0,0,1-.83.62,13.25,13.25,0,0,1-5.67.09,16.73,16.73,0,0,0-9.07.63c-3.87,1.38-4.84.12-9.56-.16s-8.72.94-14.52-.36-5,0-8.59,1.1-5-.2-8.75-.89a17.87,17.87,0,0,0-5.21-.46c-1.89.23-3.5,1.06-5.37,1.33s-3.48-.68-5-1.21a34.25,34.25,0,0,0-7.22-1.23c-1.62-.17-3.75,0-5-.84-.7-.44-1-1.54-1.33-2.11A1.69,1.69,0,0,0,83.25,17.57Z"/><path class="cls-2" d="M224.35,10.44c1.19.15,2.39.26,3.58.37,1.83.16,3.77,0,5.31.74a10.81,10.81,0,0,0,1.41.61l.69.21a8.57,8.57,0,0,0,2.7.3c4.26,0,8.55-.3,12.83-.33h1.07a42.84,42.84,0,0,1,6.37.42l1.06.16,1,.11c1.73.19,3.47.36,5.23.47a21.58,21.58,0,0,1,5.12.88c1.76.56,4.4,1,5.74,1.92.13.09-1.07.22-1.13.22a5.76,5.76,0,0,1-1.69-.31c-1.1-.32-2.06-.86-3.22-1.11a64.32,64.32,0,0,0-7.62-1c-.6-.05-1.22-.08-1.86-.09h-1c-.28,0-.56,0-.83,0a92.35,92.35,0,0,0-9.68.59l-1.13,0c-3.76.16-7.51.46-11.33.92a17,17,0,0,1-5.15-.19l-.73-.15a12.5,12.5,0,0,1-1.38-.41c-1.7-.62-2.84-1.49-4.78-1.9A20.16,20.16,0,0,1,220.9,12c-1-.44-3-.89-3.55-1.66s1-.56,1.48-.58a13.57,13.57,0,0,1,2.8.28C222.53,10.2,223.44,10.32,224.35,10.44Z"/><path class="cls-2" d="M219.81,16c.39-.54,2-.23,2.72-.07,1.51.37,1.9,1.37,3.74,1.32L233,17a14.32,14.32,0,0,0,1.83-.11,4,4,0,0,1,1.05-.19,12,12,0,0,1,2.41.9c1,.3,2.1.17,2.93.66-.49.14-.74,0-1.22-.06a13.31,13.31,0,0,0-3.24.46,34,34,0,0,1-5.16.26c-1.23,0-2.32.33-3.52.4a13.71,13.71,0,0,1-8-2.11c-.43-.29-1.07-1-.15-1.33.11,0,.07.07.17.12Z"/><path class="cls-2" d="M265.16,17.17c.26-1.09,2.68.65.2.4-2.29-.23-.68-1.55.59-.4Z"/><path class="cls-2" d="M11.48,12.49c.39-.54,2-.23,2.72-.07,1.51.37,1.9,1.37,3.74,1.32l6.78-.19a14.32,14.32,0,0,0,1.83-.11,4,4,0,0,1,1.05-.19,12,12,0,0,1,2.41.9c1,.3,2.1.17,2.93.66-.49.14-.74,0-1.22-.06a13.31,13.31,0,0,0-3.24.46,34,34,0,0,1-5.16.26c-1.23,0-2.32.33-3.52.4a13.71,13.71,0,0,1-8-2.11c-.43-.29-1.07-1-.15-1.33.11,0,.07.07.17.12Z"/><path class="cls-2" d="M56.83,13.69c.26-1.09,2.68.65.2.4-2.29-.23-.68-1.55.59-.4Z"/><path class="cls-2" d="M209.65,8.09c-.5.53,1,.5.7-.09s-1.54,0-.6.42Z"/><path class="cls-2" d="M216.55,13.59c-.61-.22-1.46.56-.64.86.48.17,1.42-.08,1.35-.49s-1.31-.32-1.5.1Z"/><path class="cls-2" d="M256,10.54c.52-.21,2.55.21,2.75.67-.9.43-3.13-.57-1.77-.73Z"/><path class="cls-2" d="M755.51,11.61c-1.33.1-2.66.19-4,.26-2,.11-4.21,0-5.92.53a16.28,16.28,0,0,1-1.57.44l-.77.15a14.76,14.76,0,0,1-3,.21c-4.75,0-9.55-.22-14.32-.23h-1.19c-2.43,0-4.85,0-7.11.3l-1.18.12-1.16.08c-1.93.13-3.88.26-5.84.34a36.72,36.72,0,0,0-5.72.62c-2,.4-4.91.68-6.41,1.37a5.93,5.93,0,0,0,1.26.16,9.75,9.75,0,0,0,1.89-.22c1.23-.23,2.3-.61,3.59-.79,2.72-.37,5.69-.59,8.51-.75.67,0,1.37-.06,2.07-.06h1.06l.93,0c3.69,0,7.22.21,10.81.42l1.26,0c4.2.12,8.38.33,12.64.65a29.53,29.53,0,0,0,5.75-.14l.81-.11c.53-.08,1.05-.18,1.55-.29a49.52,49.52,0,0,1,5.34-1.36,33.68,33.68,0,0,0,4.59-.66c1.08-.31,3.39-.63,4-1.18s-1.1-.4-1.65-.42a23.47,23.47,0,0,0-3.12.2C757.55,11.44,756.54,11.53,755.51,11.61Z"/><path class="cls-2" d="M817.59,15.56c-.43-.39-2.28-.16-3,0-1.68.26-2.12,1-4.17.94l-7.57-.14c-.73,0-1.34,0-2-.08a6.73,6.73,0,0,0-1.17-.13,18.73,18.73,0,0,0-2.7.64,22.86,22.86,0,0,0-3.27.47,5.06,5.06,0,0,0,1.36,0,22.8,22.8,0,0,1,3.61.33c1.93.21,3.78.16,5.76.19,1.37,0,2.59.23,3.93.29a22.24,22.24,0,0,0,8.89-1.51c.48-.21,1.19-.71.17-.95-.12,0-.08,0-.19.09Z"/><path class="cls-2" d="M660.21,12.23c-.29-.78-3,.46-.22.28,2.55-.17.76-1.1-.66-.28Z"/><path class="cls-2" d="M783.28,11.19c.85.57-1.62.53-1.17-.09s2.58,0,1,.45Z"/><path class="cls-2" d="M821.23,13.86c.68-.15,1.63.4.72.61-.54.12-1.58-.05-1.51-.35s1.46-.23,1.67.07Z"/><path class="cls-2" d="M720.2,11.69a6.16,6.16,0,0,0-3.07.48c1,.31,3.5-.4,2-.52Z"/><path class="cls-2" d="M375.67,11.13c1.19.15,2.39.26,3.58.37,1.83.16,3.77,0,5.31.74a10.81,10.81,0,0,0,1.41.61l.69.21a8.57,8.57,0,0,0,2.7.3c4.26,0,8.55-.3,12.83-.33h1.07a42.87,42.87,0,0,1,6.37.42l1.06.16,1,.11c1.73.19,3.47.36,5.23.47a21.59,21.59,0,0,1,5.12.88c1.76.56,4.4,1,5.74,1.92.13.09-1.07.22-1.13.22a5.76,5.76,0,0,1-1.69-.3c-1.1-.32-2.06-.86-3.22-1.11a64.32,64.32,0,0,0-7.62-1c-.6-.05-1.22-.08-1.86-.09h-1c-.28,0-.56,0-.83,0a92.4,92.4,0,0,0-9.68.59l-1.13,0c-3.76.16-7.51.46-11.33.92a17,17,0,0,1-5.15-.19l-.73-.15a12.5,12.5,0,0,1-1.38-.41c-1.7-.62-2.84-1.49-4.78-1.9a20.16,20.16,0,0,1-4.11-.93c-1-.44-3-.89-3.55-1.66s1-.56,1.48-.58a13.57,13.57,0,0,1,2.8.28C373.85,10.89,374.76,11,375.67,11.13Z"/><path class="cls-2" d="M331.24,18.07c-.51-.54-2.7-.23-3.58-.07-2,.37-2.51,1.37-4.93,1.32l-9-.19c-.86,0-1.59,0-2.41-.11a6.77,6.77,0,0,0-1.39-.19,19.29,19.29,0,0,0-3.19.9c-1.35.3-2.77.17-3.87.66a5.06,5.06,0,0,0,1.6-.06,22.84,22.84,0,0,1,4.27.46,59.12,59.12,0,0,0,6.81.26c1.62,0,3.06.33,4.65.4a22.65,22.65,0,0,0,10.51-2.11c.57-.29,1.41-1,.2-1.33-.14,0-.09.07-.23.12Z"/><path class="cls-2" d="M158.16,9c-.51-.54-2.7-.23-3.58-.07-2,.37-2.51,1.37-4.93,1.32l-9-.19c-.86,0-1.59,0-2.41-.11a6.77,6.77,0,0,0-1.39-.19,19.29,19.29,0,0,0-3.19.9c-1.35.3-2.77.17-3.87.66a5.06,5.06,0,0,0,1.6-.06,22.83,22.83,0,0,1,4.27.46,59.12,59.12,0,0,0,6.81.26c1.62,0,3.06.33,4.65.4a22.65,22.65,0,0,0,10.51-2.11c.57-.29,1.41-1,.2-1.33-.14,0-.09.07-.23.12Z"/><path class="cls-2" d="M416.47,17.87c.26-1.09,2.68.65.2.4-2.29-.23-.68-1.55.59-.4Z"/><path class="cls-2" d="M361,8.78c-.5.53,1,.5.7-.09s-1.54,0-.6.42Z"/><path class="cls-2" d="M447,8.09c-.5.53,1,.5.7-.09s-1.54,0-.6.42Z"/><path class="cls-2" d="M335.54,15.68c.81-.22,1.93.56.85.86-.64.17-1.87-.08-1.78-.49s1.73-.32,2,.1Z"/><path class="cls-2" d="M407.31,11.24c.52-.21,2.55.21,2.75.67-.9.43-3.13-.57-1.77-.73Z"/><path class="cls-2" d="M488.15,11.94c.52-.21,2.55.21,2.75.67-.9.43-3.13-.57-1.77-.73Z"/><path class="cls-2" d="M553.94,12.53c1.19.15,2.39.26,3.58.37,1.83.16,3.77,0,5.31.74a10.83,10.83,0,0,0,1.41.61l.69.21a8.56,8.56,0,0,0,2.7.3c4.26,0,8.55-.3,12.83-.33h1.07a42.84,42.84,0,0,1,6.37.42L589,15l1,.11c1.73.19,3.47.36,5.23.47a21.58,21.58,0,0,1,5.12.88c1.76.56,4.4,1,5.74,1.92.13.09-1.07.22-1.13.22a5.76,5.76,0,0,1-1.69-.31c-1.1-.32-2.06-.86-3.22-1.11a64.32,64.32,0,0,0-7.62-1c-.6-.05-1.22-.08-1.86-.09h-1c-.28,0-.56,0-.83,0a92.35,92.35,0,0,0-9.68.59l-1.13,0c-3.76.16-7.51.46-11.33.92a17,17,0,0,1-5.15-.19l-.73-.15a12.48,12.48,0,0,1-1.38-.41c-1.7-.62-2.84-1.49-4.78-1.9a20.15,20.15,0,0,1-4.11-.93c-1-.44-3-.89-3.55-1.66s1-.56,1.48-.58a13.58,13.58,0,0,1,2.8.28C552.11,12.29,553,12.42,553.94,12.53Z"/><path class="cls-2" d="M594.74,19.27c.26-1.09,2.68.65.2.4-2.29-.23-.68-1.55.59-.4Z"/><path class="cls-2" d="M585.57,12.63c.52-.21,2.55.21,2.75.67-.9.43-3.13-.57-1.77-.73Z"/><path class="cls-2" d="M71,14.23a19.17,19.17,0,0,1,10-1.82c1.61.24,2.92,1,4.55,1.24,2,.29,2.28-.48,4.07-.51.75,0,1,.46,1.7.47a11.46,11.46,0,0,0,2.08-.4c1.52-.21,3.11-.22,4.6-.45,1.76-.28,5.58-.92,6,1-2.87-.36-5.56.58-8.36,1.06-3.36.57-7.92,1-11.26.16-1.23-.3-2.18-1-3.61-.75-1.71.26-2,1.3-4,1.25a20.24,20.24,0,0,1-5.44-1.11c0-.19-.3-.21-.3-.28Z"/><path class="cls-2" d="M63.46,13.46c1.13-1.11,5,.21,6.39-.93-1.8-.44-6.27-.77-7.05.75.3,0,.58,0,.89,0Z"/><path class="cls-2" d="M115,16a3,3,0,0,1,3.92.31c-1.17.94-3.06-.31-4.15-.31Z"/><path class="cls-2" d="M454.44,13.48c3.11-.85,12.37-1.58,17.81-1.26,2.88.17,5.18.7,8.09.86,3.57.2,4.06-.33,7.26-.35,1.34,0,1.73.32,3,.33,1.57,0,2-.18,3.73-.28,2.73-.15,5.57-.15,8.23-.32,3.16-.2,10-.64,10.71.68-5.15-.25-10,.4-15,.74a141.91,141.91,0,0,1-20.18.11,36.25,36.25,0,0,0-6.47-.52c-3.07.18-3.62.9-7.19.87a86.17,86.17,0,0,1-9.63-.77c0-.13-.42-.15-.42-.2Z"/><path class="cls-2" d="M440.76,12.95c2-.77,9,.14,11.46-.65-3.22-.31-11.24-.53-12.64.52.54,0,1,0,1.59,0Z"/><path class="cls-2" d="M533.17,15c2-1,5.87-.43,7,.21-2.1.65-5.49-.21-7.44-.21Z"/><path class="cls-2" d="M655.47,10c-1.1-.81-7.06-1.34-10.19-.91-1.65.23-2.84.8-4.51,1-2,.28-2.32-.25-4.17-.21-.77,0-1,.35-1.7.39a17.19,17.19,0,0,1-2.16-.2c-1.59-.09-3.22,0-4.77-.15-1.84-.13-5.82-.44-6.13.89,3-.35,5.79.2,8.72.43A47.53,47.53,0,0,0,642.22,11a12.17,12.17,0,0,1,3.7-.65c1.79.12,2.16.83,4.22.72a26.7,26.7,0,0,0,5.3-1c0-.13,0-.15,0-.2Z"/><path class="cls-2" d="M663.72,9.17c-1.23-.73-5.18.32-6.67-.41,1.84-.37,6.45-.76,7.34.26-.31,0-.6,0-.92.05Z"/><path class="cls-2" d="M610.48,12.52c-1.19-.27-3.42-.31-4,.35,1.26.61,3.17-.08,4.28-.36Z"/></g></g></svg>