<?xml version="1.0" encoding="utf-8"?>
<!-- Generator: Adobe Illustrator 24.1.0, SVG Export Plug-In . SVG Version: 6.00 Build 0)  -->
<svg version="1.1" id="Слой_1" xmlns="http://www.w3.org/2000/svg" xmlns:xlink="http://www.w3.org/1999/xlink" x="0px" y="0px"
	 viewBox="0 0 56 20" style="enable-background:new 0 0 56 20;" xml:space="preserve">
<style type="text/css">
	.st0{filter:url(#Adobe_OpacityMaskFilter);}
	.st1{fill-rule:evenodd;clip-rule:evenodd;fill:#FFFFFF;}
	.st2{mask:url(#mask-2_1_);fill-rule:evenodd;clip-rule:evenodd;fill:#0046AA;}
</style>
<desc>Created with Sketch.</desc>
<g id="Symbols">
	<g id="Header" transform="translate(-1703.000000, -21.000000)">
		<g id="Group-6" transform="translate(1703.000000, 21.000000)">
			<g id="Group-3">
				<g id="Clip-2">
				</g>
				<defs>
					<filter id="Adobe_OpacityMaskFilter" filterUnits="userSpaceOnUse" x="0" y="0.1" width="56" height="19.9">
						<feColorMatrix  type="matrix" values="1 0 0 0 0  0 1 0 0 0  0 0 1 0 0  0 0 0 1 0"/>
					</filter>
				</defs>
				<mask maskUnits="userSpaceOnUse" x="0" y="0.1" width="56" height="19.9" id="mask-2_1_">
					<g class="st0">
						<polygon id="path-1_1_" class="st1" points="0,0.1 56,0.1 56,20 0,20 						"/>
					</g>
				</mask>
				<path id="Fill-1" class="st2" d="M56,17.5c0,1.4-1.1,2.5-2.5,2.5h-51C1.1,20,0,18.9,0,17.5V2.6c0-1.4,1.1-2.5,2.5-2.5h51
					c1.4,0,2.5,1.1,2.5,2.5V17.5L56,17.5z"/>
			</g>
			<path id="Fill-4" class="st1" d="M40.4,3.3c-0.9,0-1.7,0.8-1.7,1.8c0,1,0.8,1.8,1.7,1.8c0.9,0,1.7-0.8,1.7-1.8
				C42.1,4.1,41.3,3.3,40.4,3.3L40.4,3.3z M45.2,3.3c-0.9,0-1.7,0.8-1.7,1.8c0,1,0.8,1.8,1.7,1.8c0.9,0,1.7-0.8,1.7-1.8
				C46.9,4.1,46.1,3.3,45.2,3.3L45.2,3.3z M40.4,3c1.1,0,2,0.9,2,2.1c0,1.1-0.9,2.1-2,2.1c-1.1,0-2-0.9-2-2.1S39.3,3,40.4,3L40.4,3z
				 M45.2,3c1.1,0,2,0.9,2,2.1c0,1.1-0.9,2.1-2,2.1c-1.1,0-2-0.9-2-2.1S44.1,3,45.2,3L45.2,3z M50,3c1.1,0,2,0.9,2,2.1
				c0,1.1-0.9,2.1-2,2.1c-1.1,0-2-0.9-2-2.1S48.9,3,50,3L50,3z M21.8,6.7h-0.9v0.7h0.9c0.3,0,0.4-0.1,0.4-0.4
				C22.2,6.9,22.1,6.7,21.8,6.7L21.8,6.7z M10,6.8H9.4v1H10c0.4,0,0.5-0.2,0.5-0.5C10.5,7,10.4,6.8,10,6.8L10,6.8z M6.3,5.9
				c-0.5,0-1,0.4-1,1c0,0.5,0.4,1,1,1c0.5,0,1-0.4,1-1C7.2,6.3,6.8,5.9,6.3,5.9L6.3,5.9z M6.3,5.6c0.7,0,1.3,0.6,1.3,1.3
				S7,8.2,6.3,8.2C5.6,8.2,5,7.6,5,6.9S5.6,5.6,6.3,5.6L6.3,5.6z M25.7,6.9c-0.1,0.3-0.1,0.5-0.3,0.9l-0.1,0.3l-0.1,0.3h1.1
				l-0.1-0.3C25.9,7.5,25.8,7.2,25.7,6.9L25.7,6.9z M13.6,6.9c-0.1,0.3-0.2,0.6-0.4,1.1l-0.1,0.2l-0.1,0.3h1.1L14,8.1
				C13.8,7.5,13.7,7.2,13.6,6.9L13.6,6.9z M21.9,8.2h-1v0.9h1c0.3,0,0.4-0.2,0.4-0.5C22.3,8.4,22.2,8.2,21.9,8.2L21.9,8.2z M10,5.9
				c1,0,1.6,0.4,1.6,1.4c0,1-0.6,1.4-1.5,1.4l-0.1,0H9.4V10H8.3V5.9H10L10,5.9z M14.2,5.9l1.5,4.1h-1.1l-0.2-0.8h-1.4L12.7,10h-1.1
				L13,5.9H14.2z M16.5,5.9l0.3,0.6c0.2,0.4,0.4,0.8,0.5,1.1l0,0c0.1-0.2,0.2-0.5,0.4-0.9l0.1-0.2l0.3-0.6h1.3l-1.5,2.6V10h-1.1V8.5
				l-1.5-2.6H16.5L16.5,5.9z M21.8,5.9c1,0,1.4,0.4,1.4,1.1c0,0.5-0.2,0.7-0.5,0.8c0.4,0.2,0.6,0.4,0.6,0.9c0,0.8-0.5,1.3-1.4,1.3
				l-0.1,0h-2V5.9H21.8L21.8,5.9z M26.3,5.9l1.5,4.1h-1.1l-0.2-0.8H25L24.8,10h-1.1l1.5-4.1H26.3L26.3,5.9z M33.3,5.9v0.5
				c0,0.3,0,0.7,0,1l0,0c0.2-0.2,0.5-0.6,0.7-0.9l0.1-0.1l0.4-0.4h1.3l-1.2,1.5l1.4,2.7h-1.2l-0.9-1.8l0,0l-0.4,0.5V10h-1.2V5.9
				H33.3z M29.8,5.8c0.9,0,1.4,0.4,1.6,1.1l0,0.1l-1,0.4c-0.1-0.4-0.3-0.6-0.7-0.6c-0.5,0-0.7,0.5-0.7,1.1c0,0.6,0.2,1.1,0.7,1.1
				c0.3,0,0.5-0.2,0.7-0.5l0.1-0.1l1,0.5c-0.3,0.5-0.7,1.1-1.7,1.1c-1.2,0-1.9-0.9-1.9-2.1C28,6.6,28.7,5.8,29.8,5.8L29.8,5.8z
				 M40.4,8.2c-0.9,0-1.7,0.8-1.7,1.8c0,1,0.8,1.8,1.7,1.8c0.9,0,1.7-0.8,1.7-1.8C42.1,9,41.3,8.2,40.4,8.2L40.4,8.2z M50,7.9
				c1.1,0,2,0.9,2,2.1s-0.9,2.1-2,2.1c-1.1,0-2-0.9-2-2.1S48.9,7.9,50,7.9L50,7.9z M45.2,7.9c1.1,0,2,0.9,2,2.1s-0.9,2.1-2,2.1
				c-1.1,0-2-0.9-2-2.1S44.1,7.9,45.2,7.9L45.2,7.9z M40.4,7.9c1.1,0,2,0.9,2,2.1s-0.9,2.1-2,2.1c-1.1,0-2-0.9-2-2.1
				S39.3,7.9,40.4,7.9L40.4,7.9z M45.2,13.2c-0.9,0-1.7,0.8-1.7,1.8c0,1,0.8,1.8,1.7,1.8c0.9,0,1.7-0.8,1.7-1.8
				C46.9,14,46.1,13.2,45.2,13.2L45.2,13.2z M40.4,13.2c-0.9,0-1.7,0.8-1.7,1.8c0,1,0.8,1.8,1.7,1.8c0.9,0,1.7-0.8,1.7-1.8
				C42.1,14,41.3,13.2,40.4,13.2L40.4,13.2z M50,12.9c1.1,0,2,0.9,2,2.1c0,1.1-0.9,2.1-2,2.1c-1.1,0-2-0.9-2-2.1
				C48,13.8,48.9,12.9,50,12.9L50,12.9z M45.2,12.9c1.1,0,2,0.9,2,2.1c0,1.1-0.9,2.1-2,2.1c-1.1,0-2-0.9-2-2.1
				C43.2,13.8,44.1,12.9,45.2,12.9L45.2,12.9z M40.4,12.9c1.1,0,2,0.9,2,2.1c0,1.1-0.9,2.1-2,2.1c-1.1,0-2-0.9-2-2.1
				C38.4,13.8,39.3,12.9,40.4,12.9L40.4,12.9z"/>
		</g>
	</g>
</g>
</svg>
