<?xml version="1.0" encoding="utf-8"?>
<!-- Generator: Adobe Illustrator 21.1.0, SVG Export Plug-In . SVG Version: 6.00 Build 0)  -->
<svg version="1.1" id="Layer_1" xmlns="http://www.w3.org/2000/svg" xmlns:xlink="http://www.w3.org/1999/xlink" x="0px" y="0px"
	 viewBox="0 0 1000 500" style="enable-background:new 0 0 1000 500;" xml:space="preserve">
<style type="text/css">
	.st0{fill:#FFFFFF;}
	.st1{fill:#253B80;}
	.st2{fill:#179BD7;}
</style>
<title>vorkasse</title>
<g id="Layer_1-2">
	<rect class="st0" width="1000" height="500"/>
	<path id="_Compound_Path_" class="st1" d="M232.1,208.1c-3.1,20.5-18.8,20.5-34,20.5h-8.6l6.1-38.4c0.4-2.3,2.4-4,4.7-4h4
		c10.3,0,20.1,0,25.1,5.9C232.3,195.6,233.2,200.8,232.1,208.1z M225.5,154.4h-57.2c-3.9,0-7.2,2.9-7.9,6.7L137.2,308
		c-0.4,2.6,1.4,5,4,5.5c0.2,0,0.5,0.1,0.7,0.1h27.3c3.9,0,7.2-2.9,7.9-6.7l6.2-39.6c0.6-3.9,3.9-6.7,7.9-6.7h18.1
		c37.7,0,59.5-18.2,65.2-54.4c2.6-15.8,0.1-28.2-7.3-37C259.1,159.5,244.6,154.4,225.5,154.4L225.5,154.4z"/>
	<path id="_Compound_Path_2" class="st1" d="M358.4,260.8c-2.6,15.7-15.1,26.2-30.9,26.2c-8,0-14.3-2.5-18.4-7.4s-5.6-11.6-4.3-19.3
		c2.2-15.3,15.3-26.5,30.7-26.4c7.8,0,14.1,2.6,18.3,7.5S359.6,253.2,358.4,260.8z M396.6,207.4h-27.4c-2.3,0-4.3,1.7-4.7,4
		l-1.2,7.7l-1.9-2.8c-5.9-8.6-19.2-11.5-32.4-11.5c-30.3,0-56.2,22.9-61.2,55.1c-2.6,16,1.1,31.4,10.2,42.1c8.4,9.8,20.3,14,34.5,14
		c24.4,0,37.9-15.7,37.9-15.7l-1.2,7.6c-0.4,2.6,1.4,5,4,5.5c0.2,0,0.5,0.1,0.7,0.1h24.7c3.9,0,7.2-2.9,7.9-6.7l14.8-93.8
		c0.4-2.6-1.4-5-4-5.4C397.1,207.4,396.9,207.4,396.6,207.4L396.6,207.4z"/>
	<path id="_Path_" class="st1" d="M542.6,207.4h-27.5c-2.6,0-5.1,1.3-6.6,3.5l-38,56l-16.1-53.8c-1-3.4-4.1-5.7-7.6-5.7h-27.1
		c-2.6,0-4.8,2.1-4.8,4.8c0,0.5,0.1,1.1,0.3,1.6l30.3,89L417,343c-1.5,2.1-1,5.1,1.1,6.7c0.8,0.6,1.8,0.9,2.8,0.9h27.5
		c2.6,0,5.1-1.3,6.5-3.4l91.6-132.3c1.5-2.2,0.9-5.1-1.3-6.6C544.5,207.7,543.6,207.4,542.6,207.4z"/>
	<path id="_Compound_Path_3" class="st2" d="M640.4,208.1c-3.1,20.5-18.8,20.5-34,20.5h-8.6l6.1-38.4c0.4-2.3,2.4-4,4.7-4h4
		c10.3,0,20.1,0,25.1,5.9C640.7,195.6,641.6,200.8,640.4,208.1z M633.8,154.4h-57.3c-3.9,0-7.2,2.9-7.8,6.7L545.5,308
		c-0.4,2.6,1.4,5,4,5.5c0.2,0,0.5,0.1,0.7,0.1h29.4c2.7,0,5.1-2,5.5-4.7l6.6-41.6c0.6-3.9,3.9-6.7,7.8-6.7h18.1
		c37.7,0,59.5-18.2,65.2-54.4c2.6-15.8,0.1-28.2-7.3-37C667.4,159.5,653,154.4,633.8,154.4L633.8,154.4z"/>
	<path id="_Compound_Path_4" class="st2" d="M766.7,260.8c-2.6,15.7-15.1,26.2-30.9,26.2c-7.9,0-14.3-2.5-18.4-7.4
		s-5.6-11.6-4.3-19.3c2.5-15.5,15.1-26.4,30.7-26.4c7.8,0,14.1,2.6,18.3,7.5S767.9,253.2,766.7,260.8z M804.9,207.4h-27.4
		c-2.3,0-4.3,1.7-4.7,4l-1.2,7.7l-1.9-2.8c-5.9-8.6-19.2-11.5-32.4-11.5c-30.3,0-56.2,22.9-61.2,55.1c-2.6,16,1.1,31.4,10.2,42.1
		c8.4,9.8,20.3,14,34.5,14c24.4,0,37.9-15.7,37.9-15.7l-1.2,7.6c-0.4,2.6,1.4,5,4,5.5c0.3,0,0.5,0.1,0.8,0.1H787
		c3.9,0,7.2-2.9,7.8-6.7l14.8-93.8c0.4-2.6-1.4-5-4-5.4C805.4,207.4,805.2,207.4,804.9,207.4L804.9,207.4z"/>
	<path id="_Path_2" class="st2" d="M837.2,158.5L813.8,308c-0.4,2.6,1.4,5,4,5.5c0.2,0,0.5,0.1,0.7,0.1h23.6c3.9,0,7.3-2.8,7.9-6.7
		L873.1,160c0.4-2.6-1.4-5-4-5.5c-0.2,0-0.5-0.1-0.7-0.1H842C839.6,154.5,837.6,156.2,837.2,158.5z"/>
</g>
</svg>
