<svg xmlns="http://www.w3.org/2000/svg" viewBox="0 0 1001 1501"><defs><style>.cls-1,.cls-14,.cls-2{fill:none;}.cls-1,.cls-14{stroke:#fff;}.cls-1,.cls-2{stroke-miterlimit:10;}.cls-2{stroke:#b8b6b5;}.cls-3{fill:#253b80;}.cls-4{fill:#179bd7;}.cls-13,.cls-5{fill:#fff;}.cls-5{stroke:#006eb6;stroke-width:5.98px;}.cls-14,.cls-5{stroke-miterlimit:2.61;}.cls-11,.cls-12,.cls-13,.cls-5,.cls-6,.cls-7,.cls-8{fill-rule:evenodd;}.cls-6{fill:#f14937;}.cls-7{fill:#006eb6;}.cls-8{fill:#2e2113;}.cls-9{fill:#1c559b;}.cls-10{fill:#f99536;}.cls-11{fill:#fba43f;}.cls-12{fill:#f03d3d;}.cls-14{stroke-width:0.22px;}</style></defs><title>paypal_etc</title><g id="Layer_2" data-name="Layer 2"><g id="Layer_1-2" data-name="Layer 1"><rect class="cls-1" x="0.5" y="0.5" width="1000" height="1500"/><line class="cls-2" x1="1000.5" y1="500.5" x2="0.5" y2="500.5"/><line class="cls-2" x1="0.5" y1="1000.5" x2="1000.5" y2="1000.5"/><path id="_Compound_Path_" data-name="&lt;Compound Path&gt;" class="cls-3" d="M232.09,206.06c-3.13,20.54-18.83,20.54-34,20.54h-8.64l6.06-38.36a4.77,4.77,0,0,1,4.71-4h4c10.34,0,20.09,0,25.13,5.89C232.32,193.62,233.24,198.84,232.09,206.06Zm-6.6-53.61H168.24a8,8,0,0,0-7.86,6.71L137.22,306a4.77,4.77,0,0,0,4.72,5.51h27.33a8,8,0,0,0,7.86-6.72l6.24-39.59a8,8,0,0,1,7.85-6.72h18.12c37.71,0,59.47-18.25,65.16-54.41,2.56-15.82.11-28.25-7.3-37C259.08,157.5,244.65,152.45,225.48,152.45Z"/><path id="_Compound_Path_2" data-name="&lt;Compound Path&gt;" class="cls-3" d="M358.39,258.75c-2.65,15.66-15.08,26.18-30.93,26.18-8,0-14.32-2.55-18.41-7.39s-5.59-11.64-4.3-19.26a30.69,30.69,0,0,1,30.72-26.38c7.78,0,14.11,2.59,18.28,7.47S359.59,251.17,358.39,258.75Zm38.21-53.35H369.19a4.78,4.78,0,0,0-4.71,4l-1.21,7.67-1.92-2.78c-5.93-8.61-19.17-11.49-32.38-11.49-30.29,0-56.17,22.94-61.21,55.13-2.62,16.05,1.1,31.41,10.21,42.11,8.35,9.84,20.31,13.95,34.53,13.95,24.41,0,37.94-15.69,37.94-15.69l-1.22,7.62a4.77,4.77,0,0,0,4.7,5.52h24.69a8,8,0,0,0,7.86-6.72l14.82-93.83A4.75,4.75,0,0,0,396.61,205.4Z"/><path id="_Path_" data-name="&lt;Path&gt;" class="cls-3" d="M542.61,205.4H515.06a8,8,0,0,0-6.59,3.49l-38,56-16.11-53.78a8,8,0,0,0-7.63-5.67H419.67a4.77,4.77,0,0,0-4.53,6.31l30.34,89L417,341a4.77,4.77,0,0,0,3.89,7.53h27.51a7.94,7.94,0,0,0,6.54-3.42l91.63-132.26A4.77,4.77,0,0,0,542.61,205.4Z"/><path id="_Compound_Path_3" data-name="&lt;Compound Path&gt;" class="cls-4" d="M640.42,206.06c-3.12,20.54-18.82,20.54-34,20.54h-8.63l6.07-38.36a4.75,4.75,0,0,1,4.7-4h4c10.33,0,20.09,0,25.13,5.89C640.65,193.62,641.56,198.84,640.42,206.06Zm-6.6-53.61H576.56a8,8,0,0,0-7.85,6.71L545.55,306a4.76,4.76,0,0,0,4.7,5.51h29.38a5.57,5.57,0,0,0,5.49-4.7l6.57-41.61a8,8,0,0,1,7.85-6.72h18.11c37.72,0,59.47-18.25,65.17-54.41,2.57-15.82.1-28.25-7.31-37C667.4,157.5,653,152.45,633.81,152.45Z"/><path id="_Compound_Path_4" data-name="&lt;Compound Path&gt;" class="cls-4" d="M766.71,258.75c-2.63,15.66-15.08,26.18-30.93,26.18-7.94,0-14.32-2.55-18.41-7.39s-5.57-11.64-4.3-19.26c2.49-15.53,15.11-26.38,30.72-26.38,7.78,0,14.11,2.59,18.28,7.47S767.93,251.17,766.71,258.75Zm38.21-53.35h-27.4a4.75,4.75,0,0,0-4.7,4l-1.21,7.67-1.93-2.78c-5.93-8.61-19.16-11.49-32.37-11.49-30.29,0-56.16,22.94-61.2,55.13-2.61,16.05,1.1,31.41,10.2,42.11,8.37,9.84,20.31,13.95,34.53,13.95,24.41,0,37.94-15.69,37.94-15.69l-1.22,7.62a4.77,4.77,0,0,0,4.72,5.52H787a8,8,0,0,0,7.85-6.72l14.82-93.83A4.78,4.78,0,0,0,804.93,205.4Z"/><path id="_Path_2" data-name="&lt;Path&gt;" class="cls-4" d="M837.24,156.47,813.75,306a4.76,4.76,0,0,0,4.7,5.51h23.62a7.94,7.94,0,0,0,7.86-6.72L873.1,158a4.77,4.77,0,0,0-4.7-5.52H841.95A4.78,4.78,0,0,0,837.24,156.47Z"/><path class="cls-5" d="M348.4,570.57H652.59c20.92,0,38,16,38,35.45V895c0,19.5-17.11,35.45-38,35.45H348.4c-20.92,0-38-16-38-35.45V606c0-19.5,17.11-35.45,38-35.45Z"/><path class="cls-6" d="M650.62,892.65H495.48c-12.71,0-21.33-12.71-21.33-21.76,0-8.4.22-231,0-239.6s14.87-22,25-22c10.13.22,151.26,0,151.26,0V721.58H568.09V668.36s-5.39-.22-12.28,0c-3.45.22-9.27,3.66-9.27,9.27-.22,11.63,0,146.08,0,149.53,0,3.23,2.15,7.54,9.27,7.76a98.86,98.86,0,0,0,12.5,0V777.38h82.31V892.65Z"/><path class="cls-7" d="M377.84,609.32c17,.22,141.13,0,141.13,0V777.38L425,777.17v49.34a11.33,11.33,0,0,0,10.77,8.62h11.63V793.54h71.75L519,892.65H377.19s-21.33-3.45-23.27-24.13c.22-7.76,0-233.78,0-237.66,0-3.66,8.19-21.55,23.92-21.55Zm69.81,58.61s-6.25-.43-11.85-.22C430,667.93,425,673.53,425,677v44.6h22.62V667.93Z"/><path class="cls-8" d="M519.18,793.54h-45v77.35c0,8.83,8.62,21.55,21.11,21.76H519l.22-99.11Z"/><path class="cls-8" d="M519,777.38V609.32H499.14c-10.13,0-25.21,13.36-25,22V777.38Z"/><polygon class="cls-9" points="246.56 1300.63 263.6 1200.63 290.86 1200.63 273.81 1300.63 246.56 1300.63"/><path class="cls-9" d="M372.67,1203.09a70.4,70.4,0,0,0-24.43-4.2c-26.93,0-45.91,13.56-46.07,33-.15,14.37,13.54,22.39,23.88,27.17,10.61,4.9,14.18,8,14.13,12.4-.07,6.7-8.47,9.77-16.31,9.77-10.91,0-16.71-1.52-25.66-5.25l-3.51-1.59-3.83,22.39c6.37,2.79,18.14,5.21,30.36,5.34,28.65,0,47.25-13.41,47.46-34.17.1-11.38-7.16-20-22.88-27.17-9.53-4.63-15.36-7.71-15.3-12.4,0-4.16,4.94-8.6,15.61-8.6a50.28,50.28,0,0,1,20.4,3.83l2.44,1.15,3.69-21.67"/><path class="cls-9" d="M442.56,1200.72H421.5c-6.53,0-11.41,1.78-14.27,8.29l-40.48,91.65h28.62s4.68-12.32,5.74-15l34.91,0c.82,3.5,3.32,15,3.32,15h25.29l-22.06-99.94M409,1265.18c2.25-5.76,10.86-28,10.86-28-.16.27,2.24-5.79,3.61-9.54l1.84,8.62s5.22,23.87,6.31,28.88Z"/><path class="cls-9" d="M223.7,1200.7,197,1268.89,194.17,1255c-5-16-20.45-33.28-37.75-41.95l24.4,87.46,28.84,0,42.91-99.81H223.7"/><path class="cls-10" d="M172.25,1200.64h-44l-.35,2.08c34.2,8.28,56.82,28.28,66.21,52.32l-9.56-46c-1.65-6.33-6.44-8.22-12.36-8.44"/><polygon class="cls-11" points="769.96 1353.4 775.27 1353.26 780.51 1352.88 785.65 1352.22 790.75 1351.32 795.71 1350.17 800.61 1348.78 805.4 1347.15 810.08 1345.31 814.66 1343.23 819.11 1340.97 823.41 1338.47 827.61 1335.8 831.64 1332.92 835.53 1329.87 839.27 1326.64 842.85 1323.2 846.29 1319.63 849.51 1315.88 852.57 1311.99 855.45 1307.96 858.12 1303.76 860.62 1299.46 862.88 1295.02 864.96 1290.43 866.8 1285.75 868.43 1280.96 869.82 1276.07 870.97 1271.1 871.87 1266 872.53 1260.86 872.91 1255.62 873.05 1250.31 872.91 1245.03 872.53 1239.83 871.87 1234.69 870.97 1229.66 869.82 1224.69 868.43 1219.83 866.8 1215.04 864.96 1210.39 862.88 1205.85 860.62 1201.4 858.12 1197.13 855.45 1192.93 852.57 1188.91 849.51 1185.05 846.29 1181.31 842.85 1177.73 839.27 1174.33 835.53 1171.1 831.64 1168.05 827.61 1165.16 823.41 1162.49 819.11 1160.03 814.66 1157.77 810.08 1155.69 805.4 1153.85 800.61 1152.22 795.71 1150.83 790.75 1149.68 785.65 1148.78 780.51 1148.12 775.27 1147.74 769.96 1147.6 764.68 1147.74 759.44 1148.12 754.3 1148.78 749.24 1149.68 744.27 1150.83 739.38 1152.22 734.62 1153.85 729.94 1155.69 725.39 1157.77 720.98 1160.03 716.68 1162.49 712.51 1165.16 708.49 1168.05 704.6 1171.1 700.88 1174.33 697.31 1177.73 693.91 1181.31 690.68 1185.05 687.62 1188.91 684.78 1192.93 682.1 1197.13 679.64 1201.4 677.35 1205.85 675.3 1210.39 673.46 1215.04 671.87 1219.83 670.48 1224.69 669.33 1229.66 668.43 1234.69 667.77 1239.83 667.39 1245.03 667.25 1250.31 667.39 1255.62 667.77 1260.86 668.43 1266 669.33 1271.1 670.48 1276.07 671.87 1280.96 673.46 1285.75 675.3 1290.43 677.35 1295.02 679.64 1299.46 682.1 1303.76 684.78 1307.96 687.62 1311.99 690.68 1315.88 693.91 1319.63 697.31 1323.2 700.88 1326.64 704.6 1329.87 708.49 1332.92 712.51 1335.8 716.68 1338.47 720.98 1340.97 725.39 1343.23 729.94 1345.31 734.62 1347.15 739.38 1348.78 744.27 1350.17 749.24 1351.32 754.3 1352.22 759.44 1352.88 764.68 1353.26 769.96 1353.4 769.96 1353.4 769.96 1353.4"/><polygon class="cls-12" points="632.29 1353.4 637.57 1353.26 642.81 1352.88 647.95 1352.22 653.02 1351.32 657.98 1350.17 662.88 1348.78 667.63 1347.15 672.32 1345.31 676.86 1343.23 681.27 1340.97 685.58 1338.47 689.74 1335.8 693.77 1332.92 697.65 1329.87 701.37 1326.64 704.94 1323.2 708.35 1319.63 711.57 1315.88 714.63 1311.99 717.47 1307.96 720.15 1303.76 722.61 1299.46 724.9 1295.02 726.95 1290.43 728.79 1285.75 730.39 1280.96 731.77 1276.07 732.92 1271.1 733.82 1266 734.48 1260.86 734.87 1255.62 735 1250.31 734.87 1245.03 734.48 1239.83 733.82 1234.69 732.92 1229.66 731.77 1224.69 730.39 1219.83 728.79 1215.04 726.95 1210.39 724.9 1205.85 722.61 1201.4 720.15 1197.13 717.47 1192.93 714.63 1188.91 711.57 1185.05 708.35 1181.31 704.94 1177.73 701.37 1174.33 697.65 1171.1 693.77 1168.05 689.74 1165.16 685.58 1162.49 681.27 1160.03 676.86 1157.77 672.32 1155.69 667.63 1153.85 662.88 1152.22 657.98 1150.83 653.02 1149.68 647.95 1148.78 642.81 1148.12 637.57 1147.74 632.29 1147.6 626.98 1147.74 621.74 1148.12 616.61 1148.78 611.5 1149.68 606.54 1150.83 601.65 1152.22 596.86 1153.85 592.17 1155.69 587.59 1157.77 583.14 1160.03 578.84 1162.49 574.64 1165.16 570.61 1168.05 566.73 1171.1 562.98 1174.33 559.4 1177.73 555.97 1181.31 552.74 1185.05 549.68 1188.91 546.8 1192.93 544.13 1197.13 541.63 1201.4 539.37 1205.85 537.29 1210.39 535.45 1215.04 533.82 1219.83 532.43 1224.69 531.29 1229.66 530.38 1234.69 529.73 1239.83 529.34 1245.03 529.21 1250.31 529.34 1255.62 529.73 1260.86 530.38 1266 531.29 1271.1 532.43 1276.07 533.82 1280.96 535.45 1285.75 537.29 1290.43 539.37 1295.02 541.63 1299.46 544.13 1303.76 546.8 1307.96 549.68 1311.99 552.74 1315.88 555.97 1319.63 559.4 1323.2 562.98 1326.64 566.73 1329.87 570.61 1332.92 574.64 1335.8 578.84 1338.47 583.14 1340.97 587.59 1343.23 592.17 1345.31 596.86 1347.15 601.65 1348.78 606.54 1350.17 611.5 1351.32 616.61 1352.22 621.74 1352.88 626.98 1353.26 632.29 1353.4 632.29 1353.4 632.29 1353.4"/><polygon class="cls-11" points="689.08 1187.07 743.75 1187.07 743.75 1181.48 693.8 1181.48 689.08 1187.07 689.08 1187.07 689.08 1187.07"/><polygon class="cls-11" points="680.89 1199.49 743.75 1199.49 743.75 1193.9 684.19 1193.9 680.89 1199.49 680.89 1199.49 680.89 1199.49"/><polygon class="cls-11" points="674.78 1211.88 743.75 1211.88 743.75 1206.3 677.21 1206.3 674.78 1211.88 674.78 1211.88 674.78 1211.88"/><polygon class="cls-11" points="670.58 1224.31 743.75 1224.31 743.75 1218.72 672.32 1218.72 670.58 1224.31 670.58 1224.31 670.58 1224.31"/><polygon class="cls-11" points="673.01 1284.36 743.92 1284.36 743.92 1278.77 671.27 1278.77 673.01 1284.36 673.01 1284.36 673.01 1284.36"/><polygon class="cls-11" points="678.25 1296.79 743.92 1296.79 743.92 1291.2 675.65 1291.2 678.25 1296.79 678.25 1296.79 678.25 1296.79"/><polygon class="cls-11" points="685.61 1309.18 743.92 1309.18 743.92 1303.59 682.1 1303.59 685.61 1309.18 685.61 1309.18 685.61 1309.18"/><polygon class="cls-11" points="695.75 1321.61 743.92 1321.61 743.92 1315.98 690.85 1315.98 695.75 1321.61 695.75 1321.61 695.75 1321.61"/><polygon class="cls-11" points="668.12 1236.7 743.75 1236.7 743.75 1231.12 669.19 1231.12 668.12 1236.7 668.12 1236.7 668.12 1236.7"/><polygon class="cls-11" points="714.21 1271.97 743.06 1271.97 743.06 1266.38 715.25 1266.38 714.21 1271.97 714.21 1271.97 714.21 1271.97"/><polygon class="cls-11" points="716.5 1259.58 743.06 1259.58 743.06 1253.95 717.54 1253.95 716.5 1259.58 716.5 1259.58 716.5 1259.58"/><polygon class="cls-11" points="666.21 1253.95 673.71 1253.95 673.71 1259.58 666.55 1259.58 666.21 1253.95 666.21 1253.95 666.21 1253.95"/><polygon class="cls-13" points="652.22 1247.19 651.73 1247.15 651.25 1247.08 650.79 1247.01 650.34 1246.94 649.93 1246.87 649.48 1246.8 649.02 1246.73 648.54 1246.66 648.05 1246.6 647.5 1246.56 646.87 1246.53 646.21 1246.49 645.49 1246.49 644.69 1246.53 643.78 1246.6 642.78 1246.66 642.08 1246.77 641.42 1246.87 640.83 1247.08 640.31 1247.29 639.83 1247.53 639.38 1247.81 639.03 1248.16 638.72 1248.47 638.51 1248.85 638.33 1249.23 638.26 1249.65 638.26 1250.07 638.37 1250.52 638.51 1250.97 638.79 1251.42 639.13 1251.87 639.83 1252.53 640.66 1253.05 641.63 1253.5 642.67 1253.88 643.78 1254.23 644.93 1254.61 646.08 1255.03 647.19 1255.48 648.23 1256.07 649.2 1256.8 650.07 1257.67 650.79 1258.74 651.35 1260.06 651.7 1261.63 651.84 1263.5 651.7 1265.69 651.46 1267.32 651.04 1268.74 650.48 1270.06 649.79 1271.2 648.99 1272.21 648.09 1273.08 647.12 1273.84 646.04 1274.5 644.93 1275.02 643.78 1275.47 642.6 1275.82 641.39 1276.1 640.21 1276.31 639.06 1276.41 637.92 1276.48 636.84 1276.52 635.35 1276.52 633.96 1276.48 632.75 1276.48 631.6 1276.45 630.56 1276.41 629.62 1276.34 628.79 1276.27 627.99 1276.17 627.26 1276.1 626.6 1275.96 625.94 1275.86 625.35 1275.68 624.76 1275.54 624.21 1275.34 623.65 1275.13 623.06 1274.92 624.62 1267.25 624.94 1267.32 625.32 1267.42 625.8 1267.56 626.39 1267.7 627.02 1267.84 627.71 1267.98 628.48 1268.15 629.31 1268.29 630.18 1268.43 631.08 1268.57 632.02 1268.67 632.99 1268.78 634 1268.81 635 1268.85 636.01 1268.85 637.02 1268.81 638.02 1268.6 638.82 1268.32 639.45 1267.94 639.93 1267.46 640.28 1266.97 640.56 1266.41 640.73 1265.86 640.87 1265.34 640.94 1264.33 640.63 1263.46 640.03 1262.77 639.17 1262.18 638.13 1261.66 636.91 1261.14 635.56 1260.65 634.2 1260.1 632.82 1259.47 631.5 1258.74 630.28 1257.84 629.17 1256.77 628.3 1255.45 627.68 1253.88 627.37 1252.01 627.4 1249.79 627.57 1248.43 627.82 1247.15 628.16 1245.97 628.58 1244.86 629.14 1243.82 629.76 1242.92 630.49 1242.05 631.36 1241.29 632.36 1240.63 633.48 1240.07 634.72 1239.55 636.11 1239.17 637.67 1238.86 639.38 1238.61 641.25 1238.47 643.3 1238.44 644.58 1238.44 645.76 1238.47 646.84 1238.51 647.81 1238.54 648.68 1238.61 649.48 1238.68 650.17 1238.75 650.79 1238.82 651.39 1238.89 651.87 1238.99 652.32 1239.06 652.74 1239.13 653.09 1239.2 653.4 1239.24 653.71 1239.31 653.99 1239.34 652.22 1247.19 652.22 1247.19 652.22 1247.19"/><polyline class="cls-14" points="652.22 1247.19 652.22 1247.19 651.73 1247.15 651.25 1247.08 650.79 1247.01 650.34 1246.94 649.93 1246.87 649.48 1246.8 649.02 1246.73 648.54 1246.66 648.05 1246.6 647.5 1246.56 646.87 1246.53 646.21 1246.49 645.49 1246.49 644.69 1246.53 643.78 1246.6 642.78 1246.66 642.78 1246.66 642.08 1246.77 641.42 1246.87 640.83 1247.08 640.31 1247.29 639.83 1247.53 639.38 1247.81 639.03 1248.16 638.72 1248.47 638.51 1248.85 638.33 1249.23 638.26 1249.65 638.26 1250.07 638.37 1250.52 638.51 1250.97 638.79 1251.42 639.13 1251.87 639.13 1251.87 639.83 1252.53 640.66 1253.05 641.63 1253.5 642.67 1253.88 643.78 1254.23 644.93 1254.61 646.08 1255.03 647.19 1255.48 648.23 1256.07 649.2 1256.8 650.07 1257.67 650.79 1258.74 651.35 1260.06 651.7 1261.63 651.84 1263.5 651.7 1265.69 651.7 1265.69 651.46 1267.32 651.04 1268.74 650.48 1270.06 649.79 1271.2 648.99 1272.21 648.09 1273.08 647.12 1273.84 646.04 1274.5 644.93 1275.02 643.78 1275.47 642.6 1275.82 641.39 1276.1 640.21 1276.31 639.06 1276.41 637.92 1276.48 636.84 1276.52 636.84 1276.52 635.35 1276.52 633.96 1276.48 632.75 1276.48 631.6 1276.45 630.56 1276.41 629.62 1276.34 628.79 1276.27 627.99 1276.17 627.26 1276.1 626.6 1275.96 625.94 1275.86 625.35 1275.68 624.76 1275.54 624.21 1275.34 623.65 1275.13 623.06 1274.92 624.62 1267.25 624.62 1267.25 624.94 1267.32 625.32 1267.42 625.8 1267.56 626.39 1267.7 627.02 1267.84 627.71 1267.98 628.48 1268.15 629.31 1268.29 630.18 1268.43 631.08 1268.57 632.02 1268.67 632.99 1268.78 634 1268.81 635 1268.85 636.01 1268.85 637.02 1268.81 637.02 1268.81 638.02 1268.6 638.82 1268.32 639.45 1267.94 639.93 1267.46 640.28 1266.97 640.56 1266.41 640.73 1265.86 640.87 1265.34 640.87 1265.34 640.94 1264.33 640.63 1263.46 640.03 1262.77 639.17 1262.18 638.13 1261.66 636.91 1261.14 635.56 1260.65 634.2 1260.1 632.82 1259.47 631.5 1258.74 630.28 1257.84 629.17 1256.77 628.3 1255.45 627.68 1253.88 627.37 1252.01 627.4 1249.79 627.4 1249.79 627.57 1248.43 627.82 1247.15 628.16 1245.97 628.58 1244.86 629.14 1243.82 629.76 1242.92 630.49 1242.05 631.36 1241.29 632.36 1240.63 633.48 1240.07 634.72 1239.55 636.11 1239.17 637.67 1238.86 639.38 1238.61 641.25 1238.47 643.3 1238.44 643.3 1238.44 644.58 1238.44 645.76 1238.47 646.84 1238.51 647.81 1238.54 648.68 1238.61 649.48 1238.68 650.17 1238.75 650.79 1238.82 651.39 1238.89 651.87 1238.99 652.32 1239.06 652.74 1239.13 653.09 1239.2 653.4 1239.24 653.71 1239.31 653.99 1239.34 652.22 1247.19"/><polygon class="cls-13" points="660.45 1230.77 670.06 1230.77 668.64 1239.17 674.43 1239.17 673.18 1247.01 667.08 1246.84 663.74 1266.21 663.71 1266.9 663.88 1267.49 664.23 1267.94 664.68 1268.32 665.3 1268.57 666 1268.78 666.76 1268.91 667.6 1268.98 668.36 1268.95 669.05 1268.88 669.68 1268.78 670.23 1268.64 670.68 1268.5 671 1268.39 671.21 1268.32 671.27 1268.29 670.06 1274.75 669.82 1274.92 669.57 1275.06 669.33 1275.2 669.09 1275.34 668.85 1275.44 668.57 1275.54 668.25 1275.65 667.94 1275.75 667.6 1275.86 667.25 1275.93 666.83 1275.99 666.42 1276.07 665.96 1276.13 665.44 1276.2 664.89 1276.27 664.3 1276.34 661.66 1276.34 660.27 1276.24 659.06 1276.1 657.95 1275.89 657.01 1275.65 656.21 1275.34 655.55 1274.99 654.96 1274.57 654.51 1274.12 654.16 1273.63 653.92 1273.05 653.75 1272.45 653.64 1271.8 653.61 1271.07 653.61 1270.3 653.71 1269.51 653.82 1268.64 660.45 1230.77 660.45 1230.77 660.45 1230.77"/><polyline class="cls-14" points="660.45 1230.77 670.06 1230.77 668.64 1239.17 674.43 1239.17 673.18 1247.01 667.08 1246.84 663.74 1266.21 663.74 1266.21 663.71 1266.9 663.88 1267.49 664.23 1267.94 664.68 1268.32 665.3 1268.57 666 1268.78 666.76 1268.91 667.6 1268.98 667.6 1268.98 668.36 1268.95 669.05 1268.88 669.68 1268.78 670.23 1268.64 670.68 1268.5 671 1268.39 671.21 1268.32 671.27 1268.29 670.06 1274.75 670.06 1274.75 669.82 1274.92 669.57 1275.06 669.33 1275.2 669.09 1275.34 668.85 1275.44 668.57 1275.54 668.25 1275.65 667.94 1275.75 667.6 1275.86 667.25 1275.93 666.83 1275.99 666.42 1276.07 665.96 1276.13 665.44 1276.2 664.89 1276.27 664.3 1276.34 661.66 1276.34 661.66 1276.34 660.27 1276.24 659.06 1276.1 657.95 1275.89 657.01 1275.65 656.21 1275.34 655.55 1274.99 654.96 1274.57 654.51 1274.12 654.16 1273.63 653.92 1273.05 653.75 1272.45 653.64 1271.8 653.61 1271.07 653.61 1270.3 653.71 1269.51 653.82 1268.64 660.45 1230.77"/><polygon class="cls-13" points="682.1 1260.1 682 1260.69 681.97 1261.31 682.03 1261.97 682.17 1262.63 682.42 1263.29 682.7 1263.92 683.08 1264.58 683.49 1265.16 683.98 1265.76 684.5 1266.28 685.05 1266.8 685.68 1267.21 686.3 1267.6 687 1267.91 687.69 1268.15 688.39 1268.29 689.29 1268.43 690.16 1268.53 691.06 1268.64 691.96 1268.71 692.87 1268.74 693.8 1268.74 694.71 1268.71 695.64 1268.64 696.58 1268.5 697.52 1268.32 698.49 1268.12 699.42 1267.8 700.4 1267.42 701.4 1267.01 702.38 1266.45 703.38 1265.86 701.99 1274.4 701.44 1274.68 700.88 1274.95 700.33 1275.16 699.81 1275.37 699.29 1275.54 698.73 1275.72 698.18 1275.86 697.59 1275.96 696.96 1276.07 696.27 1276.13 695.54 1276.2 694.74 1276.27 693.84 1276.31 692.9 1276.31 691.82 1276.34 690.68 1276.34 688.98 1276.31 687.24 1276.13 685.51 1275.89 683.77 1275.47 682.07 1274.95 680.44 1274.29 678.88 1273.43 677.42 1272.42 676.07 1271.24 674.88 1269.82 673.88 1268.22 673.04 1266.38 672.46 1264.33 672.07 1262.01 671.97 1259.44 672.14 1256.59 672.28 1255.48 672.49 1254.2 672.77 1252.84 673.15 1251.39 673.67 1249.89 674.29 1248.4 675.09 1246.87 676.07 1245.41 677.18 1244.03 678.53 1242.71 680.06 1241.53 681.79 1240.49 683.8 1239.62 686.06 1238.99 688.56 1238.58 691.37 1238.44 692.73 1238.47 694.15 1238.61 695.57 1238.86 697 1239.2 698.38 1239.72 699.74 1240.35 700.99 1241.18 702.13 1242.15 703.17 1243.33 704.04 1244.72 704.74 1246.32 705.22 1248.16 705.5 1250.24 705.53 1252.6 705.29 1255.24 704.77 1258.15 704.6 1260.27 679.29 1260.27 680.89 1253.43 696.09 1253.43 696.16 1252.57 696.13 1251.73 696.06 1250.97 695.92 1250.28 695.68 1249.62 695.43 1249.03 695.09 1248.51 694.74 1248.02 694.32 1247.6 693.87 1247.26 693.35 1246.94 692.83 1246.66 692.27 1246.46 691.72 1246.32 691.13 1246.21 690.5 1246.14 689.85 1246.18 689.22 1246.28 688.63 1246.42 688.04 1246.63 687.45 1246.91 686.93 1247.22 686.41 1247.6 685.96 1248.02 685.51 1248.51 685.09 1249.03 684.71 1249.58 684.4 1250.17 684.08 1250.8 683.84 1251.49 683.63 1252.18 683.49 1252.91 682.1 1260.1 682.1 1260.1 682.1 1260.1"/><polyline class="cls-14" points="682.1 1260.1 682.1 1260.1 682 1260.69 681.97 1261.31 682.03 1261.97 682.17 1262.63 682.42 1263.29 682.7 1263.92 683.08 1264.58 683.49 1265.16 683.98 1265.76 684.5 1266.28 685.05 1266.8 685.68 1267.21 686.3 1267.6 687 1267.91 687.69 1268.15 688.39 1268.29 688.39 1268.29 689.29 1268.43 690.16 1268.53 691.06 1268.64 691.96 1268.71 692.87 1268.74 693.8 1268.74 694.71 1268.71 695.64 1268.64 696.58 1268.5 697.52 1268.32 698.49 1268.12 699.42 1267.8 700.4 1267.42 701.4 1267.01 702.38 1266.45 703.38 1265.86 701.99 1274.4 701.99 1274.4 701.44 1274.68 700.88 1274.95 700.33 1275.16 699.81 1275.37 699.29 1275.54 698.73 1275.72 698.18 1275.86 697.59 1275.96 696.96 1276.07 696.27 1276.13 695.54 1276.2 694.74 1276.27 693.84 1276.31 692.9 1276.31 691.82 1276.34 690.68 1276.34 690.68 1276.34 688.98 1276.31 687.24 1276.13 685.51 1275.89 683.77 1275.47 682.07 1274.95 680.44 1274.29 678.88 1273.43 677.42 1272.42 676.07 1271.24 674.88 1269.82 673.88 1268.22 673.04 1266.38 672.46 1264.33 672.07 1262.01 671.97 1259.44 672.14 1256.59 672.14 1256.59 672.28 1255.48 672.49 1254.2 672.77 1252.84 673.15 1251.39 673.67 1249.89 674.29 1248.4 675.09 1246.87 676.07 1245.41 677.18 1244.03 678.53 1242.71 680.06 1241.53 681.79 1240.49 683.8 1239.62 686.06 1238.99 688.56 1238.58 691.37 1238.44 691.37 1238.44 692.73 1238.47 694.15 1238.61 695.57 1238.86 697 1239.2 698.38 1239.72 699.74 1240.35 700.99 1241.18 702.13 1242.15 703.17 1243.33 704.04 1244.72 704.74 1246.32 705.22 1248.16 705.5 1250.24 705.53 1252.6 705.29 1255.24 704.77 1258.15 704.6 1260.27 679.29 1260.27 680.89 1253.43 696.09 1253.43 696.09 1253.43 696.16 1252.57 696.13 1251.73 696.06 1250.97 695.92 1250.28 695.68 1249.62 695.43 1249.03 695.09 1248.51 694.74 1248.02 694.32 1247.6 693.87 1247.26 693.35 1246.94 692.83 1246.66 692.27 1246.46 691.72 1246.32 691.13 1246.21 690.5 1246.14 690.5 1246.14 689.85 1246.18 689.22 1246.28 688.63 1246.42 688.04 1246.63 687.45 1246.91 686.93 1247.22 686.41 1247.6 685.96 1248.02 685.51 1248.51 685.09 1249.03 684.71 1249.58 684.4 1250.17 684.08 1250.8 683.84 1251.49 683.63 1252.18 683.49 1252.91 682.1 1260.1"/><polygon class="cls-13" points="764.89 1241.25 764.44 1241.01 763.99 1240.8 763.5 1240.56 762.98 1240.31 762.46 1240.11 761.87 1239.9 761.28 1239.69 760.65 1239.48 760 1239.31 759.34 1239.17 758.61 1239.03 757.88 1238.92 757.08 1238.86 756.28 1238.79 755.45 1238.79 754.58 1238.79 753.71 1238.79 752.81 1238.86 751.87 1238.96 750.9 1239.13 749.93 1239.41 748.96 1239.79 747.99 1240.28 747.01 1240.9 746.08 1241.67 745.17 1242.57 744.31 1243.68 743.47 1244.96 742.71 1246.49 741.98 1248.23 741.32 1250.17 740.77 1252.39 740.56 1253.64 740.42 1254.86 740.35 1256.07 740.38 1257.25 740.49 1258.43 740.73 1259.54 741.04 1260.58 741.42 1261.63 741.95 1262.56 742.57 1263.46 743.3 1264.26 744.13 1264.99 745.07 1265.62 746.15 1266.14 747.33 1266.59 748.64 1266.9 749.1 1267.01 749.62 1267.11 750.24 1267.18 750.94 1267.25 751.7 1267.32 752.5 1267.32 753.37 1267.32 754.23 1267.25 755.14 1267.14 756.04 1266.97 756.91 1266.73 757.77 1266.45 758.64 1266.07 759.44 1265.62 760.17 1265.06 760.86 1264.44 759.3 1273.7 759.09 1273.88 758.88 1274.09 758.61 1274.33 758.29 1274.54 757.91 1274.82 757.43 1275.06 756.87 1275.3 756.25 1275.51 755.45 1275.75 754.54 1275.93 753.5 1276.07 752.29 1276.2 750.94 1276.27 749.37 1276.31 747.6 1276.27 745.66 1276.17 744.06 1275.99 742.47 1275.65 740.87 1275.13 739.27 1274.43 737.75 1273.6 736.29 1272.56 734.9 1271.34 733.62 1269.95 732.47 1268.39 731.5 1266.66 730.66 1264.71 730.04 1262.6 729.62 1260.27 729.48 1257.81 729.55 1255.1 729.94 1252.22 730.21 1250.8 730.53 1249.41 730.87 1248.05 731.22 1246.77 731.6 1245.55 732.05 1244.34 732.5 1243.19 732.99 1242.12 733.51 1241.04 734.03 1240.04 734.62 1239.06 735.25 1238.16 735.87 1237.29 736.57 1236.46 737.26 1235.7 737.99 1234.97 738.79 1234.27 739.59 1233.61 740.42 1233.02 741.29 1232.47 742.22 1231.95 743.16 1231.5 744.13 1231.08 745.14 1230.7 746.22 1230.35 747.29 1230.07 748.4 1229.83 749.58 1229.62 750.76 1229.45 752.01 1229.31 753.26 1229.24 754.58 1229.21 755.69 1229.24 756.77 1229.31 757.81 1229.41 758.85 1229.55 759.82 1229.69 760.76 1229.9 761.66 1230.07 762.49 1230.28 763.29 1230.49 763.99 1230.7 764.65 1230.91 765.2 1231.12 765.69 1231.29 766.1 1231.43 766.42 1231.57 766.63 1231.64 764.89 1241.25 764.89 1241.25 764.89 1241.25"/><polyline class="cls-14" points="764.89 1241.25 764.89 1241.25 764.44 1241.01 763.99 1240.8 763.5 1240.56 762.98 1240.31 762.46 1240.11 761.87 1239.9 761.28 1239.69 760.65 1239.48 760 1239.31 759.34 1239.17 758.61 1239.03 757.88 1238.92 757.08 1238.86 756.28 1238.79 755.45 1238.79 754.58 1238.79 754.58 1238.79 753.71 1238.79 752.81 1238.86 751.87 1238.96 750.9 1239.13 749.93 1239.41 748.96 1239.79 747.99 1240.28 747.01 1240.9 746.08 1241.67 745.17 1242.57 744.31 1243.68 743.47 1244.96 742.71 1246.49 741.98 1248.23 741.32 1250.17 740.77 1252.39 740.77 1252.39 740.56 1253.64 740.42 1254.86 740.35 1256.07 740.38 1257.25 740.49 1258.43 740.73 1259.54 741.04 1260.58 741.42 1261.63 741.95 1262.56 742.57 1263.46 743.3 1264.26 744.13 1264.99 745.07 1265.62 746.15 1266.14 747.33 1266.59 748.64 1266.9 748.64 1266.9 749.1 1267.01 749.62 1267.11 750.24 1267.18 750.94 1267.25 751.7 1267.32 752.5 1267.32 753.37 1267.32 754.23 1267.25 755.14 1267.14 756.04 1266.97 756.91 1266.73 757.77 1266.45 758.64 1266.07 759.44 1265.62 760.17 1265.06 760.86 1264.44 759.3 1273.7 759.3 1273.7 759.09 1273.88 758.88 1274.09 758.61 1274.33 758.29 1274.54 757.91 1274.82 757.43 1275.06 756.87 1275.3 756.25 1275.51 755.45 1275.75 754.54 1275.93 753.5 1276.07 752.29 1276.2 750.94 1276.27 749.37 1276.31 747.6 1276.27 745.66 1276.17 745.66 1276.17 744.06 1275.99 742.47 1275.65 740.87 1275.13 739.27 1274.43 737.75 1273.6 736.29 1272.56 734.9 1271.34 733.62 1269.95 732.47 1268.39 731.5 1266.66 730.66 1264.71 730.04 1262.6 729.62 1260.27 729.48 1257.81 729.55 1255.1 729.94 1252.22 729.94 1252.22 730.21 1250.8 730.53 1249.41 730.87 1248.05 731.22 1246.77 731.6 1245.55 732.05 1244.34 732.5 1243.19 732.99 1242.12 733.51 1241.04 734.03 1240.04 734.62 1239.06 735.25 1238.16 735.87 1237.29 736.57 1236.46 737.26 1235.7 737.99 1234.97 738.79 1234.27 739.59 1233.61 740.42 1233.02 741.29 1232.47 742.22 1231.95 743.16 1231.5 744.13 1231.08 745.14 1230.7 746.22 1230.35 747.29 1230.07 748.4 1229.83 749.58 1229.62 750.76 1229.45 752.01 1229.31 753.26 1229.24 754.58 1229.21 754.58 1229.21 755.69 1229.24 756.77 1229.31 757.81 1229.41 758.85 1229.55 759.82 1229.69 760.76 1229.9 761.66 1230.07 762.49 1230.28 763.29 1230.49 763.99 1230.7 764.65 1230.91 765.2 1231.12 765.69 1231.29 766.1 1231.43 766.42 1231.57 766.63 1231.64 764.89 1241.25"/><polygon class="cls-13" points="850.35 1276.34 840.73 1276.34 841.43 1272.49 841.43 1272.14 840.87 1272.84 840.28 1273.46 839.69 1274.02 839.07 1274.5 838.44 1274.95 837.82 1275.34 837.19 1275.65 836.53 1275.96 835.87 1276.2 835.21 1276.38 834.55 1276.55 833.86 1276.65 833.16 1276.76 832.51 1276.83 831.81 1276.86 831.12 1276.86 829.31 1276.72 827.65 1276.34 826.12 1275.75 824.73 1274.95 823.48 1273.95 822.37 1272.77 821.4 1271.48 820.57 1270.03 819.87 1268.46 819.32 1266.83 818.93 1265.13 818.66 1263.36 818.55 1261.59 818.59 1259.79 818.76 1258.02 819.07 1256.24 819.59 1254.2 820.22 1252.25 820.95 1250.48 821.82 1248.82 822.72 1247.26 823.76 1245.87 824.84 1244.62 825.98 1243.47 827.2 1242.46 828.48 1241.6 829.8 1240.83 831.12 1240.24 832.51 1239.76 833.89 1239.44 835.28 1239.24 836.71 1239.17 837.71 1239.2 838.68 1239.31 839.59 1239.48 840.42 1239.72 841.22 1240 841.91 1240.31 842.61 1240.69 843.23 1241.08 843.79 1241.49 844.31 1241.94 844.76 1242.4 845.17 1242.85 845.52 1243.3 845.84 1243.75 846.11 1244.17 846.32 1244.58 846.32 1244.58 848.75 1230.94 858.19 1230.94 850.35 1276.34 850.35 1276.34 850.35 1276.34"/><polyline class="cls-14" points="850.35 1276.34 840.73 1276.34 841.43 1272.49 841.43 1272.14 841.43 1272.14 840.87 1272.84 840.28 1273.46 839.69 1274.02 839.07 1274.5 838.44 1274.95 837.82 1275.34 837.19 1275.65 836.53 1275.96 835.87 1276.2 835.21 1276.38 834.55 1276.55 833.86 1276.65 833.16 1276.76 832.51 1276.83 831.81 1276.86 831.12 1276.86 831.12 1276.86 829.31 1276.72 827.65 1276.34 826.12 1275.75 824.73 1274.95 823.48 1273.95 822.37 1272.77 821.4 1271.48 820.57 1270.03 819.87 1268.46 819.32 1266.83 818.93 1265.13 818.66 1263.36 818.55 1261.59 818.59 1259.79 818.76 1258.02 819.07 1256.24 819.07 1256.24 819.59 1254.2 820.22 1252.25 820.95 1250.48 821.82 1248.82 822.72 1247.26 823.76 1245.87 824.84 1244.62 825.98 1243.47 827.2 1242.46 828.48 1241.6 829.8 1240.83 831.12 1240.24 832.51 1239.76 833.89 1239.44 835.28 1239.24 836.71 1239.17 836.71 1239.17 837.71 1239.2 838.68 1239.31 839.59 1239.48 840.42 1239.72 841.22 1240 841.91 1240.31 842.61 1240.69 843.23 1241.08 843.79 1241.49 844.31 1241.94 844.76 1242.4 845.17 1242.85 845.52 1243.3 845.84 1243.75 846.11 1244.17 846.32 1244.58 846.32 1244.58 848.75 1230.94 858.19 1230.94 850.35 1276.34"/><polygon class="cls-11" points="834.62 1267.94 835.6 1267.87 836.5 1267.66 837.33 1267.42 838.13 1267.04 838.86 1266.62 839.55 1266.1 840.21 1265.51 840.8 1264.89 841.32 1264.19 841.81 1263.43 842.26 1262.63 842.64 1261.8 842.99 1260.93 843.27 1260.03 843.51 1259.09 843.68 1258.15 843.86 1257.18 843.96 1256.18 843.96 1255.24 843.92 1254.27 843.82 1253.36 843.68 1252.5 843.44 1251.66 843.16 1250.87 842.82 1250.17 842.4 1249.51 841.95 1248.96 841.43 1248.47 840.84 1248.05 840.21 1247.78 839.55 1247.6 838.82 1247.53 837.89 1247.6 837.02 1247.74 836.22 1248.02 835.42 1248.37 834.73 1248.82 834.03 1249.37 833.44 1249.96 832.85 1250.62 832.33 1251.39 831.85 1252.18 831.39 1253.02 831.01 1253.92 830.67 1254.86 830.39 1255.79 830.11 1256.8 829.9 1257.81 829.73 1259.33 829.8 1261 830.04 1262.7 830.49 1264.33 831.19 1265.76 832.09 1266.9 833.24 1267.66 834.62 1267.94 834.62 1267.94 834.62 1267.94"/><polygon class="cls-13" points="621.47 1268.64 620.08 1276.34 611.33 1276.34 611.57 1274.92 611.75 1273.63 611.88 1272.66 612.02 1272.14 611.54 1272.7 610.98 1273.25 610.32 1273.77 609.6 1274.26 608.76 1274.75 607.89 1275.16 606.99 1275.58 606.05 1275.93 605.05 1276.24 604.04 1276.48 603.03 1276.69 601.99 1276.83 600.99 1276.9 599.98 1276.93 599.01 1276.83 598.07 1276.69 596.86 1276.38 595.75 1276.03 594.77 1275.58 593.9 1275.06 593.14 1274.5 592.45 1273.88 591.89 1273.22 591.4 1272.52 590.99 1271.8 590.64 1271.03 590.37 1270.27 590.16 1269.51 590.02 1268.71 589.91 1267.91 589.84 1267.14 589.84 1266.38 589.95 1265.03 590.16 1263.74 590.5 1262.53 590.95 1261.35 591.51 1260.24 592.13 1259.23 592.86 1258.26 593.7 1257.39 594.57 1256.59 595.54 1255.86 596.54 1255.2 597.58 1254.65 598.7 1254.16 599.84 1253.78 601.02 1253.47 602.24 1253.26 602.3 1253.26 602.48 1253.22 602.72 1253.19 603.1 1253.16 603.52 1253.09 604.01 1253.05 604.53 1252.98 605.12 1252.91 605.71 1252.84 606.3 1252.77 606.92 1252.74 607.48 1252.67 608.03 1252.63 608.55 1252.6 609.04 1252.57 609.42 1252.57 610.22 1252.57 611.05 1252.6 611.82 1252.63 612.58 1252.63 613.2 1252.67 613.69 1252.7 614.04 1252.74 614.14 1252.74 614.21 1252.5 614.42 1251.87 614.59 1251.14 614.66 1250.48 614.52 1249.72 614.21 1249.03 613.79 1248.4 613.24 1247.88 612.58 1247.43 611.85 1247.12 611.02 1246.91 610.12 1246.84 609.14 1246.8 608.1 1246.77 607.02 1246.77 605.91 1246.8 604.77 1246.87 603.66 1246.98 602.55 1247.08 601.47 1247.22 600.43 1247.36 599.42 1247.53 598.52 1247.71 597.69 1247.88 596.92 1248.09 596.3 1248.3 595.81 1248.54 595.43 1248.75 597.9 1240.38 598.66 1240.07 599.42 1239.79 600.26 1239.55 601.09 1239.38 601.92 1239.2 602.83 1239.06 603.73 1238.92 604.66 1238.86 605.64 1238.79 606.64 1238.75 607.68 1238.72 608.76 1238.72 609.87 1238.72 611.02 1238.72 612.23 1238.75 613.45 1238.79 614.42 1238.86 615.46 1239.03 616.54 1239.27 617.65 1239.58 618.72 1240 619.76 1240.49 620.81 1241.08 621.78 1241.74 622.64 1242.5 623.41 1243.33 624.1 1244.27 624.62 1245.31 624.97 1246.42 625.18 1247.6 625.18 1248.92 624.97 1250.31 621.47 1268.64 621.47 1268.64 621.47 1268.64"/><polyline class="cls-14" points="621.47 1268.64 620.08 1276.34 611.33 1276.34 611.33 1276.34 611.57 1274.92 611.75 1273.63 611.88 1272.66 612.02 1272.14 612.02 1272.14 611.54 1272.7 610.98 1273.25 610.32 1273.77 609.6 1274.26 608.76 1274.75 607.89 1275.16 606.99 1275.58 606.05 1275.93 605.05 1276.24 604.04 1276.48 603.03 1276.69 601.99 1276.83 600.99 1276.9 599.98 1276.93 599.01 1276.83 598.07 1276.69 598.07 1276.69 596.86 1276.38 595.75 1276.03 594.77 1275.58 593.9 1275.06 593.14 1274.5 592.45 1273.88 591.89 1273.22 591.4 1272.52 590.99 1271.8 590.64 1271.03 590.37 1270.27 590.16 1269.51 590.02 1268.71 589.91 1267.91 589.84 1267.14 589.84 1266.38 589.84 1266.38 589.95 1265.03 590.16 1263.74 590.5 1262.53 590.95 1261.35 591.51 1260.24 592.13 1259.23 592.86 1258.26 593.7 1257.39 594.57 1256.59 595.54 1255.86 596.54 1255.2 597.58 1254.65 598.7 1254.16 599.84 1253.78 601.02 1253.47 602.24 1253.26 602.24 1253.26 602.3 1253.26 602.48 1253.22 602.72 1253.19 603.1 1253.16 603.52 1253.09 604.01 1253.05 604.53 1252.98 605.12 1252.91 605.71 1252.84 606.3 1252.77 606.92 1252.74 607.48 1252.67 608.03 1252.63 608.55 1252.6 609.04 1252.57 609.42 1252.57 609.42 1252.57 610.22 1252.57 611.05 1252.6 611.82 1252.63 612.58 1252.63 613.2 1252.67 613.69 1252.7 614.04 1252.74 614.14 1252.74 614.14 1252.74 614.21 1252.5 614.42 1251.87 614.59 1251.14 614.66 1250.48 614.66 1250.48 614.52 1249.72 614.21 1249.03 613.79 1248.4 613.24 1247.88 612.58 1247.43 611.85 1247.12 611.02 1246.91 610.12 1246.84 610.12 1246.84 609.14 1246.8 608.1 1246.77 607.02 1246.77 605.91 1246.8 604.77 1246.87 603.66 1246.98 602.55 1247.08 601.47 1247.22 600.43 1247.36 599.42 1247.53 598.52 1247.71 597.69 1247.88 596.92 1248.09 596.3 1248.3 595.81 1248.54 595.43 1248.75 597.9 1240.38 597.9 1240.38 598.66 1240.07 599.42 1239.79 600.26 1239.55 601.09 1239.38 601.92 1239.2 602.83 1239.06 603.73 1238.92 604.66 1238.86 605.64 1238.79 606.64 1238.75 607.68 1238.72 608.76 1238.72 609.87 1238.72 611.02 1238.72 612.23 1238.75 613.45 1238.79 613.45 1238.79 614.42 1238.86 615.46 1239.03 616.54 1239.27 617.65 1239.58 618.72 1240 619.76 1240.49 620.81 1241.08 621.78 1241.74 622.64 1242.5 623.41 1243.33 624.1 1244.27 624.62 1245.31 624.97 1246.42 625.18 1247.6 625.18 1248.92 624.97 1250.31 621.47 1268.64"/><polygon class="cls-12" points="613.1 1259.58 613.07 1259.4 612.93 1259.23 612.72 1259.13 612.37 1259.06 611.99 1258.99 611.54 1258.95 611.02 1258.95 610.5 1258.95 609.94 1258.99 609.35 1259.06 608.8 1259.13 608.24 1259.2 607.72 1259.27 607.23 1259.37 606.82 1259.47 606.44 1259.58 606.19 1259.65 605.91 1259.75 605.53 1259.89 605.15 1260.06 604.7 1260.27 604.25 1260.52 603.76 1260.76 603.31 1261.04 602.83 1261.38 602.38 1261.73 601.96 1262.15 601.58 1262.56 601.23 1263.01 600.99 1263.5 600.78 1264.06 600.67 1264.61 600.64 1265.79 600.81 1266.73 601.16 1267.42 601.61 1267.94 602.13 1268.29 602.72 1268.5 603.28 1268.6 603.83 1268.64 604.87 1268.6 605.81 1268.5 606.71 1268.36 607.51 1268.15 608.21 1267.91 608.87 1267.6 609.46 1267.28 609.98 1266.9 610.43 1266.55 610.84 1266.14 611.19 1265.76 611.47 1265.34 611.71 1264.92 611.92 1264.51 612.09 1264.13 612.2 1263.74 612.48 1262.74 612.72 1261.59 612.93 1260.48 613.1 1259.58 613.1 1259.58 613.1 1259.58"/><polygon class="cls-13" points="548.43 1276.34 538.99 1276.34 546.87 1230.77 563.29 1230.77 564.85 1257.81 576.2 1230.77 593.35 1230.77 585.3 1276.34 575.86 1276.34 581.83 1242.29 581.44 1242.29 567.32 1276.34 556.66 1276.34 556.59 1274.92 556.35 1271.14 556.04 1265.76 555.69 1259.58 555.34 1253.36 555.03 1247.91 554.79 1243.96 554.72 1242.29 554.61 1242.29 554.4 1242.29 554.2 1242.29 554.2 1242.29 548.43 1276.34 548.43 1276.34 548.43 1276.34"/><polyline class="cls-14" points="548.43 1276.34 538.99 1276.34 546.87 1230.77 563.29 1230.77 564.85 1257.81 576.2 1230.77 593.35 1230.77 585.3 1276.34 575.86 1276.34 581.83 1242.29 581.44 1242.29 567.32 1276.34 556.66 1276.34 556.66 1276.34 556.59 1274.92 556.35 1271.14 556.04 1265.76 555.69 1259.58 555.34 1253.36 555.03 1247.91 554.79 1243.96 554.72 1242.29 554.72 1242.29 554.61 1242.29 554.4 1242.29 554.2 1242.29 554.2 1242.29 548.43 1276.34"/><polygon class="cls-13" points="793.74 1268.64 792.31 1276.34 783.6 1276.34 783.67 1274.92 783.7 1273.67 783.7 1272.73 783.77 1272.32 783.32 1272.84 782.8 1273.36 782.18 1273.84 781.48 1274.33 780.75 1274.78 779.92 1275.2 779.05 1275.61 778.18 1275.96 777.25 1276.24 776.27 1276.52 775.3 1276.69 774.33 1276.83 773.32 1276.9 772.35 1276.93 771.41 1276.83 770.48 1276.69 769.23 1276.38 768.12 1276.03 767.15 1275.58 766.24 1275.06 765.48 1274.5 764.82 1273.88 764.26 1273.22 763.78 1272.52 763.36 1271.8 763.05 1271.03 762.77 1270.27 762.6 1269.51 762.46 1268.71 762.36 1267.91 762.29 1267.14 762.29 1266.38 762.36 1265.03 762.56 1263.74 762.88 1262.53 763.33 1261.35 763.85 1260.24 764.51 1259.23 765.24 1258.26 766.03 1257.39 766.94 1256.59 767.88 1255.86 768.88 1255.2 769.96 1254.65 771.03 1254.16 772.18 1253.78 773.32 1253.47 774.5 1253.26 774.57 1253.26 774.75 1253.22 774.99 1253.19 775.34 1253.16 775.79 1253.09 776.27 1253.05 776.79 1252.98 777.35 1252.91 777.94 1252.84 778.57 1252.77 779.16 1252.74 779.75 1252.67 780.3 1252.63 780.79 1252.6 781.27 1252.57 781.65 1252.57 782.49 1252.57 783.32 1252.6 784.12 1252.63 784.88 1252.63 785.54 1252.67 786.1 1252.7 786.41 1252.74 786.55 1252.74 786.62 1252.5 786.72 1251.87 786.83 1251.14 786.9 1250.48 786.76 1249.72 786.48 1249.03 786.03 1248.4 785.51 1247.88 784.88 1247.43 784.15 1247.12 783.39 1246.91 782.56 1246.84 781.59 1246.8 780.54 1246.77 779.47 1246.77 778.36 1246.8 777.21 1246.87 776.1 1246.98 774.99 1247.08 773.91 1247.22 772.87 1247.36 771.87 1247.53 770.96 1247.71 770.13 1247.88 769.37 1248.09 768.74 1248.3 768.26 1248.54 767.88 1248.75 770.3 1240.38 771.07 1240.07 771.87 1239.79 772.66 1239.55 773.5 1239.38 774.37 1239.2 775.23 1239.06 776.14 1238.92 777.07 1238.86 778.04 1238.79 779.05 1238.75 780.06 1238.72 781.13 1238.72 782.21 1238.72 783.32 1238.72 784.5 1238.75 785.68 1238.79 786.65 1238.86 787.69 1239.03 788.77 1239.27 789.88 1239.58 790.96 1240 792.03 1240.49 793.07 1241.08 794.05 1241.74 794.91 1242.5 795.71 1243.33 796.41 1244.27 796.93 1245.31 797.31 1246.42 797.55 1247.6 797.55 1248.92 797.38 1250.31 793.74 1268.64 793.74 1268.64 793.74 1268.64"/><polygon class="cls-13" points="792.31 1276.59 792.52 1276.38 793.94 1268.67 793.53 1268.6 792.1 1276.31 792.31 1276.1 792.31 1276.59 792.48 1276.55 792.52 1276.38 792.31 1276.59 792.31 1276.59 792.31 1276.59"/><polygon class="cls-13" points="783.39 1276.34 783.6 1276.59 792.31 1276.59 792.31 1276.1 783.6 1276.1 783.81 1276.34 783.39 1276.34 783.36 1276.59 783.6 1276.59 783.39 1276.34 783.39 1276.34 783.39 1276.34"/><polygon class="cls-13" points="783.95 1272.45 783.63 1272.18 783.49 1272.73 783.46 1273.67 783.46 1274.92 783.39 1276.34 783.81 1276.34 783.88 1274.92 783.95 1273.67 783.91 1272.73 783.91 1272.45 783.6 1272.18 783.95 1272.45 783.95 1272.45 783.95 1272.45"/><polygon class="cls-13" points="770.44 1276.9 770.44 1276.9 771.41 1277.04 772.35 1277.14 773.32 1277.11 774.33 1277.04 775.34 1276.9 776.31 1276.72 777.28 1276.45 778.25 1276.17 779.12 1275.82 780.02 1275.4 780.86 1274.99 781.59 1274.5 782.31 1274.02 782.94 1273.53 783.49 1272.97 783.95 1272.45 783.6 1272.18 783.15 1272.7 782.66 1273.18 782.04 1273.67 781.38 1274.16 780.65 1274.57 779.82 1274.99 778.98 1275.4 778.11 1275.75 777.21 1276.03 776.24 1276.31 775.27 1276.48 774.33 1276.62 773.32 1276.69 772.35 1276.72 771.41 1276.62 770.51 1276.48 770.51 1276.48 770.44 1276.9 770.44 1276.9 770.44 1276.9"/><polygon class="cls-13" points="762.04 1266.38 762.04 1266.38 762.08 1267.14 762.15 1267.91 762.25 1268.74 762.39 1269.54 762.56 1270.3 762.84 1271.1 763.15 1271.9 763.61 1272.63 764.09 1273.36 764.65 1274.02 765.34 1274.68 766.14 1275.23 767.04 1275.79 768.05 1276.24 769.19 1276.59 770.44 1276.9 770.51 1276.48 769.26 1276.17 768.19 1275.82 767.25 1275.37 766.35 1274.88 765.62 1274.33 764.99 1273.74 764.44 1273.08 763.95 1272.42 763.57 1271.69 763.26 1270.96 762.98 1270.23 762.81 1269.47 762.67 1268.67 762.56 1267.91 762.49 1267.14 762.53 1266.38 762.53 1266.38 762.04 1266.38 762.04 1266.38 762.04 1266.38"/><polygon class="cls-13" points="774.5 1253.05 774.5 1253.05 773.29 1253.26 772.11 1253.57 770.96 1253.95 769.85 1254.44 768.78 1254.99 767.74 1255.69 766.8 1256.42 765.9 1257.25 765.06 1258.12 764.33 1259.09 763.64 1260.13 763.12 1261.28 762.67 1262.46 762.36 1263.71 762.15 1265.03 762.04 1266.38 762.53 1266.38 762.56 1265.03 762.77 1263.78 763.09 1262.6 763.54 1261.42 764.06 1260.34 764.68 1259.37 765.41 1258.4 766.17 1257.53 767.08 1256.77 768.01 1256.04 768.99 1255.41 770.06 1254.86 771.1 1254.37 772.25 1253.99 773.36 1253.68 774.5 1253.47 774.5 1253.47 774.5 1253.05 774.5 1253.05 774.5 1253.05"/><polygon class="cls-13" points="781.65 1252.32 781.65 1252.32 781.27 1252.32 780.79 1252.39 780.3 1252.43 779.75 1252.46 779.16 1252.53 778.57 1252.57 777.94 1252.63 777.35 1252.7 776.79 1252.77 776.27 1252.84 775.79 1252.88 775.34 1252.95 774.99 1252.98 774.71 1253.02 774.57 1253.05 774.5 1253.05 774.5 1253.47 774.57 1253.47 774.78 1253.43 774.99 1253.4 775.34 1253.36 775.79 1253.29 776.27 1253.26 776.79 1253.19 777.35 1253.12 777.94 1253.05 778.57 1252.98 779.16 1252.95 779.75 1252.88 780.3 1252.84 780.79 1252.81 781.27 1252.81 781.65 1252.81 781.65 1252.81 781.65 1252.32 781.65 1252.32 781.65 1252.32"/><polygon class="cls-13" points="786.34 1252.7 786.55 1252.53 786.41 1252.53 786.1 1252.5 785.54 1252.46 784.88 1252.39 784.12 1252.39 783.32 1252.39 782.49 1252.32 781.65 1252.32 781.65 1252.81 782.49 1252.81 783.32 1252.81 784.12 1252.88 784.88 1252.88 785.54 1252.88 786.1 1252.91 786.41 1252.95 786.55 1252.95 786.76 1252.77 786.55 1252.95 786.72 1252.98 786.76 1252.77 786.34 1252.7 786.34 1252.7 786.34 1252.7"/><polygon class="cls-13" points="786.69 1250.48 786.65 1250.48 786.62 1251.14 786.51 1251.84 786.41 1252.46 786.34 1252.7 786.76 1252.77 786.83 1252.53 786.93 1251.91 787.03 1251.14 787.14 1250.48 787.1 1250.48 786.69 1250.48 786.69 1250.48 786.69 1250.48"/><polygon class="cls-13" points="782.56 1247.05 782.56 1247.08 783.36 1247.12 784.09 1247.33 784.78 1247.64 785.37 1248.05 785.85 1248.54 786.27 1249.13 786.55 1249.76 786.69 1250.48 787.1 1250.48 786.97 1249.68 786.69 1248.92 786.2 1248.26 785.65 1247.71 784.99 1247.22 784.22 1246.91 783.42 1246.7 782.56 1246.6 782.56 1246.63 782.56 1247.05 782.56 1247.05 782.56 1247.05"/><polygon class="cls-13" points="767.67 1248.71 768.01 1248.92 768.36 1248.75 768.81 1248.51 769.4 1248.3 770.16 1248.09 771 1247.91 771.9 1247.74 772.91 1247.57 773.91 1247.43 774.99 1247.29 776.1 1247.19 777.21 1247.08 778.36 1247.01 779.47 1247.01 780.54 1247.01 781.59 1247.01 782.56 1247.05 782.56 1246.63 781.59 1246.6 780.54 1246.53 779.47 1246.53 778.36 1246.6 777.21 1246.66 776.1 1246.77 774.99 1246.87 773.91 1247.01 772.84 1247.15 771.83 1247.33 770.93 1247.5 770.1 1247.67 769.33 1247.88 768.67 1248.09 768.15 1248.33 767.74 1248.57 768.08 1248.78 767.67 1248.71 767.67 1248.71 767.67 1248.71"/><polygon class="cls-13" points="770.24 1240.17 770.1 1240.35 767.67 1248.71 768.08 1248.78 770.51 1240.42 770.37 1240.59 770.24 1240.17 770.13 1240.21 770.1 1240.35 770.24 1240.17 770.24 1240.17 770.24 1240.17"/><polygon class="cls-13" points="785.68 1238.58 785.68 1238.58 784.5 1238.51 783.32 1238.47 782.21 1238.47 781.13 1238.47 780.06 1238.47 779.05 1238.54 778.04 1238.58 777.07 1238.65 776.14 1238.72 775.2 1238.86 774.33 1238.99 773.46 1239.17 772.63 1239.34 771.8 1239.58 771 1239.86 770.24 1240.17 770.37 1240.59 771.14 1240.28 771.93 1240 772.7 1239.76 773.53 1239.58 774.4 1239.41 775.27 1239.27 776.14 1239.13 777.07 1239.06 778.04 1238.99 779.05 1238.96 780.06 1238.96 781.13 1238.96 782.21 1238.96 783.32 1238.96 784.5 1238.99 785.68 1238.99 785.68 1238.99 785.68 1238.58 785.68 1238.58 785.68 1238.58"/><polygon class="cls-13" points="797.59 1250.34 797.59 1250.34 797.76 1248.92 797.76 1247.6 797.52 1246.39 797.14 1245.24 796.58 1244.17 795.89 1243.19 795.05 1242.33 794.18 1241.56 793.18 1240.9 792.14 1240.28 791.03 1239.79 789.95 1239.38 788.8 1239.06 787.73 1238.82 786.65 1238.65 785.68 1238.58 785.68 1238.99 786.65 1239.06 787.66 1239.24 788.74 1239.48 789.81 1239.79 790.89 1240.21 791.93 1240.69 792.97 1241.25 793.91 1241.91 794.77 1242.67 795.54 1243.47 796.23 1244.37 796.72 1245.38 797.1 1246.46 797.34 1247.6 797.34 1248.92 797.17 1250.28 797.17 1250.28 797.59 1250.34 797.59 1250.34 797.59 1250.34"/><polygon class="cls-13" points="793.94 1268.67 793.94 1268.67 797.59 1250.34 797.17 1250.28 793.53 1268.6 793.53 1268.6 793.94 1268.67 793.94 1268.67 793.94 1268.67"/><polygon class="cls-11" points="785.33 1259.58 785.26 1259.37 785.13 1259.2 784.88 1259.09 784.54 1258.99 784.15 1258.95 783.7 1258.92 783.18 1258.92 782.66 1258.95 782.11 1259.02 781.55 1259.09 781 1259.16 780.47 1259.23 779.95 1259.33 779.5 1259.4 779.05 1259.51 778.7 1259.58 778.46 1259.61 778.18 1259.72 777.84 1259.82 777.46 1259.96 777 1260.17 776.59 1260.38 776.1 1260.62 775.65 1260.93 775.2 1261.24 774.75 1261.63 774.37 1262.01 773.98 1262.46 773.67 1262.94 773.43 1263.46 773.22 1264.02 773.12 1264.61 773.08 1265.79 773.25 1266.73 773.53 1267.42 773.95 1267.94 774.47 1268.29 775.06 1268.5 775.65 1268.6 776.24 1268.64 777.28 1268.6 778.25 1268.5 779.16 1268.32 779.95 1268.08 780.72 1267.8 781.38 1267.49 782 1267.14 782.56 1266.73 783.04 1266.35 783.46 1265.89 783.84 1265.48 784.15 1265.03 784.4 1264.61 784.57 1264.19 784.71 1263.78 784.81 1263.4 784.95 1262.42 785.13 1261.42 785.26 1260.44 785.33 1259.58 785.33 1259.58 785.33 1259.58"/><polygon class="cls-13" points="856.84 1271.59 856.91 1270.79 857.18 1269.85 857.67 1269.02 858.26 1268.29 858.99 1267.7 859.82 1267.28 860.73 1267.01 861.7 1266.9 862.67 1267.01 863.57 1267.28 864.4 1267.7 865.13 1268.29 865.72 1269.02 866.21 1269.85 866.49 1270.79 866.56 1271.59 865.51 1271.59 865.48 1270.96 865.27 1270.2 864.92 1269.51 864.47 1268.91 863.92 1268.43 863.26 1268.08 862.5 1267.84 861.7 1267.77 860.9 1267.84 860.13 1268.08 859.48 1268.43 858.92 1268.91 858.47 1269.51 858.12 1270.2 857.91 1270.96 857.85 1271.59 856.84 1271.59 856.84 1271.59 856.84 1271.59"/><polygon class="cls-13" points="859.96 1271.59 859.96 1269.51 861.87 1269.51 862.29 1269.54 862.67 1269.61 862.95 1269.71 863.19 1269.85 863.36 1270.06 863.5 1270.27 863.57 1270.51 863.61 1270.75 863.57 1271.07 863.5 1271.31 863.4 1271.52 863.33 1271.59 861.87 1271.59 862.01 1271.55 862.25 1271.52 862.46 1271.45 862.63 1271.38 862.77 1271.28 862.84 1271.17 862.91 1271 862.91 1270.75 862.88 1270.58 862.81 1270.44 862.7 1270.37 862.6 1270.3 862.43 1270.27 862.25 1270.23 862.08 1270.23 861.87 1270.23 860.83 1270.23 860.83 1271.59 859.96 1271.59 859.96 1271.59 859.96 1271.59"/><polygon class="cls-13" points="856.84 1271.59 856.8 1271.8 856.91 1272.8 857.18 1273.74 857.67 1274.57 858.26 1275.27 858.99 1275.86 859.82 1276.31 860.73 1276.59 861.7 1276.69 862.67 1276.59 863.57 1276.31 864.4 1275.86 865.13 1275.27 865.72 1274.57 866.21 1273.74 866.49 1272.8 866.59 1271.8 866.56 1271.59 865.51 1271.59 865.55 1271.8 865.48 1272.63 865.27 1273.39 864.92 1274.05 864.47 1274.64 863.92 1275.13 863.26 1275.51 862.5 1275.75 861.7 1275.82 860.9 1275.75 860.13 1275.51 859.48 1275.13 858.92 1274.64 858.47 1274.05 858.12 1273.39 857.91 1272.63 857.85 1271.8 857.85 1271.59 856.84 1271.59 856.84 1271.59 856.84 1271.59"/><polygon class="cls-13" points="859.96 1271.59 859.96 1273.7 860.83 1273.7 860.83 1271.97 861.7 1271.97 862.74 1273.7 863.43 1273.7 862.39 1271.97 862.63 1271.97 862.88 1271.9 863.09 1271.83 863.26 1271.69 863.33 1271.59 861.87 1271.59 861.7 1271.62 860.83 1271.62 860.83 1271.59 859.96 1271.59 859.96 1271.59 859.96 1271.59"/><path class="cls-14" d="M856.8,1271.8h0l.1-1,.28-.94.49-.83.59-.73.73-.59.83-.42.9-.28,1-.1h0l1,.1.9.28.83.42.73.59.59.73.49.83.28.94.1,1h0l-.1,1-.28.94-.49.83-.59.69-.73.59-.83.45-.9.28-1,.1h0l-1-.1-.9-.28-.83-.45-.73-.59-.59-.69-.49-.83-.28-.94-.1-1m4,1.91H860v-4.2h1.91l.42,0,.38.07.28.1.24.14.17.21.14.21.07.24,0,.24h0l0,.31-.07.24-.1.21-.14.17-.17.14-.21.07-.24.07h-.24l1,1.74h-.69l-1-1.74h-.87v1.74m.87-2.08h0l.31-.07.24,0,.21-.07.17-.07.14-.1.07-.1.07-.17v-.24h0l0-.17-.07-.14-.1-.07-.1-.07-.17,0-.17,0h-1.42v1.39h.87m0,4.2h0l.8-.07.76-.24.66-.38.56-.49.45-.59.35-.66.21-.76.07-.83h0l-.07-.83-.21-.76-.35-.69-.45-.59-.56-.49-.66-.35-.76-.24-.8-.07h0l-.8.07-.76.24-.66.35-.56.49-.45.59-.35.69-.21.76-.07.83h0l.07.83.21.76.35.66.45.59.56.49.66.38.76.24.8.07"/><polygon class="cls-13" points="796.34 1276.34 806.13 1276.34 806.13 1276.34 809.63 1256.59 809.77 1255.83 809.98 1255.07 810.19 1254.3 810.47 1253.54 810.81 1252.77 811.23 1252.05 811.68 1251.35 812.24 1250.69 812.86 1250.1 813.55 1249.55 814.35 1249.03 815.25 1248.61 816.26 1248.26 817.37 1247.98 818.59 1247.78 819.94 1247.71 820.43 1247.71 820.7 1247.71 820.81 1247.71 820.81 1247.71 822.37 1238.79 821.4 1238.86 820.46 1238.96 819.59 1239.13 818.76 1239.38 818 1239.65 817.27 1240 816.57 1240.38 815.91 1240.8 815.29 1241.29 814.7 1241.77 814.14 1242.33 813.59 1242.88 813.07 1243.47 812.55 1244.13 812.03 1244.76 811.54 1245.45 812.58 1239.17 802.83 1239.17 796.34 1276.34 796.34 1276.34 796.34 1276.34 796.34 1276.34"/><polyline class="cls-14" points="796.34 1276.34 806.13 1276.34 806.13 1276.34 809.63 1256.59 809.63 1256.59 809.77 1255.83 809.98 1255.07 810.19 1254.3 810.47 1253.54 810.81 1252.77 811.23 1252.05 811.68 1251.35 812.24 1250.69 812.86 1250.1 813.55 1249.55 814.35 1249.03 815.25 1248.61 816.26 1248.26 817.37 1247.98 818.59 1247.78 819.94 1247.71 819.94 1247.71 820.43 1247.71 820.7 1247.71 820.81 1247.71 820.81 1247.71 822.37 1238.79 822.37 1238.79 821.4 1238.86 820.46 1238.96 819.59 1239.13 818.76 1239.38 818 1239.65 817.27 1240 816.57 1240.38 815.91 1240.8 815.29 1241.29 814.7 1241.77 814.14 1242.33 813.59 1242.88 813.07 1243.47 812.55 1244.13 812.03 1244.76 811.54 1245.45 812.58 1239.17 802.83 1239.17 796.34 1276.34 796.34 1276.34"/><polygon class="cls-13" points="704.42 1276.34 714.21 1276.34 714.39 1276.34 717.72 1256.59 717.86 1255.83 718.03 1255.1 718.2 1254.37 718.45 1253.68 718.72 1252.98 719.07 1252.32 719.49 1251.7 719.97 1251.11 720.53 1250.59 721.15 1250.07 721.92 1249.65 722.75 1249.27 723.72 1248.96 724.8 1248.68 725.98 1248.51 727.33 1248.4 727.44 1248.4 727.58 1248.43 727.75 1248.47 727.92 1248.47 728.1 1248.51 728.24 1248.54 728.34 1248.57 728.37 1248.57 728.41 1248.43 728.51 1248.02 728.65 1247.39 728.83 1246.63 729.07 1245.73 729.31 1244.76 729.62 1243.78 729.94 1242.81 730.21 1242.15 730.56 1241.49 730.91 1240.83 731.25 1240.24 731.57 1239.72 731.81 1239.31 731.98 1239.06 732.05 1238.96 732.02 1238.96 731.88 1238.92 731.71 1238.89 731.46 1238.86 731.22 1238.86 730.94 1238.82 730.7 1238.79 730.46 1238.79 729.38 1238.86 728.41 1238.96 727.51 1239.13 726.67 1239.34 725.88 1239.62 725.15 1239.97 724.49 1240.31 723.86 1240.73 723.27 1241.18 722.72 1241.7 722.2 1242.22 721.67 1242.81 721.15 1243.4 720.67 1244.06 720.15 1244.76 719.63 1245.45 720.88 1239.17 710.91 1239.17 704.42 1276.34 704.42 1276.34 704.42 1276.34 704.42 1276.34"/><polyline class="cls-14" points="704.42 1276.34 714.21 1276.34 714.39 1276.34 717.72 1256.59 717.72 1256.59 717.86 1255.83 718.03 1255.1 718.2 1254.37 718.45 1253.68 718.72 1252.98 719.07 1252.32 719.49 1251.7 719.97 1251.11 720.53 1250.59 721.15 1250.07 721.92 1249.65 722.75 1249.27 723.72 1248.96 724.8 1248.68 725.98 1248.51 727.33 1248.4 727.33 1248.4 727.44 1248.4 727.58 1248.43 727.75 1248.47 727.92 1248.47 728.1 1248.51 728.24 1248.54 728.34 1248.57 728.37 1248.57 728.37 1248.57 728.41 1248.43 728.51 1248.02 728.65 1247.39 728.83 1246.63 729.07 1245.73 729.31 1244.76 729.62 1243.78 729.94 1242.81 729.94 1242.81 730.21 1242.15 730.56 1241.49 730.91 1240.83 731.25 1240.24 731.57 1239.72 731.81 1239.31 731.98 1239.06 732.05 1238.96 732.05 1238.96 732.02 1238.96 731.88 1238.92 731.71 1238.89 731.46 1238.86 731.22 1238.86 730.94 1238.82 730.7 1238.79 730.46 1238.79 730.46 1238.79 729.38 1238.86 728.41 1238.96 727.51 1239.13 726.67 1239.34 725.88 1239.62 725.15 1239.97 724.49 1240.31 723.86 1240.73 723.27 1241.18 722.72 1241.7 722.2 1242.22 721.67 1242.81 721.15 1243.4 720.67 1244.06 720.15 1244.76 719.63 1245.45 720.88 1239.17 710.91 1239.17 704.42 1276.34 704.42 1276.34"/><polygon class="cls-11" points="856.91 1312.86 856.91 1312.72 857.18 1311.82 857.67 1311.02 858.26 1310.32 858.99 1309.77 859.82 1309.35 860.73 1309.11 861.7 1309.01 862.67 1309.11 863.57 1309.35 864.4 1309.77 865.13 1310.32 865.72 1311.02 866.21 1311.82 866.49 1312.72 866.49 1312.86 865.48 1312.86 865.27 1312.13 864.92 1311.47 864.47 1310.88 863.92 1310.39 863.26 1310.01 862.5 1309.77 861.7 1309.7 860.9 1309.77 860.13 1310.01 859.48 1310.39 858.92 1310.88 858.47 1311.47 858.12 1312.13 857.91 1312.86 856.91 1312.86 856.91 1312.86 856.91 1312.86"/><polygon class="cls-11" points="859.96 1312.86 859.96 1311.64 861.87 1311.64 862.29 1311.64 862.67 1311.71 862.95 1311.78 863.19 1311.92 863.36 1312.09 863.5 1312.3 863.57 1312.55 863.61 1312.86 862.91 1312.86 862.91 1312.68 862.88 1312.51 862.81 1312.37 862.7 1312.3 862.6 1312.23 862.43 1312.2 862.25 1312.16 862.08 1312.16 861.87 1312.16 860.83 1312.16 860.83 1312.86 859.96 1312.86 859.96 1312.86 859.96 1312.86"/><polygon class="cls-11" points="856.8 1313.62 856.91 1312.86 857.91 1312.86 857.91 1312.89 857.85 1313.62 856.8 1313.62 856.8 1313.62 856.8 1313.62"/><polygon class="cls-11" points="859.96 1313.62 859.96 1312.86 860.83 1312.86 860.83 1313.55 861.7 1313.55 862.01 1313.48 862.25 1313.45 862.46 1313.38 862.63 1313.31 862.77 1313.2 862.84 1313.1 862.91 1312.93 862.91 1312.86 863.61 1312.86 863.61 1312.86 863.57 1313.1 863.5 1313.31 863.4 1313.48 863.26 1313.62 859.96 1313.62 859.96 1313.62 859.96 1313.62"/><polygon class="cls-11" points="865.55 1313.62 865.48 1312.89 865.48 1312.86 866.49 1312.86 866.59 1313.62 865.55 1313.62 865.55 1313.62 865.55 1313.62"/><polygon class="cls-11" points="856.8 1313.62 856.8 1313.73 856.91 1314.73 857.18 1315.67 857.67 1316.5 858.26 1317.23 858.99 1317.82 859.82 1318.24 860.73 1318.52 861.7 1318.62 862.67 1318.52 863.57 1318.24 864.4 1317.82 865.13 1317.23 865.72 1316.5 866.21 1315.67 866.49 1314.73 866.59 1313.73 866.59 1313.62 865.55 1313.62 865.55 1313.73 865.48 1314.56 865.27 1315.32 864.92 1315.98 864.47 1316.57 863.92 1317.06 863.26 1317.44 862.5 1317.68 861.7 1317.75 860.9 1317.68 860.13 1317.44 859.48 1317.06 858.92 1316.57 858.47 1315.98 858.12 1315.32 857.91 1314.56 857.85 1313.73 857.85 1313.62 856.8 1313.62 856.8 1313.62 856.8 1313.62"/><polygon class="cls-11" points="859.96 1313.62 859.96 1315.63 860.83 1315.63 860.83 1313.9 861.7 1313.9 862.74 1315.63 863.43 1315.63 862.39 1313.9 862.63 1313.9 862.88 1313.83 863.09 1313.76 863.26 1313.62 863.26 1313.62 859.96 1313.62 859.96 1313.62 859.96 1313.62"/></g></g></svg>