<?xml version="1.0" encoding="utf-8"?>
<!-- Generator: Adobe Illustrator 21.1.0, SVG Export Plug-In . SVG Version: 6.00 Build 0)  -->
<svg version="1.1" id="Layer_1" xmlns="http://www.w3.org/2000/svg" xmlns:xlink="http://www.w3.org/1999/xlink" x="0px" y="0px"
	 viewBox="0 0 26 26" style="enable-background:new 0 0 26 26;" xml:space="preserve">
<style type="text/css">
	.st0{enable-background:new    ;}
	.st1{fill:#87B144;}
</style>
<title>phone_in_talk - material</title>
<desc>Created with Sketch.</desc>
<g id="Page-1">
	<g id="Homepage-_x3E_-1920" transform="translate(-731.000000, -77.000000)">
		<g class="st0">
			<path class="st1" d="M755.4,95.1c0.4,0,0.7,0.1,1,0.4c0.3,0.3,0.4,0.6,0.4,1v5c0,0.4-0.1,0.7-0.4,1c-0.3,0.3-0.6,0.4-1,0.4
				c-3.3,0-6.4-0.6-9.4-1.9c-2.9-1.2-5.4-2.9-7.7-5.2c-2.2-2.2-3.9-4.8-5.2-7.7c-1.3-3-1.9-6.1-1.9-9.4c0-0.4,0.1-0.7,0.4-1
				c0.3-0.3,0.6-0.4,1-0.4h5c0.4,0,0.7,0.1,1,0.4c0.3,0.3,0.4,0.6,0.4,1c0,1.9,0.3,3.5,0.8,5c0.1,0.2,0.1,0.5,0,0.8
				c0,0.3-0.2,0.5-0.4,0.7l-3.1,3.1c1,2,2.3,3.8,3.9,5.4c1.6,1.6,3.4,2.9,5.4,4l3.1-3.1c0.2-0.2,0.4-0.3,0.7-0.4c0.3,0,0.5,0,0.8,0
				C751.8,94.8,753.5,95.1,755.4,95.1z M753.9,90.1c0-1.8-0.4-3.5-1.3-5c-0.9-1.5-2.1-2.7-3.6-3.6c-1.5-0.9-3.2-1.3-5-1.3v-2.9
				c2.3,0,4.5,0.6,6.4,1.7c1.9,1.1,3.5,2.7,4.6,4.6c1.2,2,1.7,4.1,1.7,6.4H753.9z M748.2,90.1c0-0.7-0.2-1.5-0.6-2.1
				c-0.4-0.7-0.9-1.2-1.6-1.6c-0.7-0.4-1.4-0.6-2.1-0.6V83c1.3,0,2.5,0.3,3.6,1s1.9,1.5,2.6,2.6c0.6,1.1,1,2.3,1,3.6H748.2z"/>
		</g>
	</g>
</g>
</svg>
