<?xml version="1.0" encoding="utf-8"?>
<!DOCTYPE svg PUBLIC "-//W3C//DTD SVG 1.1//EN" "http://www.w3.org/Graphics/SVG/1.1/DTD/svg11.dtd">
<svg xmlns="http://www.w3.org/2000/svg" xmlns:xlink="http://www.w3.org/1999/xlink" version="1.1" viewBox="0 0 512 512" enable-background="new 0 0 512 512" width="512px" height="512px">
  <g>
    <g>
      <path d="m344.6,195.8c0-48.8-39.9-88.5-89.1-88.5-49.1,0-89.1,39.7-89.1,88.5s39.9,88.5 89.1,88.5c49.1,0.1 89.1-39.6 89.1-88.5zm-89.1,69.2c-37.9,0-68.6-30.5-68.6-68.2s30.7-68.2 68.6-68.2c37.9,0 68.6,30.5 68.6,68.2s-30.7,68.2-68.6,68.2z" fill="#87ac55"/>
      <path d="m454.1,438l-78.8-135.9 47.5-10.3-17.9-55.9 43.6-39.5-43.6-39.5 17.9-55.9-57.7-12.5-12.6-57.5-56.3,17.8-39.7-43.3-39.8,43.4-56.2-17.9-12.6,57.3-57.7,12.5 17.9,55.9-43.6,39.5 43.6,39.5-17.9,55.9 46.1,10-78.4,135.4c-5.1,9.2 2.8,17.2 10.2,15.3l47.1-9.2 15.4,44.8c2.4,7.6 13.6,10.7 18.4,2l78.5-134.4 29,31.7 28.1-30.6 77.4,133.3c5.5,9.1 17.5,5.6 19.5-1l15.4-44.8 47.1,9.2c8.5,2.4 16.1-5.6 10.1-15.3zm-312.3,22.4l-11.3-31.5c-1-4.1-5.1-7.1-9.2-7.1-1,0-1,0-2,0l-33.8,6.1 64.9-112.1 10.1,45.9 47.2-14.9-65.9,113.6zm81.3-140l-47.3,15-10.6-48.2-48.5-10.5 15.1-47-36.8-33.4 36.7-33.2-15.1-47 48.5-10.5 10.6-48.2 47.3,15 33.4-36.5 33.6,36.4 47.3-15 10.6,48.2 48.5,10.5-15.1,47 36.7,33.2-36.7,33.2 15.1,47-48.5,10.5-10.6,48.2-47.3-15-33.4,36.5-33.5-36.2zm168.6,101.4c-5.1,0-9.2,2-11.3,7.1l-11.3,31.5-66.3-114.5 49.7,15.7 9.5-43 63.5,109.2-33.8-6z" fill="#87ac55"/>
    </g>
  </g>
</svg>
