<?xml version="1.0" encoding="utf-8"?>
<!-- Generator: Adobe Illustrator 23.0.1, SVG Export Plug-In . SVG Version: 6.00 Build 0)  -->
<svg version="1.1" id="Layer_1" xmlns="http://www.w3.org/2000/svg" xmlns:xlink="http://www.w3.org/1999/xlink" x="0px" y="0px"
	 viewBox="0 0 570 500" style="enable-background:new 0 0 570 500;" xml:space="preserve">
<style type="text/css">
	.st0{fill:#FFFFFF;}
	.st1{fill:#179BD7;}
	.st2{fill:#FFD400;}
</style>
<title>vorkasse</title>
<g id="Layer_1-2">
	<rect x="-211" class="st0" width="1000" height="500"/>
</g>
<g>
	<g>
		<path class="st1" d="M58.7,383.6c7.4-0.9,14.9-0.2,22.3-0.5c5.7-0.3,11.9,0.8,16.3,4.6c6.3,5.1,7.6,14.4,5.1,21.8
			c-1.9,5.1-6.9,8-11.3,10.6c4.6,9.2,9.5,18.2,14.2,27.3c-3.5,0.4-7,0.4-10.5,0.4c-4.8-7.7-8.4-16.1-12.6-24.2
			c-0.7-1.1-1.4-2.7-2.9-2.7c-3.2-0.3-6.4-0.1-9.5-0.2c-0.4,0.4-1.2,1.1-1.6,1.4c0,8,0,16,0,24c-0.4,0.4-1.1,1.3-1.5,1.7
			c-2.7-0.1-5.4-0.2-8-0.5C58.6,426.1,58.6,404.9,58.7,383.6z M68.1,393.3c0,5.8,0,11.6,0,17.5c0.4,0.4,1.2,1.1,1.6,1.4
			c6.1-0.4,12.6,0.9,18.5-1c7.8-2.9,7.6-15.9-0.3-18.4c-5.9-1.7-12.2-0.5-18.2-0.9C69.3,392.2,68.5,392.9,68.1,393.3z"/>
	</g>
	<path class="st1" d="M116.7,383.6c11.7-1,23.5-0.1,35.3-0.5c1.9,0.2,4.4-0.6,5.6,1.2c-0.1,2.4,1.1,5.6-1,7.4
		c-9.6,0.5-19.3,0.1-28.9,0.2c-0.4,0.4-1.2,1.1-1.6,1.4c0,5.5,0,11,0,16.5c0.4,0.4,1.2,1.1,1.6,1.4c8,0,16,0,24,0
		c0.4,0.4,1.1,1.2,1.4,1.6c0,1.9,0,3.7,0,5.6c-0.4,0.4-1.1,1.2-1.4,1.6c-8,0-16,0-24,0c-0.4,0.4-1.2,1.1-1.6,1.4c0,5.5,0,11,0,16.5
		c0.4,0.4,1.2,1,1.6,1.4c9.1,0,18.2-0.1,27.4,0c1.7-0.3,3,1.2,2.7,2.9c-0.2,1.9,0.9,5.4-1.8,5.8c-12.6,0.3-25.2,0-37.8,0.1
		c-0.4-0.3-1.1-0.9-1.5-1.3C116.7,425.6,116.6,404.6,116.7,383.6z"/>
	<path class="st1" d="M172.8,390.7c6.7-7.9,18.7-9.6,27.9-5.5c6.6,3,11.3,9.5,12.4,16.6c-2.4,2-5.9,0.7-8.8,1.1
		c-1.7-3.1-3.1-6.7-6.1-8.8c-5.2-3.5-12.9-2.9-17.2,1.7c-3,2.9-3.5,7.3-3.8,11.2c-0.3,6-0.3,12,0,18c0.3,3.7,0.7,7.8,3.3,10.7
		c4.6,5.6,14.2,6.1,19.3,0.9c2.1-2,3-4.9,4.7-7.2c2.8-0.5,5.6-0.2,8.4-0.2c-0.3,8.6-6.9,16.2-15,18.6c-5,1.5-10.5,1.5-15.5-0.2
		c-7.1-2.3-12.9-8.5-14.2-16c-1.3-7.2-0.8-14.5-0.8-21.7C167.4,403.3,168,395.9,172.8,390.7z"/>
	<path class="st1" d="M225.7,383.6c2.7-0.3,5.3-0.5,8-0.5c0.4,0.4,1.1,1.3,1.5,1.7c-0.1,8.3,0,16.7,0,25c0.4,0.4,1.2,1.1,1.6,1.4
		c7.8,0,15.5,0,23.3,0c0.4-0.3,1.3-1,1.7-1.3c0-8.4,0-16.9,0-25.3c0.4-0.4,1.1-1.2,1.5-1.5c2.7,0.1,5.4,0.2,8.1,0.6
		c0,21,0,41.9,0,62.9c-0.4,0.4-1.1,1.1-1.5,1.4c-2.2,0-4.4,0-6.7,0c-0.4-0.4-1.1-1.1-1.5-1.4c0.1-8.4,0-16.9,0-25.3
		c-0.4-0.3-1.3-1-1.7-1.3c-7.8,0-15.5,0-23.3,0c-0.4,0.4-1.2,1-1.6,1.4c0,8.4,0,16.7,0,25c-0.4,0.4-1.1,1.3-1.5,1.7
		c-2.7-0.1-5.4-0.2-8-0.6C225.6,426.1,225.6,404.9,225.7,383.6z"/>
	<path class="st1" d="M286.6,384.4c0.4-0.3,1.1-0.9,1.5-1.3c2.3,0,4.7,0,7,0c9.8,14.2,19,28.8,28.5,43.2c0.5,0.1,1.4,0.4,1.9,0.6
		c-0.1-14.5-0.1-28.9,0-43.4c2.7-0.3,5.4-0.4,8.1-0.5c0.4,0.4,1.1,1.3,1.5,1.7c0,20.5,0,41.1,0,61.6c-0.4,0.4-1.1,1.2-1.4,1.6
		c-2.8-0.5-6.9,1.1-8.6-1.9c-9.4-14.1-18.3-28.5-28-42.4c-0.8,2-1.1,4.2-1,6.3c0.1,12.1,0,24.2,0.1,36.3c-0.4,0.4-1.1,1.3-1.5,1.7
		c-2.7-0.1-5.4-0.2-8-0.5C286.6,426.4,286.7,405.4,286.6,384.4z"/>
	<path class="st1" d="M349.6,384.4c0.4-0.3,1.1-0.9,1.5-1.3c2.2,0,4.4,0,6.6,0c0.4,0.4,1.1,1.2,1.4,1.6c0,12.8,0,25.5,0,38.3
		c0.1,3.9,0,8.2,2.3,11.6c4.7,7.2,16.7,7.5,22,0.8c2.4-2.9,2.8-6.8,2.9-10.4c0-13.3-0.1-26.6,0-39.9c0-2.4,3.1-2,4.7-2.1
		c1.7,0,4.7-0.4,4.8,2.1c0.1,13.7,0,27.3,0,41c0.1,6.2-2.3,12.6-7,16.9c-9.5,8.7-26.3,7.9-34.5-2.2c-3.2-3.8-4.7-8.8-4.7-13.7
		C349.6,412.8,349.7,398.6,349.6,384.4z"/>
	<path class="st1" d="M410.7,383.6c2.8-0.4,5.6-0.5,8.4-0.5c9.8,14.2,19,28.9,28.6,43.3c0.5,0.1,1.4,0.4,1.9,0.6
		c-0.1-14.5-0.1-28.9,0-43.4c2.7-0.3,5.4-0.4,8.1-0.5c0.4,0.4,1.1,1.3,1.5,1.7c0,20.5,0,41.1,0,61.6c-0.4,0.4-1.1,1.2-1.4,1.6
		c-2.4-0.1-4.9,0.1-7.2-0.4c-2.7-2.8-4.4-6.4-6.6-9.6c-7.7-11.4-14.8-23.2-22.8-34.3c-0.8,2-1.1,4.2-1,6.4c0.1,12.1,0,24.2,0.1,36.2
		c-0.4,0.4-1.1,1.3-1.5,1.7c-2.7-0.1-5.3-0.2-8-0.6C410.7,426.1,410.7,404.9,410.7,383.6z"/>
	<path class="st1" d="M477.3,391.3c8.4-10.6,26.4-11,35.4-0.9c3.2,3.3,4.8,7.7,6.2,12l-1.4-0.1l0.1,1c-2.5,0-4.9,0-7.4,0
		c-2.2-3.3-3.7-7.3-7.1-9.5c-5.5-3.3-13.5-2.6-17.8,2.5c-2.9,3.2-3.1,7.7-3.4,11.7c-0.2,6-0.3,12,0.1,18.1c0.2,3.6,1,7.6,3.7,10.2
		c5.7,6.1,16.9,4.9,21.4-2c2.3-3.4,2.1-7.7,2.3-11.6c-4.6-0.9-9.3-0.6-14-1.1c0-2.7,0-5.3,0-8c7.3-0.7,14.8-0.5,22.1-0.3
		c0.3,0.3,0.8,0.8,1.1,1.1c0.2,8.6,1.2,18.5-4.5,25.8c-8.6,11.4-28.1,11.9-37,0.6c-5.7-6.8-4.9-16.3-5-24.7
		C472.4,407.7,471.5,398.1,477.3,391.3z"/>
</g>
<g>
	<path class="st2" d="M273.1,46.2c7.4-5.6,17.1-5.9,25.9-5.4c5.9,0.1,10.6,3.9,15.6,6.6c50.9,29.1,101.7,58.4,152.7,87.4
		c3,1.6,3.9,5,3.8,8.1c0,55.7,0,111.4,0,167.1c0,6.2,0.3,13.2-3.5,18.5c-1.9,2.8-5.3,4-8.6,3.9c-110.7,0-221.3,0-332,0
		c-5.7,0.2-10.5-3.2-14.6-6.8c-3.6-3.2-7-7.5-6.5-12.6c0-56.3,0-112.7,0-169.1c-0.3-3.4,1.6-6.8,4.7-8.3c8.2-3.7,16.3-7.8,23.9-12.7
		c0-6.7-0.2-13.3,0-20c-0.2-3.9,3.6-7.2,7.5-6.4c11,0.9,22,1.9,33,3c3.2,0.5,6-1.4,8.7-2.8C213.6,80.1,243.9,64,273.1,46.2z
		 M276.9,59.8c-24.1,14.4-48.8,27.9-73.4,41.4c7.9,2.1,16.3,1.6,24.4,2.9c18.7,1.4,37.4,3.2,56,5c11.3,0.8,22.7,1.8,34,3
		c10.8,0.6,21.4,2,32.2,2.6c7.9,1.1,15.9,1.2,23.8,2.3c3.7,0.3,7.4,0.3,11,1c5,0.3,10,0.8,15,1.3c5,0,9.9,1.6,14.9,0.8
		c-1.3-0.4-2.6-0.7-3.9-0.9l1-0.7c-37.3-21.1-74.4-42.7-111.7-63.8c-4-1.4-8.3-0.6-12.4-0.2C283.5,54.7,280.4,57.9,276.9,59.8z
		 M145.9,107.4c-0.3,0.6-0.9,1.7-1.2,2.3c0,14.9,0,29.8,0,44.7c18.2,13.6,36.8,26.7,55.5,39.5c12.5,8.3,24.8,16.9,38.1,23.7
		c3.6,2.1,7.7,2.4,11.7,2.6c24.3,1.6,48.8,2,73.1,0.7c4.7-0.5,9.8-0.3,14.1-2.7c11.4-6.3,22.3-13.6,33.2-20.7
		c21.8-14.6,43.6-29.4,65-44.7c-0.2-6.3,1.4-12.5,1-18.8c-0.6-0.3-1.8-0.9-2.3-1.3c-10.1-0.2-20.1-1.7-30.2-2.3
		c-35.3-3.3-70.6-6.2-105.9-9.6c-15-1.2-30-2.5-45-4c-15-1.2-30-2.5-45-4C187.3,111.2,166.6,109.2,145.9,107.4z M119.4,153.5
		c-0.3,49.8,0,99.6-0.1,149.4c0,2.1,0.1,4.3,0.4,6.4c34.3-26,68.3-52.4,102.4-78.5c1.3-1,2.6-1.9,3.7-3.1c0.4-1.4-1.2-1.8-2-2.5
		c-15.4-9.1-30.1-19.2-44.8-29.4c-18.6-13-36.9-26.3-55.1-39.8C122.4,155.1,120.9,154.3,119.4,153.5z M430.8,172.9
		c-25.5,17.6-50.9,35.4-77.4,51.6c0,0.5-0.1,1.5-0.1,1.9c34.8,27.5,69.2,55.5,104.1,82.9c0.5-3.4,0.3-6.9,0.4-10.4c0-33,0-66,0-99
		c-0.2-15.1,0.3-30.2-0.2-45.3C448.3,160.2,439.7,166.9,430.8,172.9z M295,235.2c-17.8-0.2-35.7-0.4-53.5-2.1
		c-36.9,28.5-74.1,56.7-110.9,85.3c1.5,0.4,3,0.6,4.5,0.6c102.3,0,204.7,0,307,0c1.5,0,2.9-0.2,4.4-0.6
		c-35.7-28.6-71.4-57.3-107.3-85.6C324.5,235,309.7,235.1,295,235.2z"/>
</g>
<path class="st2" d="M174.4,130.5c5.6-0.6,11.1,1,16.7,1.1c7.9,1,16,1.5,23.9,2.5c6.1,0.3,12.2,1.3,18.3,1.6c2.1,0.1,4,1,5.9,2
	c0.3,0.6,1,1.7,1.3,2.2c0,1.1,0,2.2,0,3.3c-1,1.1-2,2.2-3.1,3.2c-6.8,0.3-13.5-0.9-20.2-1.6c-6.7-0.5-13.4-1.2-20-2
	c-6.1-0.3-12.1-1.3-18.1-1.6c-2.6-0.4-5.8-0.4-7.5-2.8C169.1,135.8,170.9,131.1,174.4,130.5z"/>
<path class="st2" d="M170.5,152.9c-1.1-3.8,2.7-7.3,6.4-6.5c12.7,1.1,25.3,2.4,38,3.7c6.4,0.4,12.8,1.3,19.2,1.7
	c2.5,0.2,4.6,1.7,6.2,3.6c0,1.3,0,2.6,0,3.9c-2.7,4.4-8.1,3.2-12.4,2.7c-3.6-0.6-7.3-0.4-10.8-1.2c-6.7-0.5-13.4-1.2-20-2
	c-6.1-0.3-12.1-1.3-18.1-1.6C175.8,157,171.5,156.5,170.5,152.9z"/>
<path class="st2" d="M173,172c-4.4-2.2-2.7-9.6,2.2-9.6c10,0.3,19.9,1.7,29.8,2.7c3.3,0.3,6.7,0.3,10,1c6.4,0.4,12.8,1.3,19.2,1.7
	c2.8,0.3,6.1,1.9,6.2,5.1c0.4,2.4-1.6,3.9-3,5.5c-9.2,0.3-18.4-1.7-27.6-2.1c-4.2-0.7-8.6-0.7-12.8-1.4c-3.3-0.3-6.7-0.3-10-1
	C182.4,173.3,177.4,173.8,173,172z"/>
</svg>
