<?xml version="1.0" encoding="utf-8"?>
<!-- Generator: Adobe Illustrator 26.2.1, SVG Export Plug-In . SVG Version: 6.00 Build 0)  -->
<svg version="1.1" id="Layer_1" xmlns="http://www.w3.org/2000/svg" xmlns:xlink="http://www.w3.org/1999/xlink" x="0px" y="0px"
	 viewBox="0 0 820 549" style="enable-background:new 0 0 820 549;" xml:space="preserve">
<style type="text/css">
	.st0{fill:#597B9E;}
</style>
<g>
	<rect x="252.5" y="71.5" class="st0" width="457" height="229"/>
	<path class="st0" d="M177.5,307c-27.6,0-50,22.4-50,50c0,27.6,22.4,50,50,50s50-22.4,50-50C227.5,329.4,205.1,307,177.5,307z
		 M177.5,379c-12.2,0-22-9.8-22-22s9.8-22,22-22s22,9.8,22,22S189.7,379,177.5,379z"/>
	<g>
		<path class="st0" d="M615.6,307c16,10.9,26.4,29.2,26.4,50h6.2l66.3-28.4V307H615.6z"/>
		<path class="st0" d="M241.9,307V147.5H133.5l-48.4,101V357H117c0-33.4,27.1-60.5,60.5-60.5S238,323.6,238,357h283
			c0-20.8,10.5-39.1,26.4-50H241.9z M227.5,234.5h-118l27-60h91V234.5z"/>
	</g>
	<path class="st0" d="M581.5,307c-27.6,0-50,22.4-50,50c0,27.6,22.4,50,50,50s50-22.4,50-50C631.5,329.4,609.1,307,581.5,307z
		 M581.5,379c-12.2,0-22-9.8-22-22s9.8-22,22-22s22,9.8,22,22S593.7,379,581.5,379z"/>
	<g>
		<path class="st0" d="M209.6,473.2c-6.3,0-9.5,5.6-9.5,12.6c0,7.5,3.7,12.2,9.4,12.2c4,0,7.3-2.7,8.1-6.6c0.2-1,0.3-2.1,0.3-3.2
			v-5.8c0-0.7,0-1.7-0.2-2.5C216.8,476.2,213.8,473.2,209.6,473.2z"/>
		<path class="st0" d="M159.8,471.8c-5.8,0-8.2,5.3-8.5,9h16.3C167.6,477.4,166.2,471.8,159.8,471.8z"/>
		<path class="st0" d="M346.4,472.4c-6.5,0-9.1,6.8-9.1,13.3c0,7.6,3.2,13.3,9.1,13.3c5.4,0,8.8-5.3,8.8-13.4
			C355.2,479.1,352.6,472.4,346.4,472.4z"/>
		<path class="st0" d="M649.4,494c0,3.5,2.4,5.3,5.4,5.3c3.4,0,6.3-2.3,7.2-5.1c0.2-0.7,0.3-1.5,0.3-2.4V487
			C655,487,649.4,488.8,649.4,494z"/>
		<path class="st0" d="M536.1,471.8c-5.8,0-8.2,5.3-8.5,9h16.3C543.9,477.4,542.4,471.8,536.1,471.8z"/>
		<path class="st0" d="M760.6,473.2c-6.3,0-9.5,5.6-9.5,12.6c0,7.5,3.7,12.2,9.4,12.2c4,0,7.3-2.7,8.1-6.6c0.2-1,0.3-2.1,0.3-3.2
			v-5.8c0-0.7,0-1.7-0.2-2.5C767.9,476.2,764.9,473.2,760.6,473.2z"/>
		<path class="st0" d="M108.6,473.4c-3.9,0-7.3,2.9-8.2,7c-0.2,0.7-0.3,1.6-0.3,2.4v6.1c0,1.1,0.1,2,0.3,2.9
			c0.9,3.7,4.1,6.5,8.1,6.5c6,0,9.5-5,9.5-12.5C118,478.8,114.8,473.4,108.6,473.4z"/>
		<path class="st0" d="M751.6,0H68.4C30.7,0,0,30.7,0,68.4V415v65.6C0,518.3,30.7,549,68.4,549h683.1c37.7,0,68.4-30.7,68.4-68.4
			V415V68.4C820,30.7,789.3,0,751.6,0z M52.8,508.9c-7,0-13.9-1.9-17.3-3.8l2.8-11.3c3.6,1.9,9.4,3.8,15.3,3.8
			c6.3,0,9.7-2.6,9.7-6.6c0-3.8-2.9-6-10.2-8.5c-10.2-3.6-16.9-9.2-16.9-18.1c0-10.4,8.8-18.3,23.1-18.3c7,0,12,1.4,15.6,3.1
			l-3.1,11.1c-2.4-1.2-6.8-2.9-12.7-2.9c-6,0-8.9,2.8-8.9,5.9c0,3.9,3.4,5.6,11.3,8.6c10.8,4,15.8,9.6,15.8,18.2
			C77.3,500.2,69.5,508.9,52.8,508.9z M111.8,509c-5.3,0-9.5-2.2-11.5-5.1h-0.2v22H86.3v-47.4c0-5.8-0.2-10.7-0.4-14.9h12l0.6,6.2
			h0.2c3.3-4.6,8.3-7.2,14.8-7.2c9.7,0,18.4,8.4,18.4,22.6C131.9,501.4,121.7,509,111.8,509z M179.9,490.2h-28.6
			c0.4,5.7,6.1,8.4,12.5,8.4c4.7,0,8.5-0.6,12.2-1.9l1.8,9.3c-4.5,1.9-10.1,2.8-16,2.8c-15,0-23.7-8.7-23.7-22.6
			c0-11.2,7-23.7,22.4-23.7c14.3,0,19.8,11.1,19.8,22.1C180.4,487.1,180.1,489.2,179.9,490.2z M219.7,508l-0.5-6.4h-0.3
			c-2.7,4.9-8.2,7.4-13.9,7.4c-10.5,0-18.9-9-18.9-22.8c-0.1-15,9.2-23.7,19.8-23.7c5.5,0,9.7,2,11.7,5h0.2v-23.9h13.8v51.1
			c0,5,0.2,10.2,0.4,13.2H219.7z M256.5,508h-13.8v-44.3h13.8V508z M249.5,458.2c-4.4,0-7.2-3.1-7.2-6.9c0-3.9,2.9-6.9,7.3-6.9
			c4.4,0,7.2,3,7.3,6.9C256.9,455.1,254.1,458.2,249.5,458.2z M292.8,473.8h-9.9v16c0,5.3,1.4,7.8,5.4,7.8c1.9,0,2.8-0.1,4.1-0.4
			l0.1,10.4c-1.7,0.6-5.1,1.2-8.9,1.2c-4.4,0-8.2-1.5-10.4-3.8c-2.5-2.6-3.8-6.9-3.8-13.1v-18.1h-5.9v-10.2h5.9v-8.2l13.5-3.7v12
			h9.9V473.8z M314.6,508h-13.8v-44.3h13.8V508z M307.6,458.2c-4.4,0-7.2-3.1-7.2-6.9c0-3.9,2.9-6.9,7.3-6.9s7.2,3,7.3,6.9
			C315,455.1,312.2,458.2,307.6,458.2z M346,509c-13,0-22.9-8.5-22.9-22.8c0-14.4,9.4-23.6,23.7-23.6c13.5,0,22.6,9.3,22.6,22.8
			C369.4,501.5,357.9,509,346,509z M420,508h-13.8v-24.6c0-5.7-2-9.6-7-9.6c-3.8,0-6.1,2.6-7.1,5.2c-0.4,0.9-0.5,2.2-0.5,3.4V508
			h-13.8v-30.2c0-5.5-0.2-10.2-0.4-14.1h12l0.6,6.2h0.3c1.8-2.9,6.3-7.2,13.7-7.2c9.1,0,15.9,6.1,15.9,19.1V508z M442.8,509
			c-5.8,0-11-1.4-14.3-3.2l2.4-9.8c2.5,1.5,7.8,3.3,11.9,3.3c4.2,0,5.9-1.4,5.9-3.6c0-2.4-1.4-3.4-6.4-5.2
			c-9.2-3.1-12.8-8.1-12.7-13.3c0-8.3,7.1-14.6,18-14.6c5.2,0,9.7,1.3,12.4,2.6l-2.4,9.5c-2-1.1-5.9-2.5-9.6-2.5
			c-3.4,0-5.3,1.4-5.3,3.5c0,2.2,1.7,3.3,7.2,5.2c8.4,2.9,11.9,7.3,12,13.7C461.9,502.9,455.5,509,442.8,509z M495.6,508h-13.8
			l-16.1-44.3h15l6,20.6c1.1,3.8,1.8,7.3,2.5,10.8h0.3c0.7-3.6,1.5-7,2.4-10.8l5.7-20.6h14.5L495.6,508z M556.2,490.2h-28.6
			c0.4,5.7,6.1,8.4,12.5,8.4c4.7,0,8.5-0.6,12.2-1.9l1.8,9.3c-4.5,1.9-10.1,2.8-16,2.8c-15,0-23.7-8.7-23.7-22.6
			c0-11.2,7-23.7,22.4-23.7c14.3,0,19.8,11.1,19.8,22.1C556.7,487.1,556.4,489.2,556.2,490.2z M592.1,475.8
			c-1.1-0.2-2.2-0.4-3.7-0.4c-5.1,0-8.5,2.7-9.4,7c-0.2,0.9-0.3,2-0.3,3.1V508h-13.8v-29.7c0-6.5-0.1-10.8-0.4-14.6h11.8l0.5,8.2
			h0.4c2.3-6.5,7.6-9.2,12-9.2c1.3,0,1.9,0.1,2.9,0.3V475.8z M611.1,509c-5.8,0-11-1.4-14.3-3.2l2.4-9.8c2.5,1.5,7.8,3.3,11.9,3.3
			c4.2,0,5.9-1.4,5.9-3.6c0-2.4-1.4-3.4-6.4-5.2c-9.2-3.1-12.8-8.1-12.7-13.3c0-8.3,7.1-14.6,18-14.6c5.2,0,9.7,1.3,12.4,2.6
			l-2.4,9.5c-2-1.1-5.9-2.5-9.6-2.5c-3.4,0-5.3,1.4-5.3,3.5c0,2.2,1.7,3.3,7.2,5.2c8.4,2.9,11.9,7.3,12,13.7
			C630.3,502.9,623.8,509,611.1,509z M663.9,508l-0.8-4.4h-0.3c-2.9,3.5-7.4,5.4-12.7,5.4c-9,0-14.3-6.5-14.3-13.6
			c0-11.5,10.3-16.9,26-16.9v-0.5c0-2.4-1.3-5.8-8.1-5.8c-4.5,0-9.3,1.5-12.2,3.4l-2.5-8.9c3.1-1.7,9.2-4,17.2-4
			c14.8,0,19.4,8.7,19.4,19.2v15.5c0,4.2,0.2,8.2,0.7,10.7H663.9z M728.6,508h-13.8v-24.6c0-5.7-2-9.6-7-9.6c-3.8,0-6.1,2.6-7.1,5.2
			c-0.4,0.9-0.5,2.2-0.5,3.4V508h-13.8v-30.2c0-5.5-0.2-10.2-0.4-14.1h12l0.6,6.2h0.3c1.8-2.9,6.3-7.2,13.7-7.2
			c9.1,0,15.9,6.1,15.9,19.1V508z M770.8,508l-0.5-6.4h-0.3c-2.7,4.9-8.2,7.4-13.9,7.4c-10.5,0-18.9-9-18.9-22.8
			c-0.1-15,9.2-23.7,19.8-23.7c5.5,0,9.7,2,11.7,5h0.2v-23.9h13.8v51.1c0,5,0.2,10.2,0.4,13.2H770.8z M810,415H10V68.4
			C10,36.2,36.2,10,68.4,10h683.1c32.2,0,58.4,26.2,58.4,58.4V415z"/>
	</g>
</g>
</svg>
