<svg xmlns="http://www.w3.org/2000/svg" viewBox="0 0 290.02 64.95"><defs><style>.cls-1{fill:#2ba21e;}.cls-2{fill:#61c130;}.cls-3{fill:#439339;}.cls-4{fill:#75b444;}.cls-5{fill:#a4cc39;}.cls-6{fill:#221f20;}.cls-7{fill:#fff;}.cls-8{fill:#f82a5b;}.cls-9{fill:#f62f5e;}.cls-10{fill:#fefefe;}.cls-11{fill:#fddf4f;}.cls-12{fill:#fbb931;}.cls-13{fill:#fce29b;}.cls-14{fill:#dfd5e9;}.cls-15{fill:#2e2113;}.cls-16{fill:#59595b;}</style></defs><title>spring_logo</title><g id="Слой_2" data-name="Слой 2"><g id="Layer_1" data-name="Layer 1"><path class="cls-1" d="M263.8,0s-34.23,23-15.13,42C248.67,42,275.17,45.56,263.8,0Z"/><path class="cls-2" d="M249.18,42h0C250.66,26.75,263.8,0,263.8,0,274.22,41.78,252.81,42.24,249.18,42Z"/><path class="cls-3" d="M262.2,3s-12.08,23.51-13.53,39l.93.07S250.31,29.47,262.2,3Z"/><path class="cls-3" d="M252,29.63l-1.21,3.7s7.17-8.75,13.64-11.74A27,27,0,0,0,252,29.63Z"/><path class="cls-3" d="M256.29,17.13l-1,2.49s5-5.9,9.55-7.89A18.72,18.72,0,0,0,256.29,17.13Z"/><path class="cls-3" d="M250.38,34.4l-.5,3s-1.69-8.75-5-13.19A21.11,21.11,0,0,1,250.38,34.4Z"/><path class="cls-3" d="M253.86,22.72l-.66,2.35s-.6-7-2.8-10.82A16.69,16.69,0,0,1,253.86,22.72Z"/><path class="cls-4" d="M290,20.93S240,29.08,251.64,60C251.64,60,279.4,77.61,290,20.93Z"/><path class="cls-5" d="M252.19,60.37v0C261.66,44.06,290,20.93,290,20.93,280.28,72.9,256.14,62.46,252.19,60.37Z"/><path class="cls-3" d="M286.71,23.43S261.2,43.49,251.64,60l1,.55S259.87,46.93,286.71,23.43Z"/><path class="cls-3" d="M261.69,48l-3.24,3.5s12.49-6.09,21.24-6.13C279.69,45.35,271.65,43.72,261.69,48Z"/><path class="cls-3" d="M272.87,36.21l-2.38,2.27s8.59-4,14.7-3.91A23,23,0,0,0,272.87,36.21Z"/><path class="cls-3" d="M257.43,52.46l-2.12,3.13S257.9,45,256.52,38.33C256.52,38.33,259,44.1,257.43,52.46Z"/><path class="cls-3" d="M267.3,41.21l-1.94,2.29s2.93-8.17,2.41-13.51A20.51,20.51,0,0,1,267.3,41.21Z"/><path class="cls-6" d="M193.74,42.15h-.5a2.83,2.83,0,0,0-2.39,4.48,3.14,3.14,0,0,0,1.89,1.2h.5a3,3,0,0,0,2.89-2.39A2.83,2.83,0,0,0,193.74,42.15Z"/><path class="cls-6" d="M183.77,31.78l-.5.1a2.13,2.13,0,0,0-2.09,1.69,1.67,1.67,0,0,0,.4,1.49,1.83,1.83,0,0,0,1.4.8h.4a2.06,2.06,0,0,0,.4-4.09Z"/><path class="cls-7" d="M244.66,23.39H17.84A17.84,17.84,0,0,0,0,41v6.28A17.78,17.78,0,0,0,17.84,65H244.66A17.72,17.72,0,0,0,262.5,47.31V41A17.78,17.78,0,0,0,244.66,23.39Z"/><polygon class="cls-6" points="51.92 30.39 45.44 30.39 27.21 41.25 23.62 41.25 25.61 30.39 22.02 30.39 17.24 56.7 20.83 56.7 23.02 44.74 26.81 44.74 41.26 56.7 47.34 56.7 30.7 43.04 51.92 30.39"/><path class="cls-6" d="M66,37.66H57.9a9.37,9.37,0,0,0-5.48,1.49c-1.69,1.1-2.49,2.29-2.39,3.49l-.3,1.1h3.79l.2-.9a2,2,0,0,1,.7-1,5.84,5.84,0,0,1,3.89-1.1h7.08a4,4,0,0,1,2.69.7,2.13,2.13,0,0,1,.7,1.79v.7l-.3,1.49a4.58,4.58,0,0,0-2.89-.7H54.91A8.09,8.09,0,0,0,50,46a5.28,5.28,0,0,0-2.09,3.29l-.4,2.19a4.47,4.47,0,0,0-.1,1.1A3.25,3.25,0,0,0,49,55.7a8.32,8.32,0,0,0,4.29.9H63.68a5.36,5.36,0,0,0,2.79-.8l-.1.8H70l2.19-12.06c0-.1.1-.4.2-.8v-1A4.63,4.63,0,0,0,70.76,39C69.76,38.06,68.17,37.66,66,37.66Zm1.49,12.56-.1.4a3.36,3.36,0,0,1-1.2,2.19,4.58,4.58,0,0,1-2.89.7H54.21a5.17,5.17,0,0,1-2.59-.4A1.14,1.14,0,0,1,51,52v-.6l.3-1.3a2.59,2.59,0,0,1,1-1.69,6.71,6.71,0,0,1,3.09-.5h9.07c2.69-.1,3,1,3,1.89Z"/><path class="cls-6" d="M97.07,37.76,95,49.52a4.73,4.73,0,0,1-2.09,3.09,6.6,6.6,0,0,1-3.59,1.1H82.12a5.43,5.43,0,0,1-3.09-.8,2.63,2.63,0,0,1-1-2.29,4.47,4.47,0,0,1,.1-1.1l2.09-11.66H76.64L74.54,49.22a15.35,15.35,0,0,0-.2,1.89,5.09,5.09,0,0,0,1.79,4.29c1.2,1,3,1.49,5.48,1.49H88.8a8.63,8.63,0,0,0,4.48-1.2,2.09,2.09,0,0,0,.6-.4l-.3,1.59h3.49l3.49-19H97.07Z"/><path class="cls-6" d="M110.62,34.47a4.21,4.21,0,0,1,2.89-1h4.19l.6-3.19h-4.38a8.07,8.07,0,0,0-5.48,1.79,9.29,9.29,0,0,0-2.79,5.38v.1h-2.29l-.6,3.09H105l-2.89,16h3.59l2.89-16h7.87l.6-3.09h-7.87A6.86,6.86,0,0,1,110.62,34.47Z"/><path class="cls-6" d="M141.42,31.48H122L117.2,57.79h20.33a13.3,13.3,0,0,0,7.28-1.69c1.89-1.2,3.09-3.29,3.59-6.18,0-.1.1-.3.2-.7v-.9a5.12,5.12,0,0,0-1.4-3.69,5.48,5.48,0,0,0-.9-.7,14.25,14.25,0,0,0,1.49-1.1,12.32,12.32,0,0,0,1.79-4.29,7.75,7.75,0,0,0,.2-1.59C149.79,33.38,147,31.48,141.42,31.48Zm3.19,18.34a5.57,5.57,0,0,1-1.79,3.49,6.43,6.43,0,0,1-3.89,1.1H121.28l1.49-8.57h17.54a6.37,6.37,0,0,1,3.39.7,2.34,2.34,0,0,1,1,2.19A4.47,4.47,0,0,1,144.6,49.82Zm1.2-11.06a3.71,3.71,0,0,1-1.69,2.89,6.87,6.87,0,0,1-3.69.7H123.48l1.3-7.37h17a5.21,5.21,0,0,1,3.19.7,2.25,2.25,0,0,1,.9,2A4.47,4.47,0,0,1,145.8,38.76Z"/><path class="cls-6" d="M174.3,40.45a8.18,8.18,0,0,0-5.48-1.59h-7.67a9.37,9.37,0,0,0-6.38,2.19,8.45,8.45,0,0,0-3,4.88l-.9,4.78a14,14,0,0,0-.2,1.79c0,3.69,2.49,5.48,7.28,5.48h9a8.48,8.48,0,0,0,5.78-2,7,7,0,0,0,2.19-3.89l.1-.9h-3.59v.7A3.57,3.57,0,0,1,170,54a4.75,4.75,0,0,1-3.09.8h-8.77a5,5,0,0,1-2.89-.8,2.71,2.71,0,0,1-1-2.39v-.7c0-.2.1-.4.1-.7l.3-1.4H175.3l.6-3.29a4.85,4.85,0,0,0,.1-1.2A4.58,4.58,0,0,0,174.3,40.45Zm-1.89,5.38h-17A5.73,5.73,0,0,1,157.06,43a4.77,4.77,0,0,1,3.29-1.2h8.37a4.08,4.08,0,0,1,2.79.9,3.23,3.23,0,0,1,.9,2.39Z"/><polygon class="cls-6" points="177.49 57.79 181.08 57.79 184.57 38.86 180.98 38.86 177.49 57.79"/><g id="Page-1"><g id="Homepage-_-1920" data-name="Homepage-&gt;-1920"><g id="logo"><path id="Fill-1" class="cls-8" d="M193.24,42.15a2.83,2.83,0,0,0-2.39,4.48,3.14,3.14,0,0,0,1.89,1.2h.5a3,3,0,0,0,2.89-2.39,2.83,2.83,0,0,0-2.39-3.29h-.5"/><path id="Fill-3" class="cls-6" d="M183.27,31.88a2.13,2.13,0,0,0-2.09,1.69,1.67,1.67,0,0,0,.4,1.49,1.83,1.83,0,0,0,1.4.8h.4a2.06,2.06,0,0,0,.4-4.09l-.5.1"/><g id="Group-7"><path id="Fill-5" class="cls-9" d="M198.22,45.82a5,5,0,0,1-5,4.19,2.76,2.76,0,0,1-.9-.1h-.2l-2,12.16H17.84A14.82,14.82,0,0,1,2.89,47.31V41A14.82,14.82,0,0,1,17.84,26.28H196.23L193.84,40h.1a5,5,0,0,1,4.29,5.78m46.44-22.42H17.84A17.84,17.84,0,0,0,0,41v6.28A17.78,17.78,0,0,0,17.84,65H244.66A17.72,17.72,0,0,0,262.5,47.31V41a17.78,17.78,0,0,0-17.84-17.64"/></g><polygon id="Fill-8" class="cls-6" points="51.92 30.39 45.44 30.39 27.21 41.25 23.62 41.25 25.61 30.39 22.02 30.39 17.24 56.7 20.83 56.7 23.02 44.74 26.81 44.74 41.26 56.7 47.34 56.7 30.7 43.04 51.92 30.39"/><path id="Fill-10" class="cls-6" d="M67.47,49.82v.4l-.1.4a3.36,3.36,0,0,1-1.2,2.19,4.58,4.58,0,0,1-2.89.7H54.21a5.17,5.17,0,0,1-2.59-.4A1.14,1.14,0,0,1,51,52v-.6l.3-1.3a2.59,2.59,0,0,1,1-1.69,6.71,6.71,0,0,1,3.09-.5h9.07c2.69-.1,3,1,3,1.89M70.76,39c-1-.9-2.59-1.3-4.78-1.3H57.9a9.37,9.37,0,0,0-5.48,1.49c-1.69,1.1-2.49,2.29-2.39,3.49l-.3,1.1h3.79l.2-.9a2,2,0,0,1,.7-1,5.84,5.84,0,0,1,3.89-1.1h7.08a4,4,0,0,1,2.69.7,2.13,2.13,0,0,1,.7,1.79v.7l-.3,1.49a4.58,4.58,0,0,0-2.89-.7H54.91A8.09,8.09,0,0,0,50,46a5.28,5.28,0,0,0-2.09,3.29l-.4,2.19a4.47,4.47,0,0,0-.1,1.1A3.25,3.25,0,0,0,49,55.7a8.32,8.32,0,0,0,4.29.9H63.68a5.36,5.36,0,0,0,2.79-.8h0l-.1.8H70l2.19-12.06c0-.1.1-.4.2-.8v-1A4.63,4.63,0,0,0,70.76,39"/><path id="Fill-12" class="cls-6" d="M97.07,37.76,95,49.52a4.73,4.73,0,0,1-2.09,3.09,6.6,6.6,0,0,1-3.59,1.1H82.12a5.43,5.43,0,0,1-3.09-.8,2.63,2.63,0,0,1-1-2.29,4.47,4.47,0,0,1,.1-1.1l2.09-11.66H76.64L74.54,49.22a15.35,15.35,0,0,0-.2,1.89,5.09,5.09,0,0,0,1.79,4.29c1.2,1,3,1.49,5.48,1.49H88.8a8.63,8.63,0,0,0,4.48-1.2,2.08,2.08,0,0,0,.6-.4l-.3,1.59h3.49l3.49-19H97.07"/><path id="Fill-14" class="cls-6" d="M113.51,33.48h4.19l.6-3.19h-4.38a8.07,8.07,0,0,0-5.48,1.79,9.29,9.29,0,0,0-2.79,5.38v.1h-2.29l-.6,3.09H105l-2.89,16h3.59l2.89-16h7.87l.6-3.09h-7.87a6.86,6.86,0,0,1,1.4-3.09,4.21,4.21,0,0,1,2.89-1"/><path id="Fill-16" class="cls-10" d="M221,50.92h0a5,5,0,0,1-1.79,3.49,7,7,0,0,1-3.89.9h-3.59a2.54,2.54,0,0,1-1.89-.6,2.31,2.31,0,0,1-.7-2,3.74,3.74,0,0,1,.1-1l1.59-9.07h13.75l.6-3.39H211.47l1.59-8.17h-3.89l-1.59,8.17H205.3l-.6,3.39H207l-1.49,8.47h0a4.06,4.06,0,0,1-.2,1h0V53a5.34,5.34,0,0,0,1.59,4.19,6.89,6.89,0,0,0,4.48,1.4h3.79c3.19,0,5.78-.9,7.47-2.79a8.55,8.55,0,0,0,2.09-4.48h0l.2-.4.2-.7h-3.89Z"/><polygon id="Fill-18" class="cls-10" points="250.24 39.56 246.95 39.56 235.99 54.5 230.51 39.56 226.32 39.56 233.6 58.69 237.09 58.69 251.34 39.56 250.24 39.56"/><path id="Fill-20" class="cls-6" d="M142.81,53.31a6.43,6.43,0,0,1-3.89,1.1H121.28l1.49-8.57h17.54a6.37,6.37,0,0,1,3.39.7,2.34,2.34,0,0,1,1,2.19,4.47,4.47,0,0,1-.1,1.1,5.57,5.57,0,0,1-1.79,3.49m-2.39-11H123.48l1.3-7.37h17a5.21,5.21,0,0,1,3.19.7,2.25,2.25,0,0,1,.9,2,4.47,4.47,0,0,1-.1,1.1,3.71,3.71,0,0,1-1.69,2.89,6.87,6.87,0,0,1-3.69.7m9.17-3.79a7.75,7.75,0,0,0,.2-1.59c0-3.59-2.79-5.48-8.37-5.48H122L117.2,57.79h20.33a13.3,13.3,0,0,0,7.28-1.69c1.89-1.2,3.09-3.29,3.59-6.18,0-.1.1-.3.2-.7v-.9a5.12,5.12,0,0,0-1.4-3.69,5.48,5.48,0,0,0-.9-.7,14.26,14.26,0,0,0,1.49-1.1,12.31,12.31,0,0,0,1.79-4.29"/><path id="Fill-22" class="cls-6" d="M160.35,41.85h8.37a4.08,4.08,0,0,1,2.79.9,3.23,3.23,0,0,1,.9,2.39v.7h-17A5.73,5.73,0,0,1,157.06,43a4.77,4.77,0,0,1,3.29-1.2m14-1.4a8.18,8.18,0,0,0-5.48-1.59h-7.67a9.37,9.37,0,0,0-6.38,2.19,8.45,8.45,0,0,0-3,4.88l-.9,4.78a14,14,0,0,0-.2,1.79c0,3.69,2.49,5.48,7.28,5.48h9a8.48,8.48,0,0,0,5.78-2,7,7,0,0,0,2.19-3.89l.1-.9h-3.59v.7A3.57,3.57,0,0,1,170,54a4.75,4.75,0,0,1-3.09.8h-8.77a5,5,0,0,1-2.89-.8,2.71,2.71,0,0,1-1-2.39v-.7c0-.2.1-.4.1-.7l.3-1.4H175.3l.6-3.29a4.85,4.85,0,0,0,.1-1.2,4.58,4.58,0,0,0-1.69-3.89"/><polygon id="Fill-24" class="cls-6" points="180.98 38.86 177.49 57.79 181.08 57.79 184.57 38.86 180.98 38.86"/></g></g></g><path class="cls-11" d="M235.31,21.11s-3-.86-7.38,2.3c-5.36,3.87-2.95,5.28-2.55,6.11s.25,2.44,1.1,2.89,1.48.16,1.9,1.21,1.18,1.86,2.36,1.56,2.32.9,3.12-.42a8.84,8.84,0,0,1,1.72-2.47c.59-.45.3-2.28-.18-4.16s-.51-4.9.5-5.52Z"/><path class="cls-12" d="M235.29,21.2s-3.12-.87-7.44,2.65c-4.66,3.8-2.45,5.1-2,5.84s.34,2.11,1.09,2.51,1.28.17,1.68,1.05,1,1.55,2.06,1.34,2,.8,2.74-.24A7.8,7.8,0,0,1,235,32.3c.58-.38.39-2,0-3.81s-.28-5,.8-5.66Z"/><path class="cls-11" d="M234.06,19s-5.72-5.38-11.93-6.24c-6.54-.91-7,2.15-5.85,4s3.47,3.17,3.87,4.34,1.4,4.59,4.47,4.15,9-4.34,10.72-4.1A4,4,0,0,0,234.06,19Z"/><path class="cls-12" d="M233.7,19s-5.83-4.83-11.23-5.67-6,1.48-5.15,3,2.93,2.89,3.25,4,1.25,4.66,4.32,4.38,8.68-3.91,10.4-3.59A4.89,4.89,0,0,0,233.7,19Z"/><path class="cls-13" d="M235.07,21.57a5.87,5.87,0,0,0-2.35-1.28c-.67-.32-3.05-1.69-3.23-1.81-.36-.25-3-1.76-4.39-2.43s-5.44.26-5.44.26,4-.72,5.24-.21l4.79,2.65a21.18,21.18,0,0,0-9.44.45,23.11,23.11,0,0,1,9.6-.32s1.88,1.09,2.1,1.19c0,0-5.1.4-8.18,1,0,0,7.73-1,8.38-.93A21.32,21.32,0,0,1,235.07,21.57Z"/><path class="cls-13" d="M232.32,23.21c-.15.09-4.51,4.3-5.79,5.46-.92,1,4.59-4.14,4.59-4.14a11.86,11.86,0,0,1-.89,2.41A24.09,24.09,0,0,0,229,29.47a20.08,20.08,0,0,0,2-3.9l.34-1.3a11.13,11.13,0,0,1,1.15-1c.2-.07,2.76-1.34,2.76-1.34l.05-.1S232.46,23.12,232.32,23.21Z"/><path class="cls-14" d="M230.9,29.82l-.3.39Z"/><path class="cls-13" d="M233.62,24.74a7.06,7.06,0,0,1-.71,1.88,33.56,33.56,0,0,1-2,3.21l1.25-1.63s-.36,1.7-.43,2.49l-.34,2.58s.92-4.77,1-5.3a16.59,16.59,0,0,0,1.14-2.26s-.15,3.63-.14,4,.07,1.35.07,1.35,0-2.79.1-3.31.23-2.33.22-2.9A8.39,8.39,0,0,1,235,22.54l0-.33A12.53,12.53,0,0,0,233.62,24.74Z"/><path class="cls-11" d="M235.91,20.9s1.86-2.52,7.24-2.69c6.61-.22,5.56,2.38,5.76,3.28s1.29,2.08.89,3-1.07,1-.77,2.12.21,2.2-.92,2.68-1.29,2.13-2.72,1.57a8.94,8.94,0,0,0-2.87-.9c-.74,0-1.63-1.62-2.4-3.4s-2.6-4.19-3.78-4.06Z"/><path class="cls-12" d="M236,21s1.94-2.6,7.51-2.45c6,.16,5,2.54,5.19,3.38s1,1.88.67,2.65-.91.92-.69,1.86a1.84,1.84,0,0,1-.81,2.32c-.93.46-1.11,1.86-2.32,1.49a7.69,7.69,0,0,0-2.56-.61c-.69,0-1.55-1.37-2.34-3s-2.81-4.1-4.09-4Z"/><path class="cls-11" d="M235.61,18.46s1.24-7.75,5.63-12.23c4.62-4.71,6.87-2.58,7.07-.41s-.81,4.64-.41,5.79,1.69,4.49-1,6-9.81,2.09-11,3.31A3.93,3.93,0,0,1,235.61,18.46Z"/><path class="cls-12" d="M235.9,18.27s1.67-7.38,5.43-11.35,5.66-2.51,5.92-.77-.56,4.08-.14,5.14,1.86,4.45-.74,6.11-9.26,2.21-10.43,3.52A4.94,4.94,0,0,1,235.9,18.27Z"/><path class="cls-13" d="M236.31,21.15a5.84,5.84,0,0,1,1.07-2.46c.33-.66,1.39-3.2,1.45-3.4.13-.42,1.27-3.2,2-4.61s4.46-3.12,4.46-3.12-3.6,1.87-4.27,3l-2.18,5a21.22,21.22,0,0,1,7.75-5.41,23.1,23.1,0,0,0-7.79,5.62s-.82,2-.93,2.22c0,0,4.28-2.8,7.11-4.18,0,0-6.72,4-7.2,4.38A20.84,20.84,0,0,0,236.31,21.15Z"/><path class="cls-13" d="M247.48,21.52c-1.72-.14-7.75-.81-7.91-.79s-3.16.75-3.16.75l.1,0s2.81-.57,3-.63A11,11,0,0,1,241,21l1.07.83A20,20,0,0,0,246,23.66a24.27,24.27,0,0,0-2.53-1.25A11.86,11.86,0,0,1,241.31,21S248.8,21.72,247.48,21.52Z"/><path class="cls-13" d="M241.18,23.8a7.33,7.33,0,0,1-1.71-1.05,12.38,12.38,0,0,0-2.63-1.17l.18.28A8.32,8.32,0,0,1,239.45,23c.34.45,1.57,1.77,1.94,2.16s2.1,2.56,2.1,2.56-.53-.78-.77-1.11-2.58-3.12-2.58-3.12a16.54,16.54,0,0,0,2.28,1.09c.37.39,4,3.6,4,3.6l-1.85-1.84c-.54-.58-1.86-1.71-1.86-1.71l2,.52A34.05,34.05,0,0,1,241.18,23.8Z"/><path class="cls-13" d="M244.72,25.11l.48.13Z"/><path class="cls-15" d="M235.7,9.07a16.9,16.9,0,0,1-.66,3.12,19.91,19.91,0,0,0-.35,5.43l-.25.05-.19.07a20,20,0,0,0-3.58-4.07,17.92,17.92,0,0,1-2.44-2.06c0-.09-.34-.19-.3.15s.27.41.65.58,2.47,1.94,3.19,2.52a24.05,24.05,0,0,1,2.4,2.92.64.64,0,0,0-.28.27h0a1.39,1.39,0,0,0-.31.69,1.35,1.35,0,0,0,.68,1,1.16,1.16,0,0,0-.07.26c-.15.82,1.06,2.87,1.66,4.11s.37,2.44,1.06,3.75,1.37,1,1.37,1,.7-.17.46-1.64-1.16-2.27-1.44-3.62-.59-3.71-1.21-4.27l-.21-.16a1.35,1.35,0,0,0,0-1.17,1.22,1.22,0,0,0-.8-.36.68.68,0,0,0-.26,0,24.49,24.49,0,0,1,.13-3.8c.21-.89.78-3.57,1-3.94s.34-.57.16-.86S235.67,9,235.7,9.07Z"/><path class="cls-16" d="M234.74,21.56a.73.73,0,0,0,1,.34,2.59,2.59,0,0,0,1.08-.63,1.41,1.41,0,0,1-.63.71C235.75,22.13,234.88,22.39,234.74,21.56Z"/><path class="cls-16" d="M235.41,23a.58.58,0,0,0,.78.2,2,2,0,0,0,.81-.57,1.1,1.1,0,0,1-.45.61C236.25,23.35,235.58,23.62,235.41,23Z"/><path class="cls-16" d="M236.38,25.7s-.08-.46.56-.53a2.53,2.53,0,0,1,1.07.1,1.43,1.43,0,0,0-.77-.29C236.87,25,236.12,25.09,236.38,25.7Z"/><path class="cls-16" d="M236.74,27.13s0-.67.83-.77.9.24.9.24a.51.51,0,0,0-.46-.46C237.61,26,236.36,26.24,236.74,27.13Z"/></g></g></svg>