<svg xmlns="http://www.w3.org/2000/svg" viewBox="0 0 74.24 62.62"><defs><style>.cls-1{fill:#2ba21e;}.cls-2{fill:#61c130;}.cls-3{fill:#439339;}.cls-4{fill:#75b444;}.cls-5{fill:#a4cc39;}.cls-6{fill:#fddf4f;}.cls-7{fill:#fbb931;}.cls-8{fill:#fce29b;}.cls-9{fill:#dfd5e9;}.cls-10{fill:#2e2113;}.cls-11{fill:#59595b;}</style></defs><title>spring_logo_new</title><g id="Слой_2" data-name="Слой 2"><g id="Layer_1" data-name="Layer 1"><path class="cls-1" d="M48,0S13.79,23,32.89,42C32.89,42,59.4,45.56,48,0Z"/><path class="cls-2" d="M33.4,42h0C34.88,26.75,48,0,48,0,58.45,41.78,37,42.24,33.4,42Z"/><path class="cls-3" d="M46.43,3S34.35,26.48,32.89,42l.93.07S34.53,29.47,46.43,3Z"/><path class="cls-3" d="M36.24,29.63,35,33.33s7.17-8.75,13.64-11.74A27,27,0,0,0,36.24,29.63Z"/><path class="cls-3" d="M40.52,17.13l-1,2.49s5-5.9,9.55-7.89A18.72,18.72,0,0,0,40.52,17.13Z"/><path class="cls-3" d="M34.6,34.4l-.5,3s-1.69-8.75-5-13.19A21.11,21.11,0,0,1,34.6,34.4Z"/><path class="cls-3" d="M38.09,22.72l-.66,2.35s-.6-7-2.8-10.82A16.69,16.69,0,0,1,38.09,22.72Z"/><path class="cls-4" d="M74.24,20.93S24.25,29.08,35.87,60C35.87,60,63.62,77.61,74.24,20.93Z"/><path class="cls-5" d="M36.41,60.37v0c9.47-16.28,37.83-39.42,37.83-39.42C64.5,72.9,40.36,62.46,36.41,60.37Z"/><path class="cls-3" d="M70.94,23.43S45.42,43.49,35.87,60l1,.55S44.1,46.93,70.94,23.43Z"/><path class="cls-3" d="M45.92,48l-3.24,3.5s12.49-6.09,21.24-6.13C63.92,45.35,55.88,43.72,45.92,48Z"/><path class="cls-3" d="M57.09,36.21l-2.38,2.27s8.59-4,14.7-3.91A23,23,0,0,0,57.09,36.21Z"/><path class="cls-3" d="M41.65,52.46l-2.12,3.13S42.12,45,40.75,38.33C40.75,38.33,43.26,44.1,41.65,52.46Z"/><path class="cls-3" d="M51.52,41.21l-1.94,2.29S52.52,35.33,52,30A20.51,20.51,0,0,1,51.52,41.21Z"/><path class="cls-6" d="M19.54,21.11s-3-.86-7.38,2.3c-5.36,3.87-2.95,5.28-2.55,6.11s.25,2.44,1.1,2.89,1.48.16,1.9,1.21,1.18,1.86,2.36,1.56,2.32.9,3.12-.42a8.84,8.84,0,0,1,1.72-2.47c.59-.45.3-2.28-.18-4.16s-.51-4.9.5-5.52Z"/><path class="cls-7" d="M19.51,21.2s-3.12-.87-7.44,2.65c-4.66,3.8-2.45,5.1-2,5.84s.34,2.11,1.09,2.51,1.28.17,1.68,1.05,1,1.55,2.06,1.34,2,.8,2.74-.24a7.8,7.8,0,0,1,1.65-2.05c.58-.38.39-2,0-3.81s-.28-5,.8-5.66Z"/><path class="cls-6" d="M18.28,19s-5.72-5.38-11.93-6.24c-6.54-.91-7,2.15-5.85,4S4,19.92,4.36,21.08s1.4,4.59,4.47,4.15,9-4.34,10.72-4.1A4,4,0,0,0,18.28,19Z"/><path class="cls-7" d="M17.92,19s-5.83-4.83-11.23-5.67-6,1.48-5.15,3,2.93,2.89,3.25,4S6,25,9.11,24.72s8.68-3.91,10.4-3.59A4.89,4.89,0,0,0,17.92,19Z"/><path class="cls-8" d="M19.29,21.57a5.87,5.87,0,0,0-2.35-1.28c-.67-.32-3.05-1.69-3.23-1.81-.36-.25-3-1.76-4.39-2.43s-5.44.26-5.44.26,4-.72,5.24-.21l4.79,2.65a21.18,21.18,0,0,0-9.44.45,23.11,23.11,0,0,1,9.6-.32s1.88,1.09,2.1,1.19c0,0-5.1.4-8.18,1,0,0,7.73-1,8.38-.93A21.32,21.32,0,0,1,19.29,21.57Z"/><path class="cls-8" d="M16.54,23.21c-.15.09-4.51,4.3-5.79,5.46-.92,1,4.59-4.14,4.59-4.14a11.86,11.86,0,0,1-.89,2.41,24.09,24.09,0,0,0-1.23,2.54,20.08,20.08,0,0,0,2-3.9l.34-1.3a11.13,11.13,0,0,1,1.15-1c.2-.07,2.76-1.34,2.76-1.34l.05-.1S16.68,23.12,16.54,23.21Z"/><path class="cls-9" d="M15.13,29.82l-.3.39Z"/><path class="cls-8" d="M17.84,24.74a7.06,7.06,0,0,1-.71,1.88,33.56,33.56,0,0,1-2,3.21l1.25-1.63S16,29.89,16,30.68l-.34,2.58s.92-4.77,1-5.3a16.59,16.59,0,0,0,1.14-2.26s-.15,3.63-.14,4,.07,1.35.07,1.35,0-2.79.1-3.31.23-2.33.22-2.9a8.39,8.39,0,0,1,1.24-2.36l0-.33A12.53,12.53,0,0,0,17.84,24.74Z"/><path class="cls-6" d="M20.13,20.9s1.86-2.52,7.24-2.69c6.61-.22,5.56,2.38,5.76,3.28s1.29,2.08.89,3-1.07,1-.77,2.12.21,2.2-.92,2.68S31,31.37,29.61,30.82a8.94,8.94,0,0,0-2.87-.9c-.74,0-1.63-1.62-2.4-3.4s-2.6-4.19-3.78-4.06Z"/><path class="cls-7" d="M20.21,21s1.94-2.6,7.51-2.45c6,.16,5,2.54,5.19,3.38s1,1.88.67,2.65-.91.92-.69,1.86a1.84,1.84,0,0,1-.81,2.32c-.93.46-1.11,1.86-2.32,1.49a7.69,7.69,0,0,0-2.56-.61c-.69,0-1.55-1.37-2.34-3s-2.81-4.1-4.09-4Z"/><path class="cls-6" d="M19.83,18.46s1.24-7.75,5.63-12.23c4.62-4.71,6.87-2.58,7.07-.41s-.81,4.64-.41,5.79,1.69,4.49-1,6-9.81,2.09-11,3.31A3.93,3.93,0,0,1,19.83,18.46Z"/><path class="cls-7" d="M20.13,18.27s1.67-7.38,5.43-11.35,5.66-2.51,5.92-.77-.56,4.08-.14,5.14,1.86,4.45-.74,6.11S21.33,19.6,20.16,20.9A4.94,4.94,0,0,1,20.13,18.27Z"/><path class="cls-8" d="M20.53,21.15a5.84,5.84,0,0,1,1.07-2.46c.33-.66,1.39-3.2,1.45-3.4.13-.42,1.27-3.2,2-4.61s4.46-3.12,4.46-3.12-3.6,1.87-4.27,3l-2.18,5a21.22,21.22,0,0,1,7.75-5.41A23.1,23.1,0,0,0,23,15.84s-.82,2-.93,2.22c0,0,4.28-2.8,7.11-4.18,0,0-6.72,4-7.2,4.38A20.84,20.84,0,0,0,20.53,21.15Z"/><path class="cls-8" d="M31.7,21.52c-1.72-.14-7.75-.81-7.91-.79s-3.16.75-3.16.75l.1,0s2.81-.57,3-.63a11,11,0,0,1,1.5.06l1.07.83a20,20,0,0,0,3.94,1.88,24.27,24.27,0,0,0-2.53-1.25A11.86,11.86,0,0,1,25.54,21S33,21.72,31.7,21.52Z"/><path class="cls-8" d="M25.4,23.8a7.33,7.33,0,0,1-1.71-1.05,12.38,12.38,0,0,0-2.63-1.17l.18.28A8.32,8.32,0,0,1,23.67,23c.34.45,1.57,1.77,1.94,2.16s2.1,2.56,2.1,2.56-.53-.78-.77-1.11-2.58-3.12-2.58-3.12a16.54,16.54,0,0,0,2.28,1.09c.37.39,4,3.6,4,3.6l-1.85-1.84c-.54-.58-1.86-1.71-1.86-1.71l2,.52A34.05,34.05,0,0,1,25.4,23.8Z"/><path class="cls-8" d="M28.95,25.11l.48.13Z"/><path class="cls-10" d="M19.93,9.07a16.9,16.9,0,0,1-.66,3.12,19.91,19.91,0,0,0-.35,5.43l-.25.05-.19.07a20,20,0,0,0-3.58-4.07,17.92,17.92,0,0,1-2.44-2.06c0-.09-.34-.19-.3.15s.27.41.65.58,2.47,1.94,3.19,2.52a24.05,24.05,0,0,1,2.4,2.92.64.64,0,0,0-.28.27h0a1.39,1.39,0,0,0-.31.69,1.35,1.35,0,0,0,.68,1,1.16,1.16,0,0,0-.07.26c-.15.82,1.06,2.87,1.66,4.11s.37,2.44,1.06,3.75,1.37,1,1.37,1,.7-.17.46-1.64-1.16-2.27-1.44-3.62-.59-3.71-1.21-4.27l-.21-.16a1.35,1.35,0,0,0,0-1.17,1.22,1.22,0,0,0-.8-.36.68.68,0,0,0-.26,0,24.49,24.49,0,0,1,.13-3.8c.21-.89.78-3.57,1-3.94s.34-.57.16-.86S19.9,9,19.93,9.07Z"/><path class="cls-11" d="M19,21.56a.73.73,0,0,0,1,.34A2.59,2.59,0,0,0,21,21.26a1.41,1.41,0,0,1-.63.71C20,22.13,19.1,22.39,19,21.56Z"/><path class="cls-11" d="M19.63,23a.58.58,0,0,0,.78.2,2,2,0,0,0,.81-.57,1.1,1.1,0,0,1-.45.61C20.47,23.35,19.81,23.62,19.63,23Z"/><path class="cls-11" d="M20.6,25.7s-.08-.46.56-.53a2.53,2.53,0,0,1,1.07.1,1.43,1.43,0,0,0-.77-.29C21.09,25,20.34,25.09,20.6,25.7Z"/><path class="cls-11" d="M21,27.13s0-.67.83-.77.9.24.9.24a.51.51,0,0,0-.46-.46C21.83,26,20.59,26.24,21,27.13Z"/></g></g></svg>