<svg xmlns="http://www.w3.org/2000/svg" viewBox="0 0 255.04 255.04"><defs><style>.cls-1{fill:#fa6619;}</style></defs><title>summer-action-light</title><g id="Layer_2" data-name="Layer 2"><g id="Objects"><path class="cls-1" d="M127.52,22.6a3,3,0,0,1-3-3V3a3,3,0,0,1,6,0V19.6A3,3,0,0,1,127.52,22.6Z"/><path class="cls-1" d="M127.52,255a3,3,0,0,1-3-3v-16.6a3,3,0,0,1,6,0V252A3,3,0,0,1,127.52,255Z"/><path class="cls-1" d="M203.83,54.21a3,3,0,0,1-2.12-5.12l11.74-11.74a3,3,0,0,1,4.24,4.24L205.95,53.33A3,3,0,0,1,203.83,54.21Z"/><path class="cls-1" d="M39.47,218.57a3,3,0,0,1-2.12-5.12l11.74-11.74a3,3,0,0,1,4.24,4.24L41.59,217.69A3,3,0,0,1,39.47,218.57Z"/><path class="cls-1" d="M252,130.52h-16.6a3,3,0,1,1,0-6H252a3,3,0,0,1,0,6Z"/><path class="cls-1" d="M19.6,130.52H3a3,3,0,0,1,0-6H19.6a3,3,0,0,1,0,6Z"/><path class="cls-1" d="M215.57,218.57a3,3,0,0,1-2.12-.88l-11.74-11.74a3,3,0,0,1,4.24-4.24l11.74,11.74a3,3,0,0,1-2.12,5.12Z"/><path class="cls-1" d="M51.21,54.21a3,3,0,0,1-2.12-.88L37.35,41.59a3,3,0,0,1,4.24-4.24L53.33,49.09a3,3,0,0,1-2.12,5.12Z"/><path class="cls-1" d="M51.21,54.21a3,3,0,0,1-2.12-.88L37.35,41.59a3,3,0,0,1,4.24-4.24L53.33,49.09a3,3,0,0,1-2.12,5.12Z"/><path class="cls-1" d="M215.57,218.57a3,3,0,0,1-2.12-.88l-11.74-11.74a3,3,0,0,1,4.24-4.24l11.74,11.74a3,3,0,0,1-2.12,5.12Z"/><path class="cls-1" d="M127.52,22.6a3,3,0,0,1-3-3V3a3,3,0,0,1,6,0V19.6A3,3,0,0,1,127.52,22.6Z"/><path class="cls-1" d="M127.52,255a3,3,0,0,1-3-3v-16.6a3,3,0,0,1,6,0V252A3,3,0,0,1,127.52,255Z"/><path class="cls-1" d="M203.83,54.21a3,3,0,0,1-2.12-5.12l11.74-11.74a3,3,0,0,1,4.24,4.24L205.95,53.33A3,3,0,0,1,203.83,54.21Z"/><path class="cls-1" d="M39.47,218.57a3,3,0,0,1-2.12-5.12l11.74-11.74a3,3,0,0,1,4.24,4.24L41.59,217.69A3,3,0,0,1,39.47,218.57Z"/><path class="cls-1" d="M252,130.52h-16.6a3,3,0,1,1,0-6H252a3,3,0,0,1,0,6Z"/><path class="cls-1" d="M19.6,130.52H3a3,3,0,0,1,0-6H19.6a3,3,0,0,1,0,6Z"/><path class="cls-1" d="M27.44,90.15a3,3,0,0,1-1.12-.22l-15.4-6.21a3,3,0,0,1,2.24-5.56l15.4,6.21a3,3,0,0,1-1.12,5.78Z"/><path class="cls-1" d="M243,177.1a3,3,0,0,1-1.12-.22l-15.4-6.21a3,3,0,1,1,2.24-5.56l15.4,6.21A3,3,0,0,1,243,177.1Z"/><path class="cls-1" d="M85.29,31.21a3,3,0,0,1-2.76-1.83L76,14.1a3,3,0,0,1,5.52-2.35L88.05,27a3,3,0,0,1-2.76,4.17Z"/><path class="cls-1" d="M176.24,245.11a3,3,0,0,1-2.76-1.83L167,228a3,3,0,0,1,5.52-2.35l6.5,15.28a3,3,0,0,1-2.76,4.17Z"/><path class="cls-1" d="M167.88,30.44a3,3,0,0,1-2.78-4.12l6.21-15.4a3,3,0,1,1,5.56,2.24l-6.21,15.4A3,3,0,0,1,167.88,30.44Z"/><path class="cls-1" d="M80.94,246a3,3,0,0,1-2.78-4.12l6.21-15.4a3,3,0,1,1,5.56,2.24l-6.21,15.4A3,3,0,0,1,80.94,246Z"/><path class="cls-1" d="M226.83,88.29a3,3,0,0,1-1.18-5.76L240.94,76a3,3,0,1,1,2.35,5.52L228,88.05A3,3,0,0,1,226.83,88.29Z"/><path class="cls-1" d="M12.93,179.24a3,3,0,0,1-1.18-5.76L27,167a3,3,0,0,1,2.35,5.52L14.1,179A3,3,0,0,1,12.93,179.24Z"/></g></g></svg>