<svg xmlns="http://www.w3.org/2000/svg" viewBox="0 0 306.96 286.25"><defs><style>.cls-1{fill:#fecf00;}.cls-2{fill:#2c3a3d;}.cls-3{fill:#fff;}.cls-4{fill:#fa6619;}</style></defs><title>summer-action</title><g id="Layer_2" data-name="Layer 2"><g id="Objects"><circle class="cls-1" cx="151.94" cy="95.97" r="95.97"/><path class="cls-1" d="M64.23,60.15s-31-4.84-43.82,14.44,30.34,43.21,30.34,43.21-7.52,5.06-5.62,9.44-4.42-7.08-11-7.75,0,8.75,0,8.75-5.27,2-3.24,4.4S52.1,152.8,61.2,138s-5.4-30-5.4-30S30.26,89.14,34.1,78.35s30.13-3.77,30.13-3.77"/><path class="cls-1" d="M239.66,60.15s31-4.84,43.82,14.44-30.34,43.21-30.34,43.21,7.52,5.06,5.62,9.44,4.42-7.08,11-7.75,0,8.75,0,8.75,5.27,2,3.24,4.4S251.79,152.8,242.69,138s5.4-30,5.4-30,25.54-18.88,21.7-29.66-30.13-3.77-30.13-3.77"/><ellipse class="cls-2" cx="113.63" cy="71.12" rx="9.01" ry="13.22"/><circle class="cls-3" cx="113.63" cy="65.89" r="4.21"/><path class="cls-2" d="M100.42,44.55c3.31-3.8,10.61-8.66,26.14-8.19a1.59,1.59,0,0,0,1.55-1c1.29-3.37,4.42-14-5-19.2a1.59,1.59,0,0,0-1.33-.09c-3.89,1.48-23,9.62-24.13,27.3A1.6,1.6,0,0,0,100.42,44.55Z"/><ellipse class="cls-2" cx="187.01" cy="71.12" rx="9.01" ry="13.22"/><circle class="cls-3" cx="187.01" cy="65.89" r="4.21"/><path class="cls-2" d="M200.23,44.55c-3.31-3.8-10.61-8.66-26.14-8.19a1.59,1.59,0,0,1-1.55-1c-1.29-3.37-4.42-14,5-19.2a1.59,1.59,0,0,1,1.33-.09c3.89,1.48,23,9.62,24.13,27.3A1.6,1.6,0,0,1,200.23,44.55Z"/><path class="cls-2" d="M196,95.12a54.61,54.61,0,0,1-91.39,0Z"/><path class="cls-4" d="M172.95,113.65a54.66,54.66,0,0,1-45.25,0,28,28,0,0,1,45.25,0Z"/><path class="cls-4" d="M300.92,121.22c-4.86-4.44-11.6-6.06-20-4.84l-19,2.76a10.48,10.48,0,0,0-3,.9,10.49,10.49,0,0,0-3,0l-32.8,4.76a10.47,10.47,0,0,0-4.34,1.68,10.46,10.46,0,0,0-4.62-.38L200.93,128a10.5,10.5,0,0,0-8,5.89l-3.47,7.3-.06-.53a10.5,10.5,0,0,0-11.95-9.26l-13.22,1.92a10.48,10.48,0,0,0-4.34,1.68,10.48,10.48,0,0,0-4.62-.38l-13.22,1.92a10.5,10.5,0,0,0-8,5.89l-3.47,7.31-.06-.53a10.5,10.5,0,0,0-11.95-9.26l-13.22,1.92a10.5,10.5,0,0,0-8.78,8.32c-4.31-3.41-10.79-6.22-20-4.88A34.67,34.67,0,0,0,55.4,156.43c-.34.37-.64.76-1,1.15A18.76,18.76,0,0,0,53,156.3c-5.26-4.26-12.15-5.81-20.49-4.6a36.12,36.12,0,0,0-17.72,7.41,28,28,0,0,0-10.16,17c-1.49,7.55.29,12.86,2.53,16.32A10.5,10.5,0,0,0,.6,200.19c-2.84,14.38,5.11,20.67,8.66,22.71a28.16,28.16,0,0,0,14.25,3.6,39,39,0,0,0,5.6-.42,39.54,39.54,0,0,0,13-4.11L18.35,271.19a10.5,10.5,0,0,0,11,14.95l10.2-1.48a10.5,10.5,0,0,0,8.07-6.08L50.09,273a10.5,10.5,0,0,0,11.82,8.41l10.23-1.49a10.47,10.47,0,0,0,7.54-5.08,24.29,24.29,0,0,0,11.5,2.74,31.54,31.54,0,0,0,4.55-.34c8.08-1.17,14.69-4.42,19.66-9.65a34.65,34.65,0,0,0,3.54-4.45,10.48,10.48,0,0,0,11.78,8.28l10.13-1.47a10.5,10.5,0,0,0,8.8-8.39l.76-3.92a10.48,10.48,0,0,0,11.92,9.19l10.12-1.47a10.5,10.5,0,0,0,8.8-8.39l0-.14a23.61,23.61,0,0,0,15.48,5.41,31.72,31.72,0,0,0,4.56-.34,35.79,35.79,0,0,0,17.83-7.71,10.49,10.49,0,0,0,9,3.07l10.13-1.47a10.5,10.5,0,0,0,8.45-7.06,10.5,10.5,0,0,0,10.11,4.37L267,251.63a10.5,10.5,0,0,0,8.8-8.39L286,190.57a10.49,10.49,0,0,0,.18-2.55l6.07-.88a10.5,10.5,0,0,0,8.77-8.25l.21-1a10.5,10.5,0,0,0-1-7q0-.33.11-.67l.77-3.87,0-.12a25.23,25.23,0,0,0-.33-12.3,27,27,0,0,0,5.52-12.19C308.48,130.82,304.57,124.55,300.92,121.22ZM122.82,238.8l-.09-.1.13-.07Z"/><path class="cls-3" d="M36.74,201.21q.67-3.65-.95-5.14t-6.65-2.83q-8.19-1.66-11.86-5t-2.34-10.12a17.74,17.74,0,0,1,6.43-10.81A25.67,25.67,0,0,1,34,162.09q8-1.16,12.38,2.37t2.88,11.31L39.2,177.23q.74-3.8-1.11-5.67t-5.64-1.33a9.28,9.28,0,0,0-4.75,2.2,7.25,7.25,0,0,0-2.6,4.14q-.7,3.55,1,4.86t7.79,2.79q7.7,1.62,11,5t2,10.44a17.66,17.66,0,0,1-6.45,10.92,26.58,26.58,0,0,1-12.81,5.09q-7.84,1.14-13.11-1.89T10.9,202.22L21,200.75q-.95,4.74,1.58,6.08a10.68,10.68,0,0,0,6.58.75A9.85,9.85,0,0,0,34,205.4,7.25,7.25,0,0,0,36.74,201.21Z"/><path class="cls-3" d="M93.31,184.56Q91.2,195.17,85.1,201.7a25.23,25.23,0,0,1-15.28,7.86q-8.51,1.24-13.43-4.31t-3.06-15.13l1.83-9.48q2.07-10.64,8-17.14a24.32,24.32,0,0,1,15-7.81q8.58-1.25,13.71,4.32t3.3,15.08ZM85,176.49q1.27-6.51-1.11-9.89t-7.37-2.66a10.42,10.42,0,0,0-7.15,4.71,27,27,0,0,0-4.1,10.46l-1.86,9.55q-1.3,6.62.9,10t7.08,2.68a11.13,11.13,0,0,0,7.43-4.79A26,26,0,0,0,83.18,186Z"/><path class="cls-3" d="M120.13,150.33l4,37.28h.1l19.3-40.67L156.8,145l-10.23,52.67-10.12,1.47,3.06-15.7,5.34-22.68-.1,0L125,200.81l-6.79,1-4.85-36.32-.11,0-3.38,22.29-3.06,15.7-10.12,1.47,10.23-52.67Z"/><path class="cls-3" d="M179,141.78l4,37.28h.11l19.3-40.67,13.22-1.92-10.23,52.67L195.3,190.6l3.06-15.7,5.34-22.68-.1,0-19.76,40.06-6.79,1-4.85-36.32-.11,0-3.38,22.29-3.06,15.7-10.12,1.47,10.23-52.67Z"/><path class="cls-3" d="M248.42,160.39,229,163.21l-2.92,15,22.75-3.3-1.58,8.1-32.87,4.77,10.23-52.67,32.8-4.76-1.58,8.14-22.67,3.29-2.57,13.24L250,152.25Z"/><path class="cls-3" d="M267.44,159.67l-4.08,21.05-10.16,1.48,10.23-52.67,19-2.76q7.77-1.13,11.42,2.21t2.21,10.75a16.5,16.5,0,0,1-3.48,7.71,23,23,0,0,1-7,5.3v.11q3.9.8,5,3.68t.21,7.76l-.77,3.87a18.37,18.37,0,0,0-.35,4.46,4.17,4.17,0,0,0,1.23,3.11l-.21,1-10.37,1.51q-1.13-1-1-3.6a31.93,31.93,0,0,1,.65-5.1l.7-3.72q.84-4.31-.41-6.08t-4.73-1.26Zm1.58-8.14,7.87-1.14a10.11,10.11,0,0,0,9-8.54q.74-3.94-.54-5.67t-5-1.19l-8.3,1.21Z"/><path class="cls-3" d="M59.45,260l-16.07,2.33-5.38,12-10.2,1.48,26.51-55,10.34-1.5,6,50.32L60.4,271Zm-12.23-6.13,11.57-1.68L57.1,232.23l-.07,0Z"/><path class="cls-3" d="M115.11,245.92q-2.36,9.2-7.33,14.44t-13.55,6.48q-8.37,1.22-13.27-4.1t-3-14.87l2-10.49q2-10.6,7.65-16.83a22.91,22.91,0,0,1,14.19-7.47q8.51-1.23,13,3t3.58,13l-10.16,1.48q.7-5.27-1-7.71t-6.4-1.76q-3.83.56-6.72,4.6a25.4,25.4,0,0,0-4,10.11L88,246.41q-1.27,6.51.56,9.81t6.36,2.64a9.83,9.83,0,0,0,6.33-3.31,20.56,20.56,0,0,0,3.73-8.17Z"/><path class="cls-3" d="M162.85,212.86,148,215l-8.65,44.53L129.2,261l8.65-44.53-14.8,2.15,1.58-8.14,39.8-5.78Z"/><path class="cls-3" d="M170.93,255l-10.12,1.47L171,203.76l10.13-1.47Z"/><path class="cls-3" d="M223.28,226.52q-2.11,10.61-8.21,17.13a25.23,25.23,0,0,1-15.28,7.86q-8.51,1.23-13.43-4.31t-3.06-15.13l1.83-9.48q2.07-10.64,8-17.14a24.33,24.33,0,0,1,15-7.81q8.58-1.25,13.71,4.32t3.3,15.08Zm-8.3-8.08q1.27-6.51-1.11-9.89t-7.37-2.66a10.42,10.42,0,0,0-7.15,4.71,27,27,0,0,0-4.1,10.46l-1.86,9.55q-1.3,6.62.9,10t7.08,2.68a11.13,11.13,0,0,0,7.43-4.79A26,26,0,0,0,213.16,228Z"/><path class="cls-3" d="M265.47,241.24l-10.12,1.47-11.64-32.55-.11.05-6.82,35.2-10.12,1.47,10.23-52.67L247,192.73l11.6,32.52.1-.05L265.58,190l10.13-1.47Z"/></g></g></svg>