<svg xmlns="http://www.w3.org/2000/svg" viewBox="0 0 1000 500"><defs><style>.cls-1{fill:#fff;}.cls-2{fill:#eea301;}</style></defs><title>vorkasse</title><g id="Layer_2" data-name="Layer 2"><g id="Layer_1-2" data-name="Layer 1"><rect class="cls-1" width="1000" height="500"/><path class="cls-2" d="M241.79,121.57l-10.87,51q-15.66-15.66-45.7-15.66t-48.64,21.56q-10.5,12.16-14.93,30.4H223l-5.9,28.56H118q-.19,4.24-.18,10.87,0,6.45.37,13.45h93.79L206,290.35H122q4.6,19.72,14.19,31,18.42,21.74,47.91,21.74,35.38,0,56.38-21.74v56.38q-24,12-55.83,12-53.81,0-88.45-36.85-23.59-25.06-31.14-62.46H37.81l5.9-28.56H61.77q-.19-4.42-.18-9.4,0-8.47.37-14.93H37.81l5.9-28.56H65.64q7.74-36.67,30.77-61.36,34.83-37.22,91.58-37.22Q218.94,110.33,241.79,121.57Z"/><path d="M346.8,248.3,302.43,133.77h16.41L348.6,217q3.59,10,6,18.75,2.66-9.37,6.17-18.75l30.94-83.2h15.47L362.35,248.3Z"/><path d="M404.93,206.82q0-23,12.81-34.14,10.7-9.22,26.09-9.22,17.11,0,28,11.21t10.86,31q0,16-4.8,25.2a34,34,0,0,1-14,14.26,40.73,40.73,0,0,1-20,5.08q-17.42,0-28.16-11.17T404.93,206.82Zm14.45,0q0,15.94,7,23.87a23.15,23.15,0,0,0,34.92,0q7-8,7-24.3,0-15.39-7-23.32a23.18,23.18,0,0,0-34.88,0Q419.38,190.88,419.38,206.82Z"/><path d="M499,248.3v-83h12.66v12.58q4.84-8.83,8.95-11.64a15.61,15.61,0,0,1,9-2.81A27.44,27.44,0,0,1,544.07,168l-4.84,13a20.12,20.12,0,0,0-10.31-3,13.39,13.39,0,0,0-8.28,2.77,15,15,0,0,0-5.23,7.7,54.78,54.78,0,0,0-2.34,16.41V248.3Z"/><path d="M552.51,248.3V133.77h14.06v65.31l33.28-33.75h18.2l-31.72,30.78,34.92,52.19H603.91l-27.42-42.42-9.92,9.53V248.3Z"/><path d="M686.57,238.07a52.36,52.36,0,0,1-15,9.38A43.48,43.48,0,0,1,656,250.18q-13.67,0-21-6.68a22,22,0,0,1-7.34-17.07,22.7,22.7,0,0,1,2.77-11.13,22.93,22.93,0,0,1,7.27-8.09,34.18,34.18,0,0,1,10.12-4.61,100.67,100.67,0,0,1,12.5-2.11q17-2,25.08-4.84.08-2.89.08-3.67,0-8.59-4-12.11-5.39-4.76-16-4.77-9.92,0-14.65,3.48t-7,12.3L630.08,189q1.88-8.83,6.17-14.26t12.42-8.36a55.4,55.4,0,0,1,18.83-2.93q10.62,0,17.27,2.5t9.77,6.29a22.15,22.15,0,0,1,4.38,9.57,79.18,79.18,0,0,1,.7,13v18.75q0,19.61.9,24.8a31.23,31.23,0,0,0,3.55,10H689.38A29.78,29.78,0,0,1,686.57,238.07Zm-1.17-31.41q-7.66,3.13-23,5.31-8.67,1.25-12.27,2.81a12.23,12.23,0,0,0-5.55,4.57,12.43,12.43,0,0,0,2.3,16.05q4.26,3.75,12.46,3.75a29,29,0,0,0,14.45-3.55,21.89,21.89,0,0,0,9.3-9.73q2.26-4.76,2.27-14.06Z"/><path d="M715.79,223.54l13.91-2.19q1.17,8.36,6.52,12.81t15,4.45q9.69,0,14.38-3.95t4.69-9.26a8.54,8.54,0,0,0-4.14-7.5q-2.89-1.87-14.37-4.77-15.47-3.91-21.45-6.76a20.47,20.47,0,0,1-12.15-19,21.37,21.37,0,0,1,2.54-10.27,22.75,22.75,0,0,1,6.91-7.85,29,29,0,0,1,8.95-4.1,42.55,42.55,0,0,1,12.15-1.68,48,48,0,0,1,17.15,2.81q7.38,2.81,10.9,7.62t4.84,12.85l-13.75,1.88a15,15,0,0,0-5.43-10q-4.49-3.59-12.7-3.59-9.69,0-13.83,3.2t-4.14,7.5a7.76,7.76,0,0,0,1.72,4.92,12.37,12.37,0,0,0,5.39,3.75q2.11.78,12.42,3.59,14.92,4,20.82,6.52a21.14,21.14,0,0,1,9.26,7.38,20.62,20.62,0,0,1,3.36,12,23.61,23.61,0,0,1-4.1,13.24,26.51,26.51,0,0,1-11.84,9.61,43.08,43.08,0,0,1-17.5,3.4q-16.17,0-24.65-6.72T715.79,223.54Z"/><path d="M795.79,223.54l13.91-2.19q1.17,8.36,6.52,12.81t15,4.45q9.69,0,14.38-3.95t4.69-9.26a8.54,8.54,0,0,0-4.14-7.5q-2.89-1.87-14.37-4.77-15.47-3.91-21.45-6.76a20.47,20.47,0,0,1-12.15-19,21.37,21.37,0,0,1,2.54-10.27,22.75,22.75,0,0,1,6.91-7.85,29,29,0,0,1,8.95-4.1,42.55,42.55,0,0,1,12.15-1.68,48,48,0,0,1,17.15,2.81q7.38,2.81,10.9,7.62t4.84,12.85l-13.75,1.88a15,15,0,0,0-5.43-10q-4.49-3.59-12.7-3.59-9.69,0-13.83,3.2t-4.14,7.5a7.76,7.76,0,0,0,1.72,4.92,12.37,12.37,0,0,0,5.39,3.75q2.11.78,12.42,3.59,14.92,4,20.82,6.52a21.14,21.14,0,0,1,9.26,7.38,20.62,20.62,0,0,1,3.36,12,23.61,23.61,0,0,1-4.1,13.24,26.51,26.51,0,0,1-11.84,9.61,43.08,43.08,0,0,1-17.5,3.4q-16.17,0-24.65-6.72T795.79,223.54Z"/><path d="M938.21,221.58l14.53,1.8Q949.3,236.12,940,243.15t-23.75,7q-18.21,0-28.87-11.21t-10.66-31.45q0-20.94,10.78-32.5t28-11.56q16.64,0,27.19,11.33t10.55,31.88q0,1.25-.08,3.75H891.26q.78,13.67,7.73,20.94a23,23,0,0,0,17.34,7.27,21.52,21.52,0,0,0,13.2-4.06Q935,230.49,938.21,221.58ZM892,198.85h46.33q-.94-10.47-5.31-15.7A21.56,21.56,0,0,0,915.63,175a22.34,22.34,0,0,0-16.29,6.48Q892.74,188,892,198.85Z"/><path d="M299.93,361.47v-60.7h22.77a28.2,28.2,0,0,1,11.16,1.84,14.36,14.36,0,0,1,6.58,5.67,15,15,0,0,1,2.38,8,13.76,13.76,0,0,1-2.11,7.33,15.08,15.08,0,0,1-6.38,5.55,15.86,15.86,0,0,1,8.47,5.51,14.75,14.75,0,0,1,3,9.19,17.73,17.73,0,0,1-1.8,7.93,15.36,15.36,0,0,1-4.45,5.65,18.57,18.57,0,0,1-6.65,3,40.4,40.4,0,0,1-9.79,1Zm8-35.2h13.13a29.27,29.27,0,0,0,7.66-.7,8.52,8.52,0,0,0,4.62-3,8.71,8.71,0,0,0,1.55-5.3,9.76,9.76,0,0,0-1.45-5.32,7.33,7.33,0,0,0-4.14-3.15q-2.69-.85-9.23-.85H308Zm0,28h15.11a34.77,34.77,0,0,0,5.47-.29,13.11,13.11,0,0,0,4.64-1.66,8.79,8.79,0,0,0,3.06-3.37,10.56,10.56,0,0,0,1.2-5.11,10.08,10.08,0,0,0-1.74-5.9,9.18,9.18,0,0,0-4.82-3.52,29.89,29.89,0,0,0-8.88-1H308Z"/><path d="M384.57,356a27.74,27.74,0,0,1-8,5,23,23,0,0,1-8.22,1.45q-7.25,0-11.14-3.54a11.69,11.69,0,0,1-3.89-9,12,12,0,0,1,1.47-5.9,12.17,12.17,0,0,1,3.85-4.29,18.1,18.1,0,0,1,5.36-2.44,53.26,53.26,0,0,1,6.63-1.12,68.1,68.1,0,0,0,13.29-2.57q0-1.53,0-1.95,0-4.55-2.11-6.42-2.86-2.53-8.49-2.53-5.26,0-7.76,1.84T361.92,331l-7.29-1a18.06,18.06,0,0,1,3.27-7.56,14.34,14.34,0,0,1,6.58-4.43,29.36,29.36,0,0,1,10-1.55,26.43,26.43,0,0,1,9.15,1.33,12.07,12.07,0,0,1,5.18,3.33,11.74,11.74,0,0,1,2.32,5.07,42,42,0,0,1,.37,6.87V343a105.5,105.5,0,0,0,.48,13.15,16.57,16.57,0,0,0,1.88,5.28h-7.78A15.8,15.8,0,0,1,384.57,356Zm-.62-16.64a54.7,54.7,0,0,1-12.17,2.82,28.15,28.15,0,0,0-6.5,1.49,6.48,6.48,0,0,0-2.94,2.42,6.59,6.59,0,0,0,1.22,8.51q2.26,2,6.6,2a15.37,15.37,0,0,0,7.66-1.88,11.6,11.6,0,0,0,4.93-5.16,18,18,0,0,0,1.2-7.45Z"/><path d="M403,361.47v-44h6.71v6.25q4.84-7.25,14-7.25a18.36,18.36,0,0,1,7.31,1.43,11.51,11.51,0,0,1,5,3.75,14.41,14.41,0,0,1,2.32,5.51,42.74,42.74,0,0,1,.41,7.25v27h-7.45V334.72a20.08,20.08,0,0,0-.87-6.81,7.17,7.17,0,0,0-3.08-3.6,9.81,9.81,0,0,0-5.2-1.35,12.08,12.08,0,0,0-8.22,3q-3.46,3-3.46,11.47v24Z"/><path d="M450.24,361.47v-60.7h7.45v34.62l17.64-17.89H485l-16.81,16.31,18.51,27.66h-9.19L462.95,339,457.69,344v17.43Z"/><path d="M521.42,361.47V355a16.1,16.1,0,0,1-14,7.45,17.77,17.77,0,0,1-7.27-1.49,12,12,0,0,1-5-3.75,14,14,0,0,1-2.3-5.53,37.79,37.79,0,0,1-.46-7V317.49h7.45v24.39a43.41,43.41,0,0,0,.46,7.87,7.77,7.77,0,0,0,3,4.62A9.24,9.24,0,0,0,509,356a12.27,12.27,0,0,0,6.29-1.72,9.56,9.56,0,0,0,4.16-4.68,23.49,23.49,0,0,0,1.22-8.59V317.49h7.45v44Zm-22.77-52.59v-8.49h7.78v8.49Zm15.44,0v-8.49h7.78v8.49Z"/><path d="M546.63,361.47h-6.91v-60.7h7.45v21.66a14.75,14.75,0,0,1,12-5.92,18.47,18.47,0,0,1,7.68,1.64,15.71,15.71,0,0,1,6,4.6,22.26,22.26,0,0,1,3.66,7.14,29.46,29.46,0,0,1,1.32,8.94q0,11.3-5.59,17.47a17.48,17.48,0,0,1-13.42,6.17,14,14,0,0,1-12.21-6.5Zm-.08-22.32q0,7.91,2.15,11.43,3.52,5.76,9.52,5.75a10.72,10.72,0,0,0,8.45-4.24q3.56-4.24,3.56-12.65,0-8.61-3.42-12.71a10.4,10.4,0,0,0-8.26-4.1,10.72,10.72,0,0,0-8.45,4.24Q546.55,331.12,546.55,339.15Z"/><path d="M617,347.31l7.7,1A18.79,18.79,0,0,1,618,358.73q-4.93,3.73-12.59,3.73-9.65,0-15.3-5.94t-5.65-16.67q0-11.1,5.71-17.22A19.34,19.34,0,0,1,605,316.5a18.8,18.8,0,0,1,14.41,6q5.59,6,5.59,16.89,0,.66,0,2H592.14q.41,7.25,4.1,11.1a12.2,12.2,0,0,0,9.19,3.85,11.4,11.4,0,0,0,7-2.15A14.29,14.29,0,0,0,617,347.31Zm-24.47-12h24.55q-.5-5.55-2.82-8.32a11.42,11.42,0,0,0-9.23-4.31,11.84,11.84,0,0,0-8.63,3.44A13.6,13.6,0,0,0,592.55,335.26Z"/><path d="M634,361.47v-44h6.71v6.67q2.57-4.68,4.74-6.17a8.27,8.27,0,0,1,4.78-1.49,14.54,14.54,0,0,1,7.66,2.4l-2.57,6.92a10.66,10.66,0,0,0-5.47-1.61,7.1,7.1,0,0,0-4.39,1.47,8,8,0,0,0-2.77,4.08,29,29,0,0,0-1.24,8.7v23Z"/><path d="M670.44,361.47l-13.46-44h7.7l7,25.38,2.61,9.44q.16-.7,2.28-9.07l7-25.75h7.66L697.81,343l2.19,8.41,2.53-8.49,7.54-25.42h7.25l-13.75,44h-7.74l-7-26.33-1.7-7.49-8.9,33.83Z"/><path d="M753.66,347.31l7.7,1a18.79,18.79,0,0,1-6.75,10.48q-4.93,3.73-12.59,3.73-9.65,0-15.3-5.94t-5.65-16.67q0-11.1,5.71-17.22a19.34,19.34,0,0,1,14.82-6.13,18.8,18.8,0,0,1,14.41,6q5.59,6,5.59,16.89,0,.66,0,2H728.78q.41,7.25,4.1,11.1a12.2,12.2,0,0,0,9.19,3.85,11.4,11.4,0,0,0,7-2.15A14.29,14.29,0,0,0,753.66,347.31Zm-24.47-12h24.55q-.5-5.55-2.82-8.32a11.42,11.42,0,0,0-9.23-4.31,11.84,11.84,0,0,0-8.63,3.44A13.6,13.6,0,0,0,729.19,335.26Z"/><path d="M770.76,309.34v-8.57h7.45v8.57Zm0,52.13v-44h7.45v44Z"/><path d="M786.58,348.34l7.37-1.16a10.3,10.3,0,0,0,3.46,6.79q2.84,2.36,7.93,2.36t7.62-2.09a6.25,6.25,0,0,0,2.48-4.91,4.53,4.53,0,0,0-2.19-4q-1.53-1-7.62-2.53a69.47,69.47,0,0,1-11.37-3.58,10.85,10.85,0,0,1-6.44-10.08,11.33,11.33,0,0,1,1.35-5.45,12.05,12.05,0,0,1,3.67-4.16,15.37,15.37,0,0,1,4.74-2.17,22.54,22.54,0,0,1,6.44-.89A25.44,25.44,0,0,1,813.1,318a12.35,12.35,0,0,1,5.78,4,15.78,15.78,0,0,1,2.57,6.81l-7.29,1a8,8,0,0,0-2.88-5.3,10.53,10.53,0,0,0-6.73-1.9q-5.13,0-7.33,1.7a4.94,4.94,0,0,0-2.19,4,4.12,4.12,0,0,0,.91,2.61,6.56,6.56,0,0,0,2.86,2q1.12.41,6.58,1.9a91.6,91.6,0,0,1,11,3.46,11.2,11.2,0,0,1,4.91,3.91,10.93,10.93,0,0,1,1.78,6.38,12.51,12.51,0,0,1-2.17,7,14.05,14.05,0,0,1-6.27,5.09,22.82,22.82,0,0,1-9.27,1.8q-8.57,0-13.06-3.56T786.58,348.34Z"/><path d="M860.78,361.47V355a16.09,16.09,0,0,1-14,7.45,17.78,17.78,0,0,1-7.27-1.49,12,12,0,0,1-5-3.75,14,14,0,0,1-2.3-5.53,37.73,37.73,0,0,1-.46-7V317.49h7.45v24.39a43.35,43.35,0,0,0,.46,7.87,7.77,7.77,0,0,0,3,4.62,9.23,9.23,0,0,0,5.63,1.68,12.27,12.27,0,0,0,6.29-1.72,9.55,9.55,0,0,0,4.16-4.68,23.5,23.5,0,0,0,1.22-8.59V317.49h7.45v44Z"/><path d="M879.12,361.47v-44h6.71v6.25q4.84-7.25,14-7.25a18.37,18.37,0,0,1,7.31,1.43,11.5,11.5,0,0,1,5,3.75,14.4,14.4,0,0,1,2.32,5.51,42.74,42.74,0,0,1,.41,7.25v27H907.4V334.72a20.09,20.09,0,0,0-.87-6.81,7.17,7.17,0,0,0-3.08-3.6,9.81,9.81,0,0,0-5.2-1.35,12.08,12.08,0,0,0-8.22,3q-3.46,3-3.46,11.47v24Z"/><path d="M924.92,365.11l7.25,1.08a6.91,6.91,0,0,0,2.53,4.89,12.41,12.41,0,0,0,7.58,2.07q5.18,0,8-2.07a10.19,10.19,0,0,0,3.81-5.8q.58-2.28.54-9.57a15.33,15.33,0,0,1-12.17,5.76q-9.07,0-14-6.54a25.19,25.19,0,0,1-5-15.69,29.22,29.22,0,0,1,2.28-11.61,18.23,18.23,0,0,1,6.6-8.22,17.84,17.84,0,0,1,10.17-2.9,15.77,15.77,0,0,1,12.84,6.29v-5.3h6.87v38q0,10.27-2.09,14.55a15.3,15.3,0,0,1-6.62,6.77,23,23,0,0,1-11.16,2.48q-7.87,0-12.71-3.54T924.92,365.11Zm6.17-26.42q0,8.65,3.44,12.63a11.34,11.34,0,0,0,17.22,0q3.48-4,3.48-12.4,0-8.07-3.58-12.17a11.07,11.07,0,0,0-8.63-4.1,10.76,10.76,0,0,0-8.45,4Q931.09,330.74,931.09,338.69Z"/></g></g></svg>