<?xml version="1.0" encoding="utf-8"?>
<!-- Generator: Adobe Illustrator 23.0.1, SVG Export Plug-In . SVG Version: 6.00 Build 0)  -->
<svg version="1.1" id="Слой_1" xmlns="http://www.w3.org/2000/svg" xmlns:xlink="http://www.w3.org/1999/xlink" x="0px" y="0px"
	 viewBox="0 0 277.8 98.6" style="enable-background:new 0 0 277.8 98.6;" xml:space="preserve">
<style type="text/css">
	.st0{fill:#DBE7F2;}
	.st1{fill:#FFFFFF;}
</style>
<title>ny_logo</title>
<g>
	<g id="Layer_2">
		<g id="Layer_1-2">
			<path class="st0" d="M13.8,51c-0.4,2-0.3,4.1-1.1,5.8c-2.4,5.1,0.1,3.1,1.9,8.5c1.1,3.3,0.9,3.8,4.6,4.7c2,0.5,1.3,3.9,3.1,5.2
				s2.1,3.8,2.8,5.8c0.9,2.6,1.2,5.7,2.4,7.8c1.5,2.7,0.4,7.1,1.7,9.8c1.4-4.8,2-9.9,1.7-14.9c-0.1-2.7,1-6.5,3.3-8.1
				c1.8,1.8,3.5-0.5,4.9-1.6c0.9,3.3,2,6.5,3.5,9.6c1.9-2.5-0.2-5.8,1.9-8.2c1.9-2.2,3.9-2.9,6.8-3.4c1.2-0.2,2.6-0.4,3.8-0.7
				c2.5-0.5,3.6-1.8,5.6-2.7c2.1-1,5.7,0.4,8.2-0.6c2.2-0.8,4.4-0.6,6.8-1.1c1.4-0.3,3.7-2.5,4.7-3.5c-5.4-1.2-10.8,1.5-15.7-0.8
				c-3.2-1.5-4.3-2.4-8.2-1.3c-3.7,1-7.3,3-11.2,2.8c-3.3-0.1-4.6-2.5-7.6-2.9S31,62.8,28,63c-4.3,0.2-9.2-1.9-10.8-6.3
				c-1-2.7-0.1-5.4-1.7-8.2c-0.5-0.9-0.5-2.1-0.9-2.5L13.8,51z"/>
			<path class="st1" d="M13.8,49.7c-0.4,2-0.3,4.1-1.1,5.8c-2.4,5.1,0.1,3.1,1.9,8.5c1.1,3.3,0.9,3.8,4.6,4.7c2,0.5,1.3,3.9,3.1,5.2
				s2.1,3.8,2.8,5.8c0.9,2.6,1.2,5.7,2.4,7.8c1.5,2.7,0.4,7.1,1.7,9.8c1.4-4.8,2-9.9,1.7-14.9c-0.1-2.7,1-6.5,3.3-8.1
				c1.8,1.8,3.5-0.5,4.9-1.6c0.9,3.3,2,6.5,3.5,9.6c1.9-2.5-0.2-5.8,1.9-8.2c1.9-2.2,3.9-2.9,6.8-3.4c1.2-0.2,2.6-0.4,3.8-0.7
				c2.5-0.5,3.6-1.8,5.6-2.7c2.1-1,5.7,0.4,8.2-0.6c2.2-0.8,4.4-0.6,6.8-1.1c1.7-0.4,3.3-1.1,4.7-2.2c-5.4-1.2-10.8,0.2-15.7-2.1
				c-3.2-1.5-4.3-2.4-8.2-1.3c-3.7,1-7.3,3-11.2,2.8c-3.2-0.1-4.6-2.5-7.6-2.9S31,61.5,28,61.7c-4.3,0.2-9.2-1.9-10.8-6.3
				c-1-2.7-0.1-5.4-1.7-8.2c-0.5-0.9-0.2-2.1-0.7-2.4L13.8,49.7z"/>
			<path class="st0" d="M16.2,65.3c0.8,0.5,1.5,1.3,2.4,1.9c0.7,0.4,1.5,0.8,2.1,1.2c1.2,1.1,0.9,3,2.1,4.3c0.6,0.7,1.5,1.1,1.9,1.9
				c0.3,1,0.5,2.1,0.6,3.1c0.5,2.2,1.8,3.6,2.4,5.6c0.8,2.3,0.5,5.3,1.5,7.5c1.6-3.7,0.2-7.9,0.3-11.7c0.1-1.5,0.3-3.5,1.4-4.4
				c0.8-0.6,1.7-1.2,2.5-1.8c0.2,0.4,0.6,0.7,1.1,0.8c0.4-1.8-2.4-0.8-3-0.2c-1.2,1.1-2.1,3.4-3.4,4.2c-1.1-1.5-1.1-3-2.5-4.2
				c-1.1-1.2-2.1-2.5-2.9-3.9c-0.9-1.3-2.7-1.9-3.7-3.1c-0.5-0.6-0.4-0.8-1.2-1.1s-1,0.3-1.6-0.1c-0.2,0.5-0.4,0.1-0.8,0.4
				L16.2,65.3z"/>
			<path class="st0" d="M37,73.1c1.6-1.9,2.6-0.6,3.5,1.1c0.5,0.9,0.8,1.8,1,2.8c0.1,0.9-0.1,1.9,0.4,2.7c-0.1-1.4,0-2.8,0.3-4.2
				c0.3-1.2,1.7-2.1,1.5-3.3c-1.1-0.1-1.3,1-2.2,1.3c-0.6-0.8-1.5-1.4-2.5-1.7c-0.8-0.1-1.4,0.5-1.9,1.4L37,73.1z"/>
			<path class="st0" d="M46.8,71.1c0.5-1.2,2.9-1,4-1c1.3-0.1,2.5-0.3,3.7-0.8c2.1-0.7,3.7-2.5,5.8-3c1.1-0.3,2.3-0.2,3.4-0.4
				c1.5-0.3,1.2-0.6-0.3-0.7c-1.8-0.1-3.6,0.2-5.3,0.9c-1.5,0.7-2.6,2-4.2,2.5c-2.2,0.7-6.2,0.5-7.8,2.6c0.1-0.3,0.1-0.5,0.2-0.8
				L46.8,71.1z"/>
			<path class="st0" d="M25.1,65.6c0.8,0,1.7,0.2,2.4,0.6c1,0.4,2.2,0.5,3.2,1c0.7,0.4,1.4,0.7,2.2,0.7c1,0.1,1.9,0.6,2.9,0.7
				c1.9,0.1,5.2-0.3,6.6-1.8c-1.6-0.1-3.2,0.1-4.8,0.5c-1.8,0.6-3.3-0.1-5-0.8c-0.7-0.3-0.7-0.8-1.7-0.7c-0.7,0.1-1.4,0.4-2.1,0.4
				c-1.2,0.1-2.4,0.1-3.5,0L25.1,65.6z"/>
			<path class="st0" d="M69,65.3c1.8-0.2,4.2,0.3,5.6-0.8c-1.2-0.3-5.3-0.2-6,1L69,65.3z"/>
			<path class="st0" d="M14.5,48.8c-0.3,0.4-0.5,1-0.4,1.5c0,0.8-0.1,1.4-0.2,2.2c0,0.6,0,1.2,0,1.7c-0.1,0.3-0.2,0.6-0.3,0.9
				c0,0.2,0.3,0.3,0.2,0.6c-0.2,1.2-1.1,1.3-0.7,2.7c0.2,1.1,0.6,2.2,1.2,3.2c0.4,0.5,0.6,0.4,0.9,1c0.2,0.4,0.1,0.8,0.6,1
				c0.1-0.8,0.1-1.6-0.1-2.4c-0.2-0.5-0.8-0.7-1.2-1.2c-0.3-0.5-0.6-1.1-0.7-1.6c-0.1-0.8,0.4-1.3,0.6-2.1c0.2-1.2-0.3-2.6-0.3-3.8
				C14.2,51.3,14.3,50.1,14.5,48.8L14.5,48.8z"/>
			<path class="st0" d="M252.2,23.1c-8.6,0.4-17.1,1.3-25.6,1.9c-6.2,0.4-12.4,2-18.6,1c-4.8-0.7-9.2-3.6-13.9-4.1
				c-4.1-0.5-6,1.2-9.6,1.5s-7.5-1.1-10.9-2c-8.7-2.3-10.8-0.7-18.6,1c-2.1,0.3-4.2,0.2-6.2-0.4c-0.9-0.2-1.9-0.4-2.8-0.5
				s-1.7-0.3-2.6-0.5c-0.3-0.1-3.2,4.1-3.4,4c3.1,0.1,0,0,9.5,0.4c6.3,0.3,13.8-1.4,20.2-0.1c6.2,1.2,9.9-2.4,16.5,1.3
				c6.2,3.5,7.2-0.9,14.9,0.2c2.7,0.4,11.6,3.3,14.4,3c3-0.3,5.9-2.2,9.1-2.7c8-1.3,18.4,0.9,26.9,0.7h0.8L252.2,23.1z"/>
			<path class="st1" d="M254.1,19c-3.7,0.8-9.3-2.5-13.1-3c-6.3-0.9-11.9-4.4-18.2-3.7c-3.5,0.4-6.4,2.1-9.7,3
				c-14.8,3.9-30.9-9.2-45.8-5.5c-3,0.7-5.6,2.1-8.8,2.3c-4.2,0.3-7.1-0.9-11.1,0.5c-3.6,1.3-4.1,3.6-4.9,4
				c-3.1,1.6-3.1,7.1-2.7,8.4c3.2-0.4,4.6-2.2,6.3-2c1,0.1,1.6-0.4,2.6-0.2c2,0.5,4.1,0.7,6.2,0.4c7.8-1.7,9.9-3.3,18.6-1
				c3.4,0.9,7.1,2.4,10.9,2s5.6-2,9.6-1.5c4.7,0.5,9,3.4,13.9,4.1c6.2,0.9,12.4-0.6,18.6-1c8.4-0.6,17.1-2.7,25.6-3.4L254.1,19z"/>
			<path class="st1" d="M216.2,24.1c1.9,0.1,3.8,0.5,5.6,1c1.2,0.4,2.4,1.2,3.9,1s2.7-0.8,4.2-1c1.3-0.1,2.7,0.1,4,0.4
				c2.9,0.6,3.9,1.6,6.8,0.8s2.2-1.8,6.7-0.8s7.6,0.2,11.2,0.5c3.7,0.3,4.4,1.3,7.4,0.2c2.3-0.8,4.7-0.9,7-0.4
				c1.6,0.3,1.9,3.5,3.5,3.2c0.3-0.1,0.5-0.2,0.6-0.5c0.2-2.3-0.8-4.4-2.6-5.8c-1.9-1.4-2.6-0.9-5-1c-4.9-0.2-7.9-2.8-12.6-3.3
				c-4.2-0.5-5.5,1-9,1.8c-3.2,0.8-4.9-0.3-7.9-0.9c-3.2-0.6-4.8,0.3-7.9,0.4c-2.2,0-5.2-0.7-7.5-0.9c-3.2-0.2-6.4,0.1-9.5,0.9
				c-1.3,0.2-2.6,0.8-3.7,1.6c-0.1,0.1-0.1,0.2-0.2,0.3c0.3,0.4,0.5,1.3,1,1.6C213.3,24,214.9,23.9,216.2,24.1z"/>
			<path class="st0" d="M211.1,22.7c0.1,0.4,0.2,0.7,0.5,1c0.2,0.3,0.5,0.5,0.8,0.7c1.8,1.4,4.9,2.2,7.5,2.5
				c2.8,0.3,4.8,1.4,7.6,1.7c8.5,0.8,17.1,0.8,25.6-0.1c5.2-0.4,10.4,0,15.6-0.3c2.5-0.1,5,2.9,7.3,2c1-0.4,1.3-0.9,1.2-1.6
				c-0.1,0.2-0.4,0.4-0.6,0.5c-1.6,0.4-1.9-2.9-3.5-3.2c-2.3-0.5-4.7-0.4-7,0.4c-3,1-3.7,0-7.4-0.2s-6.8,0.6-11.2-0.5
				s-3.8-0.1-6.7,0.8s-3.8-0.2-6.8-0.8c-1.3-0.3-2.7-0.5-4-0.4c-1.5,0.2-2.7,0.8-4.2,1s-2.7-0.6-3.9-1c-1.8-0.5-3.7-0.9-5.6-1
				c-1.2-0.1-2.9-0.1-3.9-0.7c-0.5-0.4-0.7-1.2-1-1.6C211.1,22,211,22.3,211.1,22.7z"/>
			<path class="st0" d="M148.4,17c0.3-0.4,1.6-0.1,2.1,0c1.2,0.3,1.4,1.1,2.9,1.1l5.2-0.1c0.5,0,0.9,0,1.4-0.1
				c0.3-0.1,0.5-0.1,0.8-0.1c0.6,0.2,1.3,0.4,1.9,0.7c0.8,0.1,1.5,0.3,2.3,0.5c-0.4,0.1-0.6,0-0.9-0.1c-0.8,0-1.7,0.1-2.5,0.3
				c-1.3,0.1-2.7,0.2-4,0.1c-1,0-1.8,0.2-2.7,0.3c-2.2,0.1-4.3-0.5-6.1-1.7c-0.3-0.2-0.8-0.8-0.1-1c0.1,0,0.1,0,0.1,0.1L148.4,17z"
				/>
			<path class="st0" d="M183.5,18.4c0.2-0.8,2.1,0.5,0.1,0.3s-0.5-1.2,0.5-0.3L183.5,18.4z"/>
			<path class="st0" d="M261,21.7c-0.4-0.4-2.1-0.2-2.8-0.1c-1.5,0.3-2,1-3.8,1l-6.9-0.3c-0.7,0-1.2,0-1.9-0.1
				c-0.4-0.1-0.7-0.1-1.1-0.2c-0.8,0.1-1.7,0.4-2.5,0.7c-1,0.1-2,0.2-3,0.5c0.4,0.1,0.8,0.1,1.2,0c1.1,0,2.2,0.2,3.3,0.4
				c1.7,0.2,3.5,0.3,5.3,0.3c1.2,0,2.4,0.3,3.6,0.4c2.8,0.2,5.6-0.4,8.2-1.5c0.4-0.2,1.1-0.8,0.2-1c-0.1,0-0.1,0-0.2,0.1L261,21.7z"
				/>
			<path class="st0" d="M194.2,19c2.5-1.1,5.2-1.6,7.9-1.3c1.2,0.2,2.3,0.8,3.6,1c1.5,0.2,1.8-0.3,3.2-0.3c0.6,0,0.8,0.4,1.3,0.4
				c0.5,0,1.1-0.1,1.6-0.3c1.2-0.1,2.4-0.1,3.6-0.3c1.4-0.2,4.3-0.6,4.6,0.8c-2.2-0.3-4.3,0.4-6.5,0.7c-2.9,0.5-5.8,0.5-8.7,0
				c-0.9-0.2-1.7-0.8-2.8-0.6c-1.3,0.2-1.6,1-3.1,0.9c-1.5-0.1-2.9-0.4-4.3-0.9c0-0.1-0.4-0.2-0.4-0.2L194.2,19z"/>
			<path class="st0" d="M188.6,18.3c0.9-0.8,3.9,0.2,5-0.6c-1.4-0.4-4.8-0.7-5.5,0.5c0.2,0,0.4,0,0.7,0L188.6,18.3z"/>
			<path class="st0" d="M228.5,20.7c0.9,0,2.5-0.4,3,0.3c-0.9,0.7-2.4-0.3-3.2-0.3H228.5z"/>
			<path class="st0" d="M171.1,13.1c-0.4,0.4,0.7,0.4,0.5-0.1s-1.2,0-0.5,0.3L171.1,13.1z"/>
			<path class="st0" d="M176.4,17.5c-0.5-0.2-1.1,0.4-0.5,0.6c0.4,0.1,1.1,0,1.1-0.4s-1-0.3-1.2,0.1L176.4,17.5z"/>
			<path class="st0" d="M277,44.3c0,2.4,0.3,4.8,0.7,7.2c0.2,1.9,0.1,3.9-0.4,5.7c-0.1,0.3-0.2,0.7-0.3,1c0,0.4,0.1,0.8,0.1,1.2
				s-0.4,1-0.4,1.6s0,0.8,0,1.3c-0.2,1.4-2.1,3-3.1,4c-1.5,1.3-1.9,2.5-3.1,3.9c-3.9,4.9-2.4,5.2-3.8,6.8c-2.3,2.7-0.7,8.4-1.6,11.7
				c-1.4,5.2-0.4,0.1-2.7-2.9c-2.8-3.6,1.3-7.4-3.1-11c-1.1-0.9-4.3-3.5-5.8-3.2c-0.4,0.1-1.4,1.2-2,1.5c-1,0.5-3,4.1-3.4,3.1
				c-0.8-2.5-4.8-2.2-4.6-5.2c-1.5-0.2-2.3,1.5-3.8,1.6c-1.2,0.1-3.4-0.8-4.4-1.3c-2-1-4.7-7.8-6.9-7.8c2.8,0.1,6,2.1,8.8,1.6
				c1-0.2,2.8,0.5,3.7,0.3c0.9-0.4,1.8-0.8,2.8-1.1c0.5-0.1,2.9,1.1,3.6,1.2c1.9,0.3,2.8-0.2,4.5-0.6c0.9-0.3,1.7-0.4,2.6-0.5
				c1.7-0.1,2.7,0.8,4.4,0.9c2.4,0.2,5.4-1.1,7.8-1.5c1.9-0.2,3.7-1,5-2.5c1.5-1.4,3.2-2.7,3.9-4.7c0.6-1.7,0.4-3.3,1.1-4.9
				L277,44.3z"/>
			<path class="st1" d="M277.1,42.5c0.1,2.4,0.3,4.8,0.7,7.2c0.2,1.9,0.1,3.9-0.4,5.7c-0.1,0.3-0.2,0.7-0.3,1c0,0.4,0.1,0.8,0.1,1.2
				s-0.4,1-0.4,1.6s0,0.8,0,1.3c-0.2,1.4-2.1,3-3.1,4c-1.5,1.3-1.9,2.5-3.1,3.9c-3.9,4.9-2.4,5.2-3.8,6.8c-2.3,2.7-0.7,8.4-1.6,11.7
				c-1.4,5.2-0.4,0.1-2.7-2.9c-2.8-3.6,1.3-7.4-3.1-11c-1.1-0.9-4.3-3.5-5.8-3.2c-0.4,0.1-1.4,1.2-2,1.5c-1,0.5-3,4.1-3.4,3.1
				c-0.8-2.5-4.8-2.2-4.6-5.2c-1.5-0.2-2.3,1.5-3.8,1.6c-1.2,0.1-3.4-0.8-4.4-1.3c-2-1-4.7-5.9-6.9-5.9c2.2,0.1,4.5,0.1,6.8,0
				c0.9-0.1,1.7-0.2,2.6-0.3c1.1,0,2.1,0.5,3.1,0.3c1.3-0.3,2.2-1.3,3.6-0.9c1.7,0.5,3,1.2,4.9,1c1.6-0.4,3.2-0.6,4.8-0.8
				c1.8,0,3.5,0.5,5.3,0.5c4.1,0.2,9-0.9,12-3.8c1.5-1.4,3.2-2.7,3.9-4.7c0.6-1.7,0.4-3.3,1.1-4.9L277.1,42.5z"/>
			<path class="st0" d="M234.7,67.9c1.4,1.9,5.6,3.1,7.1,0.8c-1.5,0-2.6,0.5-4.1,0.3c-1-0.2-2.1-0.8-2.9-0.8L234.7,67.9z"/>
			<path class="st0" d="M244.2,69.4c0.8,0.8,1.7,1.5,2.7,2.2c0.5,0.3,0.6,0.2,0.9,0.7c0.2,0.4,0.3,0.9,0.6,1.2
				c0.4-0.8,0.8-1.5,1.3-2.2c0.6-0.6,1.3-1.1,2.1-1.4c1.2-0.6,2.5-0.7,3.8-0.4c-1.3-2-5.1,0.6-6.3,1.4c-1.1,0.7-1.4,0-2.5-0.6
				c-0.6-0.3-1.9-0.4-2.3-1l0.2,0.1L244.2,69.4z"/>
			<path class="st0" d="M257.5,70.5c1.5,0.9,2.9,2.2,4,3.6c0.6,1.1,0.9,2.3,0.9,3.5c0.1,1.2-0.1,2.4-0.1,3.6s0.4,1.4,1.1,2.4
				s0.5,2,1,3c-0.2-1.2,0.1-2.9,0-4.2c-0.3-1.5-0.3-3-0.1-4.4c0.5-1.5,1.1-2.9,1.9-4.3c0.3-0.6,0.6-1.3,0.8-1.9
				c0.1-0.5,0.3-1,0.6-1.5c0.3-0.3,0.7-0.4,1-0.7s0.3-0.8,0.5-1c0.6-0.8,1.5-1.3,2.2-2.1c0.6-1,1.4-1.9,2.2-2.7
				c0.8-0.7,1.5-1.6,1.9-2.6c0.3-0.6,0.5-1.1,0.7-1.8c0.1-0.6,0.1-1.3,0-1.9c0.1-1.2,0.6-2.2,0.4-3.4c-1.1,2.2-0.8,4.9-2,7.1
				c-0.7,1.3-1.5,2.6-2.5,3.7c-0.9,0.8-1.8,1.7-2.5,2.7c-0.5,0.8-0.8,1.8-1.3,2.5c-0.7,0.9-1.8,0.9-2.6,1.7c-0.4,0.4-0.8,1-0.9,1.6
				c-0.1,0.4,0,1.2-0.4,1.4s-0.3-0.1-0.6-0.3s-0.4-0.4-0.6-0.5s-0.9-0.2-1.2-0.4s-0.6-1.1-1-1.5c-0.4-0.5-0.9-0.8-1.4-1
				c-0.4-0.2-1.4-0.6-1.6-0.2L257.5,70.5z"/>
			<path class="st0" d="M254.5,65.6c0.9,0,1.8,0.1,2.6,0.4c1.1,0.2,1.2,1.1,2.3,0.8c0.9-0.3,1.7-0.7,2.5-1.2
				c0.9-0.3,1.9-0.5,2.9-0.4c0.4,0,1.9,0,2.2-0.4c0.5-0.8-1.8-0.4-2.1-0.4c-1.1,0.1-2.1,0.5-3,1c-0.8,0.4-1.7,0.6-2.6,0.6
				c-0.9,0-1.8-0.2-2.7-0.2c-0.7,0-1.5,0.3-2.1-0.1c-0.2,0-0.1,0.1-0.1,0.2L254.5,65.6z"/>
			<path class="st0" d="M239.9,65.6c0.3-0.3,1.1-0.3,1.5-0.4c0.8,0,0.8,0.2,1.4,0.4c0.8,0.1,1.7,0.1,2.6,0c-0.1-0.6-2.3-0.2-2.9-0.2
				c-0.5,0.1-1,0.2-1.4,0.3c-0.7,0.1-1.1-0.2-1.7-0.3L239.9,65.6z"/>
			<path class="st1" d="M72.6,22.4c2.2,0.1,4.5,0.5,6.6,1.1c1.4,0.5,2.9,1.4,4.6,1.1s3.2-1,4.9-1.2c1.6-0.1,3.2,0,4.8,0.4
				c3.5,0.6,4.7,1.9,8,0.8s2.6-2.2,7.9-1s9,0.1,13.3,0.3s5.2,1.4,8.8,0.1c2.7-1,5.5-1.2,8.3-0.6c1.7,0.3,3.5,0.3,5.2-0.1
				c0.3-0.1,0.6-0.3,0.8-0.6c-0.3-1.2-1.1-2.3-2.2-3c-2.2-1.6-5-1-7.9-1.1c-5.9-0.1-9.4-3.2-15-3.7c-5-0.5-6.5,1.3-10.6,2.3
				c-3.8,1-5.8-0.3-9.4-0.9c-3.8-0.6-5.7,0.4-9.3,0.6c-2.6,0.1-6.2-0.8-8.9-0.9c-3.8-0.1-7.5,0.3-11.2,1.2c-1.6,0.4-3.4,1-4.3,2
				c-0.1,0.1-0.2,0.2-0.2,0.3c0.3,0.5,0.6,1.5,1.2,1.9C69.1,22.4,71.1,22.2,72.6,22.4z"/>
			<path class="st0" d="M66.5,20.8c0.1,0.4,0.3,0.9,0.6,1.2c0.3,0.3,0.6,0.6,0.9,0.8c2.2,1.6,5.9,2.5,9,2.8c3.3,0.3,5.8,1.6,9,1.9
				c10.4,1,19.9,0.5,30.3-0.5c6.1-0.6,12.4-0.3,18.5-0.6c3-0.2,6.9-0.5,9.6-1.5c1.1-0.4,1.5-1.1,1.4-1.9c-0.2,0.3-0.4,0.5-0.8,0.6
				c-1.7,0.4-3.5,0.4-5.2,0.1c-2.8-0.6-5.7-0.4-8.3,0.6c-3.6,1.3-4.4,0.1-8.8-0.1s-8,0.9-13.3-0.3s-4.5,0-7.9,1s-4.6-0.2-8-0.8
				c-1.6-0.4-3.2-0.5-4.8-0.4c-1.7,0.2-3.2,1-4.9,1.2s-3.2-0.6-4.7-1.1c-2.2-0.6-4.4-1-6.6-1.1c-1.5-0.1-3.4,0-4.6-0.8
				c-0.7-0.4-0.9-1.4-1.2-1.9C66.5,20,66.4,20.4,66.5,20.8z"/>
			<path class="st0" d="M78.8,19.7c2.9-1.3,6.1-1.9,9.3-1.7c1.5,0.2,2.7,0.9,4.2,1.1c1.8,0.3,2.1-0.4,3.8-0.5c0.7,0,0.9,0.4,1.6,0.4
				c0.6-0.1,1.3-0.2,1.9-0.4c1.4-0.2,2.8-0.2,4.2-0.4c1.6-0.3,5.1-0.9,5.5,0.9c-2.6-0.3-5.1,0.5-7.7,1c-3.1,0.5-7.3,0.9-10.3,0.1
				c-1.1-0.3-2-0.9-3.3-0.7c-1.6,0.2-1.8,1.2-3.7,1.1c-1.7-0.1-3.4-0.4-5.1-1C79.2,19.7,78.8,19.6,78.8,19.7L78.8,19.7z"/>
			<path class="st0" d="M72.1,19c1-1,4.6,0.2,5.9-0.9c-1.7-0.4-5.8-0.7-6.5,0.7c0.3,0,0.5,0,0.8,0L72.1,19z"/>
			<path class="st0" d="M119.4,21.1c1-0.7,3-0.6,3.6,0.3c-1.1,0.9-2.8-0.3-3.8-0.3H119.4z"/>
		</g>
	</g>
</g>
</svg>
